<?xml version="1.0" encoding="UTF-8" standalone="no"?>
<!-- Created with Inkscape (http://www.inkscape.org/) -->

<svg
   xmlns:dc="http://purl.org/dc/elements/1.1/"
   xmlns:cc="http://creativecommons.org/ns#"
   xmlns:rdf="http://www.w3.org/1999/02/22-rdf-syntax-ns#"
   xmlns:svg="http://www.w3.org/2000/svg"
   xmlns="http://www.w3.org/2000/svg"
   xmlns:sodipodi="http://sodipodi.sourceforge.net/DTD/sodipodi-0.dtd"
   xmlns:inkscape="http://www.inkscape.org/namespaces/inkscape"
   width="64"
   height="64"
   viewBox="0 0 64 64"
   id="svg5437"
   version="1.1"
   inkscape:version="0.91 r"
   sodipodi:docname="swipe.svg">
  <defs
     id="defs5439" />
  <sodipodi:namedview
     id="base"
     pagecolor="#ffffff"
     bordercolor="#666666"
     borderopacity="1.0"
     inkscape:pageopacity="0.0"
     inkscape:pageshadow="2"
     inkscape:zoom="2.8"
     inkscape:cx="87.876623"
     inkscape:cy="19.592701"
     inkscape:document-units="px"
     inkscape:current-layer="layer1"
     showgrid="false"
     fit-margin-top="0"
     fit-margin-left="0"
     fit-margin-right="0"
     fit-margin-bottom="0"
     inkscape:window-width="1920"
     inkscape:window-height="1016"
     inkscape:window-x="1440"
     inkscape:window-y="27"
     inkscape:window-maximized="1"
     units="px" />
  <metadata
     id="metadata5442">
    <rdf:RDF>
      <cc:Work
         rdf:about="">
        <dc:format>image/svg+xml</dc:format>
        <dc:type
           rdf:resource="http://purl.org/dc/dcmitype/StillImage" />
        <dc:title></dc:title>
      </cc:Work>
    </rdf:RDF>
  </metadata>
  <g
     inkscape:label="Ebene 1"
     inkscape:groupmode="layer"
     id="layer1"
     transform="translate(-195.58173,-397.73027)">
    <g
       id="g5519"
       transform="matrix(0.60389103,0,0,0.60389103,77.471676,178.98303)">
      <g
         transform="matrix(1.25,0,0,-1.25,289.31443,402.93341)"
         id="g1006">
        <path
           inkscape:connector-curvature="0"
           id="path1008"
           style="fill:none;stroke:#373737;stroke-width:2;stroke-linecap:round;stroke-linejoin:miter;stroke-miterlimit:10;stroke-dasharray:none;stroke-opacity:1"
           d="m 0,0 c 0,0 8.792,0.909 8.792,-5.085 l 0,-8.581 c 0,0 0.334,-17.299 -6.749,-27.787 l -26.561,0 c 0,0 -24.246,31.874 -4.086,32.691 l 0,28.877 c 0,0 0,6.265 6.265,6.265 6.266,0 6.13,-6.129 6.13,-6.129 l 0,-29.013" />
      </g>
      <g
         transform="matrix(1.25,0,0,-1.25,293.32693,461.73028)"
         id="g1010">
        <path
           inkscape:connector-curvature="0"
           id="path1012"
           style="fill:#373737;fill-opacity:1;fill-rule:nonzero;stroke:none"
           d="m 0,0 -27.708,0 c -0.939,0 -1.708,0.769 -1.708,1.708 l 0,2.168 c 0,0.94 0.769,1.709 1.708,1.709 L 0,5.585 c 0.94,0 1.708,-0.769 1.708,-1.709 l 0,-2.168 C 1.708,0.769 0.94,0 0,0" />
      </g>
      <g
         id="g5497">
        <g
           id="g994"
           transform="matrix(1.25,0,0,-1.25,253.55905,413.88616)">
          <path
             d="M 0,0 0,-7.9"
             style="fill:none;stroke:#373737;stroke-width:2;stroke-linecap:round;stroke-linejoin:miter;stroke-miterlimit:10;stroke-dasharray:none;stroke-opacity:1"
             id="path996"
             inkscape:connector-curvature="0" />
        </g>
        <g
           id="g998"
           transform="matrix(1.25,0,0,-1.25,269.05342,391.75191)">
          <path
             d="m 0,0 c 0,0 8.309,0.255 8.309,-5.465 l 0,-12.532"
             style="fill:none;stroke:#373737;stroke-width:2;stroke-linecap:round;stroke-linejoin:miter;stroke-miterlimit:10;stroke-dasharray:none;stroke-opacity:1"
             id="path1000"
             inkscape:connector-curvature="0" />
        </g>
        <g
           id="g1002"
           transform="matrix(1.25,0,0,-1.25,279.12905,396.60679)">
          <path
             d="m 0,0 c 0,0 8.148,2.386 8.148,-3.608 l 0,-10.216"
             style="fill:none;stroke:#373737;stroke-width:2;stroke-linecap:round;stroke-linejoin:miter;stroke-miterlimit:10;stroke-dasharray:none;stroke-opacity:1"
             id="path1004"
             inkscape:connector-curvature="0" />
        </g>
        <g
           id="g1014"
           transform="matrix(1.25,0,0,-1.25,270.49018,418.82391)">
          <path
             d="m 0,0 c 0,-0.635 -0.515,-1.149 -1.149,-1.149 -0.635,0 -1.15,0.514 -1.15,1.149 0,0.635 0.515,1.149 1.15,1.149 C -0.515,1.149 0,0.635 0,0"
             style="fill:#373737;fill-opacity:1;fill-rule:nonzero;stroke:none"
             id="path1016"
             inkscape:connector-curvature="0" />
        </g>
        <g
           id="g1018"
           transform="matrix(1.25,0,0,-1.25,280.87592,418.82391)">
          <path
             d="m 0,0 c 0,-0.635 -0.515,-1.149 -1.149,-1.149 -0.635,0 -1.15,0.514 -1.15,1.149 0,0.635 0.515,1.149 1.15,1.149 C -0.515,1.149 0,0.635 0,0"
             style="fill:#373737;fill-opacity:1;fill-rule:nonzero;stroke:none"
             id="path1020"
             inkscape:connector-curvature="0" />
        </g>
        <g
           id="g1022"
           transform="matrix(1.25,0,0,-1.25,290.7513,418.82391)">
          <path
             d="m 0,0 c 0,-0.635 -0.515,-1.149 -1.149,-1.149 -0.635,0 -1.15,0.514 -1.15,1.149 0,0.635 0.515,1.149 1.15,1.149 C -0.515,1.149 0,0.635 0,0"
             style="fill:#373737;fill-opacity:1;fill-rule:nonzero;stroke:none"
             id="path1024"
             inkscape:connector-curvature="0" />
        </g>
        <g
           id="g1026"
           transform="matrix(1.25,0,0,-1.25,198.08142,400.78779)">
          <path
             d="M 0,0 32.556,0"
             style="fill:none;stroke:#373737;stroke-width:2;stroke-linecap:round;stroke-linejoin:miter;stroke-miterlimit:10;stroke-dasharray:none;stroke-opacity:1"
             id="path1028"
             inkscape:connector-curvature="0" />
        </g>
        <g
           id="g1030"
           transform="matrix(1.25,0,0,-1.25,233.7528,393.65291)">
          <path
             d="m 0,0 5.678,-5.47 -5.946,-5.946"
             style="fill:none;stroke:#373737;stroke-width:2;stroke-linecap:round;stroke-linejoin:round;stroke-miterlimit:10;stroke-dasharray:none;stroke-opacity:1"
             id="path1032"
             inkscape:connector-curvature="0" />
        </g>
        <g
           id="g1034"
           transform="matrix(1.25,0,0,-1.25,242.10055,384.39766)">
          <path
             d="M 0,0 -34.556,0"
             style="fill:none;stroke:#373737;stroke-width:2;stroke-linecap:round;stroke-linejoin:miter;stroke-miterlimit:10;stroke-dasharray:none;stroke-opacity:1"
             id="path1036"
             inkscape:connector-curvature="0" />
        </g>
        <g
           id="g1038"
           transform="matrix(1.25,0,0,-1.25,203.92918,377.26278)">
          <path
             d="m 0,0 -5.678,-5.47 5.946,-5.946"
             style="fill:none;stroke:#373737;stroke-width:2;stroke-linecap:round;stroke-linejoin:round;stroke-miterlimit:10;stroke-dasharray:none;stroke-opacity:1"
             id="path1040"
             inkscape:connector-curvature="0" />
        </g>
      </g>
    </g>
  </g>
</svg>
