<?xml version="1.0" standalone="no"?>
<!DOCTYPE svg PUBLIC "-//W3C//DTD SVG 20010904//EN"
 "http://www.w3.org/TR/2001/REC-SVG-20010904/DTD/svg10.dtd">
<svg version="1.0" xmlns="http://www.w3.org/2000/svg"
 width="606.000000pt" height="606.000000pt" viewBox="0 0 606.000000 606.000000"
 preserveAspectRatio="xMidYMid meet">
<metadata>
Created by potrace 1.11, written by Peter Selinger 2001-2013
</metadata>
<g transform="translate(0.000000,606.000000) scale(0.100000,-0.100000)"
fill="#000000" stroke="none">
<path d="M2839 5996 c-2 -2 -31 -6 -65 -8 -33 -3 -67 -8 -74 -13 -9 -6 -11 -4
-5 5 5 8 4 11 -2 7 -6 -4 -28 -9 -49 -12 -22 -3 -51 -8 -66 -11 -15 -3 -42 -7
-60 -9 -18 -3 -44 -7 -58 -10 -14 -3 -36 -8 -50 -11 -14 -3 -34 -7 -45 -9 -11
-3 -29 -7 -40 -9 -82 -17 -335 -96 -400 -125 -11 -5 -60 -26 -110 -47 -338
-144 -722 -409 -954 -658 -129 -138 -133 -143 -203 -231 -62 -78 -158 -212
-158 -220 0 -3 -5 -11 -10 -18 -61 -72 -197 -333 -268 -512 -55 -141 -55 -139
-58 -150 -1 -5 -9 -30 -17 -55 -44 -131 -88 -311 -101 -414 -2 -11 -6 -32 -9
-46 -6 -26 -13 -78 -25 -200 -8 -81 -7 -466 1 -540 11 -106 23 -188 27 -200 1
-3 2 -9 1 -13 -1 -7 21 -121 35 -180 2 -9 6 -26 9 -37 2 -12 14 -55 25 -98 12
-42 23 -84 25 -92 2 -8 4 -16 5 -17 2 -2 3 -6 4 -10 5 -23 80 -220 104 -273 9
-19 17 -37 17 -40 4 -27 134 -269 191 -357 19 -28 34 -56 34 -62 0 -6 4 -11 8
-11 5 0 19 -19 32 -41 12 -23 30 -49 39 -58 9 -9 25 -30 36 -47 20 -31 50 -69
130 -162 45 -53 249 -258 310 -313 22 -19 83 -68 135 -107 52 -39 101 -77 108
-83 21 -18 196 -127 265 -165 168 -93 353 -173 537 -234 101 -33 116 -35 127
-22 7 8 10 18 8 22 -2 4 -4 103 -4 221 -1 118 -1 264 -1 324 l0 110 -37 30
c-97 79 -194 191 -260 300 -23 38 -81 161 -88 188 -2 4 -4 9 -5 12 -1 3 -3 8
-5 13 -1 4 -4 14 -7 22 -19 51 -44 151 -53 215 -2 11 -4 20 -5 20 -3 0 -7 30
-15 100 -4 39 -9 86 -11 105 -5 43 -4 508 1 570 5 67 15 129 26 156 5 14 8 28
7 32 -4 16 57 122 86 150 63 61 122 83 230 86 44 1 49 3 52 26 31 273 217 462
458 462 37 0 44 3 41 18 -2 9 -6 35 -10 56 -3 22 -8 50 -10 64 -2 14 -13 84
-25 155 -11 72 -23 141 -25 155 -23 140 -35 211 -40 240 -3 19 -8 51 -11 70
-2 19 -7 51 -10 70 -3 19 -8 46 -10 60 -2 14 -7 41 -10 60 -3 19 -8 46 -10 60
-2 14 -6 39 -9 55 -2 17 -7 48 -10 70 -3 22 -8 49 -10 61 -3 12 -7 39 -10 60
-4 21 -8 50 -11 64 -2 14 -7 43 -10 65 -3 22 -9 53 -14 68 -6 17 -6 25 0 22 6
-4 6 3 0 19 -5 14 -11 49 -14 78 -10 126 89 226 260 260 162 33 307 -16 352
-121 17 -39 19 -48 26 -101 3 -19 5 -35 6 -35 1 0 3 -13 5 -30 4 -37 12 -93
25 -165 5 -30 11 -71 14 -90 6 -38 13 -80 21 -120 3 -14 7 -43 10 -65 3 -22 7
-51 10 -65 5 -25 8 -39 25 -145 5 -33 12 -78 16 -100 4 -22 8 -49 10 -60 2
-11 5 -31 7 -45 3 -14 14 -81 26 -150 12 -69 28 -154 36 -190 8 -36 16 -78 19
-95 3 -16 7 -41 10 -55 3 -14 8 -34 10 -45 34 -158 53 -215 71 -208 8 2 13 8
12 11 -1 4 3 21 9 37 7 17 17 50 24 75 7 25 15 52 18 60 2 8 6 24 7 36 2 12
10 50 19 85 17 74 43 191 50 234 3 17 8 41 11 55 3 14 8 41 11 60 3 19 8 38 9
41 2 3 7 28 11 55 3 27 8 51 9 54 2 3 6 24 9 46 4 22 9 51 11 64 3 14 8 41 11
60 3 19 8 44 12 55 3 11 7 29 8 40 6 50 13 93 23 135 5 25 26 140 46 255 39
231 45 250 83 293 140 156 494 91 578 -105 15 -36 15 -115 0 -203 -3 -14 -7
-45 -10 -70 -4 -25 -8 -56 -11 -70 -2 -14 -9 -54 -15 -90 -5 -36 -12 -76 -14
-90 -3 -14 -7 -43 -10 -65 -3 -22 -8 -51 -11 -65 -2 -13 -7 -42 -10 -65 -6
-43 -23 -144 -31 -185 -3 -14 -7 -41 -10 -60 -6 -41 -32 -204 -39 -240 -2 -14
-7 -41 -9 -60 -3 -19 -12 -75 -21 -125 -9 -49 -18 -101 -20 -115 -5 -29 -44
-262 -50 -300 -12 -66 -35 -218 -38 -244 -5 -44 12 -124 35 -170 11 -22 43
-61 72 -88 118 -112 158 -155 180 -193 23 -39 56 -135 63 -185 2 -14 5 -41 8
-60 14 -93 9 -319 -9 -405 -22 -107 -44 -187 -71 -255 -18 -47 -28 -74 -30
-80 0 -3 -21 -43 -44 -90 -72 -141 -155 -255 -261 -359 l-55 -55 -1 -383 c0
-211 0 -383 0 -383 1 0 17 5 36 11 19 5 42 12 50 14 36 8 263 101 360 148 223
107 472 269 650 423 124 107 359 355 420 443 14 20 30 41 36 46 20 19 64 84
64 94 0 6 4 11 8 11 4 0 17 14 27 32 11 17 29 46 40 64 51 82 118 203 163 297
47 96 121 271 126 299 2 7 8 27 15 43 17 41 77 261 97 353 17 82 20 103 29
167 3 22 7 56 10 75 20 139 27 494 12 645 -4 39 -9 92 -12 118 -3 27 -7 61
-11 75 -3 15 -8 43 -11 62 -7 47 -47 218 -72 310 -66 242 -224 593 -352 781
-21 32 -39 60 -39 63 0 3 -6 14 -14 23 -8 10 -45 59 -83 109 -103 138 -138
178 -268 310 -140 142 -184 181 -340 298 -33 25 -71 54 -84 66 -13 11 -30 20
-37 20 -7 0 -14 4 -16 8 -3 9 -116 80 -187 119 -170 94 -395 194 -516 230 -27
8 -54 18 -60 21 -5 4 -14 7 -20 8 -5 1 -37 10 -70 19 -64 18 -216 54 -250 60
-11 1 -36 6 -55 9 -19 4 -46 8 -60 11 -14 2 -54 7 -90 11 -36 3 -74 8 -85 11
-25 6 -470 14 -476 9z"/>
</g>
</svg>
