<?xml version="1.0" encoding="UTF-8" standalone="no"?>
<svg
   xmlns:dc="http://purl.org/dc/elements/1.1/"
   xmlns:cc="http://creativecommons.org/ns#"
   xmlns:rdf="http://www.w3.org/1999/02/22-rdf-syntax-ns#"
   xmlns:svg="http://www.w3.org/2000/svg"
   xmlns="http://www.w3.org/2000/svg"
   id="svg2"
   version="1.1"
   xml:space="preserve"
   width="250"
   height="250"
   viewBox="0 0 250 250"><metadata
     id="metadata8"><rdf:RDF><cc:Work
         rdf:about=""><dc:format>image/svg+xml</dc:format><dc:type
           rdf:resource="http://purl.org/dc/dcmitype/StillImage" /><dc:title></dc:title></cc:Work></rdf:RDF></metadata><defs
     id="defs6" /><g
     id="g10"
     transform="matrix(0.42815345,0,0,-0.42815345,-49.32242,276.08857)"><path
       d="m 479.77376,417.6713 -12.18021,0 -0.3737,0.28903 -25.09614,0 c -3.22898,14.46327 -8.71767,27.80253 -17.50833,35.5626 -4.23037,3.73698 -13.40057,8.74102 -22.52113,6.43461 -17.22513,-4.34716 -25.96615,-21.38836 -30.36586,-41.99721 l -11.02409,0 -0.67732,-0.28903 -25.0436,0 c -0.57514,-0.18685 -0.93716,-0.59267 -0.91672,-1.37801 -3.08301,-56.98016 -5.72225,-114.40116 -9.19355,-170.9901 54.69709,0.30655 110.62038,-0.6131 164.55257,0.45836 -3.78077,56.73784 -5.67846,115.36168 -9.65192,171.90975 m -46.50786,0.28903 -52.93954,0 c 2.14584,9.16727 5.30183,17.47913 9.35704,23.15174 4.86975,6.81707 14.41364,13.82682 23.90206,9.65484 11.08831,-4.87851 16.43686,-18.13894 19.68044,-32.80658 m 20.76651,-30.6257 c -1.52691,5.00988 -7.13238,5.52372 -8.73227,9.19355 -0.85542,1.96483 -0.55179,6.04047 -0.91965,8.73226 -0.2102,1.54734 -0.44668,3.09761 -0.70068,4.64495 0,0 20.31398,-0.96636 28.28133,-0.96636 2.92244,-51.62285 5.46533,-103.62523 8.27099,-155.36194 -48.56612,0.30655 -98.36427,-0.6131 -146.16547,0.45836 3.15307,51.39221 4.7734,104.31424 8.73226,154.90358 7.50607,0 27.35877,0.44085 27.35877,0.44085 -0.69485,-4.51649 -1.22036,-9.13516 -1.61741,-13.77135 -14.05162,-3.81873 -10.28253,-28.74554 7.35425,-25.28007 6.30907,1.23787 11.82988,8.35565 9.19063,17.00617 -1.36341,4.48145 -6.74407,5.31059 -7.81262,9.19355 -0.78826,2.8582 0.70069,8.59504 1.37802,12.86921 l 0.009,0.0438 56.19189,0.39997 c 0.83498,-4.80844 1.52106,-9.62856 2.17504,-14.23263 -4.25374,-3.37788 -6.60103,-4.29169 -7.81262,-8.2739 -6.65942,-21.84089 31.64461,-22.38684 24.81878,0"
       style="fill:#404041;fill-opacity:1;fill-rule:nonzero;stroke:none"
       id="path222" /><path
       d="m 373.50716,378.60002 c 4.47269,0.70361 4.38511,10.62412 -2.29766,8.27391 -5.36023,-1.88309 -2.14293,-8.97167 2.29766,-8.27391 m 63.89064,5.51789 c -1.67872,-8.5717 10.22706,-6.42877 8.2739,0.46128 -0.53427,1.88308 -1.95315,3.54721 -5.51496,2.29474 -2.19255,-0.77076 -2.61588,-2.02323 -2.75894,-2.75602"
       style="fill:#ffffff;fill-opacity:1;fill-rule:nonzero;stroke:none"
       id="path226" /></g></svg>