<?xml version="1.0" encoding="UTF-8" standalone="no"?>
<svg
   xmlns:dc="http://purl.org/dc/elements/1.1/"
   xmlns:cc="http://creativecommons.org/ns#"
   xmlns:rdf="http://www.w3.org/1999/02/22-rdf-syntax-ns#"
   xmlns:svg="http://www.w3.org/2000/svg"
   xmlns="http://www.w3.org/2000/svg"
   xmlns:sodipodi="http://sodipodi.sourceforge.net/DTD/sodipodi-0.dtd"
   xmlns:inkscape="http://www.inkscape.org/namespaces/inkscape"
   id="svg2"
   version="1.1"
   xml:space="preserve"
   width="250"
   height="250"
   viewBox="0 0 250 250"
   inkscape:version="0.91 r"
   sodipodi:docname="api.svg"><sodipodi:namedview
     pagecolor="#ffffff"
     bordercolor="#666666"
     borderopacity="1"
     objecttolerance="10"
     gridtolerance="10"
     guidetolerance="10"
     inkscape:pageopacity="0"
     inkscape:pageshadow="2"
     inkscape:window-width="1440"
     inkscape:window-height="863"
     id="namedview8"
     showgrid="false"
     inkscape:zoom="5.3400704"
     inkscape:cx="115.08813"
     inkscape:cy="119.29271"
     inkscape:window-x="5280"
     inkscape:window-y="0"
     inkscape:window-maximized="1"
     inkscape:current-layer="g10" /><metadata
     id="metadata8"><rdf:RDF><cc:Work
         rdf:about=""><dc:format>image/svg+xml</dc:format><dc:type
           rdf:resource="http://purl.org/dc/dcmitype/StillImage" /><dc:title /></cc:Work></rdf:RDF></metadata><defs
     id="defs6" /><g
     id="g10"
     transform="matrix(0.42815345,0,0,-0.42815345,-49.32242,276.08857)"><path
       d="m 479.77376,417.6713 -12.18021,0 -0.3737,0.28903 -25.09614,0 c -3.22898,14.46327 -8.71767,27.80253 -17.50833,35.5626 -4.23037,3.73698 -13.40057,8.74102 -22.52113,6.43461 -17.22513,-4.34716 -25.96615,-21.38836 -30.36586,-41.99721 l -11.02409,0 -0.67732,-0.28903 -25.0436,0 c -0.57514,-0.18685 -0.93716,-0.59267 -0.91672,-1.37801 -3.08301,-56.98016 -5.72225,-114.40116 -9.19355,-170.9901 54.69709,0.30655 110.62038,-0.6131 164.55257,0.45836 -3.78077,56.73784 -5.67846,115.36168 -9.65192,171.90975 m -46.50786,0.28903 -52.93954,0 c 2.14584,9.16727 5.30183,17.47913 9.35704,23.15174 4.86975,6.81707 14.41364,13.82682 23.90206,9.65484 11.08831,-4.87851 16.43686,-18.13894 19.68044,-32.80658 m 20.76651,-30.6257 c -1.52691,5.00988 -7.13238,5.52372 -8.73227,9.19355 -0.85542,1.96483 -0.55179,6.04047 -0.91965,8.73226 -0.2102,1.54734 -0.44668,3.09761 -0.70068,4.64495 0,0 20.31398,-0.96636 28.28133,-0.96636 2.92244,-51.62285 5.46533,-103.62523 8.27099,-155.36194 -48.56612,0.30655 -98.36427,-0.6131 -146.16547,0.45836 3.15307,51.39221 4.7734,104.31424 8.73226,154.90358 7.50607,0 27.35877,0.44085 27.35877,0.44085 -0.69485,-4.51649 -1.22036,-9.13516 -1.61741,-13.77135 -14.05162,-3.81873 -10.28253,-28.74554 7.35425,-25.28007 6.30907,1.23787 11.82988,8.35565 9.19063,17.00617 -1.36341,4.48145 -6.74407,5.31059 -7.81262,9.19355 -0.78826,2.8582 0.70069,8.59504 1.37802,12.86921 l 0.009,0.0438 56.19189,0.39997 c 0.83498,-4.80844 1.52106,-9.62856 2.17504,-14.23263 -4.25374,-3.37788 -6.60103,-4.29169 -7.81262,-8.2739 -6.65942,-21.84089 31.64461,-22.38684 24.81878,0"
       style="fill:#1e88e5;fill-opacity:1;fill-rule:nonzero;stroke:none"
       id="path222" /><path
       style="fill:#c62828;fill-opacity:1;fill-rule:nonzero;stroke:#c62828;stroke-opacity:1"
       d="m 407.19679,460.32255 c -1.6807,0.025 -3.39448,-0.15145 -5.10459,-0.5839 -17.22513,-4.34717 -25.96324,-21.38654 -30.36295,-41.99539 l -0.0593,0 -1.62397,-8.58064 0.10947,0 c -0.69485,-4.51649 -1.21784,-9.1357 -1.61484,-13.77188 -14.05162,-3.81873 -10.28328,-28.74664 7.3535,-25.28117 6.30907,1.23787 11.83116,8.35565 9.19192,17.00617 -1.36341,4.48145 -6.74571,5.30893 -7.81425,9.19191 -0.78827,2.8582 0.7003,8.59904 1.37763,12.87323 l 0.009,0.041 0.009,0 1.66048,8.58521 0.0182,0.005 c 2.14552,9.13975 5.29294,17.42414 9.33789,23.08241 3.95667,5.53887 10.99795,11.2057 18.58909,10.89799 1.7518,-0.071 3.53079,-0.4631 5.30987,-1.24535 11.08831,-4.87851 16.44034,-18.13584 19.68392,-32.80348 l -0.14142,0 1.68328,-8.11989 0.0411,0 c 0.83498,-4.80844 1.52197,-9.62856 2.17595,-14.23263 -4.25374,-3.37788 -6.60268,-4.29279 -7.81426,-8.275 -6.65943,-21.84089 31.64625,-22.38684 24.82042,0 -1.5269,5.00988 -7.13127,5.52208 -8.73116,9.19191 -0.85542,1.96483 -0.55361,6.04393 -0.92147,8.73572 -0.21021,1.54735 -0.44396,3.09651 -0.69795,4.64385 l 0.0502,0 -1.56923,8.05604 -0.0411,0 c -3.22898,14.46327 -8.7173,27.7987 -17.50795,35.55877 -3.43718,3.0363 -10.13368,6.91209 -17.41673,7.02052 z"
       id="path4151"
       inkscape:connector-curvature="0" /><path
       d="m 373.50716,378.60002 c 4.47269,0.70361 4.38511,10.62412 -2.29766,8.27391 -5.36023,-1.88309 -2.14293,-8.97167 2.29766,-8.27391 m 63.89064,5.51789 c -1.67872,-8.5717 10.22706,-6.42877 8.2739,0.46128 -0.53427,1.88308 -1.95315,3.54721 -5.51496,2.29474 -2.19255,-0.77076 -2.61588,-2.02323 -2.75894,-2.75602"
       style="fill:#ffffff;fill-opacity:1;fill-rule:nonzero;stroke:none"
       id="path226" /></g></svg>