<?xml version="1.0" encoding="UTF-8" standalone="no"?>
<svg
   xmlns:dc="http://purl.org/dc/elements/1.1/"
   xmlns:cc="http://creativecommons.org/ns#"
   xmlns:rdf="http://www.w3.org/1999/02/22-rdf-syntax-ns#"
   xmlns:svg="http://www.w3.org/2000/svg"
   xmlns="http://www.w3.org/2000/svg"
   xmlns:sodipodi="http://sodipodi.sourceforge.net/DTD/sodipodi-0.dtd"
   xmlns:inkscape="http://www.inkscape.org/namespaces/inkscape"
   viewBox="0 0 250 250"
   height="250"
   width="250"
   xml:space="preserve"
   version="1.1"
   id="svg2"
   inkscape:version="0.91 r"
   sodipodi:docname="crossplatform.svg"><sodipodi:namedview
     pagecolor="#ffffff"
     bordercolor="#666666"
     borderopacity="1"
     objecttolerance="10"
     gridtolerance="10"
     guidetolerance="10"
     inkscape:pageopacity="0"
     inkscape:pageshadow="2"
     inkscape:window-width="1680"
     inkscape:window-height="1013"
     id="namedview140"
     showgrid="false"
     inkscape:zoom="0.944"
     inkscape:cx="-153.41162"
     inkscape:cy="120.24627"
     inkscape:window-x="0"
     inkscape:window-y="0"
     inkscape:window-maximized="1"
     inkscape:current-layer="g10" /><metadata
     id="metadata8"><rdf:RDF><cc:Work
         rdf:about=""><dc:format>image/svg+xml</dc:format><dc:type
           rdf:resource="http://purl.org/dc/dcmitype/StillImage" /><dc:title /></cc:Work></rdf:RDF></metadata><defs
     id="defs6" /><g
     transform="matrix(1.25,0,0,-1.25,0,250)"
     id="g10"><ellipse
       ry="24.803736"
       rx="24.809561"
       transform="scale(1,-1)"
       cy="-74.681213"
       cx="100"
       id="circle7275"
       style="opacity:0.98999999;fill:#ffffff;fill-opacity:1;stroke:#1e88e5;stroke-width:3;stroke-linecap:round;stroke-linejoin:round;stroke-miterlimit:4;stroke-dasharray:none;stroke-opacity:1" /><g
       transform="matrix(0.20690584,0,0,-0.20685726,88.791069,87.919956)"
       id="g7279"
       display="inline"
       class="iconic-platform-android"
       style="display:inline;fill:#c62828;fill-opacity:1"><path
         id="path7281"
         class="iconic-platform-android-arm iconic-platform-android-arm-left iconic-property-fill"
         d="M 7.899,41.403 C 3.537,41.401 0.001,44.944 0,49.303 l 0.006,33.083 c 0.001,4.374 3.538,7.903 7.901,7.902 4.366,0 7.902,-3.531 7.898,-7.902 L 15.806,49.299 C 15.804,44.941 12.263,41.401 7.9,41.404"
         style="fill:#c62828;fill-opacity:1" /><path
         id="path7283"
         class="iconic-platform-android-arm iconic-platform-android-arm-right iconic-property-fill"
         d="m 108.342,49.29 c -0.001,-4.363 -3.537,-7.899 -7.9,-7.898 -4.362,-0.003 -7.898,3.539 -7.897,7.902 l 0.005,33.083 c 0,4.368 3.534,7.898 7.9,7.899 4.362,-10e-4 7.897,-3.531 7.898,-7.902 L 108.342,49.29 Z"
         style="fill:#c62828;fill-opacity:1" /><path
         id="path7285"
         class="iconic-platform-android-body iconic-property-fill"
         d="m 18.866,42.894 0.012,51.269 c -0.004,4.664 3.768,8.428 8.429,8.429 l 5.74,0.002 0.007,17.505 c -0.001,4.357 3.542,7.901 7.894,7.901 4.365,0 7.902,-3.546 7.903,-7.906 l -0.004,-17.501 10.666,-0.002 0.004,17.504 c -0.001,4.356 3.544,7.904 7.897,7.897 4.365,0.003 7.904,-3.543 7.903,-7.904 l -0.005,-17.499 5.76,-0.004 c 4.65,0.002 8.432,-3.768 8.433,-8.431 l -0.009,-51.27 -70.63,0.012 z"
         style="fill:#c62828;fill-opacity:1" /><path
         id="path7287"
         class="iconic-platform-android-head iconic-property-fill"
         d="M 71.608,11.694 77.122,1.624 C 77.416,1.098 77.223,0.428 76.69,0.13 76.152,-0.155 75.488,0.039 75.203,0.569 L 69.634,10.744 C 64.946,8.659 59.703,7.488 54.154,7.495 48.619,7.49 43.377,8.656 38.71,10.729 L 33.135,0.581 C 32.845,0.045 32.178,-0.148 31.651,0.143 31.114,0.432 30.918,1.103 31.216,1.628 L 36.733,11.69 C 25.894,17.28 18.571,27.925 18.577,40.145 L 89.74,40.138 C 89.742,27.919 82.432,17.297 71.609,11.693 Z m -33.64,15.56 c -1.639,-0.004 -2.974,-1.336 -2.974,-2.981 10e-4,-1.639 1.333,-2.987 2.977,-2.987 1.65,-0.001 2.985,1.348 2.987,2.986 0.001,1.644 -1.337,2.981 -2.989,2.982 z m 32.403,-0.006 c -1.645,0.002 -2.984,-1.332 -2.984,-2.983 0.005,-1.635 1.337,-2.984 2.985,-2.99 1.636,0.005 2.978,1.354 2.977,2.991 0.004,1.647 -1.334,2.982 -2.978,2.981 z"
         style="fill:#c62828;fill-opacity:1" /></g><ellipse
       ry="24.803736"
       rx="24.809561"
       style="opacity:0.98999999;fill:#ffffff;fill-opacity:1;stroke:#1e88e5;stroke-width:3;stroke-linecap:round;stroke-linejoin:round;stroke-miterlimit:4;stroke-dasharray:none;stroke-opacity:1"
       id="circle7291"
       cx="69.630318"
       cy="-125.31878"
       transform="scale(1,-1)" /><g
       id="g7293"
       transform="matrix(0.20775076,0,0,-0.20770198,56.523968,140.25984)"
       style="opacity:0.98999999;fill:#c62828;fill-opacity:1"><g
         id="g7295"
         style="fill:#c62828;fill-opacity:1"><title
           id="title7297">Platform</title></g><g
         id="g7299"
         transform="translate(9,0)"
         display="inline"
         class="iconic-lg iconic-container"
         data-height="128"
         data-width="109"
         style="display:inline;fill:#c62828;fill-opacity:1"><g
           id="g7301"
           display="none"
           class="iconic-platform-android"
           style="display:none;fill:#c62828;fill-opacity:1"><path
             id="path7303"
             class="iconic-platform-android-arm iconic-platform-android-arm-left iconic-property-fill"
             d="M 7.899,41.403 C 3.537,41.401 0.001,44.944 0,49.303 l 0.006,33.083 c 0.001,4.374 3.538,7.903 7.901,7.902 4.366,0 7.902,-3.531 7.898,-7.902 L 15.806,49.299 C 15.804,44.941 12.263,41.401 7.9,41.404"
             style="fill:#c62828;fill-opacity:1" /><path
             id="path7305"
             class="iconic-platform-android-arm iconic-platform-android-arm-right iconic-property-fill"
             d="m 108.342,49.29 c -0.001,-4.363 -3.537,-7.899 -7.9,-7.898 -4.362,-0.003 -7.898,3.539 -7.897,7.902 l 0.005,33.083 c 0,4.368 3.534,7.898 7.9,7.899 4.362,-10e-4 7.897,-3.531 7.898,-7.902 L 108.342,49.29 Z"
             style="fill:#c62828;fill-opacity:1" /><path
             id="path7307"
             class="iconic-platform-android-body iconic-property-fill"
             d="m 18.866,42.894 0.012,51.269 c -0.004,4.664 3.768,8.428 8.429,8.429 l 5.74,0.002 0.007,17.505 c -0.001,4.357 3.542,7.901 7.894,7.901 4.365,0 7.902,-3.546 7.903,-7.906 l -0.004,-17.501 10.666,-0.002 0.004,17.504 c -0.001,4.356 3.544,7.904 7.897,7.897 4.365,0.003 7.904,-3.543 7.903,-7.904 l -0.005,-17.499 5.76,-0.004 c 4.65,0.002 8.432,-3.768 8.433,-8.431 l -0.009,-51.27 -70.63,0.012 z"
             style="fill:#c62828;fill-opacity:1" /><path
             id="path7309"
             class="iconic-platform-android-head iconic-property-fill"
             d="M 71.608,11.694 77.122,1.624 C 77.416,1.098 77.223,0.428 76.69,0.13 76.152,-0.155 75.488,0.039 75.203,0.569 L 69.634,10.744 C 64.946,8.659 59.703,7.488 54.154,7.495 48.619,7.49 43.377,8.656 38.71,10.729 L 33.135,0.581 C 32.845,0.045 32.178,-0.148 31.651,0.143 31.114,0.432 30.918,1.103 31.216,1.628 L 36.733,11.69 C 25.894,17.28 18.571,27.925 18.577,40.145 L 89.74,40.138 C 89.742,27.919 82.432,17.297 71.609,11.693 Z m -33.64,15.56 c -1.639,-0.004 -2.974,-1.336 -2.974,-2.981 10e-4,-1.639 1.333,-2.987 2.977,-2.987 1.65,-0.001 2.985,1.348 2.987,2.986 0.001,1.644 -1.337,2.981 -2.989,2.982 z m 32.403,-0.006 c -1.645,0.002 -2.984,-1.332 -2.984,-2.983 0.005,-1.635 1.337,-2.984 2.985,-2.99 1.636,0.005 2.978,1.354 2.977,2.991 0.004,1.647 -1.334,2.982 -2.978,2.981 z"
             style="fill:#c62828;fill-opacity:1" /></g></g><g
         id="g7311"
         transform="translate(11,0)"
         display="inline"
         class="iconic-lg iconic-container"
         data-height="128"
         data-width="105"
         style="display:inline;fill:#c62828;fill-opacity:1"><g
           id="g7313"
           display="inline"
           class="iconic-platform-apple"
           style="display:inline;fill:#c62828;fill-opacity:1"><path
             id="path7315"
             class="iconic-platform-apple-body iconic-property-fill"
             d="m 100.793,41.885 c -9.109,6.874 -13.646,15.13 -13.62,24.776 0.034,11.531 5.697,20.358 16.998,26.499 -3.011,9.296 -7.369,17.407 -13.1,24.307 -5.723,6.925 -10.96,10.38 -15.701,10.397 -2.243,0 -5.288,-0.768 -9.151,-2.311 l -1.859,-0.734 c -3.795,-1.603 -7.156,-2.345 -10.055,-2.345 -2.755,0.017 -5.766,0.631 -9.032,1.868 l -2.328,0.895 -2.934,1.262 c -2.303,0.981 -4.64,1.484 -7.002,1.501 -5.544,0.017 -11.676,-4.793 -18.405,-14.473 C 4.907,99.702 0.045,84.589 0.003,68.248 -0.031,56.623 2.954,47.259 8.958,40.137 14.962,33.024 22.928,29.45 32.856,29.416 c 3.719,-0.009 7.181,0.708 10.422,2.132 l 2.217,0.947 2.328,1.006 c 2.072,0.921 3.753,1.382 5.023,1.382 1.637,0 3.454,-0.409 5.441,-1.228 l 3.053,-1.271 2.269,-0.887 c 3.625,-1.407 7.633,-2.115 12.017,-2.132 10.422,-0.043 18.806,4.128 25.168,12.52 z"
             style="fill:#c62828;fill-opacity:1" /><path
             id="path7317"
             class="iconic-platform-apple-leaf iconic-property-fill"
             d="m 76.026,0 c 0.119,1.476 0.188,2.618 0.196,3.42 0.017,7.309 -2.49,13.731 -7.497,19.267 -5.007,5.536 -10.84,8.299 -17.501,8.307 C 51.028,29.348 50.917,28.162 50.917,27.446 50.9,21.228 53.22,15.386 57.877,9.928 62.517,4.461 67.915,1.263 74.056,0.316 74.499,0.239 75.156,0.12 76.026,0 Z"
             style="fill:#c62828;fill-opacity:1" /></g></g><g
         id="g7319"
         transform="translate(11,0)"
         display="inline"
         class="iconic-lg iconic-container"
         data-height="128"
         data-width="106"
         style="display:inline;fill:#c62828;fill-opacity:1"><g
           id="g7321"
           display="none"
           class="iconic-platform-linux"
           style="display:none;fill:#c62828;fill-opacity:1"><path
             id="path7323"
             class="iconic-platform-linux-body iconic-property-fill"
             d="m 103.749,103.25 c -1.469,-2.031 -2.697,-3.232 -3.33,-5.752 -0.624,-2.484 -0.955,-5.301 -2.996,-7.089 -0.456,-0.402 -0.97,-0.742 -1.517,-1.004 -0.874,-0.42 -0.262,-0.966 -0.041,-1.796 0.41,-1.538 0.674,-3.114 0.791,-4.7 0.245,-3.323 -0.158,-6.668 -1.021,-9.88 C 94.08,67.238 91.118,61.894 87.672,57.025 84.697,52.821 81.112,49.072 78.303,44.748 75.539,40.494 74.448,36.171 74.518,31.134 74.563,27.893 74.582,24.648 74.339,21.413 73.96,16.372 73.006,11.042 70.083,6.8 66.753,1.969 61.247,0.006 55.543,-0.001 48.085,-0.015 40.693,2.682 37.567,9.907 c -2.394,5.534 -2.17,11.846 -1.796,17.737 0.51,8.042 -0.29,16.218 -5.696,22.712 -7.173,8.617 -14.323,19.102 -15.754,30.484 -0.185,1.468 -0.257,2.952 -0.184,4.431 0.036,0.727 0.107,1.453 0.216,2.173 -0.538,0.482 -1.013,1.032 -1.461,1.597 -0.904,1.14 -1.675,2.398 -2.677,3.458 -0.983,0.98 -2.359,1.408 -3.638,1.851 -2.156,0.747 -4.138,1.737 -5.243,3.848 -1.544,3.02 -0.049,6.411 0.003,9.573 0.045,2.7 -1.657,5.077 -1.285,7.874 0.356,2.677 2.508,4.066 4.961,4.671 2.911,0.718 5.952,0.791 8.905,1.272 1.576,0.257 3.144,0.606 4.644,1.162 0.829,0.307 1.401,0.601 1.872,0.834 5.711,2.986 14.903,5.253 19.587,-0.948 0.231,-0.305 0.423,-0.637 0.602,-0.976 0.404,-0.767 0.824,-0.531 1.633,-0.616 1.366,-0.144 2.714,-0.432 4.062,-0.688 3.319,-0.631 6.699,-1.14 10.077,-0.753 3.451,0.395 6.855,1.098 10.348,0.904 0.669,2.778 2.827,5.271 5.381,6.491 6.293,3.006 13.36,-1.255 17.38,-6.039 0.292,-0.377 0.292,-0.377 0.857,-0.945 0.888,-0.894 1.89,-1.667 2.943,-2.355 2.217,-1.448 4.649,-2.504 7.003,-3.701 1.976,-1.004 4.387,-2.228 5.172,-4.464 0.775,-2.208 -0.466,-4.495 -1.73,-6.242 z M 52.761,21.839 c 0.977,-2.214 2.966,-4.153 5.519,-4.139 4.083,0 6.31,4.435 6.377,8.004 0,1.668 -0.297,3.247 -1.062,4.743 -0.351,0.686 -0.577,1.493 -1.369,1.167 -0.857,-0.217 -1.947,-0.775 -2.735,-1.049 1.57,-1.887 1.878,-7.021 -1.082,-7.899 -2.924,-0.867 -3.802,3.725 -3.463,5.681 -0.578,-0.288 -1.173,-0.542 -1.783,-0.751 -1.103,-0.377 -1.181,-0.311 -1.209,-1.546 -0.03,-1.451 0.221,-2.881 0.808,-4.211 z m 4.287,9.252 c 2.051,0.922 5.099,1.248 6.49,3.214 1.936,2.736 -1.702,5.58 -3.88,6.544 -1.197,0.53 -2.34,0.894 -3.464,1.61 -1.354,0.863 -2.699,1.75 -4.275,2.152 -3.123,0.795 -5.468,-0.346 -7.719,-2.385 -1.777,-1.61 -4.615,-2.582 -5.368,-5.071 -0.819,-2.708 2.712,-3.949 4.341,-5.393 2.022,-1.714 3.784,-3.375 6.63,-3.385 2.826,-0.011 4.801,1.616 7.245,2.714 z M 42.578,18.943 c 2.417,0.006 3.89,2.609 4.446,4.641 0.263,0.962 0.37,1.973 0.362,2.97 -0.01,1.196 -1.621,1.687 -2.626,2.232 0.21,-1.481 -1.261,-7.203 -3.421,-4.572 -1.352,1.647 -1.046,5.326 0.742,6.584 -0.393,0.303 -0.793,0.597 -1.193,0.891 -0.718,0.527 -1.202,-0.631 -1.539,-1.257 -0.813,-1.51 -1.169,-3.214 -1.156,-4.921 0.018,-2.515 1.223,-6.602 4.386,-6.569 z m -8.04,103.121 c -4.544,2.168 -9.733,0.13 -13.91,-1.865 -4.385,-2.094 -9.167,-1.646 -13.755,-2.811 -4.774,-1.212 -2.793,-4.977 -2.137,-8.446 0.8,-4.229 -2.697,-9.485 2.775,-11.61 1.724,-0.67 3.509,-1.075 4.876,-2.412 1.591,-1.678 2.666,-4.306 4.849,-5.329 0.495,-0.232 1.041,-0.342 1.586,-0.336 4.948,0.019 7.68,6.655 9.45,10.36 2.245,4.697 6.201,8.139 8.682,12.674 1.873,3.424 1.46,7.925 -2.417,9.774 z m 33.199,-12.365 c -3.149,2.156 -6.691,3.784 -10.423,4.614 -3.774,0.84 -7.735,0.824 -11.457,-0.264 -1.981,-0.579 -3.872,-1.451 -5.611,-2.561 -1.677,-1.07 -2.955,-3.711 -4.211,-5.289 4.137,0.003 5.197,-3.337 3.463,-6.641 -1.796,-3.422 -5.018,-6.08 -8.13,-8.255 C 28.052,88.986 27.216,87.8 26.542,84.362 23.526,68.965 39.001,56.383 39.826,40.833 c 3.946,2.865 7.343,6.601 12.686,5.042 2.424,-0.707 4.272,-2.273 6.579,-3.394 2.026,-1.089 4.078,-1.62 5.578,-3.75 2.273,8.962 6.056,17.443 10.201,25.668 2.291,4.546 3.478,7.596 4.387,12.615 14.475,1.078 15.071,11.446 12.402,11.672 0.856,-2.707 -1.693,-4.467 -3.767,-5.587 -2.518,-1.36 -6.543,-3.32 -9.396,-1.774 -1.211,0.657 -1.794,1.946 -1.992,3.257 -0.218,1.182 -2.746,2.131 -3.624,3.333 -2.255,3.084 -2.5,7.359 -2.745,11.031 -0.108,1.622 -0.101,3.259 -0.41,4.859 -0.302,1.563 -0.67,4.994 -1.985,5.894 z m 28.579,3.063 c -1.888,0.906 -3.763,1.864 -5.454,3.11 -2.09,1.541 -3.539,3.701 -5.555,5.322 -3.142,2.526 -7.904,4.385 -11.701,2.132 -4.297,-2.55 -3.865,-7.324 -2.746,-11.53 0.704,-2.647 1.685,-5.248 2.104,-7.963 0.365,-2.366 0.284,-4.793 0.584,-7.172 0.35,-2.78 1.002,-6.211 3.786,-7.568 0.128,2.075 0.862,4.36 2.506,5.733 1.816,1.517 4.213,1.106 6.212,0.203 1.709,-0.772 3.402,-2.97 5.164,-3.013 1.953,-0.047 3.929,0.436 4.926,2.265 1.073,1.97 1.102,4.316 1.905,6.385 0.747,1.927 2.463,3.238 3.455,5.033 2.192,3.965 -2.183,5.622 -5.186,7.064 z"
             style="fill:#c62828;fill-opacity:1" /><path
             id="path7325"
             class="iconic-platform-linux-mouth iconic-property-fill"
             d="m 61.375,35.457 c -0.964,-0.647 -3.707,1.73 -5.247,2.618 -1.944,1.122 -4.063,2.179 -6.335,2.369 -2.034,0.171 -4.079,-0.37 -5.654,-1.63 -1.253,-1.002 -3.381,-3.178 -3.819,-2.765 -0.611,0.576 1.492,2.125 2.413,2.854 2.021,1.601 4.454,2.647 7.073,2.449 2.687,-0.202 5.138,-1.517 7.412,-2.866 1.108,-0.658 2.2,-1.412 3.398,-1.899 0.651,-0.265 1.537,-0.607 0.758,-1.13 z"
             style="fill:#c62828;fill-opacity:1" /></g></g><g
         id="g7327"
         display="inline"
         class="iconic-lg iconic-container"
         data-height="128"
         data-width="128"
         style="display:inline;fill:#c62828;fill-opacity:1"><g
           id="g7329"
           display="none"
           class="iconic-platform-microsoft"
           style="display:none;fill:#c62828;fill-opacity:1"><path
             id="path7331"
             d="M 0,18.123 52.309,11.021 52.332,61.322 0.047,61.619 Z"
             class="iconic-platform-microsoft-top iconic-platform-microsoft-left iconic-platform-microsoft-top-left iconic-property-fill"
             style="fill:#c62828;fill-opacity:1" /><path
             id="path7333"
             d="M 52.285,67.118 52.326,117.463 0.041,110.297 0.038,66.78 Z"
             class="iconic-platform-microsoft-bottom iconic-platform-microsoft-left iconic-platform-microsoft-bottom-left iconic-property-fill"
             style="fill:#c62828;fill-opacity:1" /><path
             id="path7335"
             d="M 58.626,10.091 127.984,0 l 0,60.682 -69.358,0.549 z"
             class="iconic-platform-microsoft-top iconic-platform-microsoft-right iconic-platform-microsoft-top-right iconic-property-fill"
             style="fill:#c62828;fill-opacity:1" /><path
             id="path7337"
             d="M 128,67.591 127.984,128 58.626,118.241 58.529,67.478 Z"
             class="iconic-platform-microsoft-bottom iconic-platform-microsoft-right iconic-platform-microsoft-bottom-right iconic-property-fill"
             style="fill:#c62828;fill-opacity:1" /></g></g><g
         id="g7339"
         transform="matrix(4,0,0,4,8,0)"
         display="none"
         class="iconic-md iconic-container"
         data-height="32"
         data-width="28"
         style="display:none;fill:#c62828;fill-opacity:1"><g
           id="g7341"
           display="none"
           class="iconic-platform-android"
           style="display:none;fill:#c62828;fill-opacity:1"><path
             id="path7343"
             class="iconic-platform-android-arm iconic-platform-android-arm-left iconic-property-fill"
             d="M 1.975,10.351 C 0.884,10.35 0,11.236 0,12.326 l 0.001,8.271 c 0,1.093 0.885,1.976 1.975,1.976 1.091,0 1.976,-0.883 1.974,-1.976 l 0,-8.272 c 0,-1.089 -0.886,-1.975 -1.976,-1.974"
             style="fill:#c62828;fill-opacity:1" /><path
             id="path7345"
             class="iconic-platform-android-arm iconic-platform-android-arm-right iconic-property-fill"
             d="m 27.085,12.322 c 0,-1.091 -0.884,-1.975 -1.975,-1.975 -1.091,-10e-4 -1.975,0.885 -1.974,1.976 l 0.001,8.271 c 0,1.092 0.884,1.974 1.975,1.975 1.091,0 1.974,-0.883 1.974,-1.976 l -0.002,-8.271 z"
             style="fill:#c62828;fill-opacity:1" /><path
             id="path7347"
             class="iconic-platform-android-body iconic-property-fill"
             d="m 4.716,10.724 0.003,12.817 c -0.001,1.166 0.942,2.107 2.107,2.107 l 1.435,0.001 0.002,4.376 c 0,1.089 0.885,1.975 1.973,1.975 1.091,0 1.976,-0.886 1.976,-1.977 l -10e-4,-4.375 2.666,-0.001 10e-4,4.376 c 0,1.089 0.886,1.976 1.974,1.974 1.091,0.001 1.976,-0.886 1.976,-1.976 l -10e-4,-4.375 1.44,-0.001 c 1.163,0 2.108,-0.942 2.108,-2.108 L 22.373,10.719 4.715,10.722 Z"
             style="fill:#c62828;fill-opacity:1" /><path
             id="path7349"
             class="iconic-platform-android-head iconic-property-fill"
             d="M 17.902,2.924 19.281,0.406 C 19.354,0.274 19.306,0.107 19.173,0.033 19.038,-0.038 18.873,0.01 18.801,0.143 L 17.409,2.687 C 16.237,2.166 14.926,1.873 13.539,1.875 12.155,1.874 10.845,2.165 9.678,2.683 L 8.284,0.146 C 8.212,0.012 8.045,-0.036 7.913,0.037 7.779,0.109 7.73,0.277 7.804,0.408 L 9.183,2.923 C 6.473,4.321 4.642,6.982 4.644,10.037 L 22.435,10.035 C 22.436,6.98 20.608,4.325 17.902,2.924 Z m -8.41,3.89 C 9.082,6.813 8.749,6.48 8.749,6.069 c 0,-0.41 0.333,-0.747 0.744,-0.747 0.412,0 0.746,0.337 0.747,0.747 0,0.411 -0.334,0.745 -0.747,0.745 z M 17.593,6.813 C 17.182,6.814 16.847,6.48 16.847,6.067 16.848,5.658 17.181,5.321 17.593,5.32 c 0.409,10e-4 0.745,0.338 0.744,0.748 0.001,0.412 -0.333,0.745 -0.745,0.745 z"
             style="fill:#c62828;fill-opacity:1" /></g></g><g
         id="g7351"
         transform="matrix(4,0,0,4,8,0)"
         display="none"
         class="iconic-md iconic-container"
         data-height="32"
         data-width="27"
         style="display:none;fill:#c62828;fill-opacity:1"><g
           id="g7353"
           display="inline"
           class="iconic-platform-apple"
           style="display:inline;fill:#c62828;fill-opacity:1"><path
             id="path7355"
             class="iconic-platform-apple-body iconic-property-fill"
             d="m 25.198,10.471 c -2.277,1.718 -3.412,3.783 -3.405,6.194 0.009,2.883 1.424,5.09 4.25,6.625 -0.753,2.324 -1.842,4.352 -3.275,6.077 -1.431,1.731 -2.74,2.595 -3.925,2.599 -0.561,0 -1.322,-0.192 -2.288,-0.578 L 16.09,31.205 c -0.949,-0.401 -1.789,-0.586 -2.514,-0.586 -0.689,0.004 -1.441,0.158 -2.258,0.467 l -0.582,0.224 -0.734,0.316 C 9.426,31.871 8.842,31.997 8.252,32.001 6.866,32.005 5.333,30.803 3.651,28.383 1.227,24.927 0.011,21.149 0.001,17.063 -0.008,14.157 0.739,11.816 2.24,10.035 3.741,8.257 5.733,7.363 8.214,7.355 9.144,7.353 10.009,7.532 10.82,7.888 l 0.554,0.237 0.582,0.252 c 0.518,0.23 0.938,0.345 1.256,0.345 0.409,0 0.864,-0.102 1.36,-0.307 l 0.763,-0.318 0.567,-0.222 c 0.906,-0.352 1.908,-0.529 3.004,-0.533 2.606,-0.011 4.701,1.032 6.292,3.13 z"
             style="fill:#c62828;fill-opacity:1" /><path
             id="path7357"
             class="iconic-platform-apple-leaf iconic-property-fill"
             d="m 19.006,0 c 0.03,0.369 0.047,0.655 0.049,0.855 0.004,1.827 -0.623,3.433 -1.874,4.817 C 15.93,7.056 14.471,7.747 12.806,7.749 12.757,7.338 12.729,7.041 12.729,6.862 12.725,5.308 13.305,3.847 14.469,2.482 15.629,1.115 16.979,0.316 18.514,0.079 18.625,0.06 18.789,0.03 19.006,0 Z"
             style="fill:#c62828;fill-opacity:1" /></g></g><g
         id="g7359"
         transform="matrix(4,0,0,4,8,0)"
         display="none"
         class="iconic-md iconic-container"
         data-height="32"
         data-width="27"
         style="display:none;fill:#c62828;fill-opacity:1"><g
           id="g7361"
           display="none"
           class="iconic-platform-linux"
           style="display:none;fill:#c62828;fill-opacity:1"><path
             id="path7363"
             class="iconic-platform-linux-body iconic-property-fill"
             d="m 25.937,25.813 c -0.367,-0.508 -0.674,-0.808 -0.833,-1.438 -0.156,-0.621 -0.239,-1.325 -0.749,-1.772 -0.114,-0.1 -0.242,-0.185 -0.379,-0.251 -0.218,-0.105 -0.066,-0.241 -0.01,-0.449 0.102,-0.385 0.169,-0.778 0.198,-1.175 0.061,-0.831 -0.04,-1.667 -0.255,-2.47 C 23.52,16.81 22.78,15.474 21.918,14.257 21.174,13.206 20.278,12.269 19.576,11.188 18.885,10.125 18.612,9.044 18.63,7.785 18.641,6.975 18.646,6.163 18.585,5.355 18.49,4.095 18.252,2.762 17.521,1.702 16.688,0.494 15.312,0.004 13.886,0.002 12.022,-0.001 10.173,0.673 9.392,2.479 8.793,3.862 8.85,5.441 8.943,6.913 9.071,8.924 8.871,10.968 7.519,12.591 5.726,14.745 3.938,17.367 3.581,20.212 3.535,20.579 3.517,20.95 3.535,21.32 c 0.009,0.182 0.027,0.363 0.054,0.543 -0.135,0.12 -0.253,0.258 -0.365,0.399 -0.226,0.285 -0.419,0.6 -0.669,0.865 -0.246,0.245 -0.59,0.352 -0.909,0.463 -0.539,0.187 -1.034,0.434 -1.311,0.962 -0.386,0.755 -0.012,1.603 0.001,2.393 0.011,0.675 -0.414,1.269 -0.321,1.968 0.089,0.669 0.627,1.017 1.24,1.168 0.728,0.179 1.488,0.198 2.226,0.318 0.394,0.064 0.786,0.151 1.161,0.29 0.207,0.077 0.35,0.15 0.468,0.208 1.428,0.746 3.726,1.313 4.897,-0.237 0.058,-0.076 0.106,-0.159 0.15,-0.244 0.101,-0.192 0.206,-0.133 0.408,-0.154 0.342,-0.036 0.678,-0.108 1.016,-0.172 0.83,-0.158 1.675,-0.285 2.519,-0.188 0.863,0.099 1.714,0.275 2.587,0.226 0.167,0.695 0.707,1.318 1.345,1.623 1.573,0.751 3.34,-0.314 4.345,-1.51 0.073,-0.094 0.073,-0.094 0.214,-0.236 0.222,-0.223 0.472,-0.417 0.736,-0.589 0.554,-0.362 1.162,-0.626 1.751,-0.925 0.494,-0.251 1.097,-0.557 1.293,-1.116 0.194,-0.552 -0.116,-1.124 -0.432,-1.56 z M 13.19,5.46 c 0.244,-0.554 0.741,-1.038 1.38,-1.035 1.021,0 1.577,1.109 1.594,2.001 0,0.417 -0.074,0.812 -0.266,1.186 C 15.81,7.784 15.754,7.985 15.556,7.904 15.342,7.85 15.069,7.71 14.872,7.642 15.265,7.17 15.342,5.887 14.601,5.667 13.87,5.45 13.651,6.598 13.735,7.087 13.591,7.015 13.442,6.951 13.289,6.899 13.013,6.805 12.994,6.821 12.987,6.512 12.979,6.149 13.042,5.792 13.189,5.459 Z m 1.072,2.313 c 0.513,0.23 1.275,0.312 1.623,0.803 0.484,0.684 -0.425,1.395 -0.97,1.636 -0.299,0.132 -0.585,0.224 -0.866,0.403 -0.339,0.216 -0.675,0.438 -1.069,0.538 -0.781,0.199 -1.367,-0.086 -1.93,-0.596 C 10.606,10.155 9.896,9.912 9.708,9.289 9.503,8.612 10.386,8.302 10.793,7.941 c 0.505,-0.428 0.946,-0.844 1.658,-0.846 0.706,-0.003 1.2,0.404 1.811,0.679 z M 10.645,4.736 c 0.604,0.001 0.973,0.652 1.111,1.16 0.066,0.241 0.092,0.493 0.09,0.743 C 11.844,6.938 11.441,7.061 11.189,7.197 11.241,6.827 10.874,5.396 10.334,6.054 9.996,6.466 10.072,7.386 10.519,7.7 10.421,7.776 10.321,7.849 10.221,7.923 10.042,8.055 9.921,7.765 9.836,7.609 9.633,7.231 9.544,6.805 9.547,6.379 9.552,5.75 9.853,4.729 10.644,4.737 Z m -2.01,25.78 C 7.499,31.058 6.202,30.549 5.157,30.05 4.061,29.527 2.865,29.638 1.718,29.347 0.524,29.044 1.02,28.103 1.184,27.236 c 0.2,-1.057 -0.674,-2.371 0.694,-2.902 0.431,-0.167 0.877,-0.269 1.219,-0.603 0.398,-0.42 0.667,-1.077 1.212,-1.332 0.124,-0.058 0.26,-0.085 0.397,-0.084 1.237,0.005 1.92,1.664 2.362,2.59 0.561,1.174 1.55,2.035 2.171,3.168 0.468,0.856 0.365,1.981 -0.604,2.444 z m 8.3,-3.091 c -0.787,0.539 -1.673,0.946 -2.606,1.153 -0.943,0.21 -1.934,0.206 -2.864,-0.066 C 10.97,28.367 10.497,28.149 10.062,27.872 9.643,27.605 9.323,26.944 9.009,26.55 10.043,26.551 10.308,25.716 9.875,24.89 9.426,24.035 8.621,23.37 7.842,22.826 7.013,22.247 6.804,21.95 6.636,21.091 5.882,17.242 9.751,14.096 9.957,10.209 c 0.987,0.716 1.836,1.65 3.171,1.261 0.606,-0.177 1.068,-0.568 1.645,-0.849 0.506,-0.272 1.02,-0.405 1.395,-0.937 0.568,2.24 1.514,4.361 2.55,6.417 0.573,1.137 0.87,1.899 1.097,3.154 3.619,0.269 3.768,2.861 3.101,2.918 0.214,-0.677 -0.423,-1.117 -0.942,-1.397 -0.63,-0.34 -1.636,-0.83 -2.349,-0.444 -0.303,0.164 -0.448,0.486 -0.498,0.814 -0.054,0.296 -0.686,0.533 -0.906,0.833 -0.564,0.771 -0.625,1.84 -0.686,2.758 -0.027,0.405 -0.025,0.815 -0.103,1.215 -0.076,0.391 -0.168,1.248 -0.497,1.473 z m 7.145,0.766 c -0.472,0.227 -0.941,0.466 -1.363,0.778 -0.522,0.385 -0.885,0.925 -1.389,1.33 -0.785,0.631 -1.976,1.096 -2.925,0.533 -1.074,-0.637 -0.966,-1.831 -0.686,-2.882 0.176,-0.662 0.421,-1.312 0.526,-1.991 0.091,-0.592 0.071,-1.198 0.146,-1.793 0.087,-0.695 0.251,-1.553 0.947,-1.892 0.032,0.519 0.215,1.09 0.627,1.433 0.454,0.379 1.053,0.277 1.553,0.051 0.427,-0.193 0.85,-0.743 1.291,-0.753 0.488,-0.012 0.982,0.109 1.231,0.566 0.268,0.492 0.276,1.079 0.476,1.596 0.187,0.482 0.616,0.809 0.864,1.258 0.548,0.991 -0.546,1.406 -1.296,1.766 z"
             style="fill:#c62828;fill-opacity:1" /><path
             id="path7365"
             class="iconic-platform-linux-mouth iconic-property-fill"
             d="M 15.344,8.864 C 15.103,8.702 14.417,9.296 14.032,9.519 13.546,9.8 13.016,10.064 12.448,10.111 11.94,10.154 11.428,10.018 11.034,9.703 10.721,9.452 10.189,8.908 10.079,9.012 c -0.153,0.144 0.373,0.531 0.603,0.714 0.505,0.4 1.113,0.662 1.768,0.612 0.672,-0.051 1.285,-0.379 1.853,-0.717 0.277,-0.165 0.55,-0.353 0.85,-0.475 0.163,-0.066 0.384,-0.152 0.19,-0.282 z"
             style="fill:#c62828;fill-opacity:1" /></g></g><g
         id="g7367"
         transform="scale(4,4)"
         display="none"
         class="iconic-md iconic-container"
         data-height="32"
         data-width="32"
         style="display:none;fill:#c62828;fill-opacity:1"><g
           id="g7369"
           display="none"
           class="iconic-platform-microsoft"
           style="display:none;fill:#c62828;fill-opacity:1"><path
             id="path7371"
             d="M 0,4.531 13.077,2.755 13.083,15.33 0.012,15.404 Z"
             class="iconic-platform-microsoft-top iconic-platform-microsoft-left iconic-platform-microsoft-top-left iconic-property-fill"
             style="fill:#c62828;fill-opacity:1" /><path
             id="path7373"
             d="M 13.071,16.779 13.081,29.365 0.01,27.573 0.009,16.694 Z"
             class="iconic-platform-microsoft-bottom iconic-platform-microsoft-left iconic-platform-microsoft-bottom-left iconic-property-fill"
             style="fill:#c62828;fill-opacity:1" /><path
             id="path7375"
             d="M 14.656,2.523 31.996,0 l 0,15.171 -17.34,0.137 z"
             class="iconic-platform-microsoft-top iconic-platform-microsoft-right iconic-platform-microsoft-top-right iconic-property-fill"
             style="fill:#c62828;fill-opacity:1" /><path
             id="path7377"
             d="M 32,16.898 31.996,32 14.656,29.56 14.632,16.869 Z"
             class="iconic-platform-microsoft-bottom iconic-platform-microsoft-right iconic-platform-microsoft-bottom-right iconic-property-fill"
             style="fill:#c62828;fill-opacity:1" /></g></g><g
         id="g7379"
         transform="matrix(8,0,0,8,8,0)"
         display="none"
         class="iconic-sm iconic-container"
         data-height="16"
         data-width="14"
         style="display:none;fill:#c62828;fill-opacity:1"><g
           id="g7381"
           display="none"
           class="iconic-platform-android"
           style="display:none;fill:#c62828;fill-opacity:1"><path
             id="path7383"
             class="iconic-platform-android-arm iconic-platform-android-arm-left iconic-property-fill"
             d="M 0.987,5.175 C 0.442,5.175 0,5.618 0,6.162 l 0.001,4.135 c 0,0.547 0.442,0.988 0.988,0.988 0.546,0 0.988,-0.441 0.987,-0.988 l 0,-4.136 C 1.976,5.616 1.533,5.174 0.988,5.174"
             style="fill:#c62828;fill-opacity:1" /><path
             id="path7385"
             class="iconic-platform-android-arm iconic-platform-android-arm-right iconic-property-fill"
             d="m 13.543,6.161 c 0,-0.545 -0.442,-0.987 -0.988,-0.987 -0.545,0 -0.987,0.442 -0.987,0.988 l 0.001,4.135 c 0,0.546 0.442,0.987 0.988,0.987 0.545,0 0.987,-0.441 0.987,-0.988 L 13.543,6.16 Z"
             style="fill:#c62828;fill-opacity:1" /><path
             id="path7387"
             class="iconic-platform-android-body iconic-property-fill"
             d="m 2.358,5.362 0.002,6.409 c 0,0.583 0.471,1.053 1.054,1.054 l 0.718,0 0.001,2.188 c 0,0.545 0.443,0.988 0.987,0.988 0.546,0 0.988,-0.443 0.988,-0.988 l -10e-4,-2.188 1.333,0 10e-4,2.188 c 0,0.544 0.443,0.988 0.987,0.987 0.546,0 0.988,-0.443 0.988,-0.988 l -0.001,-2.187 0.72,-10e-4 c 0.581,0 1.054,-0.471 1.054,-1.054 L 11.188,5.361 2.359,5.363 Z"
             style="fill:#c62828;fill-opacity:1" /><path
             id="path7389"
             class="iconic-platform-android-head iconic-property-fill"
             d="M 8.951,1.462 9.64,0.203 C 9.677,0.137 9.653,0.054 9.586,0.016 9.519,-0.02 9.436,0.004 9.4,0.071 L 8.704,1.343 C 8.118,1.082 7.463,0.936 6.769,0.937 6.077,0.936 5.422,1.082 4.838,1.341 L 4.141,0.073 C 4.105,0.006 4.021,-0.018 3.955,0.018 3.888,0.054 3.863,0.138 3.901,0.204 l 0.69,1.258 C 3.236,2.161 2.321,3.491 2.321,5.019 L 11.216,5.018 C 11.216,3.491 10.303,2.163 8.95,1.462 Z M 4.746,3.407 c -0.205,0 -0.372,-0.167 -0.372,-0.373 0,-0.205 0.167,-0.373 0.372,-0.373 0.206,0 0.373,0.169 0.373,0.373 0,0.206 -0.167,0.373 -0.374,0.373 z M 8.796,3.406 C 8.59,3.406 8.423,3.239 8.423,3.033 8.424,2.829 8.59,2.66 8.796,2.659 9,2.66 9.168,2.828 9.168,3.033 9.169,3.239 9.001,3.406 8.796,3.406 Z"
             style="fill:#c62828;fill-opacity:1" /></g></g><g
         id="g7391"
         transform="matrix(8,0,0,8,8,0)"
         display="none"
         class="iconic-sm iconic-container"
         data-height="16"
         data-width="14"
         style="display:none;fill:#c62828;fill-opacity:1"><g
           id="g7393"
           display="inline"
           class="iconic-platform-apple"
           style="display:inline;fill:#c62828;fill-opacity:1"><path
             id="path7395"
             class="iconic-platform-apple-body iconic-property-fill"
             d="m 12.599,5.236 c -1.139,0.859 -1.706,1.891 -1.703,3.097 0.004,1.441 0.712,2.545 2.125,3.312 -0.376,1.162 -0.921,2.176 -1.637,3.038 -0.715,0.866 -1.37,1.297 -1.963,1.3 -0.28,0 -0.661,-0.096 -1.144,-0.289 L 8.045,15.602 C 7.571,15.402 7.151,15.309 6.788,15.309 6.444,15.311 6.067,15.388 5.659,15.543 L 5.368,15.655 5.001,15.813 C 4.713,15.936 4.421,15.999 4.126,16.001 3.433,16.003 2.666,15.402 1.825,14.192 0.613,12.464 0.005,10.575 0,8.532 -0.004,7.079 0.369,5.908 1.119,5.018 1.87,4.129 2.865,3.682 4.106,3.678 4.571,3.677 5.004,3.766 5.409,3.945 l 0.277,0.118 0.291,0.126 c 0.259,0.115 0.469,0.173 0.628,0.173 0.205,0 0.432,-0.051 0.68,-0.153 L 7.667,4.05 7.951,3.939 C 8.404,3.763 8.905,3.675 9.453,3.672 c 1.303,-0.005 2.351,0.516 3.146,1.565 z"
             style="fill:#c62828;fill-opacity:1" /><path
             id="path7397"
             class="iconic-platform-apple-leaf iconic-property-fill"
             d="M 9.503,0 C 9.518,0.184 9.527,0.327 9.528,0.427 9.53,1.341 9.217,2.143 8.591,2.835 7.965,3.527 7.236,3.872 6.403,3.873 6.379,3.667 6.365,3.519 6.365,3.429 6.363,2.652 6.653,1.922 7.235,1.239 7.815,0.556 8.49,0.156 9.257,0.037 9.312,0.028 9.394,0.013 9.503,-0.002 Z"
             style="fill:#c62828;fill-opacity:1" /></g></g><g
         id="g7399"
         transform="matrix(8,0,0,8,8,0)"
         display="none"
         class="iconic-sm iconic-container"
         data-height="16"
         data-width="14"
         style="display:none;fill:#c62828;fill-opacity:1"><g
           id="g7401"
           display="none"
           class="iconic-platform-linux"
           style="display:none;fill:#c62828;fill-opacity:1"><path
             id="path7403"
             class="iconic-platform-linux-body iconic-property-fill"
             d="m 12.969,12.906 c -0.184,-0.254 -0.337,-0.404 -0.416,-0.719 -0.078,-0.31 -0.119,-0.663 -0.374,-0.886 -0.057,-0.05 -0.121,-0.093 -0.19,-0.126 -0.109,-0.052 -0.033,-0.121 -0.005,-0.225 0.051,-0.192 0.084,-0.389 0.099,-0.588 C 12.114,9.947 12.063,9.529 11.955,9.127 11.761,8.403 11.39,7.735 10.96,7.126 10.588,6.601 10.14,6.132 9.789,5.591 9.444,5.059 9.307,4.519 9.316,3.889 9.322,3.484 9.324,3.078 9.294,2.674 9.247,2.044 9.127,1.378 8.762,0.847 8.346,0.243 7.657,-0.002 6.944,-0.003 6.012,-0.005 5.088,0.332 4.697,1.235 4.398,1.927 4.426,2.716 4.473,3.452 4.537,4.457 4.437,5.479 3.761,6.291 2.864,7.368 1.971,8.679 1.792,10.101 1.769,10.284 1.76,10.47 1.769,10.655 c 0.004,0.091 0.013,0.182 0.027,0.272 -0.067,0.06 -0.127,0.129 -0.183,0.2 -0.113,0.142 -0.209,0.3 -0.335,0.432 -0.123,0.123 -0.295,0.176 -0.455,0.231 -0.27,0.093 -0.517,0.217 -0.655,0.481 -0.193,0.378 -0.006,0.801 0,1.197 0.006,0.338 -0.207,0.635 -0.161,0.984 0.044,0.335 0.314,0.508 0.62,0.584 0.364,0.09 0.744,0.099 1.113,0.159 0.197,0.032 0.393,0.076 0.581,0.145 0.104,0.038 0.175,0.075 0.234,0.104 0.714,0.373 1.863,0.657 2.448,-0.118 0.029,-0.038 0.053,-0.08 0.075,-0.122 0.051,-0.096 0.103,-0.066 0.204,-0.077 0.171,-0.018 0.339,-0.054 0.508,-0.086 0.415,-0.079 0.837,-0.142 1.26,-0.094 0.431,0.049 0.857,0.137 1.294,0.113 0.084,0.347 0.353,0.659 0.673,0.811 0.787,0.376 1.67,-0.157 2.172,-0.755 0.036,-0.047 0.036,-0.047 0.107,-0.118 0.111,-0.112 0.236,-0.208 0.368,-0.294 0.277,-0.181 0.581,-0.313 0.875,-0.463 0.247,-0.126 0.548,-0.279 0.646,-0.558 0.097,-0.276 -0.059,-0.562 -0.217,-0.78 z M 6.596,2.73 c 0.122,-0.277 0.371,-0.519 0.69,-0.517 0.51,0 0.789,0.554 0.797,1 0,0.208 -0.037,0.406 -0.133,0.593 C 7.906,3.892 7.878,3.992 7.779,3.952 7.672,3.925 7.536,3.855 7.437,3.821 7.633,3.585 7.672,2.943 7.302,2.834 6.937,2.726 6.827,3.3 6.869,3.544 6.797,3.508 6.722,3.476 6.646,3.45 6.508,3.403 6.498,3.411 6.495,3.257 6.491,3.076 6.523,2.897 6.596,2.731 Z M 7.132,3.886 C 7.388,4.001 7.769,4.042 7.943,4.288 8.185,4.63 7.73,4.985 7.458,5.106 7.308,5.172 7.165,5.218 7.025,5.307 6.856,5.415 6.688,5.526 6.491,5.576 6.101,5.675 5.808,5.533 5.526,5.278 5.304,5.077 4.949,4.955 4.855,4.644 4.753,4.306 5.194,4.151 5.398,3.97 5.651,3.756 5.871,3.548 6.227,3.547 6.58,3.546 6.827,3.749 7.133,3.886 Z M 5.323,2.368 C 5.625,2.369 5.809,2.694 5.879,2.948 5.912,3.068 5.925,3.195 5.924,3.319 5.923,3.469 5.721,3.53 5.596,3.598 5.622,3.413 5.438,2.698 5.168,3.026 4.999,3.232 5.037,3.692 5.261,3.849 5.212,3.887 5.162,3.924 5.112,3.96 5.022,4.026 4.962,3.881 4.92,3.803 4.818,3.614 4.774,3.401 4.775,3.188 4.777,2.874 4.928,2.363 5.323,2.367 Z M 4.318,15.258 C 3.75,15.529 3.101,15.274 2.579,15.025 2.031,14.763 1.433,14.819 0.86,14.674 0.263,14.522 0.511,14.052 0.593,13.618 0.693,13.089 0.256,12.433 0.94,12.167 1.155,12.083 1.379,12.033 1.55,11.866 1.749,11.656 1.883,11.328 2.156,11.2 c 0.062,-0.029 0.13,-0.043 0.198,-0.042 0.619,0.002 0.96,0.832 1.181,1.295 0.281,0.587 0.775,1.017 1.085,1.584 0.234,0.428 0.183,0.991 -0.302,1.222 z M 8.716,12.976 C 8.678,13.171 8.632,13.6 8.468,13.713 8.074,13.983 7.632,14.186 7.165,14.29 6.693,14.395 6.198,14.393 5.733,14.257 5.485,14.185 5.249,14.076 5.032,13.937 4.822,13.803 4.663,13.473 4.506,13.276 c 0.517,0 0.65,-0.417 0.433,-0.83 C 4.714,12.018 4.312,11.686 3.923,11.414 3.509,11.124 3.404,10.976 3.32,10.546 2.943,8.621 4.877,7.049 4.98,5.105 5.473,5.463 5.898,5.93 6.566,5.735 6.869,5.647 7.1,5.451 7.388,5.311 7.641,5.175 7.898,5.108 8.085,4.842 c 0.284,1.12 0.757,2.18 1.275,3.209 0.286,0.568 0.435,0.95 0.548,1.577 1.809,0.135 1.884,1.431 1.55,1.459 0.107,-0.338 -0.212,-0.558 -0.471,-0.698 C 10.672,10.219 10.169,9.974 9.813,10.167 9.662,10.249 9.589,10.41 9.564,10.574 9.537,10.722 9.221,10.84 9.111,10.991 8.829,11.377 8.798,11.911 8.768,12.37 8.755,12.573 8.755,12.777 8.717,12.977 Z m 3.324,1.12 c -0.236,0.113 -0.47,0.233 -0.682,0.389 -0.261,0.193 -0.442,0.463 -0.694,0.665 -0.393,0.316 -0.988,0.548 -1.463,0.267 -0.537,-0.319 -0.483,-0.915 -0.343,-1.441 0.088,-0.331 0.211,-0.656 0.263,-0.995 0.046,-0.296 0.035,-0.599 0.073,-0.896 0.044,-0.347 0.125,-0.776 0.473,-0.946 0.016,0.259 0.108,0.545 0.313,0.717 0.227,0.19 0.527,0.138 0.776,0.025 0.214,-0.097 0.425,-0.371 0.645,-0.377 0.244,-0.006 0.491,0.054 0.616,0.283 0.134,0.246 0.138,0.539 0.238,0.798 0.093,0.241 0.308,0.405 0.432,0.629 0.274,0.496 -0.273,0.703 -0.648,0.883 z"
             style="fill:#c62828;fill-opacity:1" /><path
             id="path7405"
             class="iconic-platform-linux-mouth iconic-property-fill"
             d="M 7.672,4.432 C 7.552,4.351 7.209,4.648 7.016,4.759 6.773,4.899 6.508,5.031 6.224,5.055 5.97,5.076 5.714,5.009 5.517,4.851 5.36,4.726 5.094,4.454 5.04,4.505 4.964,4.577 5.226,4.771 5.342,4.862 5.595,5.062 5.899,5.193 6.226,5.168 6.562,5.143 6.868,4.978 7.152,4.81 7.291,4.728 7.427,4.634 7.577,4.573 7.658,4.54 7.769,4.497 7.672,4.432 Z"
             style="fill:#c62828;fill-opacity:1" /></g></g><g
         id="g7407"
         transform="scale(8,8)"
         display="none"
         class="iconic-sm iconic-container"
         data-height="16"
         data-width="16"
         style="display:none;fill:#c62828;fill-opacity:1"><g
           id="g7409"
           display="none"
           class="iconic-platform-microsoft"
           style="display:none;fill:#c62828;fill-opacity:1"><path
             id="path7411"
             d="M 0,2.265 6.539,1.377 6.542,7.665 0.006,7.702 Z"
             class="iconic-platform-microsoft-top iconic-platform-microsoft-left iconic-platform-microsoft-top-left iconic-property-fill"
             style="fill:#c62828;fill-opacity:1" /><path
             id="path7413"
             d="m 6.536,8.39 0.005,6.293 -6.536,-0.896 0,-5.44 z"
             class="iconic-platform-microsoft-bottom iconic-platform-microsoft-left iconic-platform-microsoft-bottom-left iconic-property-fill"
             style="fill:#c62828;fill-opacity:1" /><path
             id="path7415"
             d="M 7.328,1.261 15.998,0 l 0,7.585 -8.67,0.069 z"
             class="iconic-platform-microsoft-top iconic-platform-microsoft-right iconic-platform-microsoft-top-right iconic-property-fill"
             style="fill:#c62828;fill-opacity:1" /><path
             id="path7417"
             d="M 16,8.449 15.998,16 7.328,14.78 7.316,8.435 Z"
             class="iconic-platform-microsoft-bottom iconic-platform-microsoft-right iconic-platform-microsoft-bottom-right iconic-property-fill"
             style="fill:#c62828;fill-opacity:1" /></g></g></g><ellipse
       ry="24.803736"
       rx="24.809561"
       transform="scale(1,-1)"
       cy="-125.31878"
       cx="130.36967"
       id="circle7421"
       style="opacity:0.98999999;fill:#ffffff;fill-opacity:1;stroke:#1e88e5;stroke-width:3;stroke-linecap:round;stroke-linejoin:round;stroke-miterlimit:4;stroke-dasharray:none;stroke-opacity:1" /><g
       id="g7423"
       transform="matrix(0.16467858,0,0,-0.16463992,119.83025,135.85574)"
       style="opacity:0.98999999;fill:#c62828;fill-opacity:1"><g
         id="g7425"
         style="fill:#c62828;fill-opacity:1"><title
           id="title7427">Platform</title></g><g
         id="g7429"
         transform="translate(9,0)"
         display="inline"
         class="iconic-lg iconic-container"
         data-height="128"
         data-width="109"
         style="display:inline;fill:#c62828;fill-opacity:1"><g
           id="g7431"
           display="none"
           class="iconic-platform-android"
           style="display:none;fill:#c62828;fill-opacity:1"><path
             id="path7433"
             class="iconic-platform-android-arm iconic-platform-android-arm-left iconic-property-fill"
             d="M 7.899,41.403 C 3.537,41.401 0.001,44.944 0,49.303 l 0.006,33.083 c 0.001,4.374 3.538,7.903 7.901,7.902 4.366,0 7.902,-3.531 7.898,-7.902 L 15.806,49.299 C 15.804,44.941 12.263,41.401 7.9,41.404"
             style="fill:#c62828;fill-opacity:1" /><path
             id="path7435"
             class="iconic-platform-android-arm iconic-platform-android-arm-right iconic-property-fill"
             d="m 108.342,49.29 c -0.001,-4.363 -3.537,-7.899 -7.9,-7.898 -4.362,-0.003 -7.898,3.539 -7.897,7.902 l 0.005,33.083 c 0,4.368 3.534,7.898 7.9,7.899 4.362,-10e-4 7.897,-3.531 7.898,-7.902 L 108.342,49.29 Z"
             style="fill:#c62828;fill-opacity:1" /><path
             id="path7437"
             class="iconic-platform-android-body iconic-property-fill"
             d="m 18.866,42.894 0.012,51.269 c -0.004,4.664 3.768,8.428 8.429,8.429 l 5.74,0.002 0.007,17.505 c -0.001,4.357 3.542,7.901 7.894,7.901 4.365,0 7.902,-3.546 7.903,-7.906 l -0.004,-17.501 10.666,-0.002 0.004,17.504 c -0.001,4.356 3.544,7.904 7.897,7.897 4.365,0.003 7.904,-3.543 7.903,-7.904 l -0.005,-17.499 5.76,-0.004 c 4.65,0.002 8.432,-3.768 8.433,-8.431 l -0.009,-51.27 -70.63,0.012 z"
             style="fill:#c62828;fill-opacity:1" /><path
             id="path7439"
             class="iconic-platform-android-head iconic-property-fill"
             d="M 71.608,11.694 77.122,1.624 C 77.416,1.098 77.223,0.428 76.69,0.13 76.152,-0.155 75.488,0.039 75.203,0.569 L 69.634,10.744 C 64.946,8.659 59.703,7.488 54.154,7.495 48.619,7.49 43.377,8.656 38.71,10.729 L 33.135,0.581 C 32.845,0.045 32.178,-0.148 31.651,0.143 31.114,0.432 30.918,1.103 31.216,1.628 L 36.733,11.69 C 25.894,17.28 18.571,27.925 18.577,40.145 L 89.74,40.138 C 89.742,27.919 82.432,17.297 71.609,11.693 Z m -33.64,15.56 c -1.639,-0.004 -2.974,-1.336 -2.974,-2.981 10e-4,-1.639 1.333,-2.987 2.977,-2.987 1.65,-0.001 2.985,1.348 2.987,2.986 0.001,1.644 -1.337,2.981 -2.989,2.982 z m 32.403,-0.006 c -1.645,0.002 -2.984,-1.332 -2.984,-2.983 0.005,-1.635 1.337,-2.984 2.985,-2.99 1.636,0.005 2.978,1.354 2.977,2.991 0.004,1.647 -1.334,2.982 -2.978,2.981 z"
             style="fill:#c62828;fill-opacity:1" /></g></g><g
         id="g7441"
         transform="translate(11,0)"
         display="inline"
         class="iconic-lg iconic-container"
         data-height="128"
         data-width="105"
         style="display:inline;fill:#c62828;fill-opacity:1"><g
           id="g7443"
           display="none"
           class="iconic-platform-apple"
           style="display:none;fill:#c62828;fill-opacity:1"><path
             id="path7445"
             class="iconic-platform-apple-body iconic-property-fill"
             d="m 100.793,41.885 c -9.109,6.874 -13.646,15.13 -13.62,24.776 0.034,11.531 5.697,20.358 16.998,26.499 -3.011,9.296 -7.369,17.407 -13.1,24.307 -5.723,6.925 -10.96,10.38 -15.701,10.397 -2.243,0 -5.288,-0.768 -9.151,-2.311 l -1.859,-0.734 c -3.795,-1.603 -7.156,-2.345 -10.055,-2.345 -2.755,0.017 -5.766,0.631 -9.032,1.868 l -2.328,0.895 -2.934,1.262 c -2.303,0.981 -4.64,1.484 -7.002,1.501 -5.544,0.017 -11.676,-4.793 -18.405,-14.473 C 4.907,99.702 0.045,84.589 0.003,68.248 -0.031,56.623 2.954,47.259 8.958,40.137 14.962,33.024 22.928,29.45 32.856,29.416 c 3.719,-0.009 7.181,0.708 10.422,2.132 l 2.217,0.947 2.328,1.006 c 2.072,0.921 3.753,1.382 5.023,1.382 1.637,0 3.454,-0.409 5.441,-1.228 l 3.053,-1.271 2.269,-0.887 c 3.625,-1.407 7.633,-2.115 12.017,-2.132 10.422,-0.043 18.806,4.128 25.168,12.52 z"
             style="fill:#c62828;fill-opacity:1" /><path
             id="path7447"
             class="iconic-platform-apple-leaf iconic-property-fill"
             d="m 76.026,0 c 0.119,1.476 0.188,2.618 0.196,3.42 0.017,7.309 -2.49,13.731 -7.497,19.267 -5.007,5.536 -10.84,8.299 -17.501,8.307 C 51.028,29.348 50.917,28.162 50.917,27.446 50.9,21.228 53.22,15.386 57.877,9.928 62.517,4.461 67.915,1.263 74.056,0.316 74.499,0.239 75.156,0.12 76.026,0 Z"
             style="fill:#c62828;fill-opacity:1" /></g></g><g
         id="g7449"
         transform="translate(11,0)"
         display="inline"
         class="iconic-lg iconic-container"
         data-height="128"
         data-width="106"
         style="display:inline;fill:#c62828;fill-opacity:1"><g
           id="g7451"
           display="none"
           class="iconic-platform-linux"
           style="display:none;fill:#c62828;fill-opacity:1"><path
             id="path7453"
             class="iconic-platform-linux-body iconic-property-fill"
             d="m 103.749,103.25 c -1.469,-2.031 -2.697,-3.232 -3.33,-5.752 -0.624,-2.484 -0.955,-5.301 -2.996,-7.089 -0.456,-0.402 -0.97,-0.742 -1.517,-1.004 -0.874,-0.42 -0.262,-0.966 -0.041,-1.796 0.41,-1.538 0.674,-3.114 0.791,-4.7 0.245,-3.323 -0.158,-6.668 -1.021,-9.88 C 94.08,67.238 91.118,61.894 87.672,57.025 84.697,52.821 81.112,49.072 78.303,44.748 75.539,40.494 74.448,36.171 74.518,31.134 74.563,27.893 74.582,24.648 74.339,21.413 73.96,16.372 73.006,11.042 70.083,6.8 66.753,1.969 61.247,0.006 55.543,-0.001 48.085,-0.015 40.693,2.682 37.567,9.907 c -2.394,5.534 -2.17,11.846 -1.796,17.737 0.51,8.042 -0.29,16.218 -5.696,22.712 -7.173,8.617 -14.323,19.102 -15.754,30.484 -0.185,1.468 -0.257,2.952 -0.184,4.431 0.036,0.727 0.107,1.453 0.216,2.173 -0.538,0.482 -1.013,1.032 -1.461,1.597 -0.904,1.14 -1.675,2.398 -2.677,3.458 -0.983,0.98 -2.359,1.408 -3.638,1.851 -2.156,0.747 -4.138,1.737 -5.243,3.848 -1.544,3.02 -0.049,6.411 0.003,9.573 0.045,2.7 -1.657,5.077 -1.285,7.874 0.356,2.677 2.508,4.066 4.961,4.671 2.911,0.718 5.952,0.791 8.905,1.272 1.576,0.257 3.144,0.606 4.644,1.162 0.829,0.307 1.401,0.601 1.872,0.834 5.711,2.986 14.903,5.253 19.587,-0.948 0.231,-0.305 0.423,-0.637 0.602,-0.976 0.404,-0.767 0.824,-0.531 1.633,-0.616 1.366,-0.144 2.714,-0.432 4.062,-0.688 3.319,-0.631 6.699,-1.14 10.077,-0.753 3.451,0.395 6.855,1.098 10.348,0.904 0.669,2.778 2.827,5.271 5.381,6.491 6.293,3.006 13.36,-1.255 17.38,-6.039 0.292,-0.377 0.292,-0.377 0.857,-0.945 0.888,-0.894 1.89,-1.667 2.943,-2.355 2.217,-1.448 4.649,-2.504 7.003,-3.701 1.976,-1.004 4.387,-2.228 5.172,-4.464 0.775,-2.208 -0.466,-4.495 -1.73,-6.242 z M 52.761,21.839 c 0.977,-2.214 2.966,-4.153 5.519,-4.139 4.083,0 6.31,4.435 6.377,8.004 0,1.668 -0.297,3.247 -1.062,4.743 -0.351,0.686 -0.577,1.493 -1.369,1.167 -0.857,-0.217 -1.947,-0.775 -2.735,-1.049 1.57,-1.887 1.878,-7.021 -1.082,-7.899 -2.924,-0.867 -3.802,3.725 -3.463,5.681 -0.578,-0.288 -1.173,-0.542 -1.783,-0.751 -1.103,-0.377 -1.181,-0.311 -1.209,-1.546 -0.03,-1.451 0.221,-2.881 0.808,-4.211 z m 4.287,9.252 c 2.051,0.922 5.099,1.248 6.49,3.214 1.936,2.736 -1.702,5.58 -3.88,6.544 -1.197,0.53 -2.34,0.894 -3.464,1.61 -1.354,0.863 -2.699,1.75 -4.275,2.152 -3.123,0.795 -5.468,-0.346 -7.719,-2.385 -1.777,-1.61 -4.615,-2.582 -5.368,-5.071 -0.819,-2.708 2.712,-3.949 4.341,-5.393 2.022,-1.714 3.784,-3.375 6.63,-3.385 2.826,-0.011 4.801,1.616 7.245,2.714 z M 42.578,18.943 c 2.417,0.006 3.89,2.609 4.446,4.641 0.263,0.962 0.37,1.973 0.362,2.97 -0.01,1.196 -1.621,1.687 -2.626,2.232 0.21,-1.481 -1.261,-7.203 -3.421,-4.572 -1.352,1.647 -1.046,5.326 0.742,6.584 -0.393,0.303 -0.793,0.597 -1.193,0.891 -0.718,0.527 -1.202,-0.631 -1.539,-1.257 -0.813,-1.51 -1.169,-3.214 -1.156,-4.921 0.018,-2.515 1.223,-6.602 4.386,-6.569 z m -8.04,103.121 c -4.544,2.168 -9.733,0.13 -13.91,-1.865 -4.385,-2.094 -9.167,-1.646 -13.755,-2.811 -4.774,-1.212 -2.793,-4.977 -2.137,-8.446 0.8,-4.229 -2.697,-9.485 2.775,-11.61 1.724,-0.67 3.509,-1.075 4.876,-2.412 1.591,-1.678 2.666,-4.306 4.849,-5.329 0.495,-0.232 1.041,-0.342 1.586,-0.336 4.948,0.019 7.68,6.655 9.45,10.36 2.245,4.697 6.201,8.139 8.682,12.674 1.873,3.424 1.46,7.925 -2.417,9.774 z m 33.199,-12.365 c -3.149,2.156 -6.691,3.784 -10.423,4.614 -3.774,0.84 -7.735,0.824 -11.457,-0.264 -1.981,-0.579 -3.872,-1.451 -5.611,-2.561 -1.677,-1.07 -2.955,-3.711 -4.211,-5.289 4.137,0.003 5.197,-3.337 3.463,-6.641 -1.796,-3.422 -5.018,-6.08 -8.13,-8.255 C 28.052,88.986 27.216,87.8 26.542,84.362 23.526,68.965 39.001,56.383 39.826,40.833 c 3.946,2.865 7.343,6.601 12.686,5.042 2.424,-0.707 4.272,-2.273 6.579,-3.394 2.026,-1.089 4.078,-1.62 5.578,-3.75 2.273,8.962 6.056,17.443 10.201,25.668 2.291,4.546 3.478,7.596 4.387,12.615 14.475,1.078 15.071,11.446 12.402,11.672 0.856,-2.707 -1.693,-4.467 -3.767,-5.587 -2.518,-1.36 -6.543,-3.32 -9.396,-1.774 -1.211,0.657 -1.794,1.946 -1.992,3.257 -0.218,1.182 -2.746,2.131 -3.624,3.333 -2.255,3.084 -2.5,7.359 -2.745,11.031 -0.108,1.622 -0.101,3.259 -0.41,4.859 -0.302,1.563 -0.67,4.994 -1.985,5.894 z m 28.579,3.063 c -1.888,0.906 -3.763,1.864 -5.454,3.11 -2.09,1.541 -3.539,3.701 -5.555,5.322 -3.142,2.526 -7.904,4.385 -11.701,2.132 -4.297,-2.55 -3.865,-7.324 -2.746,-11.53 0.704,-2.647 1.685,-5.248 2.104,-7.963 0.365,-2.366 0.284,-4.793 0.584,-7.172 0.35,-2.78 1.002,-6.211 3.786,-7.568 0.128,2.075 0.862,4.36 2.506,5.733 1.816,1.517 4.213,1.106 6.212,0.203 1.709,-0.772 3.402,-2.97 5.164,-3.013 1.953,-0.047 3.929,0.436 4.926,2.265 1.073,1.97 1.102,4.316 1.905,6.385 0.747,1.927 2.463,3.238 3.455,5.033 2.192,3.965 -2.183,5.622 -5.186,7.064 z"
             style="fill:#c62828;fill-opacity:1" /><path
             id="path7455"
             class="iconic-platform-linux-mouth iconic-property-fill"
             d="m 61.375,35.457 c -0.964,-0.647 -3.707,1.73 -5.247,2.618 -1.944,1.122 -4.063,2.179 -6.335,2.369 -2.034,0.171 -4.079,-0.37 -5.654,-1.63 -1.253,-1.002 -3.381,-3.178 -3.819,-2.765 -0.611,0.576 1.492,2.125 2.413,2.854 2.021,1.601 4.454,2.647 7.073,2.449 2.687,-0.202 5.138,-1.517 7.412,-2.866 1.108,-0.658 2.2,-1.412 3.398,-1.899 0.651,-0.265 1.537,-0.607 0.758,-1.13 z"
             style="fill:#c62828;fill-opacity:1" /></g></g><g
         id="g7457"
         display="inline"
         class="iconic-lg iconic-container"
         data-height="128"
         data-width="128"
         style="display:inline;fill:#c62828;fill-opacity:1"><g
           id="g7459"
           display="inline"
           class="iconic-platform-microsoft"
           style="display:inline;fill:#c62828;fill-opacity:1"><path
             id="path7461"
             d="M 0,18.123 52.309,11.021 52.332,61.322 0.047,61.619 Z"
             class="iconic-platform-microsoft-top iconic-platform-microsoft-left iconic-platform-microsoft-top-left iconic-property-fill"
             style="fill:#c62828;fill-opacity:1" /><path
             id="path7463"
             d="M 52.285,67.118 52.326,117.463 0.041,110.297 0.038,66.78 Z"
             class="iconic-platform-microsoft-bottom iconic-platform-microsoft-left iconic-platform-microsoft-bottom-left iconic-property-fill"
             style="fill:#c62828;fill-opacity:1" /><path
             id="path7465"
             d="M 58.626,10.091 127.984,0 l 0,60.682 -69.358,0.549 z"
             class="iconic-platform-microsoft-top iconic-platform-microsoft-right iconic-platform-microsoft-top-right iconic-property-fill"
             style="fill:#c62828;fill-opacity:1" /><path
             id="path7467"
             d="M 128,67.591 127.984,128 58.626,118.241 58.529,67.478 Z"
             class="iconic-platform-microsoft-bottom iconic-platform-microsoft-right iconic-platform-microsoft-bottom-right iconic-property-fill"
             style="fill:#c62828;fill-opacity:1" /></g></g><g
         id="g7469"
         transform="matrix(4,0,0,4,8,0)"
         display="none"
         class="iconic-md iconic-container"
         data-height="32"
         data-width="28"
         style="display:none;fill:#c62828;fill-opacity:1"><g
           id="g7471"
           display="none"
           class="iconic-platform-android"
           style="display:none;fill:#c62828;fill-opacity:1"><path
             id="path7473"
             class="iconic-platform-android-arm iconic-platform-android-arm-left iconic-property-fill"
             d="M 1.975,10.351 C 0.884,10.35 0,11.236 0,12.326 l 0.001,8.271 c 0,1.093 0.885,1.976 1.975,1.976 1.091,0 1.976,-0.883 1.974,-1.976 l 0,-8.272 c 0,-1.089 -0.886,-1.975 -1.976,-1.974"
             style="fill:#c62828;fill-opacity:1" /><path
             id="path7475"
             class="iconic-platform-android-arm iconic-platform-android-arm-right iconic-property-fill"
             d="m 27.085,12.322 c 0,-1.091 -0.884,-1.975 -1.975,-1.975 -1.091,-10e-4 -1.975,0.885 -1.974,1.976 l 0.001,8.271 c 0,1.092 0.884,1.974 1.975,1.975 1.091,0 1.974,-0.883 1.974,-1.976 l -0.002,-8.271 z"
             style="fill:#c62828;fill-opacity:1" /><path
             id="path7477"
             class="iconic-platform-android-body iconic-property-fill"
             d="m 4.716,10.724 0.003,12.817 c -0.001,1.166 0.942,2.107 2.107,2.107 l 1.435,0.001 0.002,4.376 c 0,1.089 0.885,1.975 1.973,1.975 1.091,0 1.976,-0.886 1.976,-1.977 l -10e-4,-4.375 2.666,-0.001 10e-4,4.376 c 0,1.089 0.886,1.976 1.974,1.974 1.091,0.001 1.976,-0.886 1.976,-1.976 l -10e-4,-4.375 1.44,-0.001 c 1.163,0 2.108,-0.942 2.108,-2.108 L 22.373,10.719 4.715,10.722 Z"
             style="fill:#c62828;fill-opacity:1" /><path
             id="path7479"
             class="iconic-platform-android-head iconic-property-fill"
             d="M 17.902,2.924 19.281,0.406 C 19.354,0.274 19.306,0.107 19.173,0.033 19.038,-0.038 18.873,0.01 18.801,0.143 L 17.409,2.687 C 16.237,2.166 14.926,1.873 13.539,1.875 12.155,1.874 10.845,2.165 9.678,2.683 L 8.284,0.146 C 8.212,0.012 8.045,-0.036 7.913,0.037 7.779,0.109 7.73,0.277 7.804,0.408 L 9.183,2.923 C 6.473,4.321 4.642,6.982 4.644,10.037 L 22.435,10.035 C 22.436,6.98 20.608,4.325 17.902,2.924 Z m -8.41,3.89 C 9.082,6.813 8.749,6.48 8.749,6.069 c 0,-0.41 0.333,-0.747 0.744,-0.747 0.412,0 0.746,0.337 0.747,0.747 0,0.411 -0.334,0.745 -0.747,0.745 z M 17.593,6.813 C 17.182,6.814 16.847,6.48 16.847,6.067 16.848,5.658 17.181,5.321 17.593,5.32 c 0.409,10e-4 0.745,0.338 0.744,0.748 0.001,0.412 -0.333,0.745 -0.745,0.745 z"
             style="fill:#c62828;fill-opacity:1" /></g></g><g
         id="g7481"
         transform="matrix(4,0,0,4,8,0)"
         display="none"
         class="iconic-md iconic-container"
         data-height="32"
         data-width="27"
         style="display:none;fill:#c62828;fill-opacity:1"><g
           id="g7483"
           display="none"
           class="iconic-platform-apple"
           style="display:none;fill:#c62828;fill-opacity:1"><path
             id="path7485"
             class="iconic-platform-apple-body iconic-property-fill"
             d="m 25.198,10.471 c -2.277,1.718 -3.412,3.783 -3.405,6.194 0.009,2.883 1.424,5.09 4.25,6.625 -0.753,2.324 -1.842,4.352 -3.275,6.077 -1.431,1.731 -2.74,2.595 -3.925,2.599 -0.561,0 -1.322,-0.192 -2.288,-0.578 L 16.09,31.205 c -0.949,-0.401 -1.789,-0.586 -2.514,-0.586 -0.689,0.004 -1.441,0.158 -2.258,0.467 l -0.582,0.224 -0.734,0.316 C 9.426,31.871 8.842,31.997 8.252,32.001 6.866,32.005 5.333,30.803 3.651,28.383 1.227,24.927 0.011,21.149 0.001,17.063 -0.008,14.157 0.739,11.816 2.24,10.035 3.741,8.257 5.733,7.363 8.214,7.355 9.144,7.353 10.009,7.532 10.82,7.888 l 0.554,0.237 0.582,0.252 c 0.518,0.23 0.938,0.345 1.256,0.345 0.409,0 0.864,-0.102 1.36,-0.307 l 0.763,-0.318 0.567,-0.222 c 0.906,-0.352 1.908,-0.529 3.004,-0.533 2.606,-0.011 4.701,1.032 6.292,3.13 z"
             style="fill:#c62828;fill-opacity:1" /><path
             id="path7487"
             class="iconic-platform-apple-leaf iconic-property-fill"
             d="m 19.006,0 c 0.03,0.369 0.047,0.655 0.049,0.855 0.004,1.827 -0.623,3.433 -1.874,4.817 C 15.93,7.056 14.471,7.747 12.806,7.749 12.757,7.338 12.729,7.041 12.729,6.862 12.725,5.308 13.305,3.847 14.469,2.482 15.629,1.115 16.979,0.316 18.514,0.079 18.625,0.06 18.789,0.03 19.006,0 Z"
             style="fill:#c62828;fill-opacity:1" /></g></g><g
         id="g7489"
         transform="matrix(4,0,0,4,8,0)"
         display="none"
         class="iconic-md iconic-container"
         data-height="32"
         data-width="27"
         style="display:none;fill:#c62828;fill-opacity:1"><g
           id="g7491"
           display="none"
           class="iconic-platform-linux"
           style="display:none;fill:#c62828;fill-opacity:1"><path
             id="path7493"
             class="iconic-platform-linux-body iconic-property-fill"
             d="m 25.937,25.813 c -0.367,-0.508 -0.674,-0.808 -0.833,-1.438 -0.156,-0.621 -0.239,-1.325 -0.749,-1.772 -0.114,-0.1 -0.242,-0.185 -0.379,-0.251 -0.218,-0.105 -0.066,-0.241 -0.01,-0.449 0.102,-0.385 0.169,-0.778 0.198,-1.175 0.061,-0.831 -0.04,-1.667 -0.255,-2.47 C 23.52,16.81 22.78,15.474 21.918,14.257 21.174,13.206 20.278,12.269 19.576,11.188 18.885,10.125 18.612,9.044 18.63,7.785 18.641,6.975 18.646,6.163 18.585,5.355 18.49,4.095 18.252,2.762 17.521,1.702 16.688,0.494 15.312,0.004 13.886,0.002 12.022,-0.001 10.173,0.673 9.392,2.479 8.793,3.862 8.85,5.441 8.943,6.913 9.071,8.924 8.871,10.968 7.519,12.591 5.726,14.745 3.938,17.367 3.581,20.212 3.535,20.579 3.517,20.95 3.535,21.32 c 0.009,0.182 0.027,0.363 0.054,0.543 -0.135,0.12 -0.253,0.258 -0.365,0.399 -0.226,0.285 -0.419,0.6 -0.669,0.865 -0.246,0.245 -0.59,0.352 -0.909,0.463 -0.539,0.187 -1.034,0.434 -1.311,0.962 -0.386,0.755 -0.012,1.603 0.001,2.393 0.011,0.675 -0.414,1.269 -0.321,1.968 0.089,0.669 0.627,1.017 1.24,1.168 0.728,0.179 1.488,0.198 2.226,0.318 0.394,0.064 0.786,0.151 1.161,0.29 0.207,0.077 0.35,0.15 0.468,0.208 1.428,0.746 3.726,1.313 4.897,-0.237 0.058,-0.076 0.106,-0.159 0.15,-0.244 0.101,-0.192 0.206,-0.133 0.408,-0.154 0.342,-0.036 0.678,-0.108 1.016,-0.172 0.83,-0.158 1.675,-0.285 2.519,-0.188 0.863,0.099 1.714,0.275 2.587,0.226 0.167,0.695 0.707,1.318 1.345,1.623 1.573,0.751 3.34,-0.314 4.345,-1.51 0.073,-0.094 0.073,-0.094 0.214,-0.236 0.222,-0.223 0.472,-0.417 0.736,-0.589 0.554,-0.362 1.162,-0.626 1.751,-0.925 0.494,-0.251 1.097,-0.557 1.293,-1.116 0.194,-0.552 -0.116,-1.124 -0.432,-1.56 z M 13.19,5.46 c 0.244,-0.554 0.741,-1.038 1.38,-1.035 1.021,0 1.577,1.109 1.594,2.001 0,0.417 -0.074,0.812 -0.266,1.186 C 15.81,7.784 15.754,7.985 15.556,7.904 15.342,7.85 15.069,7.71 14.872,7.642 15.265,7.17 15.342,5.887 14.601,5.667 13.87,5.45 13.651,6.598 13.735,7.087 13.591,7.015 13.442,6.951 13.289,6.899 13.013,6.805 12.994,6.821 12.987,6.512 12.979,6.149 13.042,5.792 13.189,5.459 Z m 1.072,2.313 c 0.513,0.23 1.275,0.312 1.623,0.803 0.484,0.684 -0.425,1.395 -0.97,1.636 -0.299,0.132 -0.585,0.224 -0.866,0.403 -0.339,0.216 -0.675,0.438 -1.069,0.538 -0.781,0.199 -1.367,-0.086 -1.93,-0.596 C 10.606,10.155 9.896,9.912 9.708,9.289 9.503,8.612 10.386,8.302 10.793,7.941 c 0.505,-0.428 0.946,-0.844 1.658,-0.846 0.706,-0.003 1.2,0.404 1.811,0.679 z M 10.645,4.736 c 0.604,0.001 0.973,0.652 1.111,1.16 0.066,0.241 0.092,0.493 0.09,0.743 C 11.844,6.938 11.441,7.061 11.189,7.197 11.241,6.827 10.874,5.396 10.334,6.054 9.996,6.466 10.072,7.386 10.519,7.7 10.421,7.776 10.321,7.849 10.221,7.923 10.042,8.055 9.921,7.765 9.836,7.609 9.633,7.231 9.544,6.805 9.547,6.379 9.552,5.75 9.853,4.729 10.644,4.737 Z m -2.01,25.78 C 7.499,31.058 6.202,30.549 5.157,30.05 4.061,29.527 2.865,29.638 1.718,29.347 0.524,29.044 1.02,28.103 1.184,27.236 c 0.2,-1.057 -0.674,-2.371 0.694,-2.902 0.431,-0.167 0.877,-0.269 1.219,-0.603 0.398,-0.42 0.667,-1.077 1.212,-1.332 0.124,-0.058 0.26,-0.085 0.397,-0.084 1.237,0.005 1.92,1.664 2.362,2.59 0.561,1.174 1.55,2.035 2.171,3.168 0.468,0.856 0.365,1.981 -0.604,2.444 z m 8.3,-3.091 c -0.787,0.539 -1.673,0.946 -2.606,1.153 -0.943,0.21 -1.934,0.206 -2.864,-0.066 C 10.97,28.367 10.497,28.149 10.062,27.872 9.643,27.605 9.323,26.944 9.009,26.55 10.043,26.551 10.308,25.716 9.875,24.89 9.426,24.035 8.621,23.37 7.842,22.826 7.013,22.247 6.804,21.95 6.636,21.091 5.882,17.242 9.751,14.096 9.957,10.209 c 0.987,0.716 1.836,1.65 3.171,1.261 0.606,-0.177 1.068,-0.568 1.645,-0.849 0.506,-0.272 1.02,-0.405 1.395,-0.937 0.568,2.24 1.514,4.361 2.55,6.417 0.573,1.137 0.87,1.899 1.097,3.154 3.619,0.269 3.768,2.861 3.101,2.918 0.214,-0.677 -0.423,-1.117 -0.942,-1.397 -0.63,-0.34 -1.636,-0.83 -2.349,-0.444 -0.303,0.164 -0.448,0.486 -0.498,0.814 -0.054,0.296 -0.686,0.533 -0.906,0.833 -0.564,0.771 -0.625,1.84 -0.686,2.758 -0.027,0.405 -0.025,0.815 -0.103,1.215 -0.076,0.391 -0.168,1.248 -0.497,1.473 z m 7.145,0.766 c -0.472,0.227 -0.941,0.466 -1.363,0.778 -0.522,0.385 -0.885,0.925 -1.389,1.33 -0.785,0.631 -1.976,1.096 -2.925,0.533 -1.074,-0.637 -0.966,-1.831 -0.686,-2.882 0.176,-0.662 0.421,-1.312 0.526,-1.991 0.091,-0.592 0.071,-1.198 0.146,-1.793 0.087,-0.695 0.251,-1.553 0.947,-1.892 0.032,0.519 0.215,1.09 0.627,1.433 0.454,0.379 1.053,0.277 1.553,0.051 0.427,-0.193 0.85,-0.743 1.291,-0.753 0.488,-0.012 0.982,0.109 1.231,0.566 0.268,0.492 0.276,1.079 0.476,1.596 0.187,0.482 0.616,0.809 0.864,1.258 0.548,0.991 -0.546,1.406 -1.296,1.766 z"
             style="fill:#c62828;fill-opacity:1" /><path
             id="path7495"
             class="iconic-platform-linux-mouth iconic-property-fill"
             d="M 15.344,8.864 C 15.103,8.702 14.417,9.296 14.032,9.519 13.546,9.8 13.016,10.064 12.448,10.111 11.94,10.154 11.428,10.018 11.034,9.703 10.721,9.452 10.189,8.908 10.079,9.012 c -0.153,0.144 0.373,0.531 0.603,0.714 0.505,0.4 1.113,0.662 1.768,0.612 0.672,-0.051 1.285,-0.379 1.853,-0.717 0.277,-0.165 0.55,-0.353 0.85,-0.475 0.163,-0.066 0.384,-0.152 0.19,-0.282 z"
             style="fill:#c62828;fill-opacity:1" /></g></g><g
         id="g7497"
         transform="scale(4,4)"
         display="none"
         class="iconic-md iconic-container"
         data-height="32"
         data-width="32"
         style="display:none;fill:#c62828;fill-opacity:1"><g
           id="g7499"
           display="inline"
           class="iconic-platform-microsoft"
           style="display:inline;fill:#c62828;fill-opacity:1"><path
             id="path7501"
             d="M 0,4.531 13.077,2.755 13.083,15.33 0.012,15.404 Z"
             class="iconic-platform-microsoft-top iconic-platform-microsoft-left iconic-platform-microsoft-top-left iconic-property-fill"
             style="fill:#c62828;fill-opacity:1" /><path
             id="path7503"
             d="M 13.071,16.779 13.081,29.365 0.01,27.573 0.009,16.694 Z"
             class="iconic-platform-microsoft-bottom iconic-platform-microsoft-left iconic-platform-microsoft-bottom-left iconic-property-fill"
             style="fill:#c62828;fill-opacity:1" /><path
             id="path7505"
             d="M 14.656,2.523 31.996,0 l 0,15.171 -17.34,0.137 z"
             class="iconic-platform-microsoft-top iconic-platform-microsoft-right iconic-platform-microsoft-top-right iconic-property-fill"
             style="fill:#c62828;fill-opacity:1" /><path
             id="path7507"
             d="M 32,16.898 31.996,32 14.656,29.56 14.632,16.869 Z"
             class="iconic-platform-microsoft-bottom iconic-platform-microsoft-right iconic-platform-microsoft-bottom-right iconic-property-fill"
             style="fill:#c62828;fill-opacity:1" /></g></g><g
         id="g7509"
         transform="matrix(8,0,0,8,8,0)"
         display="none"
         class="iconic-sm iconic-container"
         data-height="16"
         data-width="14"
         style="display:none;fill:#c62828;fill-opacity:1"><g
           id="g7511"
           display="none"
           class="iconic-platform-android"
           style="display:none;fill:#c62828;fill-opacity:1"><path
             id="path7513"
             class="iconic-platform-android-arm iconic-platform-android-arm-left iconic-property-fill"
             d="M 0.987,5.175 C 0.442,5.175 0,5.618 0,6.162 l 0.001,4.135 c 0,0.547 0.442,0.988 0.988,0.988 0.546,0 0.988,-0.441 0.987,-0.988 l 0,-4.136 C 1.976,5.616 1.533,5.174 0.988,5.174"
             style="fill:#c62828;fill-opacity:1" /><path
             id="path7515"
             class="iconic-platform-android-arm iconic-platform-android-arm-right iconic-property-fill"
             d="m 13.543,6.161 c 0,-0.545 -0.442,-0.987 -0.988,-0.987 -0.545,0 -0.987,0.442 -0.987,0.988 l 0.001,4.135 c 0,0.546 0.442,0.987 0.988,0.987 0.545,0 0.987,-0.441 0.987,-0.988 L 13.543,6.16 Z"
             style="fill:#c62828;fill-opacity:1" /><path
             id="path7517"
             class="iconic-platform-android-body iconic-property-fill"
             d="m 2.358,5.362 0.002,6.409 c 0,0.583 0.471,1.053 1.054,1.054 l 0.718,0 0.001,2.188 c 0,0.545 0.443,0.988 0.987,0.988 0.546,0 0.988,-0.443 0.988,-0.988 l -10e-4,-2.188 1.333,0 10e-4,2.188 c 0,0.544 0.443,0.988 0.987,0.987 0.546,0 0.988,-0.443 0.988,-0.988 l -0.001,-2.187 0.72,-10e-4 c 0.581,0 1.054,-0.471 1.054,-1.054 L 11.188,5.361 2.359,5.363 Z"
             style="fill:#c62828;fill-opacity:1" /><path
             id="path7519"
             class="iconic-platform-android-head iconic-property-fill"
             d="M 8.951,1.462 9.64,0.203 C 9.677,0.137 9.653,0.054 9.586,0.016 9.519,-0.02 9.436,0.004 9.4,0.071 L 8.704,1.343 C 8.118,1.082 7.463,0.936 6.769,0.937 6.077,0.936 5.422,1.082 4.838,1.341 L 4.141,0.073 C 4.105,0.006 4.021,-0.018 3.955,0.018 3.888,0.054 3.863,0.138 3.901,0.204 l 0.69,1.258 C 3.236,2.161 2.321,3.491 2.321,5.019 L 11.216,5.018 C 11.216,3.491 10.303,2.163 8.95,1.462 Z M 4.746,3.407 c -0.205,0 -0.372,-0.167 -0.372,-0.373 0,-0.205 0.167,-0.373 0.372,-0.373 0.206,0 0.373,0.169 0.373,0.373 0,0.206 -0.167,0.373 -0.374,0.373 z M 8.796,3.406 C 8.59,3.406 8.423,3.239 8.423,3.033 8.424,2.829 8.59,2.66 8.796,2.659 9,2.66 9.168,2.828 9.168,3.033 9.169,3.239 9.001,3.406 8.796,3.406 Z"
             style="fill:#c62828;fill-opacity:1" /></g></g><g
         id="g7521"
         transform="matrix(8,0,0,8,8,0)"
         display="none"
         class="iconic-sm iconic-container"
         data-height="16"
         data-width="14"
         style="display:none;fill:#c62828;fill-opacity:1"><g
           id="g7523"
           display="none"
           class="iconic-platform-apple"
           style="display:none;fill:#c62828;fill-opacity:1"><path
             id="path7525"
             class="iconic-platform-apple-body iconic-property-fill"
             d="m 12.599,5.236 c -1.139,0.859 -1.706,1.891 -1.703,3.097 0.004,1.441 0.712,2.545 2.125,3.312 -0.376,1.162 -0.921,2.176 -1.637,3.038 -0.715,0.866 -1.37,1.297 -1.963,1.3 -0.28,0 -0.661,-0.096 -1.144,-0.289 L 8.045,15.602 C 7.571,15.402 7.151,15.309 6.788,15.309 6.444,15.311 6.067,15.388 5.659,15.543 L 5.368,15.655 5.001,15.813 C 4.713,15.936 4.421,15.999 4.126,16.001 3.433,16.003 2.666,15.402 1.825,14.192 0.613,12.464 0.005,10.575 0,8.532 -0.004,7.079 0.369,5.908 1.119,5.018 1.87,4.129 2.865,3.682 4.106,3.678 4.571,3.677 5.004,3.766 5.409,3.945 l 0.277,0.118 0.291,0.126 c 0.259,0.115 0.469,0.173 0.628,0.173 0.205,0 0.432,-0.051 0.68,-0.153 L 7.667,4.05 7.951,3.939 C 8.404,3.763 8.905,3.675 9.453,3.672 c 1.303,-0.005 2.351,0.516 3.146,1.565 z"
             style="fill:#c62828;fill-opacity:1" /><path
             id="path7527"
             class="iconic-platform-apple-leaf iconic-property-fill"
             d="M 9.503,0 C 9.518,0.184 9.527,0.327 9.528,0.427 9.53,1.341 9.217,2.143 8.591,2.835 7.965,3.527 7.236,3.872 6.403,3.873 6.379,3.667 6.365,3.519 6.365,3.429 6.363,2.652 6.653,1.922 7.235,1.239 7.815,0.556 8.49,0.156 9.257,0.037 9.312,0.028 9.394,0.013 9.503,-0.002 Z"
             style="fill:#c62828;fill-opacity:1" /></g></g><g
         id="g7529"
         transform="matrix(8,0,0,8,8,0)"
         display="none"
         class="iconic-sm iconic-container"
         data-height="16"
         data-width="14"
         style="display:none;fill:#c62828;fill-opacity:1"><g
           id="g7531"
           display="none"
           class="iconic-platform-linux"
           style="display:none;fill:#c62828;fill-opacity:1"><path
             id="path7533"
             class="iconic-platform-linux-body iconic-property-fill"
             d="m 12.969,12.906 c -0.184,-0.254 -0.337,-0.404 -0.416,-0.719 -0.078,-0.31 -0.119,-0.663 -0.374,-0.886 -0.057,-0.05 -0.121,-0.093 -0.19,-0.126 -0.109,-0.052 -0.033,-0.121 -0.005,-0.225 0.051,-0.192 0.084,-0.389 0.099,-0.588 C 12.114,9.947 12.063,9.529 11.955,9.127 11.761,8.403 11.39,7.735 10.96,7.126 10.588,6.601 10.14,6.132 9.789,5.591 9.444,5.059 9.307,4.519 9.316,3.889 9.322,3.484 9.324,3.078 9.294,2.674 9.247,2.044 9.127,1.378 8.762,0.847 8.346,0.243 7.657,-0.002 6.944,-0.003 6.012,-0.005 5.088,0.332 4.697,1.235 4.398,1.927 4.426,2.716 4.473,3.452 4.537,4.457 4.437,5.479 3.761,6.291 2.864,7.368 1.971,8.679 1.792,10.101 1.769,10.284 1.76,10.47 1.769,10.655 c 0.004,0.091 0.013,0.182 0.027,0.272 -0.067,0.06 -0.127,0.129 -0.183,0.2 -0.113,0.142 -0.209,0.3 -0.335,0.432 -0.123,0.123 -0.295,0.176 -0.455,0.231 -0.27,0.093 -0.517,0.217 -0.655,0.481 -0.193,0.378 -0.006,0.801 0,1.197 0.006,0.338 -0.207,0.635 -0.161,0.984 0.044,0.335 0.314,0.508 0.62,0.584 0.364,0.09 0.744,0.099 1.113,0.159 0.197,0.032 0.393,0.076 0.581,0.145 0.104,0.038 0.175,0.075 0.234,0.104 0.714,0.373 1.863,0.657 2.448,-0.118 0.029,-0.038 0.053,-0.08 0.075,-0.122 0.051,-0.096 0.103,-0.066 0.204,-0.077 0.171,-0.018 0.339,-0.054 0.508,-0.086 0.415,-0.079 0.837,-0.142 1.26,-0.094 0.431,0.049 0.857,0.137 1.294,0.113 0.084,0.347 0.353,0.659 0.673,0.811 0.787,0.376 1.67,-0.157 2.172,-0.755 0.036,-0.047 0.036,-0.047 0.107,-0.118 0.111,-0.112 0.236,-0.208 0.368,-0.294 0.277,-0.181 0.581,-0.313 0.875,-0.463 0.247,-0.126 0.548,-0.279 0.646,-0.558 0.097,-0.276 -0.059,-0.562 -0.217,-0.78 z M 6.596,2.73 c 0.122,-0.277 0.371,-0.519 0.69,-0.517 0.51,0 0.789,0.554 0.797,1 0,0.208 -0.037,0.406 -0.133,0.593 C 7.906,3.892 7.878,3.992 7.779,3.952 7.672,3.925 7.536,3.855 7.437,3.821 7.633,3.585 7.672,2.943 7.302,2.834 6.937,2.726 6.827,3.3 6.869,3.544 6.797,3.508 6.722,3.476 6.646,3.45 6.508,3.403 6.498,3.411 6.495,3.257 6.491,3.076 6.523,2.897 6.596,2.731 Z M 7.132,3.886 C 7.388,4.001 7.769,4.042 7.943,4.288 8.185,4.63 7.73,4.985 7.458,5.106 7.308,5.172 7.165,5.218 7.025,5.307 6.856,5.415 6.688,5.526 6.491,5.576 6.101,5.675 5.808,5.533 5.526,5.278 5.304,5.077 4.949,4.955 4.855,4.644 4.753,4.306 5.194,4.151 5.398,3.97 5.651,3.756 5.871,3.548 6.227,3.547 6.58,3.546 6.827,3.749 7.133,3.886 Z M 5.323,2.368 C 5.625,2.369 5.809,2.694 5.879,2.948 5.912,3.068 5.925,3.195 5.924,3.319 5.923,3.469 5.721,3.53 5.596,3.598 5.622,3.413 5.438,2.698 5.168,3.026 4.999,3.232 5.037,3.692 5.261,3.849 5.212,3.887 5.162,3.924 5.112,3.96 5.022,4.026 4.962,3.881 4.92,3.803 4.818,3.614 4.774,3.401 4.775,3.188 4.777,2.874 4.928,2.363 5.323,2.367 Z M 4.318,15.258 C 3.75,15.529 3.101,15.274 2.579,15.025 2.031,14.763 1.433,14.819 0.86,14.674 0.263,14.522 0.511,14.052 0.593,13.618 0.693,13.089 0.256,12.433 0.94,12.167 1.155,12.083 1.379,12.033 1.55,11.866 1.749,11.656 1.883,11.328 2.156,11.2 c 0.062,-0.029 0.13,-0.043 0.198,-0.042 0.619,0.002 0.96,0.832 1.181,1.295 0.281,0.587 0.775,1.017 1.085,1.584 0.234,0.428 0.183,0.991 -0.302,1.222 z M 8.716,12.976 C 8.678,13.171 8.632,13.6 8.468,13.713 8.074,13.983 7.632,14.186 7.165,14.29 6.693,14.395 6.198,14.393 5.733,14.257 5.485,14.185 5.249,14.076 5.032,13.937 4.822,13.803 4.663,13.473 4.506,13.276 c 0.517,0 0.65,-0.417 0.433,-0.83 C 4.714,12.018 4.312,11.686 3.923,11.414 3.509,11.124 3.404,10.976 3.32,10.546 2.943,8.621 4.877,7.049 4.98,5.105 5.473,5.463 5.898,5.93 6.566,5.735 6.869,5.647 7.1,5.451 7.388,5.311 7.641,5.175 7.898,5.108 8.085,4.842 c 0.284,1.12 0.757,2.18 1.275,3.209 0.286,0.568 0.435,0.95 0.548,1.577 1.809,0.135 1.884,1.431 1.55,1.459 0.107,-0.338 -0.212,-0.558 -0.471,-0.698 C 10.672,10.219 10.169,9.974 9.813,10.167 9.662,10.249 9.589,10.41 9.564,10.574 9.537,10.722 9.221,10.84 9.111,10.991 8.829,11.377 8.798,11.911 8.768,12.37 8.755,12.573 8.755,12.777 8.717,12.977 Z m 3.324,1.12 c -0.236,0.113 -0.47,0.233 -0.682,0.389 -0.261,0.193 -0.442,0.463 -0.694,0.665 -0.393,0.316 -0.988,0.548 -1.463,0.267 -0.537,-0.319 -0.483,-0.915 -0.343,-1.441 0.088,-0.331 0.211,-0.656 0.263,-0.995 0.046,-0.296 0.035,-0.599 0.073,-0.896 0.044,-0.347 0.125,-0.776 0.473,-0.946 0.016,0.259 0.108,0.545 0.313,0.717 0.227,0.19 0.527,0.138 0.776,0.025 0.214,-0.097 0.425,-0.371 0.645,-0.377 0.244,-0.006 0.491,0.054 0.616,0.283 0.134,0.246 0.138,0.539 0.238,0.798 0.093,0.241 0.308,0.405 0.432,0.629 0.274,0.496 -0.273,0.703 -0.648,0.883 z"
             style="fill:#c62828;fill-opacity:1" /><path
             id="path7535"
             class="iconic-platform-linux-mouth iconic-property-fill"
             d="M 7.672,4.432 C 7.552,4.351 7.209,4.648 7.016,4.759 6.773,4.899 6.508,5.031 6.224,5.055 5.97,5.076 5.714,5.009 5.517,4.851 5.36,4.726 5.094,4.454 5.04,4.505 4.964,4.577 5.226,4.771 5.342,4.862 5.595,5.062 5.899,5.193 6.226,5.168 6.562,5.143 6.868,4.978 7.152,4.81 7.291,4.728 7.427,4.634 7.577,4.573 7.658,4.54 7.769,4.497 7.672,4.432 Z"
             style="fill:#c62828;fill-opacity:1" /></g></g><g
         id="g7537"
         transform="scale(8,8)"
         display="none"
         class="iconic-sm iconic-container"
         data-height="16"
         data-width="16"
         style="display:none;fill:#c62828;fill-opacity:1"><g
           id="g7539"
           display="inline"
           class="iconic-platform-microsoft"
           style="display:inline;fill:#c62828;fill-opacity:1"><path
             id="path7541"
             d="M 0,2.265 6.539,1.377 6.542,7.665 0.006,7.702 Z"
             class="iconic-platform-microsoft-top iconic-platform-microsoft-left iconic-platform-microsoft-top-left iconic-property-fill"
             style="fill:#c62828;fill-opacity:1" /><path
             id="path7543"
             d="m 6.536,8.39 0.005,6.293 -6.536,-0.896 0,-5.44 z"
             class="iconic-platform-microsoft-bottom iconic-platform-microsoft-left iconic-platform-microsoft-bottom-left iconic-property-fill"
             style="fill:#c62828;fill-opacity:1" /><path
             id="path7545"
             d="M 7.328,1.261 15.998,0 l 0,7.585 -8.67,0.069 z"
             class="iconic-platform-microsoft-top iconic-platform-microsoft-right iconic-platform-microsoft-top-right iconic-property-fill"
             style="fill:#c62828;fill-opacity:1" /><path
             id="path7547"
             d="M 16,8.449 15.998,16 7.328,14.78 7.316,8.435 Z"
             class="iconic-platform-microsoft-bottom iconic-platform-microsoft-right iconic-platform-microsoft-bottom-right iconic-property-fill"
             style="fill:#c62828;fill-opacity:1" /></g></g></g></g></svg>