<?xml version="1.0" encoding="UTF-8" standalone="no"?>
<svg
   xmlns:dc="http://purl.org/dc/elements/1.1/"
   xmlns:cc="http://creativecommons.org/ns#"
   xmlns:rdf="http://www.w3.org/1999/02/22-rdf-syntax-ns#"
   xmlns:svg="http://www.w3.org/2000/svg"
   xmlns="http://www.w3.org/2000/svg"
   xmlns:sodipodi="http://sodipodi.sourceforge.net/DTD/sodipodi-0.dtd"
   xmlns:inkscape="http://www.inkscape.org/namespaces/inkscape"
   viewBox="0 0 250 250"
   height="250"
   width="250"
   xml:space="preserve"
   version="1.1"
   id="svg2"
   inkscape:version="0.91 r"
   sodipodi:docname="custom.svg"><sodipodi:namedview
     pagecolor="#ffffff"
     bordercolor="#666666"
     borderopacity="1"
     objecttolerance="10"
     gridtolerance="10"
     guidetolerance="10"
     inkscape:pageopacity="0"
     inkscape:pageshadow="2"
     inkscape:window-width="1440"
     inkscape:window-height="863"
     id="namedview807"
     showgrid="false"
     fit-margin-top="0"
     fit-margin-left="0"
     fit-margin-right="0"
     fit-margin-bottom="0"
     inkscape:zoom="1.8838553"
     inkscape:cx="156.10913"
     inkscape:cy="78.355686"
     inkscape:window-x="0"
     inkscape:window-y="180"
     inkscape:window-maximized="1"
     inkscape:current-layer="g16" /><metadata
     id="metadata8"><rdf:RDF><cc:Work
         rdf:about=""><dc:format>image/svg+xml</dc:format><dc:type
           rdf:resource="http://purl.org/dc/dcmitype/StillImage" /><dc:title></dc:title></cc:Work></rdf:RDF></metadata><defs
     id="defs6"><clipPath
       id="clipPath18"
       clipPathUnits="userSpaceOnUse"><path
         id="path20"
         d="m 0,0 566.93,0 0,566.93 L 0,566.93 0,0 Z"
         inkscape:connector-curvature="0" /></clipPath><clipPath
       id="clipPath74"
       clipPathUnits="userSpaceOnUse"><path
         id="path76"
         d="m 371.762,423.376 25.61,0 0,-25.609 -25.61,0 0,25.609 z"
         inkscape:connector-curvature="0" /></clipPath><clipPath
       id="clipPath94"
       clipPathUnits="userSpaceOnUse"><path
         id="path96"
         d="m 407.53,423.376 25.611,0 0,-25.609 -25.611,0 0,25.609 z"
         inkscape:connector-curvature="0" /></clipPath><clipPath
       id="clipPath286"
       clipPathUnits="userSpaceOnUse"><path
         id="path288"
         d="m 468.797,174.373 0,-10.641 33.536,0 c 0.981,3.813 1.491,6.768 1.491,6.768 l 0,0 c -5.661,8.02 -14.375,8.931 -14.375,8.931 l 0,0 c -7.096,-3.283 -14.167,-4.706 -20.652,-5.058"
         inkscape:connector-curvature="0" /></clipPath><clipPath
       id="clipPath434"
       clipPathUnits="userSpaceOnUse"><path
         id="path436"
         d="m 468.797,163.732 0,-39.287 c 8.392,0.837 14.616,3.033 14.616,3.033 l 0,0 c 12.919,0 14.75,24.606 14.75,24.606 l 0,0 c 1.812,3.404 3.214,7.934 4.17,11.648 l 0,0 -33.536,0 z"
         inkscape:connector-curvature="0" /></clipPath><clipPath
       id="clipPath582"
       clipPathUnits="userSpaceOnUse"><path
         id="path584"
         d="m 424.991,171.852 c -0.057,-2.055 0.668,-5.059 1.646,-8.12 l 0,0 42.16,0 0,10.641 c -16.4,-0.892 -29.073,5.058 -29.073,5.058 l 0,0 c -7.733,0 -14.733,-7.579 -14.733,-7.579"
         inkscape:connector-curvature="0" /></clipPath><clipPath
       id="clipPath730"
       clipPathUnits="userSpaceOnUse"><path
         id="path732"
         d="m 426.637,163.732 c 1.877,-5.871 4.684,-11.952 4.684,-11.952 l 0,0 c 3.997,-27.741 13.777,-24.302 13.777,-24.302 l 0,0 c 7.799,-3.472 16.538,-3.747 23.699,-3.033 l 0,0 0,39.287 -42.16,0 z"
         inkscape:connector-curvature="0" /></clipPath><clipPath
       id="clipPath878"
       clipPathUnits="userSpaceOnUse"><path
         id="path880"
         d="m 0,0 566.93,0 0,566.93 L 0,566.93 0,0 Z"
         inkscape:connector-curvature="0" /></clipPath><radialGradient
       id="radialGradient902"
       spreadMethod="pad"
       gradientTransform="matrix(126.59308,0,0,-37.537607,789.20059,-333.60105)"
       gradientUnits="userSpaceOnUse"
       r="1"
       cy="0"
       cx="0"
       fy="0"
       fx="0"><stop
         id="stop904"
         offset="0"
         style="stop-opacity:1;stop-color:#635b4f" /><stop
         id="stop906"
         offset="0.64828561"
         style="stop-opacity:1;stop-color:#c0bbb3" /><stop
         id="stop908"
         offset="1"
         style="stop-opacity:1;stop-color:#c0bbb3" /></radialGradient><clipPath
       id="clipPath916"
       clipPathUnits="userSpaceOnUse"><path
         id="path918"
         d="m 0,0 566.93,0 0,566.93 L 0,566.93 0,0 Z"
         inkscape:connector-curvature="0" /></clipPath><clipPath
       id="clipPath878-4"
       clipPathUnits="userSpaceOnUse"><path
         id="path880-5"
         d="m 0,0 566.93,0 0,566.93 L 0,566.93 0,0 Z"
         inkscape:connector-curvature="0" /></clipPath></defs><g
     transform="matrix(1.25,0,0,-1.25,-39.771125,317.01896)"
     id="g10"><g
       id="g912"><g
         clip-path="url(#clipPath916)"
         id="g914"><g
           id="g5317"
           transform="translate(6.912019e-7,-0.4278421)"><g
             transform="matrix(0.39947327,0,0,0.39063307,19.106899,41.536096)"
             id="g14"><g
               id="g16"
               clip-path="url(#clipPath18)"><g
                 id="g58"
                 transform="matrix(1.1255303,0,0,1.1255303,375.96318,499.51753)"><path
                   inkscape:connector-curvature="0"
                   d="m 0,0 -9.25,0 c -5.996,0 -10.875,4.878 -10.875,10.875 0,5.997 4.879,10.875 10.875,10.875 l 9.25,0 c 5.997,0 10.875,-4.878 10.875,-10.875 C 10.875,4.878 5.997,0 0,0 m -42.25,0 -9.25,0 c -5.996,0 -10.875,4.878 -10.875,10.875 0,5.997 4.879,10.875 10.875,10.875 l 9.25,0 c 5.997,0 10.875,-4.878 10.875,-10.875 C -31.375,4.878 -36.253,0 -42.25,0 m 58.625,19.109 c 0,1.82 0,5.296 -3.296,5.296 l -1.282,0 c -0.787,0 -5.465,0.2 -10.52,0.281 C 0.856,24.724 0.432,24.75 0,24.75 l -9.25,0 c -3.785,0 -7.219,-1.527 -9.725,-3.994 -6.986,1.84 -10.888,0.619 -13.451,-0.094 -2.513,2.524 -5.988,4.088 -9.824,4.088 l -9.25,0 c -0.431,0 -0.855,-0.026 -1.277,-0.064 -5.053,-0.081 -9.731,-0.281 -10.519,-0.281 l -1.282,0 c -3.297,0 -3.297,-3.476 -3.297,-5.296 0,-1.543 1.118,-5.698 2.566,-6.934 -0.04,-0.429 -0.066,-0.862 -0.066,-1.3 C -65.375,3.224 -59.15,-3 -51.5,-3 l 9.25,0 c 7.651,0 13.875,6.224 13.875,13.875 0,1.065 -0.131,2.099 -0.359,3.096 1.433,0.394 3.836,0.82 6.001,0.118 -0.247,-1.033 -0.392,-2.106 -0.392,-3.214 C -23.125,3.224 -16.9,-3 -9.25,-3 L 0,-3 c 7.651,0 13.875,6.224 13.875,13.875 0,0.438 -0.025,0.871 -0.065,1.3 1.448,1.236 2.565,5.391 2.565,6.934"
                   style="fill:#312782;fill-opacity:1;fill-rule:nonzero;stroke:none"
                   id="path60" /></g><g
                 id="g62"
                 transform="matrix(1.1255303,0,0,1.1255303,484.69785,512.05066)"><path
                   inkscape:connector-curvature="0"
                   d="m 0,0 c -0.975,-6.811 -6.484,-11.946 -12.814,-11.946 -6.51,0 -11.807,5.295 -11.807,11.804 0,6.509 5.297,11.805 11.807,11.805 6.173,0 10.041,-1.001 11.826,-3.059 C 0.773,6.572 0.502,3.505 0,0 m -48.559,-11.946 c -6.332,0 -11.841,5.135 -12.816,11.946 -0.501,3.505 -0.773,6.572 0.988,8.604 1.785,2.058 5.655,3.059 11.828,3.059 6.509,0 11.805,-5.296 11.805,-11.805 0,-6.509 -5.296,-11.804 -11.805,-11.804 M 3.523,10.915 c -2,2.731 -9.455,2.748 -16.337,2.748 -5.205,0 -9.743,-2.896 -12.095,-7.159 -4.832,1.81 -9.197,0.83 -11.547,-0.017 -2.35,4.272 -6.893,7.176 -12.103,7.176 -6.882,0 -14.338,-0.017 -16.337,-2.748 -1.483,-2.024 -0.889,-6.504 -0.336,-10.357 1.115,-7.789 9.353,-14.504 16.673,-14.504 7.612,0 13.805,6.193 13.805,13.804 0,0.99 -0.109,1.954 -0.309,2.884 1.739,0.622 5.08,1.388 8.754,0.017 -0.201,-0.936 -0.312,-1.905 -0.312,-2.901 0,-7.611 6.193,-13.804 13.807,-13.804 7.318,0 15.556,6.715 16.673,14.504 0.551,3.853 1.145,8.333 -0.336,10.357"
                   style="fill:#1d1d1b;fill-opacity:1;fill-rule:nonzero;stroke:none"
                   id="path64" /></g><g
                 id="g66"
                 transform="matrix(1.1255303,0,0,1.1255303,367.11066,450.75867)"><path
                   inkscape:connector-curvature="0"
                   d="m 0,0 c -6.509,0 -11.805,5.295 -11.805,11.805 0,6.508 5.296,11.804 11.805,11.804 6.51,0 11.806,-5.296 11.806,-11.804 C 11.806,5.295 6.51,0 0,0 m -35.768,0 c -6.509,0 -11.805,5.295 -11.805,11.805 0,6.508 5.296,11.804 11.805,11.804 6.509,0 11.805,-5.296 11.805,-11.804 C -23.963,5.295 -29.259,0 -35.768,0 m 52.917,16.9 -3.687,0 c -0.217,0 -0.406,-0.083 -0.569,-0.2 C 10.91,21.899 5.887,25.609 0,25.609 c -5.564,0 -10.358,-3.316 -12.541,-8.069 -4.457,1.644 -8.478,0.775 -10.683,-0.006 -2.181,4.757 -6.977,8.075 -12.544,8.075 -5.834,0 -10.822,-3.642 -12.84,-8.768 -0.094,0.03 -0.189,0.059 -0.292,0.059 l -3.688,0 c -0.553,0 -1,-0.447 -1,-1 0,-0.552 0.447,-1 1,-1 l 3.377,0 c -0.229,-0.997 -0.362,-2.03 -0.362,-3.095 0,-7.612 6.193,-13.805 13.805,-13.805 7.613,0 13.805,6.193 13.805,13.805 0,1.337 -0.201,2.627 -0.558,3.851 1.909,0.663 5.425,1.418 9.277,0.011 -0.36,-1.228 -0.561,-2.521 -0.561,-3.862 C -13.805,4.193 -7.612,-2 0,-2 c 7.612,0 13.806,6.193 13.806,13.805 0,1.067 -0.134,2.101 -0.365,3.099 0.008,0 0.014,-0.004 0.021,-0.004 l 3.687,0 c 0.553,0 1,0.448 1,1 0,0.553 -0.447,1 -1,1"
                   style="fill:#1d1d1b;fill-opacity:1;fill-rule:nonzero;stroke:none"
                   id="path68" /></g><g
                 id="g70"
                 transform="matrix(1.1255303,0,0,1.1255303,-106.17483,-44.183931)"><g
                   id="g72" /><g
                   id="g78"><g
                     clip-path="url(#clipPath74)"
                     id="g80"
                     style="opacity:0.5"><g
                       transform="translate(397.3721,410.5718)"
                       id="g82"><path
                         inkscape:connector-curvature="0"
                         d="m 0,0 c 0,-7.072 -5.733,-12.805 -12.806,-12.805 -7.072,0 -12.804,5.733 -12.804,12.805 0,7.071 5.732,12.804 12.804,12.804 C -5.733,12.804 0,7.071 0,0"
                         style="fill:#b64517;fill-opacity:1;fill-rule:nonzero;stroke:none"
                         id="path84" /></g></g></g></g><g
                 id="g86"
                 transform="matrix(1.1255303,0,0,1.1255303,326.6663,431.21305)"><path
                   inkscape:connector-curvature="0"
                   d="m 0,0 c -6.509,0 -11.805,-5.295 -11.805,-11.804 0,-6.509 5.296,-11.805 11.805,-11.805 6.51,0 11.806,5.296 11.806,11.805 C 11.806,-5.295 6.51,0 0,0 m 0,-25.609 c -7.612,0 -13.805,6.193 -13.805,13.805 C -13.805,-4.192 -7.612,2 0,2 7.612,2 13.806,-4.192 13.806,-11.804 13.806,-19.416 7.612,-25.609 0,-25.609"
                   style="fill:#1d1d1b;fill-opacity:1;fill-rule:nonzero;stroke:none"
                   id="path88" /></g><g
                 id="g90"
                 transform="matrix(1.1255303,0,0,1.1255303,-106.17483,-44.183931)"><g
                   id="g92" /><g
                   id="g98"><g
                     clip-path="url(#clipPath94)"
                     id="g100"
                     style="opacity:0.5"><g
                       transform="translate(433.1406,410.5718)"
                       id="g102"><path
                         inkscape:connector-curvature="0"
                         d="m 0,0 c 0,-7.072 -5.732,-12.805 -12.805,-12.805 -7.072,0 -12.805,5.733 -12.805,12.805 0,7.071 5.733,12.804 12.805,12.804 C -5.732,12.804 0,7.071 0,0"
                         style="fill:#b64517;fill-opacity:1;fill-rule:nonzero;stroke:none"
                         id="path104" /></g></g></g></g><g
                 id="g106"
                 transform="matrix(1.1255303,0,0,1.1255303,366.92596,431.21305)"><path
                   inkscape:connector-curvature="0"
                   d="m 0,0 c -6.51,0 -11.806,-5.295 -11.806,-11.804 0,-6.509 5.296,-11.805 11.806,-11.805 6.509,0 11.805,5.296 11.805,11.805 C 11.805,-5.295 6.509,0 0,0 m 0,-25.609 c -7.612,0 -13.806,6.193 -13.806,13.805 C -13.806,-4.192 -7.612,2 0,2 7.612,2 13.805,-4.192 13.805,-11.804 13.805,-19.416 7.612,-25.609 0,-25.609"
                   style="fill:#1d1d1b;fill-opacity:1;fill-rule:nonzero;stroke:none"
                   id="path108" /></g><g
                 id="g110"
                 transform="matrix(1.1255303,0,0,1.1255303,353.73294,421.53607)"><path
                   inkscape:connector-curvature="0"
                   d="m 0,0 c -6.329,3.258 -12.238,0.048 -12.298,0.016 l -0.973,1.747 c 0.279,0.155 6.912,3.759 14.187,0.015 L 0,0 Z"
                   style="fill:#1d1d1b;fill-opacity:1;fill-rule:nonzero;stroke:none"
                   id="path112" /></g><g
                 id="g114"
                 transform="matrix(1.1255303,0,0,1.1255303,311.88708,421.41136)"><path
                   inkscape:connector-curvature="0"
                   d="m 0,0 -3.688,0 c -0.552,0 -1,0.448 -1,1 0,0.552 0.448,1 1,1 L 0,2 C 0.553,2 1,1.552 1,1 1,0.448 0.553,0 0,0"
                   style="fill:#1d1d1b;fill-opacity:1;fill-rule:nonzero;stroke:none"
                   id="path116" /></g><g
                 id="g118"
                 transform="matrix(1.1255303,0,0,1.1255303,386.22711,421.41136)"><path
                   inkscape:connector-curvature="0"
                   d="m 0,0 -3.688,0 c -0.552,0 -1,0.448 -1,1 0,0.552 0.448,1 1,1 L 0,2 C 0.553,2 1,1.552 1,1 1,0.448 0.553,0 0,0"
                   style="fill:#1d1d1b;fill-opacity:1;fill-rule:nonzero;stroke:none"
                   id="path120" /></g><g
                 id="g122"
                 transform="matrix(1.1255303,0,0,1.1255303,487.3138,459.15174)"><path
                   inkscape:connector-curvature="0"
                   d="m 0,0 c 0,-2.465 -2.006,-4.47 -4.471,-4.47 l -18.033,0 c -2.465,0 -4.471,2.005 -4.471,4.47 l 0,8.694 c 0,2.465 2.006,4.471 4.471,4.471 l 18.033,0 C -2.006,13.165 0,11.159 0,8.694 L 0,0 Z m -39.024,0 c 0,-2.465 -2.006,-4.47 -4.471,-4.47 l -18.033,0 c -2.465,0 -4.471,2.005 -4.471,4.47 l 0,8.694 c 0,2.465 2.006,4.471 4.471,4.471 l 18.033,0 c 2.465,0 4.471,-2.006 4.471,-4.471 l 0,-8.694 z m 34.553,16.165 -18.033,0 c -4.119,0 -7.471,-3.352 -7.471,-7.471 l 0,-0.487 c -2.366,0.481 -4.523,0.282 -6.049,-0.024 l 0,0.511 c 0,4.119 -3.352,7.471 -7.471,7.471 l -18.033,0 c -4.119,0 -7.471,-3.352 -7.471,-7.471 l 0,-8.694 c 0,-4.119 3.352,-7.47 7.471,-7.47 l 18.033,0 c 4.119,0 7.471,3.351 7.471,7.47 l 0,4.079 c 1.156,0.315 3.53,0.754 6.049,0.014 l 0,-4.093 c 0,-4.119 3.352,-7.47 7.471,-7.47 l 18.033,0 C -0.352,-7.47 3,-4.119 3,0 l 0,8.694 c 0,4.119 -3.352,7.471 -7.471,7.471"
                   style="fill:#1d1d1b;fill-opacity:1;fill-rule:nonzero;stroke:none"
                   id="path124" /></g><g
                 id="g126"
                 transform="matrix(1.1255303,0,0,1.1255303,484.18336,412.64123)"><path
                   inkscape:connector-curvature="0"
                   d="m 0,0 c -4.119,-4.963 -11.039,-5.178 -11.252,-5.184 -14.338,0.006 -14.833,13.258 -14.793,13.989 0.092,1.639 2.498,2.777 2.498,2.777 4.459,2.247 11.092,2.836 17.725,2.836 3.957,0 5.961,-1.14 6.76,-2.265 C 2.848,9.467 2.754,3.319 0,0 m -49.183,-5.184 c -0.213,0.006 -7.133,0.221 -11.252,5.184 -2.754,3.319 -2.847,9.467 -0.938,12.153 0.8,1.125 2.803,2.265 6.76,2.265 6.633,0 13.265,-0.589 17.724,-2.836 0,0 2.407,-1.138 2.498,-2.777 0.04,-0.731 -0.455,-13.983 -14.792,-13.989 m 52.89,20.96 c -0.17,0.02 -4.191,0.497 -9.529,0.497 -6.88,0 -16.183,-0.625 -21.536,-4.492 l -2.86,0 -2.859,0 c -5.354,3.867 -14.656,4.492 -21.536,4.492 -5.338,0 -9.36,-0.477 -9.529,-0.497 0,0 -2.208,-0.246 -2.542,-1.938 l 0,-7.274 c 0,0 1.039,-0.215 1.57,-1.236 0.774,-1.493 1.345,-4.223 3.264,-6.527 4.721,-5.672 12.325,-5.835 12.647,-5.84 l 0.012,0 c 13.917,0 15.528,11.41 16.338,14.156 0.316,1.071 2.635,1.572 2.635,1.572 0,0 2.32,-0.501 2.635,-1.572 0.811,-2.746 2.422,-14.156 16.339,-14.156 l 0.012,0 c 0.322,0.005 7.925,0.168 12.646,5.84 1.92,2.304 2.49,5.034 3.266,6.527 0.529,1.021 1.568,1.236 1.568,1.236 l 0,7.274 C 5.914,15.53 3.707,15.776 3.707,15.776"
                   style="fill:#925f36;fill-opacity:1;fill-rule:nonzero;stroke:none"
                   id="path128" /></g><g
                 id="g130"
                 transform="matrix(1.1255303,0,0,1.1255303,390.31369,182.01468)"><path
                   inkscape:connector-curvature="0"
                   d="m 0,0 c -11.066,70.387 -23.25,72.666 -23.25,72.666 3.625,0.042 6.125,18.542 6.125,18.542 6.125,8.208 -1.375,17.239 -1.375,17.239 4.59,9.583 10.752,8.766 10.752,8.766 l -0.291,1.861 c -1.954,11.325 -14.709,9.778 -14.709,9.778 -3,0.194 -7.252,3.398 -7.252,3.398 l -11.209,-4.282 -11.128,4.251 c 0,0 -4.252,-3.204 -7.253,-3.398 0,0 -12.754,1.547 -14.709,-9.778 l -0.291,-1.861 c 0,0 6.162,0.817 10.753,-8.766 0,0 -7.5,-9.031 -1.375,-17.239 0,0 2.5,-18.5 6.125,-18.542 0,0 -12.184,-2.28 -23.25,-72.666 0,0 16.386,-7 41.453,-7 l 0,0.036 C -16.142,-6.89 0,0 0,0"
                   style="fill:#e99f90;fill-opacity:1;fill-rule:nonzero;stroke:none"
                   id="path132" /></g><path
                 inkscape:connector-curvature="0"
                 d="m 365.61145,262.2023 -43.30252,0 0,3.13234 43.30252,0 0,-3.13234 z"
                 style="fill:#b17f49;fill-opacity:1;fill-rule:nonzero;stroke:none"
                 id="path134" /><g
                 id="g136"
                 transform="matrix(1.1255303,0,0,1.1255303,324.23943,327.16137)"><path
                   inkscape:connector-curvature="0"
                   d="m 0,0 c 0,0 -1.349,-11.24 10.035,-9.657 3,0.417 6.125,3.375 7.461,8.667 L 6.775,4.491 0,0 Z"
                   style="fill:#fffceb;fill-opacity:1;fill-rule:nonzero;stroke:none"
                   id="path138" /></g><g
                 id="g140"
                 transform="matrix(1.1255303,0,0,1.1255303,363.66924,327.16137)"><path
                   inkscape:connector-curvature="0"
                   d="M 0,0 -6.774,4.491 -17.495,-0.99 c 1.334,-5.292 4.461,-8.25 7.461,-8.667 C 1.349,-11.24 0,0 0,0"
                   style="fill:#fffceb;fill-opacity:1;fill-rule:nonzero;stroke:none"
                   id="path142" /></g><g
                 id="g144"
                 transform="matrix(1.1255303,0,0,1.1255303,457.38832,205.79151)"><path
                   inkscape:connector-curvature="0"
                   d="M 0,0 -8.334,6 0,0 0.037,0.029 -8.258,6 0.037,0.029 7.572,6 0.037,0.029 0.077,0 7.648,6 0.077,0 l 0,-19.416 26.972,0 c 3.98,11.5 4.863,27.833 4.7,29.75 0,4.892 -0.957,9.531 -2.645,13.741 -0.34,-0.123 -30.98,-11.179 -56.673,1.997 -2.236,-4.716 -3.513,-10.06 -3.513,-15.738 -0.047,-1.005 0.611,-11.833 3.572,-29.75 L 0,-19.416 0,0 Z"
                   style="fill:#6a7893;fill-opacity:1;fill-rule:nonzero;stroke:none"
                   id="path146" /></g><g
                 id="g148"
                 transform="matrix(1.1255303,0,0,1.1255303,457.47509,205.79151)"><path
                   inkscape:connector-curvature="0"
                   d="M 0,0 -0.04,0.029 -0.077,0 l 0,-19.416 0.077,0 L 0,0 Z"
                   style="fill:#6a7893;fill-opacity:1;fill-rule:nonzero;stroke:none"
                   id="path150" /></g><g
                 id="g152"
                 transform="matrix(1.1255303,0,0,1.1255303,489.21752,183.98435)"><path
                   inkscape:connector-curvature="0"
                   d="m 0,0 c 0,-0.437 -0.355,-0.791 -0.792,-0.791 l -54.751,0 c -0.436,0 -0.791,0.354 -0.791,0.791 l -1,5.75 c 0,0.438 0.355,0.792 0.791,0.792 l 56.751,0 C 0.645,6.542 1,6.188 1,5.75 L 0,0 Z"
                   style="fill:#8d9fbc;fill-opacity:1;fill-rule:nonzero;stroke:none"
                   id="path154" /></g><g
                 id="g156"
                 transform="matrix(1.1255303,0,0,1.1255303,466.29362,212.10392)"><path
                   inkscape:connector-curvature="0"
                   d="m 0,0 -0.621,0.783 -7.275,-5.764 -8.029,5.779 -0.584,-0.813 8.127,-5.85 0,-19.906 1,0 0,19.92 L 0,0 Z"
                   style="fill:#495770;fill-opacity:1;fill-rule:nonzero;stroke:none"
                   id="path158" /></g><path
                 inkscape:connector-curvature="0"
                 d="m 451.40613,210.52808 -1.12554,0 0,18.52509 1.12554,0 0,-18.52509 z"
                 style="fill:#495770;fill-opacity:1;fill-rule:nonzero;stroke:none"
                 id="path160" /><path
                 inkscape:connector-curvature="0"
                 d="m 454.41917,208.46385 -1.12553,0 0,0.56277 1.12553,0 0,-0.56277 z"
                 style="fill:#495770;fill-opacity:1;fill-rule:nonzero;stroke:none"
                 id="path162" /><path
                 inkscape:connector-curvature="0"
                 d="m 454.41917,227.61475 -1.12553,0 0,1.09401 1.12553,0 0,-1.09401 z m 0,-2.18578 -1.12553,0 0,1.09401 1.12553,0 0,-1.09401 z m 0,-2.18691 -1.12553,0 0,1.09401 1.12553,0 0,-1.09401 z m 0,-2.18803 -1.12553,0 0,1.09402 1.12553,0 0,-1.09402 z m 0,-2.18578 -1.12553,0 0,1.09402 1.12553,0 0,-1.09402 z m 0,-2.1869 -1.12553,0 0,1.09401 1.12553,0 0,-1.09401 z m 0,-2.18803 -1.12553,0 0,1.09401 1.12553,0 0,-1.09401 z m 0,-2.18578 -1.12553,0 0,1.09401 1.12553,0 0,-1.09401 z m 0,-2.18803 -1.12553,0 0,1.09401 1.12553,0 0,-1.09401 z"
                 style="fill:#495770;fill-opacity:1;fill-rule:nonzero;stroke:none"
                 id="path164" /><path
                 inkscape:connector-curvature="0"
                 d="m 454.41917,229.80278 -1.12553,0 0,0.56276 1.12553,0 0,-0.56276 z"
                 style="fill:#495770;fill-opacity:1;fill-rule:nonzero;stroke:none"
                 id="path166" /><g
                 id="g168"
                 transform="matrix(1.1255303,0,0,1.1255303,422.62328,220.69927)"><path
                   inkscape:connector-curvature="0"
                   d="M 0,0 0,1 C 1.376,1 8.405,1.267 11.686,6.521 L 12.533,5.992 C 9.063,0.432 2.063,0 0,0"
                   style="fill:#495770;fill-opacity:1;fill-rule:nonzero;stroke:none"
                   id="path170" /></g><g
                 id="g172"
                 transform="matrix(1.1255303,0,0,1.1255303,438.98196,224.98044)"><path
                   inkscape:connector-curvature="0"
                   d="m 0,0 -0.846,0.535 c 0.167,0.263 0.319,0.536 0.454,0.821 L 0.511,0.925 C 0.357,0.604 0.187,0.296 0,0 m -1.319,-1.636 -0.709,0.705 c 0.223,0.225 0.435,0.458 0.633,0.704 l 0.778,-0.628 c -0.22,-0.272 -0.455,-0.533 -0.702,-0.781 m -1.6,-1.339 -0.576,0.819 c 0.263,0.184 0.517,0.378 0.763,0.583 l 0.64,-0.768 c -0.266,-0.222 -0.543,-0.433 -0.827,-0.634 m -1.769,-1.068 -0.462,0.887 c 0.287,0.149 0.57,0.307 0.847,0.474 l 0.516,-0.857 c -0.295,-0.177 -0.596,-0.345 -0.901,-0.504 m -1.871,-0.848 -0.367,0.93 c 0.301,0.119 0.601,0.246 0.899,0.381 l 0.414,-0.91 c -0.314,-0.143 -0.629,-0.276 -0.946,-0.401 m -1.93,-0.669 -0.289,0.957 c 0.308,0.093 0.621,0.194 0.934,0.302 l 0.326,-0.945 C -7.845,-5.358 -8.169,-5.463 -8.489,-5.56 m -1.972,-0.518 -0.221,0.974 c 0.309,0.071 0.629,0.149 0.957,0.235 l 0.254,-0.967 c -0.34,-0.09 -0.67,-0.17 -0.99,-0.242 m -1.999,-0.387 -0.158,0.988 c 0.299,0.048 0.625,0.105 0.972,0.171 l 0.188,-0.982 c -0.357,-0.068 -0.693,-0.127 -1.002,-0.177 m -2.042,-0.25 -0.065,0.998 c 0.008,0 0.369,0.025 0.972,0.101 l 0.125,-0.992 c -0.647,-0.081 -1.032,-0.107 -1.032,-0.107"
                   style="fill:#495770;fill-opacity:1;fill-rule:nonzero;stroke:none"
                   id="path174" /></g><g
                 id="g176"
                 transform="matrix(1.1255303,0,0,1.1255303,492.94697,220.69927)"><path
                   inkscape:connector-curvature="0"
                   d="m 0,0 c -0.383,0 -9.413,0.068 -12.844,6.007 l 0.865,0.5 C -8.833,1.063 -0.088,1 0,1 L 0,0 Z"
                   style="fill:#495770;fill-opacity:1;fill-rule:nonzero;stroke:none"
                   id="path178" /></g><g
                 id="g180"
                 transform="matrix(1.1255303,0,0,1.1255303,476.24972,224.98044)"><path
                   inkscape:connector-curvature="0"
                   d="M 0,0 C -0.188,0.295 -0.36,0.604 -0.513,0.926 L 0.392,1.354 C 0.526,1.069 0.678,0.797 0.844,0.535 L 0,0 Z M 1.317,-1.636 C 1.07,-1.388 0.835,-1.127 0.615,-0.855 l 0.778,0.628 c 0.198,-0.246 0.41,-0.479 0.633,-0.704 L 1.317,-1.636 Z M 2.918,-2.975 C 2.634,-2.774 2.357,-2.563 2.09,-2.341 l 0.64,0.768 C 2.977,-1.778 3.231,-1.972 3.494,-2.156 L 2.918,-2.975 Z m 1.77,-1.068 c -0.305,0.159 -0.606,0.327 -0.901,0.504 l 0.516,0.857 C 4.58,-2.849 4.863,-3.007 5.15,-3.156 L 4.688,-4.043 Z M 6.557,-4.891 C 6.24,-4.766 5.925,-4.633 5.611,-4.49 l 0.414,0.91 C 6.323,-3.715 6.623,-3.842 6.924,-3.961 L 6.557,-4.891 Z M 8.488,-5.56 c -0.32,0.097 -0.644,0.202 -0.971,0.314 l 0.326,0.945 C 8.156,-4.409 8.469,-4.51 8.777,-4.603 L 8.488,-5.56 Z m 1.973,-0.518 c -0.32,0.072 -0.65,0.152 -0.99,0.242 l 0.254,0.967 c 0.328,-0.086 0.648,-0.164 0.957,-0.235 l -0.221,-0.974 z m 1.998,-0.387 c -0.309,0.05 -0.645,0.109 -1.002,0.177 l 0.188,0.982 c 0.347,-0.066 0.673,-0.123 0.972,-0.171 l -0.158,-0.988 z m 2.042,-0.25 c 0,0 -0.385,0.026 -1.032,0.107 l 0.125,0.992 c 0.603,-0.076 0.964,-0.101 0.972,-0.101 l -0.065,-0.998 z"
                   style="fill:#495770;fill-opacity:1;fill-rule:nonzero;stroke:none"
                   id="path182" /></g><g
                 id="g184"
                 transform="matrix(1.1255303,0,0,1.1255303,492.34346,225.67625)"><path
                   inkscape:connector-curvature="0"
                   d="m 0,0 c -27.236,-10.958 -61.411,0 -61.411,0 l 3.681,65.159 c 0,0 -7.223,16.358 -3.681,20.008 l 4.769,-0.729 51.564,0 4.342,0.729 C 3.145,81.375 -3.83,63.685 -3.83,63.685 L 0,0 Z"
                   style="fill:#313056;fill-opacity:1;fill-rule:nonzero;stroke:none"
                   id="path186" /></g><g
                 id="g188"
                 transform="matrix(1.1255303,0,0,1.1255303,485.16494,320.71377)"><path
                   inkscape:connector-curvature="0"
                   d="m 0,0 c 0,-21.06 -11.006,-42.132 -24.582,-42.132 -13.576,0 -24.582,21.072 -24.582,42.132"
                   style="fill:#313056;fill-opacity:1;fill-rule:nonzero;stroke:none"
                   id="path190" /></g><g
                 id="g192"
                 transform="matrix(1.1255303,0,0,1.1255303,484.32079,320.71377)"><path
                   inkscape:connector-curvature="0"
                   d="m 0,0 c 0,-12.369 -3.708,-24.101 -9.21,-31.894 -0.104,0.217 -0.226,0.395 -0.332,0.542 -0.187,0.261 -0.282,0.392 -0.282,0.736 0,0.346 0.095,0.477 0.283,0.738 0.239,0.331 0.566,0.785 0.566,1.616 0,0.83 -0.327,1.283 -0.566,1.615 -0.188,0.26 -0.283,0.391 -0.283,0.737 0,0.346 0.095,0.477 0.283,0.738 0.239,0.332 0.566,0.785 0.566,1.616 0,0.831 -0.327,1.285 -0.566,1.616 -0.188,0.26 -0.283,0.391 -0.283,0.737 0,0.346 0.095,0.477 0.283,0.738 0.239,0.332 0.566,0.785 0.566,1.616 0,0.831 -0.327,1.285 -0.566,1.617 -0.188,0.26 -0.283,0.392 -0.283,0.737 0,0.345 0.095,0.475 0.282,0.736 0.239,0.331 0.567,0.784 0.567,1.614 0,0.832 -0.327,1.285 -0.566,1.616 -0.188,0.261 -0.283,0.392 -0.283,0.738 0,0.347 0.095,0.478 0.283,0.74 0.239,0.331 0.566,0.785 0.566,1.616 0,0.831 -0.327,1.285 -0.566,1.617 -0.188,0.261 -0.283,0.393 -0.283,0.739 0,0.348 0.095,0.479 0.283,0.741 0.239,0.331 0.566,0.785 0.566,1.616 0,0.832 -0.327,1.287 -0.566,1.618 -0.125,0.175 -0.205,0.295 -0.247,0.456 l 0.015,0.624 c 0.045,0.137 0.12,0.25 0.232,0.406 0.239,0.331 0.566,0.786 0.566,1.618 l -1.5,0 c 0,-0.348 -0.094,-0.48 -0.283,-0.742 -0.239,-0.332 -0.566,-0.787 -0.566,-1.619 0,-0.832 0.327,-1.287 0.566,-1.618 0.189,-0.263 0.283,-0.395 0.283,-0.743 0,-0.346 -0.094,-0.478 -0.283,-0.739 -0.239,-0.332 -0.566,-0.786 -0.566,-1.618 0,-0.831 0.327,-1.285 0.566,-1.616 0.189,-0.262 0.283,-0.393 0.283,-0.74 0,-0.347 -0.094,-0.478 -0.283,-0.739 -0.239,-0.331 -0.566,-0.785 -0.566,-1.617 0,-0.831 0.327,-1.285 0.566,-1.616 0.189,-0.26 0.283,-0.392 0.283,-0.738 0,-0.344 -0.094,-0.475 -0.282,-0.735 -0.239,-0.331 -0.567,-0.785 -0.567,-1.615 0,-0.83 0.327,-1.284 0.566,-1.615 0.189,-0.262 0.283,-0.392 0.283,-0.739 0,-0.346 -0.094,-0.477 -0.283,-0.738 -0.239,-0.331 -0.566,-0.785 -0.566,-1.616 0,-0.831 0.327,-1.284 0.566,-1.615 0.189,-0.261 0.283,-0.392 0.283,-0.738 0,-0.346 -0.094,-0.477 -0.283,-0.738 -0.239,-0.331 -0.566,-0.785 -0.566,-1.616 0,-0.831 0.328,-1.284 0.567,-1.616 0.188,-0.26 0.282,-0.391 0.282,-0.736 0,-0.346 -0.094,-0.477 -0.283,-0.738 -0.239,-0.331 -0.566,-0.785 -0.566,-1.616 0,-0.83 0.328,-1.283 0.567,-1.614 0.124,-0.173 0.204,-0.292 0.246,-0.452 l -0.014,-0.619 c -0.046,-0.136 -0.121,-0.248 -0.233,-0.403 -0.129,-0.178 -0.279,-0.399 -0.393,-0.688 -1.533,-1.783 -3.168,-3.278 -4.88,-4.419 l 0,38.811 -1,0 0,-39.435 c -0.451,-0.26 -0.908,-0.488 -1.368,-0.698 l 0,40.133 -1.5,0 0,-40.72 c -1.291,-0.426 -2.605,-0.662 -3.933,-0.662 -1.246,0 -2.481,0.205 -3.694,0.581 l 0,40.801 -1.5,0 0,-40.236 c -0.379,0.165 -0.755,0.347 -1.128,0.547 l 0,39.689 -1,0 0,-39.111 c -2.103,1.31 -4.1,3.144 -5.933,5.406 0.046,0.1 0.113,0.191 0.204,0.311 0.242,0.324 0.574,0.768 0.574,1.585 0,0.817 -0.332,1.26 -0.574,1.584 -0.183,0.245 -0.275,0.367 -0.275,0.684 0,0.318 0.092,0.441 0.275,0.687 0.242,0.323 0.574,0.767 0.574,1.584 0,0.817 -0.332,1.26 -0.574,1.584 -0.183,0.245 -0.275,0.368 -0.275,0.686 0,0.318 0.092,0.441 0.275,0.686 0.242,0.324 0.574,0.768 0.574,1.585 0,0.818 -0.332,1.261 -0.574,1.585 -0.183,0.245 -0.275,0.368 -0.275,0.686 0,0.318 0.092,0.441 0.275,0.686 0.242,0.324 0.574,0.768 0.574,1.585 0,0.817 -0.332,1.261 -0.574,1.585 -0.183,0.245 -0.275,0.368 -0.275,0.686 0,0.317 0.092,0.44 0.275,0.685 0.242,0.323 0.574,0.766 0.574,1.583 0,0.817 -0.332,1.261 -0.574,1.585 -0.183,0.245 -0.275,0.368 -0.275,0.686 0,0.319 0.092,0.442 0.275,0.688 0.242,0.324 0.574,0.768 0.574,1.585 0,0.818 -0.332,1.262 -0.574,1.586 -0.183,0.246 -0.275,0.369 -0.275,0.688 0,0.319 0.092,0.443 0.275,0.688 0.242,0.325 0.574,0.768 0.574,1.586 0,0.819 -0.332,1.264 -0.573,1.588 -0.121,0.162 -0.199,0.275 -0.24,0.422 l 0.015,0.583 c 0.044,0.125 0.117,0.231 0.225,0.376 0.241,0.324 0.573,0.769 0.573,1.587 l -1.5,0 c 0,-0.321 -0.091,-0.444 -0.276,-0.691 -0.242,-0.324 -0.573,-0.768 -0.573,-1.587 0,-0.818 0.331,-1.263 0.573,-1.587 0.185,-0.246 0.276,-0.37 0.276,-0.691 0,-0.319 -0.091,-0.443 -0.275,-0.688 -0.242,-0.324 -0.574,-0.768 -0.574,-1.586 0,-0.818 0.332,-1.262 0.574,-1.586 0.184,-0.245 0.275,-0.369 0.275,-0.688 0,-0.318 -0.091,-0.442 -0.275,-0.687 -0.242,-0.324 -0.574,-0.768 -0.574,-1.586 0,-0.817 0.332,-1.261 0.574,-1.584 0.184,-0.246 0.275,-0.369 0.275,-0.687 0,-0.317 -0.091,-0.44 -0.275,-0.684 -0.242,-0.324 -0.574,-0.767 -0.574,-1.584 0,-0.817 0.332,-1.261 0.574,-1.584 0.184,-0.246 0.275,-0.369 0.275,-0.687 0,-0.318 -0.091,-0.441 -0.275,-0.687 -0.242,-0.323 -0.574,-0.767 -0.574,-1.584 0,-0.817 0.332,-1.261 0.574,-1.584 0.184,-0.246 0.275,-0.369 0.275,-0.687 0,-0.318 -0.091,-0.441 -0.275,-0.687 -0.242,-0.324 -0.574,-0.767 -0.574,-1.584 0,-0.817 0.332,-1.261 0.574,-1.585 0.184,-0.245 0.275,-0.367 0.275,-0.685 0,-0.318 -0.091,-0.441 -0.275,-0.686 -0.242,-0.324 -0.574,-0.767 -0.574,-1.585 0,-0.816 0.332,-1.26 0.574,-1.584 0.121,-0.16 0.197,-0.272 0.239,-0.417 l -0.014,-0.581 c -0.04,-0.109 -0.106,-0.208 -0.194,-0.328 -5.721,7.785 -9.611,19.784 -9.611,32.451 l -1.5,0 c 0,-20.283 10.403,-42.882 25.332,-42.882 C -8.903,-42.882 1.5,-20.283 1.5,0 L 0,0 Z"
                   style="fill:#949eb6;fill-opacity:1;fill-rule:nonzero;stroke:none"
                   id="path194" /></g><g
                 id="g196"
                 transform="matrix(1.1255303,0,0,1.1255303,457.49716,310.21629)"><path
                   inkscape:connector-curvature="0"
                   d="M 0,0 C 0.479,0 0.867,0.597 0.867,1.333 0.867,2.069 0.479,2.667 0,2.667 -0.479,2.667 -0.867,2.069 -0.867,1.333 -0.867,0.597 -0.479,0 0,0"
                   style="fill:#949eb6;fill-opacity:1;fill-rule:nonzero;stroke:none"
                   id="path198" /></g><g
                 id="g200"
                 transform="matrix(1.1255303,0,0,1.1255303,457.49716,301.90785)"><path
                   inkscape:connector-curvature="0"
                   d="M 0,0 C 0.479,0 0.867,0.598 0.867,1.334 0.867,2.07 0.479,2.667 0,2.667 -0.479,2.667 -0.867,2.07 -0.867,1.334 -0.867,0.598 -0.479,0 0,0"
                   style="fill:#949eb6;fill-opacity:1;fill-rule:nonzero;stroke:none"
                   id="path202" /></g><g
                 id="g204"
                 transform="matrix(1.1255303,0,0,1.1255303,457.49716,293.59941)"><path
                   inkscape:connector-curvature="0"
                   d="M 0,0 C 0.479,0 0.867,0.597 0.867,1.333 0.867,2.069 0.479,2.667 0,2.667 -0.479,2.667 -0.867,2.069 -0.867,1.333 -0.867,0.597 -0.479,0 0,0"
                   style="fill:#949eb6;fill-opacity:1;fill-rule:nonzero;stroke:none"
                   id="path206" /></g><g
                 id="g208"
                 transform="matrix(1.1255303,0,0,1.1255303,457.49716,285.29086)"><path
                   inkscape:connector-curvature="0"
                   d="M 0,0 C 0.479,0 0.867,0.598 0.867,1.334 0.867,2.07 0.479,2.667 0,2.667 -0.479,2.667 -0.867,2.07 -0.867,1.334 -0.867,0.598 -0.479,0 0,0"
                   style="fill:#949eb6;fill-opacity:1;fill-rule:nonzero;stroke:none"
                   id="path210" /></g></g></g><g
             transform="matrix(0.44961926,0,0,0.43966935,-39.558048,12.658254)"
             id="g890"><g
               id="g892"><g
                 id="g898"><g
                   id="g900"><path
                     inkscape:connector-curvature="0"
                     d="m 204.051,178.871 c 0,-10.528 35.554,-19.062 79.414,-19.062 l 0,0 c 43.86,0 79.414,8.534 79.414,19.062 l 0,0 c 0,10.529 -35.554,19.062 -79.414,19.062 l 0,0 c -43.86,0 -79.414,-8.533 -79.414,-19.062"
                     style="fill:url(#radialGradient902);stroke:none"
                     id="path910" /></g></g></g></g><g
             id="g958"
             transform="matrix(0.44961926,0,0,0.43966935,113.35025,184.23707)"><path
               inkscape:connector-curvature="0"
               d="m 0,0 c -0.768,1.341 -6.02,8.447 -6,11.417 0.025,4.391 3.332,7.916 3,13.417 -0.432,7.133 -5.805,11.605 -5,14.678 0.545,2.079 1.357,6.104 2,8.155 3.637,11.609 -3,36 -7,47.625 -2.943,8.551 -7.332,16.375 -16.375,16.375 l -27.245,0 -27.243,0 c -9.044,0 -13.433,-7.824 -16.375,-16.375 -4,-11.625 -10.638,-36.016 -7,-47.625 0.642,-2.051 1.455,-6.076 2,-8.155 0.804,-3.073 -4.569,-7.545 -5,-14.678 -0.333,-5.501 2.973,-9.026 3,-13.417 0.018,-2.97 -5.234,-10.076 -6,-11.417 -6.667,-11.667 4,-23.625 4,-23.625 0,-9.043 16.331,-16.375 25.375,-16.375 l 27.243,0 27.245,0 c 9.043,0 25.375,7.332 25.375,16.375 0,0 10.666,11.958 4,23.625"
               style="fill:#634e42;fill-opacity:1;fill-rule:nonzero;stroke:none"
               id="path960" /></g><g
             id="g962"
             transform="matrix(0.44961926,0,0,0.43966935,103.09858,211.24024)"><path
               inkscape:connector-curvature="0"
               d="m 0,0 c 0,-24.301 -15.43,-50 -34.464,-50 -19.035,0 -34.465,25.699 -34.465,50 0,24.301 2.679,44 34.465,44 C 0,44 0,24.301 0,0"
               style="fill:#f1d2ac;fill-opacity:1;fill-rule:nonzero;stroke:none"
               id="path964" /></g><g
             id="g966"
             transform="matrix(0.44961926,0,0,0.43966935,81.716851,209.92251)"><path
               inkscape:connector-curvature="0"
               d="m 0,0 c -1.825,0.887 -3.817,1.493 -5.811,1.57 -2.051,0.032 -4.167,0.114 -6.225,0.459 -0.607,0.105 -1.214,0.224 -1.817,0.369 -0.164,-1.013 -0.168,-2.134 -0.168,-3.315 0,-4.495 4.042,-8.139 9.031,-8.139 4.414,0 8.083,2.855 8.87,6.627 -0.4,0.315 -0.823,0.609 -1.237,0.89 C 1.799,-0.963 0.917,-0.444 0,0"
               style="fill:#ffffff;fill-opacity:1;fill-rule:nonzero;stroke:none"
               id="path968" /></g><g
             id="g970"
             transform="matrix(0.44961926,0,0,0.43966935,81.902147,208.98395)"><path
               inkscape:connector-curvature="0"
               d="m 0,0 c 0,-2.688 -2.418,-4.868 -5.402,-4.868 -2.984,0 -5.403,2.18 -5.403,4.868 0,2.688 2.419,4.868 5.403,4.868 C -2.418,4.868 0,2.688 0,0"
               style="fill:#8785bb;fill-opacity:1;fill-rule:nonzero;stroke:none"
               id="path972" /></g><g
             id="g974"
             transform="matrix(0.44961926,0,0,0.43966935,81.143415,208.98395)"><path
               inkscape:connector-curvature="0"
               d="m 0,0 c 0,-1.848 -1.663,-3.347 -3.715,-3.347 -2.051,0 -3.714,1.499 -3.714,3.347 0,1.848 1.663,3.347 3.714,3.347 C -1.663,3.347 0,1.848 0,0"
               style="fill:#1d1d1b;fill-opacity:1;fill-rule:nonzero;stroke:none"
               id="path976" /></g><g
             id="g978"
             transform="matrix(0.44961926,0,0,0.43966935,81.042872,209.10094)"><path
               inkscape:connector-curvature="0"
               d="m 0,0 c 0,-0.777 -0.781,-1.407 -1.745,-1.407 -0.964,0 -1.746,0.63 -1.746,1.407 0,0.777 0.782,1.407 1.746,1.407 C -0.781,1.407 0,0.777 0,0"
               style="fill:#ffffff;fill-opacity:1;fill-rule:nonzero;stroke:none"
               id="path980" /></g><g
             id="g982"
             transform="matrix(0.44961926,0,0,0.43966935,83.517542,209.80639)"><path
               inkscape:connector-curvature="0"
               d="m 0,0 c -0.735,1.102 -1.681,2.039 -2.706,2.877 -1.919,1.448 -4.209,2.464 -7.007,2.606 -0.344,0.009 -0.468,0.003 -0.868,0 L -11.3,5.469 -12.732,5.4 c -0.954,-0.06 -1.904,-0.123 -2.863,-0.213 -0.44,-0.035 -0.886,-0.086 -1.335,-0.136 -0.528,-0.06 -1.06,-0.118 -1.598,-0.154 -1.019,-0.126 -2.035,-0.199 -3.208,-0.233 L -21.96,4.375 c 1.258,-0.871 2.664,-1.369 4.103,-1.713 0.602,-0.144 1.21,-0.264 1.816,-0.369 2.059,-0.345 4.174,-0.427 6.226,-0.459 1.993,-0.077 3.985,-0.683 5.81,-1.57 0.917,-0.444 1.799,-0.963 2.643,-1.538 0.414,-0.282 0.838,-0.576 1.237,-0.891 0.403,-0.319 0.78,-0.658 1.097,-1.023 l 0.303,0.202 C 1.04,-1.855 0.585,-0.877 0,0"
               style="fill:#000000;fill-opacity:1;fill-rule:nonzero;stroke:none"
               id="path984" /></g><g
             id="g986"
             transform="matrix(0.44961926,0,0,0.43966935,93.488885,209.92251)"><path
               inkscape:connector-curvature="0"
               d="m 0,0 c 1.826,0.887 3.816,1.493 5.811,1.57 2.05,0.032 4.166,0.114 6.224,0.459 0.608,0.105 1.215,0.224 1.819,0.369 0.164,-1.013 0.167,-2.134 0.167,-3.315 0,-4.495 -4.042,-8.139 -9.031,-8.139 -4.414,0 -8.082,2.855 -8.87,6.627 0.4,0.315 0.823,0.609 1.238,0.89 C -1.799,-0.963 -0.917,-0.444 0,0"
               style="fill:#ffffff;fill-opacity:1;fill-rule:nonzero;stroke:none"
               id="path988" /></g><g
             id="g990"
             transform="matrix(0.44961926,0,0,0.43966935,93.303544,208.98395)"><path
               inkscape:connector-curvature="0"
               d="m 0,0 c 0,-2.688 2.418,-4.868 5.402,-4.868 2.983,0 5.403,2.18 5.403,4.868 0,2.688 -2.42,4.868 -5.403,4.868 C 2.418,4.868 0,2.688 0,0"
               style="fill:#8785bb;fill-opacity:1;fill-rule:nonzero;stroke:none"
               id="path992" /></g><g
             id="g994"
             transform="matrix(0.44961926,0,0,0.43966935,94.062275,208.98395)"><path
               inkscape:connector-curvature="0"
               d="m 0,0 c 0,-1.848 1.662,-3.347 3.715,-3.347 2.051,0 3.713,1.499 3.713,3.347 0,1.848 -1.662,3.347 -3.713,3.347 C 1.662,3.347 0,1.848 0,0"
               style="fill:#1d1d1b;fill-opacity:1;fill-rule:nonzero;stroke:none"
               id="path996" /></g><g
             id="g998"
             transform="matrix(0.44961926,0,0,0.43966935,94.163314,209.10094)"><path
               inkscape:connector-curvature="0"
               d="M 0,0 C 0,-0.777 0.781,-1.407 1.744,-1.407 2.709,-1.407 3.49,-0.777 3.49,0 3.49,0.777 2.709,1.407 1.744,1.407 0.781,1.407 0,0.777 0,0"
               style="fill:#ffffff;fill-opacity:1;fill-rule:nonzero;stroke:none"
               id="path1000" /></g><g
             id="g1002"
             transform="matrix(0.44961926,0,0,0.43966935,91.688644,209.80639)"><path
               inkscape:connector-curvature="0"
               d="m 0,0 c 0.734,1.102 1.68,2.039 2.705,2.877 1.92,1.448 4.209,2.464 7.006,2.606 0.346,0.009 0.469,0.003 0.869,0 L 11.299,5.469 12.73,5.4 C 13.684,5.34 14.635,5.277 15.594,5.187 16.033,5.152 16.48,5.101 16.93,5.051 17.457,4.991 17.988,4.933 18.527,4.897 19.545,4.771 20.563,4.698 21.734,4.664 L 21.959,4.375 C 20.701,3.504 19.295,3.006 17.857,2.662 17.254,2.518 16.646,2.398 16.039,2.293 13.98,1.948 11.865,1.866 9.814,1.834 7.82,1.757 5.83,1.151 4.004,0.264 3.087,-0.18 2.205,-0.699 1.362,-1.274 0.947,-1.556 0.523,-1.85 0.124,-2.165 -0.278,-2.484 -0.656,-2.823 -0.972,-3.188 l -0.304,0.202 C -1.041,-1.855 -0.586,-0.877 0,0"
               style="fill:#000000;fill-opacity:1;fill-rule:nonzero;stroke:none"
               id="path1004" /></g><g
             id="g1006"
             transform="matrix(0.44961926,0,0,0.43966935,87.610195,200.64161)"><path
               inkscape:connector-curvature="0"
               d="M 0,0 C -1.91,0 -3.405,1.008 -3.949,1.432 -5.71,1.031 -6.681,2.245 -6.724,2.299 l 0.786,0.618 C -5.909,2.882 -5.235,2.07 -3.976,2.459 l 0.275,0.084 0.212,-0.196 c 0.14,-0.129 3.468,-3.13 7.069,0.247 L 3.815,2.815 4.114,2.691 C 4.123,2.688 5.296,2.224 5.92,2.935 L 6.672,2.277 C 5.837,1.321 4.614,1.507 4.042,1.664 2.62,0.415 1.224,0 0,0"
               style="fill:#a3897a;fill-opacity:1;fill-rule:nonzero;stroke:none"
               id="path1008" /></g><g
             id="g1010"
             transform="matrix(0.44961926,0,0,0.43966935,91.50902,197.00594)"><path
               inkscape:connector-curvature="0"
               d="m 0,0 c 0,-3.106 -3.89,-5.625 -8.688,-5.625 -4.798,0 -8.687,2.519 -8.687,5.625"
               style="fill:#bd1622;fill-opacity:1;fill-rule:nonzero;stroke:none"
               id="path1012" /></g><g
             id="g1014"
             transform="matrix(0.44961926,0,0,0.43966935,89.190699,198.24252)"><path
               inkscape:connector-curvature="0"
               d="M 0,0 C -1.347,0 -2.513,-0.557 -3.157,-1.378 -3.8,-0.557 -4.966,0 -6.313,0 -8.349,0 -10,-1.259 -10,-2.813 c 0,-1.553 1.651,-2.812 3.687,-2.812 1.347,0 2.513,0.557 3.156,1.378 0.644,-0.821 1.81,-1.378 3.157,-1.378 2.037,0 3.688,1.259 3.688,2.812 C 3.688,-1.259 2.037,0 0,0"
               style="fill:#bd1622;fill-opacity:1;fill-rule:nonzero;stroke:none"
               id="path1016" /></g><path
             inkscape:connector-curvature="0"
             d="m 92.970375,196.78607 -10.734666,0 0,0.43967 10.734666,0 0,-0.43967 z"
             style="fill:#9c1519;fill-opacity:1;fill-rule:nonzero;stroke:none"
             id="path1018" /><g
             id="g1020"
             transform="matrix(0.44961926,0,0,0.43966935,107.69842,221.88891)"><path
               inkscape:connector-curvature="0"
               d="m 0,0 c 0,-9.043 -8.332,-16.375 -17.375,-16.375 l -22.676,0 c -9.044,0 -19.696,3.739 -28.375,16.375 -2.825,4.113 -8,16.655 -8,16.655 0,9.044 11.331,17.375 20.375,17.375 l 19.675,0 c 18.3,0 27.165,-8.503 32.708,-17 C -0.428,12.064 0,0 0,0"
               style="fill:#634e42;fill-opacity:1;fill-rule:nonzero;stroke:none"
               id="path1022" /></g><g
             id="g1024"
             transform="matrix(0.44961926,0,0,0.43966935,74.046756,214.18202)"><path
               inkscape:connector-curvature="0"
               d="M 0,0 C 1.323,1.494 3.073,2.694 5.227,3.13 5.765,3.222 6.324,3.253 6.887,3.21 7.469,3.163 7.976,3.047 8.461,2.95 9.439,2.728 10.396,2.479 11.35,2.223 c 1.902,-0.52 3.882,-0.824 5.642,-1.717 0.886,-0.426 1.755,-0.9 2.591,-1.452 0.839,-0.544 1.657,-1.144 2.411,-1.899 l -0.11,-0.28 c -1.064,-0.046 -2.069,0.055 -3.053,0.207 -0.987,0.142 -1.945,0.358 -2.888,0.614 -1.897,0.47 -3.584,1.507 -5.373,2.257 C 9.678,0.331 8.783,0.701 7.892,1.038 7.44,1.213 7.011,1.385 6.627,1.481 6.224,1.584 5.801,1.636 5.368,1.637 3.616,1.666 1.775,0.875 0.208,-0.216 L 0,0 Z"
               style="fill:#3a322e;fill-opacity:1;fill-rule:nonzero;stroke:none"
               id="path1026" /></g><g
             id="g1028"
             transform="matrix(0.44961926,0,0,0.43966935,100.94972,214.08714)"><path
               inkscape:connector-curvature="0"
               d="M 0,0 C -1.567,1.091 -3.408,1.881 -5.16,1.853 -5.593,1.852 -6.017,1.8 -6.419,1.698 -6.803,1.601 -7.232,1.429 -7.684,1.253 -8.575,0.917 -9.47,0.546 -10.362,0.169 c -1.788,-0.751 -3.476,-1.787 -5.373,-2.257 -0.943,-0.256 -1.901,-0.472 -2.888,-0.614 -0.983,-0.152 -1.988,-0.253 -3.053,-0.207 l -0.109,0.28 c 0.754,0.755 1.571,1.355 2.411,1.899 0.836,0.552 1.704,1.025 2.59,1.452 1.761,0.893 3.74,1.196 5.642,1.717 0.954,0.255 1.911,0.504 2.889,0.727 0.484,0.097 0.991,0.213 1.574,0.26 0.563,0.043 1.122,0.012 1.66,-0.08 C -2.865,2.91 -1.115,1.71 0.207,0.216 L 0,0 Z"
               style="fill:#3a322e;fill-opacity:1;fill-rule:nonzero;stroke:none"
               id="path1030" /></g><g
             id="g1032"
             transform="matrix(0.44961926,0,0,0.43966935,101.10075,206.19156)"><path
               inkscape:connector-curvature="0"
               d="m 0,0 c -4.117,-4.963 -11.037,-5.178 -11.252,-5.184 -14.337,0.006 -14.832,13.258 -14.791,13.989 0.092,1.639 2.497,2.777 2.497,2.777 4.459,2.247 11.091,2.836 17.726,2.836 3.957,0 5.959,-1.14 6.759,-2.265 C 2.848,9.467 2.756,3.319 0,0 m -49.182,-5.184 c -0.214,0.006 -7.133,0.221 -11.252,5.184 -2.755,3.319 -2.847,9.467 -0.938,12.153 0.8,1.125 2.802,2.265 6.76,2.265 6.633,0 13.266,-0.589 17.725,-2.836 0,0 2.405,-1.138 2.497,-2.777 0.04,-0.731 -0.454,-13.983 -14.792,-13.989 m 52.889,20.96 c -0.168,0.02 -4.191,0.497 -9.527,0.497 -6.881,0 -16.184,-0.625 -21.537,-4.492 l -2.86,0 -2.859,0 c -5.354,3.867 -14.656,4.492 -21.536,4.492 -5.338,0 -9.36,-0.477 -9.529,-0.497 0,0 -2.208,-0.246 -2.541,-1.938 l 0,-7.274 c 0,0 1.038,-0.215 1.569,-1.236 0.775,-1.493 1.345,-4.223 3.265,-6.527 4.721,-5.672 12.324,-5.835 12.645,-5.84 l 0.012,0 c 13.918,0 15.529,11.41 16.339,14.156 0.316,1.071 2.635,1.572 2.635,1.572 0,0 2.32,-0.501 2.635,-1.572 0.811,-2.746 2.422,-14.156 16.34,-14.156 l 0.012,0 c 0.32,0.005 7.923,0.168 12.644,5.84 1.92,2.304 2.49,5.034 3.266,6.527 0.531,1.021 1.568,1.236 1.568,1.236 l 0,7.274 C 5.916,15.53 3.707,15.776 3.707,15.776"
               style="fill:#925f36;fill-opacity:1;fill-rule:nonzero;stroke:none"
               id="path1034" /></g><g
             id="g1036"
             transform="matrix(0.44961926,0,0,0.43966935,102.30474,157.72853)"><path
               inkscape:connector-curvature="0"
               d="m 0,0 0,48.25 c 0,6.835 -5.838,12.375 -12.375,12.375 -17.565,0 -11.787,20.334 -11.787,20.334 l -18.515,0 c 0,0 5.114,-20.334 -11.789,-20.334 -7.372,0 -12.375,-5.54 -12.375,-12.375 l 0,-48.25 c 0,-5.156 3.155,-9.572 7.639,-11.432 -3.548,-5.56 -5.634,-12.317 -5.634,-19.609 -0.047,-1.005 0.011,-2.166 0.158,-3.449 0.219,-2.398 0.666,-4.721 1.312,-6.948 4.144,-17.043 15.53,-42.937 15.53,-42.937 -5.169,-10.666 5.959,-47.031 5.959,-47.031 l -16.086,-14.634 c -2.219,-1.282 -4.188,-2.36 -4.188,-3.689 0,-1.327 0.001,-3.809 3.405,-3.809 l 0.054,0.01 0,-0.01 c 5.854,0 24.939,10 24.939,10 0,0 18.151,-9.723 25.124,-9.987 l 0.074,-0.013 c 0.035,0 0.067,0.004 0.104,0.005 0.035,-0.001 0.076,-0.005 0.113,-0.005 l 0,0.011 c 3.178,0.107 3.188,2.501 3.188,3.798 0,1.329 -1.633,2.522 -3.932,3.672 l -16.498,14.453 c 0,0 10.576,35.563 5.908,47.229 0,0 19.084,40.959 17.668,53.334 0,7.292 -2.088,14.049 -5.635,19.608 C -3.154,-9.572 0,-5.156 0,0"
               style="fill:#f1d2ac;fill-opacity:1;fill-rule:nonzero;stroke:none"
               id="path1038" /></g><g
             id="g1040"
             transform="matrix(0.44961926,0,0,0.43966935,76.735929,177.05596)"><path
               inkscape:connector-curvature="0"
               d="m 0,0 1.688,-3.667 c 0,0 -7.551,-9 -1.688,-16.333 l 5.402,-19.334 -7.736,-16.057"
               style="fill:none;stroke:#a3897a;stroke-width:2.24912953;stroke-linecap:butt;stroke-linejoin:miter;stroke-miterlimit:10;stroke-dasharray:none;stroke-opacity:1"
               id="path1042" /></g><g
             id="g1044"
             transform="matrix(0.44961926,0,0,0.43966935,97.618843,177.05596)"><path
               inkscape:connector-curvature="0"
               d="m 0,0 -1.688,-3.667 c 0,0 7.551,-9 1.688,-16.333 l -5.402,-19.334 7.736,-16.057"
               style="fill:none;stroke:#a3897a;stroke-width:2.24912953;stroke-linecap:butt;stroke-linejoin:miter;stroke-miterlimit:10;stroke-dasharray:none;stroke-opacity:1"
               id="path1046" /></g><g
             id="g1048"
             transform="matrix(0.44961926,0,0,0.43966935,83.380992,142.17522)"><path
               inkscape:connector-curvature="0"
               d="m 0,0 8.335,-6 7.572,6"
               style="fill:none;stroke:#a3897a;stroke-width:2.24912953;stroke-linecap:butt;stroke-linejoin:miter;stroke-miterlimit:10;stroke-dasharray:none;stroke-opacity:1"
               id="path1050" /></g><g
             id="g1052"
             transform="matrix(0.44961926,0,0,0.43966935,87.128558,94.619212)"><path
               inkscape:connector-curvature="0"
               d="M 0,0 0,102.163"
               style="fill:none;stroke:#a3897a;stroke-width:2.24912953;stroke-linecap:butt;stroke-linejoin:miter;stroke-miterlimit:10;stroke-dasharray:none;stroke-opacity:1"
               id="path1054" /></g><g
             id="g1056"
             transform="matrix(0.44961926,0,0,0.43966935,87.668194,153.75348)"><path
               inkscape:connector-curvature="0"
               d="m 0,0 c 0,-1.32 -0.537,-2.391 -1.2,-2.391 -0.663,0 -1.2,1.071 -1.2,2.391 0,1.32 0.537,2.391 1.2,2.391 C -0.537,2.391 0,1.32 0,0 Z"
               style="fill:none;stroke:#a3897a;stroke-width:2.24912953;stroke-linecap:butt;stroke-linejoin:miter;stroke-miterlimit:10;stroke-dasharray:none;stroke-opacity:1"
               id="path1058" /></g><g
             id="g1060"
             transform="matrix(0.44961926,0,0,0.43966935,96.651991,164.87916)"><path
               inkscape:connector-curvature="0"
               d="M 0,0 -3.252,-11.639 0,0 Z"
               style="fill:#f1d2ac;fill-opacity:1;fill-rule:nonzero;stroke:none"
               id="path1062" /></g><g
             id="g1064"
             transform="matrix(0.44961926,0,0,0.43966935,98.909748,152.63583)"><path
               inkscape:connector-curvature="0"
               d="M 0,0 2.822,-5.526 C 2.029,-3.585 1.094,-1.731 0,0"
               style="fill:#f1d2ac;fill-opacity:1;fill-rule:nonzero;stroke:none"
               id="path1066" /></g><g
             id="g1068"
             transform="matrix(0.44961926,0,0,0.43966935,98.909748,152.63583)"><path
               inkscape:connector-curvature="0"
               d="M 0,0 -0.078,0.155 C -0.082,0.153 -0.084,0.151 -0.088,0.15 -0.057,0.102 -0.029,0.049 0,0"
               style="fill:#f1d2ac;fill-opacity:1;fill-rule:nonzero;stroke:none"
               id="path1070" /></g><g
             id="g1072"
             transform="matrix(0.44961926,0,0,0.43966935,100.22084,150.12492)"><path
               inkscape:connector-curvature="0"
               d="M 0,0 -0.094,0.185 C -0.068,0.121 -0.041,0.059 -0.016,-0.006 -0.014,-0.005 0,0 0,0"
               style="fill:#f1d2ac;fill-opacity:1;fill-rule:nonzero;stroke:none"
               id="path1074" /></g><g
             id="g1076"
             transform="matrix(0.44961926,0,0,0.43966935,75.607247,152.73762)"><path
               inkscape:connector-curvature="0"
               d="m 0,0 -1.955,-3.946 c 0.003,-0.002 0.006,-0.003 0.01,-0.005 0.635,1.342 1.336,2.639 2.121,3.871 C 0.116,-0.056 0.059,-0.025 0,0"
               style="fill:#f1d2ac;fill-opacity:1;fill-rule:nonzero;stroke:none"
               id="path1078" /></g><g
             id="g1080"
             transform="matrix(0.44961926,0,0,0.43966935,79.164914,159.76199)"><path
               inkscape:connector-curvature="0"
               d="m 0,0 -7.913,-15.977 c 0.059,-0.025 0.117,-0.055 0.176,-0.08 L 0,0 Z"
               style="fill:#f1d2ac;fill-opacity:1;fill-rule:nonzero;stroke:none"
               id="path1082" /></g><g
             id="g1084"
             transform="matrix(0.44961926,0,0,0.43966935,78.329331,161.71047)"><path
               inkscape:connector-curvature="0"
               d="m 0,0 1.239,-4.432 c 0,0 -0.058,-0.118 -0.156,-0.318 9.494,-2.973 22.613,-4.77 36.971,0.021 -0.092,0.188 -0.148,0.297 -0.148,0.297 l 1.306,4.495 C 32.42,-2.317 25.886,-3.244 19.858,-3.244 12.284,-3.244 5.507,-1.799 0,0"
               style="fill:#fffceb;fill-opacity:1;fill-rule:nonzero;stroke:none"
               id="path1086" /></g><g
             id="g1088"
             transform="matrix(0.44961926,0,0,0.43966935,77.591917,157.16522)"><path
               inkscape:connector-curvature="0"
               d="M 0,0 C -0.569,-1.176 -1.18,-2.442 -1.791,-3.719 8.655,-7.818 25.651,-11.505 44.255,-3.555 43.63,-2.289 43.019,-1.057 42.454,0.081 35.087,-2.737 27.999,-3.804 21.498,-3.804 13.153,-3.804 5.777,-2.049 0,0"
               style="fill:#fffceb;fill-opacity:1;fill-rule:nonzero;stroke:none"
               id="path1090" /></g><g
             id="g1092"
             transform="matrix(0.44961926,0,0,0.43966935,87.257881,162.67994)"><path
               inkscape:connector-curvature="0"
               d="m 0,0 c -8.367,0 -15.759,1.764 -21.543,3.819 l 1.361,-4.865 c 9.9,-3.341 24.208,-5.617 39.88,0.086 l 1.428,4.913 C 13.698,1.086 6.552,0 0,0"
               style="fill:#fffceb;fill-opacity:1;fill-rule:nonzero;stroke:none"
               id="path1094" /></g><g
             id="g1096"
             transform="matrix(0.44961926,0,0,0.43966935,78.617186,159.22485)"><path
               inkscape:connector-curvature="0"
               d="M 0,0 C -0.441,-0.899 -1.091,-2.232 -1.844,-3.783 8.243,-7.341 23.265,-9.962 39.723,-3.7 38.961,-2.165 38.309,-0.861 37.869,0.017 31.329,-2.185 25.039,-3.04 19.218,-3.04 11.934,-3.04 5.39,-1.702 0,0"
               style="fill:#fffceb;fill-opacity:1;fill-rule:nonzero;stroke:none"
               id="path1098" /></g><g
             id="g1100"
             transform="matrix(0.44961926,0,0,0.43966935,76.593448,155.13391)"><path
               inkscape:connector-curvature="0"
               d="m 0,0 c -0.599,-1.256 -1.187,-2.5 -1.727,-3.657 10.529,-4.559 29.588,-9.604 50.394,0.264 -0.568,1.164 -1.158,2.366 -1.746,3.557 C 38.749,-3.339 30.879,-4.633 23.719,-4.633 14.264,-4.633 6.049,-2.382 0,0"
               style="fill:#fffceb;fill-opacity:1;fill-rule:nonzero;stroke:none"
               id="path1102" /></g><g
             id="g1104"
             transform="matrix(0.44961926,0,0,0.43966935,100.10053,183.20551)"><path
               inkscape:connector-curvature="0"
               d="m 0,0 c -2.131,1.673 -4.775,2.68 -7.551,2.68 -0.314,0 -0.605,0.02 -0.906,0.033 L -8.486,2.702 C -30.291,-7.61 -47.725,2.778 -47.725,2.778 l -0.019,0.006 c -0.604,-0.061 -1.228,-0.104 -1.9,-0.104 -3.307,0 -6.13,-1.121 -8.247,-2.968 C -48.289,-5.219 -25.115,-13.926 0,0"
               style="fill:#fffceb;fill-opacity:1;fill-rule:nonzero;stroke:none"
               id="path1106" /></g><g
             id="g1108"
             transform="matrix(0.44961926,0,0,0.43966935,75.627889,153.12791)"><path
               inkscape:connector-curvature="0"
               d="m 0,0 c -1.106,-2.392 -1.932,-4.272 -2.071,-4.839 25.694,-13.176 55.52,-2.384 56.673,-1.997 -0.487,1.175 -1.801,3.93 -3.346,7.102 C 42.301,-3.985 33.662,-5.519 25.866,-5.519 15.24,-5.519 6.179,-2.677 0,0"
               style="fill:#fffceb;fill-opacity:1;fill-rule:nonzero;stroke:none"
               id="path1110" /></g><g
             id="g1112"
             transform="matrix(0.44961926,0,0,0.43966935,101.51265,181.62676)"><path
               inkscape:connector-curvature="0"
               d="m 0,0 c -0.633,1.08 -1.424,2.053 -2.336,2.899 -10.367,-5.826 -20.423,-7.851 -29.368,-7.851 -13.405,0 -24.317,4.521 -30.093,7.529 C -62.669,1.663 -63.382,0.606 -63.93,-0.551 -56.835,-4.749 -29.405,-18.459 0,0"
               style="fill:#fffceb;fill-opacity:1;fill-rule:nonzero;stroke:none"
               id="path1114" /></g><g
             id="g1116"
             transform="matrix(0.44961926,0,0,0.43966935,98.330156,170.34584)"><path
               inkscape:connector-curvature="0"
               d="m 0,0 c 0.23,1.465 0.113,2.914 -0.201,4.261 -8.61,-3.915 -16.908,-5.35 -24.425,-5.35 -10.064,0 -18.707,2.549 -24.844,5.093 -0.292,-1.377 -0.38,-2.852 -0.09,-4.338 C -38.99,-4.804 -20.349,-9.507 0,0"
               style="fill:#fffceb;fill-opacity:1;fill-rule:nonzero;stroke:none"
               id="path1118" /></g><g
             id="g1120"
             transform="matrix(0.44961926,0,0,0.43966935,97.302727,167.50602)"><path
               inkscape:connector-curvature="0"
               d="m 0,0 0.311,2.033 c 0.83,1.04 1.371,2.12 1.697,3.205 -8.582,-3.888 -16.855,-5.317 -24.349,-5.317 -9.936,0 -18.485,2.485 -24.608,4.996 0.334,-0.977 0.845,-1.947 1.594,-2.884 l 0.091,-0.178 0.303,-2.107 C -34.549,-4.212 -18.051,-7.556 0,0"
               style="fill:#fffceb;fill-opacity:1;fill-rule:nonzero;stroke:none"
               id="path1122" /></g><g
             id="g1124"
             transform="matrix(0.44961926,0,0,0.43966935,76.938795,177.14784)"><path
               inkscape:connector-curvature="0"
               d="M 0,0 0.145,-0.314 C 10.59,-4.321 27.271,-7.766 45.52,-0.04 L 45.538,0 45.575,-0.017 c 3.498,1.485 7.052,3.378 10.633,5.76 C 56.03,6.998 55.659,8.191 55.125,9.297 43.768,2.184 32.702,-0.214 22.951,-0.214 7.22,-0.214 -5.081,6.012 -9.671,8.711 -10.117,7.527 -10.385,6.251 -10.466,4.918 -9.131,4.063 -5.538,1.908 -0.307,-0.141 L 0,0 Z"
               style="fill:#fffceb;fill-opacity:1;fill-rule:nonzero;stroke:none"
               id="path1126" /></g><g
             id="g1128"
             transform="matrix(0.44961926,0,0,0.43966935,100.46234,182.90131)"><path
               inkscape:connector-curvature="0"
               d="m 0,0 c -0.26,0.241 -0.527,0.473 -0.805,0.692 -25.115,-13.926 -48.289,-5.219 -57.89,-0.288 -0.266,-0.232 -0.523,-0.472 -0.766,-0.726 5.776,-3.008 16.688,-7.529 30.093,-7.529 8.945,0 19.001,2.025 29.368,7.851"
               style="fill:#bd1622;fill-opacity:1;fill-rule:nonzero;stroke:none"
               id="path1130" /></g><g
             id="g1132"
             transform="matrix(0.44961926,0,0,0.43966935,101.72428,181.23562)"><path
               inkscape:connector-curvature="0"
               d="M 0,0 C -0.146,0.303 -0.301,0.601 -0.471,0.89 -29.876,-17.57 -57.306,-3.859 -64.4,0.339 c -0.143,-0.303 -0.278,-0.61 -0.397,-0.925 4.591,-2.699 16.892,-8.925 32.622,-8.925 9.751,0 20.818,2.398 32.175,9.511"
               style="fill:#2d2e82;fill-opacity:1;fill-rule:nonzero;stroke:none"
               id="path1134" /></g><g
             id="g1136"
             transform="matrix(0.44961926,0,0,0.43966935,97.40021,174.25693)"><path
               inkscape:connector-curvature="0"
               d="m 0,0 c -0.178,0.314 -0.354,0.606 -0.52,0.866 -17.866,-7.365 -34.186,-4.089 -44.545,-0.17 -0.164,-0.263 -0.335,-0.552 -0.509,-0.865 5.978,-2.28 13.915,-4.367 23.016,-4.367 6.972,0 14.617,1.234 22.558,4.536"
               style="fill:#2d2e82;fill-opacity:1;fill-rule:nonzero;stroke:none"
               id="path1138" /></g><g
             id="g1140"
             transform="matrix(0.44961926,0,0,0.43966935,98.239731,172.21914)"><path
               inkscape:connector-curvature="0"
               d="M 0,0 C -0.076,0.332 -0.166,0.655 -0.262,0.973 -20.221,-8.152 -38.484,-3.678 -49.027,0.716 -49.118,0.398 -49.199,0.074 -49.269,-0.257 -43.132,-2.8 -34.489,-5.35 -24.425,-5.35 -16.908,-5.35 -8.609,-3.915 0,0"
               style="fill:#bd1622;fill-opacity:1;fill-rule:nonzero;stroke:none"
               id="path1142" /></g><g
             id="g1144"
             transform="matrix(0.44961926,0,0,0.43966935,98.205459,169.80892)"><path
               inkscape:connector-curvature="0"
               d="m 0,0 c 0.123,0.407 0.213,0.814 0.277,1.221 -20.348,-9.507 -38.99,-4.804 -49.56,-0.334 0.079,-0.403 0.189,-0.805 0.326,-1.208 6.123,-2.511 14.672,-4.996 24.608,-4.996 7.495,0 15.767,1.429 24.349,5.317"
               style="fill:#2d2e82;fill-opacity:1;fill-rule:nonzero;stroke:none"
               id="path1146" /></g><g
             id="g1148"
             transform="matrix(0.44961926,0,0,0.43966935,77.087398,167.39506)"><path
               inkscape:connector-curvature="0"
               d="m 0,0 0.161,-1.117 c 5.911,-2.197 13.637,-4.158 22.459,-4.158 6.857,0 14.364,1.196 22.165,4.377 l 0.176,1.15 C 26.91,-7.303 10.412,-3.96 0,0"
               style="fill:#bd1622;fill-opacity:1;fill-rule:nonzero;stroke:none"
               id="path1150" /></g><g
             id="g1152"
             transform="matrix(0.44961926,0,0,0.43966935,96.904897,164.9526)"><path
               inkscape:connector-curvature="0"
               d="m 0,0 c -17.236,-6.895 -32.977,-3.953 -43.248,-0.199 l 0.077,-0.535 0.172,-0.616 c 5.784,-2.055 13.176,-3.819 21.543,-3.819 6.552,0 13.698,1.086 21.126,3.953 L -0.025,-0.167 0,0 Z"
               style="fill:#2d2e82;fill-opacity:1;fill-rule:nonzero;stroke:none"
               id="path1154" /></g><g
             id="g1156"
             transform="matrix(0.44961926,0,0,0.43966935,97.048908,165.00627)"><path
               inkscape:connector-curvature="0"
               d="M 0,0 C -0.1,-0.041 -0.197,-0.073 -0.297,-0.113 L -0.346,-0.289 C -0.236,-0.18 -0.113,-0.098 0,0"
               style="fill:#2d2e82;fill-opacity:1;fill-rule:nonzero;stroke:none"
               id="path1158" /></g><g
             id="g1160"
             transform="matrix(0.44961926,0,0,0.43966935,72.215822,164.87916)"><path
               inkscape:connector-curvature="0"
               d="M 0,0 C 0.039,0.029 0.084,0.048 0.124,0.076 0.079,0.104 0.041,0.129 0,0.155 L 0,0 Z"
               style="fill:#bd1622;fill-opacity:1;fill-rule:nonzero;stroke:none"
               id="path1162" /></g><g
             id="g1164"
             transform="matrix(0.44961926,0,0,0.43966935,78.183575,162.21993)"><path
               inkscape:connector-curvature="0"
               d="m 0,0 0.324,-1.159 c 5.508,-1.799 12.284,-3.243 19.858,-3.243 6.028,0 12.563,0.926 19.355,3.306 L 39.88,0.086 C 24.208,-5.617 9.9,-3.34 0,0"
               style="fill:#bd1622;fill-opacity:1;fill-rule:nonzero;stroke:none"
               id="path1166" /></g><g
             id="g1168"
             transform="matrix(0.44961926,0,0,0.43966935,78.816314,159.62205)"><path
               inkscape:connector-curvature="0"
               d="m 0,0 c -0.103,-0.209 -0.25,-0.51 -0.443,-0.903 5.39,-1.702 11.934,-3.04 19.218,-3.04 5.821,0 12.111,0.855 18.651,3.056 -0.199,0.401 -0.351,0.703 -0.455,0.908 C 22.613,-4.77 9.494,-2.973 0,0"
               style="fill:#2d2e82;fill-opacity:1;fill-rule:nonzero;stroke:none"
               id="path1170" /></g><g
             id="g1172"
             transform="matrix(0.44961926,0,0,0.43966935,77.788176,157.5615)"><path
               inkscape:connector-curvature="0"
               d="m 0,0 c -0.142,-0.292 -0.288,-0.595 -0.437,-0.901 5.778,-2.049 13.153,-3.804 21.499,-3.804 6.501,0 13.588,1.066 20.956,3.885 -0.155,0.309 -0.305,0.61 -0.452,0.903 C 25.108,-6.179 10.086,-3.558 0,0"
               style="fill:#bd1622;fill-opacity:1;fill-rule:nonzero;stroke:none"
               id="path1174" /></g><g
             id="g1176"
             transform="matrix(0.44961926,0,0,0.43966935,76.78687,155.53018)"><path
               inkscape:connector-curvature="0"
               d="m 0,0 c -0.144,-0.301 -0.287,-0.601 -0.43,-0.901 6.049,-2.382 14.263,-4.633 23.719,-4.633 7.16,0 15.03,1.294 23.202,4.797 -0.149,0.301 -0.297,0.601 -0.446,0.901 C 27.442,-7.786 10.446,-4.1 0,0"
               style="fill:#2d2e82;fill-opacity:1;fill-rule:nonzero;stroke:none"
               id="path1178" /></g><g
             id="g1180"
             transform="matrix(0.44961926,0,0,0.43966935,75.816956,153.5259)"><path
               inkscape:connector-curvature="0"
               d="m 0,0 c -0.144,-0.309 -0.284,-0.611 -0.42,-0.905 6.178,-2.677 15.24,-5.519 25.865,-5.519 7.797,0 16.435,1.533 25.39,5.784 -0.144,0.298 -0.291,0.6 -0.441,0.905 C 29.588,-9.604 10.529,-4.559 0,0"
               style="fill:#bd1622;fill-opacity:1;fill-rule:nonzero;stroke:none"
               id="path1182" /></g><g
             id="g1184"
             transform="matrix(0.44961926,0,0,0.43966935,76.938795,177.14784)"><path
               inkscape:connector-curvature="0"
               d="m 0,0 -0.307,-0.141 c 0.148,-0.058 0.301,-0.116 0.452,-0.173 L 0,0 Z"
               style="fill:#fffceb;fill-opacity:1;fill-rule:nonzero;stroke:none"
               id="path1186" /></g><g
             id="g1188"
             transform="matrix(0.44961926,0,0,0.43966935,77.426814,164.87702)"><path
               inkscape:connector-curvature="0"
               d="M 0,0 0.15,-0.563 0.073,-0.027 C 0.048,-0.018 0.025,-0.009 0,0"
               style="fill:#d7d5bf;fill-opacity:1;fill-rule:nonzero;stroke:none"
               id="path1190" /></g><g
             id="g1192"
             transform="matrix(0.44961926,0,0,0.43966935,98.330156,170.34584)"><path
               inkscape:connector-curvature="0"
               d="M 0,0 C 0.359,0.167 0.719,0.339 1.078,0.516 1.211,1.963 1.049,3.38 0.721,4.696 0.414,4.55 0.105,4.4 -0.201,4.261 0.113,2.914 0.23,1.465 0,0"
               style="fill:#d7d5bf;fill-opacity:1;fill-rule:nonzero;stroke:none"
               id="path1194" /></g><g
             id="g1196"
             transform="matrix(0.44961926,0,0,0.43966935,97.442337,168.39974)"><path
               inkscape:connector-curvature="0"
               d="m 0,0 -0.311,-2.033 c 0.282,0.117 0.561,0.235 0.842,0.358 l 0.313,1.132 C 1.943,0.856 2.572,2.313 2.875,3.76 2.482,3.572 2.09,3.382 1.697,3.205 1.371,2.121 0.83,1.04 0,0"
               style="fill:#d7d5bf;fill-opacity:1;fill-rule:nonzero;stroke:none"
               id="path1198" /></g><g
             id="g1200"
             transform="matrix(0.44961926,0,0,0.43966935,97.413366,177.14784)"><path
               inkscape:connector-curvature="0"
               d="M 0,0 -0.018,-0.04 C 0,-0.032 0.018,-0.024 0.037,-0.017 L 0,0 Z"
               style="fill:#d7d5bf;fill-opacity:1;fill-rule:nonzero;stroke:none"
               id="path1202" /></g><g
             id="g1204"
             transform="matrix(0.44961926,0,0,0.43966935,96.594937,175.40912)"><path
               inkscape:connector-curvature="0"
               d="M 0,0 0.203,-0.243 C 0.221,-0.264 0.68,-0.822 1.271,-1.754 1.582,-1.626 1.893,-1.5 2.205,-1.365 1.768,-0.663 1.387,-0.141 1.168,0.147 L 2.557,3.161 C 2.1,2.965 1.645,2.771 1.191,2.588 L 0,0 Z"
               style="fill:#d7d5bf;fill-opacity:1;fill-rule:nonzero;stroke:none"
               id="path1206" /></g><g
             id="g1208"
             transform="matrix(0.44961926,0,0,0.43966935,98.122012,172.64704)"><path
               inkscape:connector-curvature="0"
               d="M 0,0 C 0.303,0.138 0.605,0.283 0.908,0.427 0.469,1.813 -0.123,3.056 -0.688,4.062 -0.992,3.929 -1.299,3.788 -1.605,3.662 -1.035,2.662 -0.432,1.405 0,0"
               style="fill:#d7d5bf;fill-opacity:1;fill-rule:nonzero;stroke:none"
               id="path1210" /></g><g
             id="g1212"
             transform="matrix(0.44961926,0,0,0.43966935,96.904897,164.9526)"><path
               inkscape:connector-curvature="0"
               d="M 0,0 C 0.008,0.003 0.016,0.006 0.023,0.009 L 1.389,4.94 C 1.162,4.845 0.936,4.75 0.709,4.657 L 0,0 Z"
               style="fill:#d7d5bf;fill-opacity:1;fill-rule:nonzero;stroke:none"
               id="path1214" /></g><g
             id="g1216"
             transform="matrix(0.44961926,0,0,0.43966935,102.21076,179.67273)"><path
               inkscape:connector-curvature="0"
               d="m 0,0 c -3.58,-2.381 -7.135,-4.274 -10.633,-5.759 -0.019,-0.008 -0.037,-0.015 -0.055,-0.023 -18.249,-7.726 -34.93,-4.282 -45.375,-0.275 -0.15,0.057 -0.303,0.115 -0.451,0.173 -5.232,2.05 -8.824,4.204 -10.16,5.06 -0.016,-0.278 -0.038,-0.554 -0.038,-0.836 l 0,-0.32 c 1.665,-1.028 5.123,-2.99 9.909,-4.859 0.429,-0.168 0.88,-0.334 1.33,-0.499 5.88,-2.16 13.516,-4.067 22.216,-4.067 6.795,0 14.232,1.178 21.958,4.296 0.453,0.183 0.908,0.377 1.365,0.573 3.305,1.427 6.659,3.203 10.036,5.412 C 0.084,-0.744 0.053,-0.37 0,0"
               style="fill:#bd1622;fill-opacity:1;fill-rule:nonzero;stroke:none"
               id="path1218" /></g><g
             id="g1220"
             transform="matrix(0.44961926,0,0,0.43966935,97.40021,174.25693)"><path
               inkscape:connector-curvature="0"
               d="M 0,0 C 0.307,0.126 0.613,0.267 0.918,0.4 0.746,0.708 0.576,0.995 0.414,1.255 0.102,1.121 -0.209,0.995 -0.52,0.866 -0.354,0.606 -0.178,0.314 0,0"
               style="fill:#d7d5bf;fill-opacity:1;fill-rule:nonzero;stroke:none"
               id="path1222" /></g><g
             id="g1224"
             transform="matrix(0.44961926,0,0,0.43966935,98.239731,172.21914)"><path
               inkscape:connector-curvature="0"
               d="M 0,0 C 0.307,0.14 0.615,0.29 0.922,0.435 0.84,0.764 0.746,1.085 0.646,1.4 0.344,1.256 0.041,1.111 -0.262,0.973 -0.166,0.655 -0.076,0.332 0,0"
               style="fill:#d7d5bf;fill-opacity:1;fill-rule:nonzero;stroke:none"
               id="path1226" /></g><g
             id="g1228"
             transform="matrix(0.44961926,0,0,0.43966935,98.205459,169.80892)"><path
               inkscape:connector-curvature="0"
               d="M 0,0 C 0.393,0.177 0.785,0.367 1.178,0.555 1.26,0.95 1.32,1.344 1.355,1.737 0.996,1.56 0.637,1.389 0.277,1.221 0.213,0.814 0.123,0.407 0,0"
               style="fill:#d7d5bf;fill-opacity:1;fill-rule:nonzero;stroke:none"
               id="path1230" /></g><g
             id="g1232"
             transform="matrix(0.44961926,0,0,0.43966935,97.223681,167.00022)"><path
               inkscape:connector-curvature="0"
               d="M 0,0 C 0.227,0.092 0.453,0.188 0.68,0.283 L 1.018,1.508 C 0.736,1.385 0.457,1.268 0.176,1.15 L 0,0 Z"
               style="fill:#d7d5bf;fill-opacity:1;fill-rule:nonzero;stroke:none"
               id="path1234" /></g><g
             id="g1236"
             transform="matrix(0.44961926,0,0,0.43966935,96.893484,164.87916)"><path
               inkscape:connector-curvature="0"
               d="M 0,0 0.049,0.176 C 0.041,0.173 0.033,0.17 0.025,0.167 L 0,0 Z"
               style="fill:#d7d5bf;fill-opacity:1;fill-rule:nonzero;stroke:none"
               id="path1238" /></g><g
             id="g1240"
             transform="matrix(0.44961926,0,0,0.43966935,76.868741,166.92099)"><path
               inkscape:connector-curvature="0"
               d="M 0,0 -0.061,0.226 -0.377,1.414 -0.753,2.82 C -1.097,3.258 -1.38,3.703 -1.637,4.149 -1.652,4.077 -1.673,4.002 -1.688,3.93 -5.817,4.228 -8.899,4.07 -10.349,3.952 l 0,-2.993 0,-0.795 C -8.446,0.282 -4.337,0.376 0,0"
               style="fill:#fffceb;fill-opacity:1;fill-rule:nonzero;stroke:none"
               id="path1242" /></g><g
             id="g1244"
             transform="matrix(0.44961926,0,0,0.43966935,72.215822,166.55132)"><path
               inkscape:connector-curvature="0"
               d="m 0,0 0,-3.648 c 0.041,-0.026 0.079,-0.051 0.124,-0.08 1.764,1.237 4.211,1.27 6.41,0.909 2.811,-0.462 5.206,-1.552 5.206,-1.552 l -0.15,0.563 -0.968,3.624 C 6.122,0.235 1.998,0.123 0,0"
               style="fill:#fffceb;fill-opacity:1;fill-rule:nonzero;stroke:none"
               id="path1246" /></g><g
             id="g1248"
             transform="matrix(0.44961926,0,0,0.43966935,77.102773,175.30136)"><path
               inkscape:connector-curvature="0"
               d="M 0,0 C 0.11,0.154 0.211,0.292 0.288,0.392 L -0.96,3.103 c -4.787,1.87 -8.244,3.832 -9.909,4.859 l 0,-4.268 0,-1.181 0,-2.079 C -8.364,0.461 -3.076,0.354 0,0"
               style="fill:#fffceb;fill-opacity:1;fill-rule:nonzero;stroke:none"
               id="path1250" /></g><g
             id="g1252"
             transform="matrix(0.44961926,0,0,0.43966935,75.994554,173.30676)"><path
               inkscape:connector-curvature="0"
               d="m 0,0 c 0.338,0.865 0.718,1.663 1.096,2.353 0.171,0.312 0.339,0.603 0.502,0.87 0.083,0.135 0.16,0.256 0.238,0.379 -4.438,0.52 -8.042,0.503 -10.24,0.401 l 0,-1.221 0,-1.181 0,-1.451 C -6.597,0.249 -3.665,0.298 0,0"
               style="fill:#fffceb;fill-opacity:1;fill-rule:nonzero;stroke:none"
               id="path1254" /></g><g
             id="g1256"
             transform="matrix(0.44961926,0,0,0.43966935,75.525151,171.23315)"><path
               inkscape:connector-curvature="0"
               d="m 0,0 c 0.034,0.813 0.141,1.611 0.314,2.375 0.076,0.332 0.159,0.658 0.254,0.977 0.04,0.137 0.089,0.266 0.133,0.4 -3.531,0.274 -6.342,0.213 -8.061,0.115 l 0,-1.818 0,-1.18 0,-0.292 0,-0.568 C -5.845,0.11 -3.28,0.193 0,0"
               style="fill:#fffceb;fill-opacity:1;fill-rule:nonzero;stroke:none"
               id="path1258" /></g><g
             id="g1260"
             transform="matrix(0.44961926,0,0,0.43966935,75.943612,169.09705)"><path
               inkscape:connector-curvature="0"
               d="M 0,0 C -0.277,0.597 -0.494,1.197 -0.644,1.797 -0.743,2.193 -0.813,2.588 -0.863,2.981 -0.9,3.276 -0.917,3.568 -0.93,3.86 -4.247,4.058 -6.816,3.967 -8.291,3.866 l 0,-2.407 0,-1.181 0,-0.209 C -6.476,0.159 -3.245,0.208 0,0"
               style="fill:#fffceb;fill-opacity:1;fill-rule:nonzero;stroke:none"
               id="path1262" /></g><g
             id="g1264"
             transform="matrix(0.44961926,0,0,0.43966935,87.257881,165.07561)"><path
               inkscape:connector-curvature="0"
               d="m 0,0 c -8.66,0 -16.253,1.892 -22.121,4.039 0,0.023 10e-4,-0.023 0,0 -0.084,0.008 -0.17,0.082 -0.254,0.089 -0.027,0.011 -0.057,0.02 -0.084,0.03 l 0.106,-0.74 0.043,-0.296 0.518,-3.601 C -11.521,-4.233 4.22,-7.174 21.456,-0.28 l 0.709,4.657 C 14.364,1.197 6.856,0 0,0"
               style="fill:#fffceb;fill-opacity:1;fill-rule:nonzero;stroke:none"
               id="path1266" /></g><g
             id="g1268"
             transform="matrix(0.44961926,0,0,0.43966935,76.991717,166.4706)"><path
               inkscape:connector-curvature="0"
               d="m 0,0 -0.273,1.024 c -4.338,0.377 -8.446,0.283 -10.349,0.164 l 0,-0.385 0,-0.619 C -8.625,0.307 -4.5,0.418 0,0"
               style="fill:#2d2e82;fill-opacity:1;fill-rule:nonzero;stroke:none"
               id="path1270" /></g><g
             id="g1272"
             transform="matrix(0.44961926,0,0,0.43966935,76.196305,168.63974)"><path
               inkscape:connector-curvature="0"
               d="m 0,0 c 0.014,0.073 -0.156,0.167 -0.141,0.24 -0.152,0.266 -0.297,0.532 -0.421,0.8 -3.245,0.208 -6.476,0.159 -8.291,0.069 l 0,-1.067 C -7.403,0.161 -4.129,0.298 0,0"
               style="fill:#bd1622;fill-opacity:1;fill-rule:nonzero;stroke:none"
               id="path1274" /></g><g
             id="g1276"
             transform="matrix(0.44961926,0,0,0.43966935,75.984885,171.20456)"><path
               inkscape:connector-curvature="0"
               d="m 0,0 c -0.01,0.001 -0.019,0.001 -0.029,0.002 0,-0.015 -0.003,-0.029 -0.003,-0.043 C -0.021,-0.028 -0.012,-0.013 0,0"
               style="fill:#2d2e82;fill-opacity:1;fill-rule:nonzero;stroke:none"
               id="path1278" /></g><g
             id="g1280"
             transform="matrix(0.44961926,0,0,0.43966935,75.525388,170.79409)"><path
               inkscape:connector-curvature="0"
               d="m 0,0 c -0.015,0.335 -0.014,0.668 0,0.999 -3.28,0.192 -5.845,0.109 -7.361,0.009 l 0,-1.002 C -5.886,0.107 -3.316,0.198 0,0"
               style="fill:#2d2e82;fill-opacity:1;fill-rule:nonzero;stroke:none"
               id="path1282" /></g><g
             id="g1284"
             transform="matrix(0.44961926,0,0,0.43966935,97.40021,174.25693)"><path
               inkscape:connector-curvature="0"
               d="m 0,0 c -7.941,-3.302 -15.586,-4.536 -22.558,-4.536 -9.101,0 -17.038,2.087 -23.016,4.367 -0.478,-0.857 -0.966,-1.896 -1.354,-3.039 -0.001,-0.002 -0.001,-0.003 -0.002,-0.004 -0.079,-0.234 -0.16,-0.465 -0.23,-0.707 10.543,-4.394 28.806,-8.868 48.765,0.257 C 1.174,-2.257 0.57,-1 0,0"
               style="fill:#fffceb;fill-opacity:1;fill-rule:nonzero;stroke:none"
               id="path1286" /></g><g
             id="g1288"
             transform="matrix(0.44961926,0,0,0.43966935,75.840423,172.88296)"><path
               inkscape:connector-curvature="0"
               d="m 0,0 c 0.107,0.33 0.221,0.651 0.343,0.964 -3.665,0.298 -6.597,0.249 -8.405,0.15 l 0,-1 C -6.342,0.212 -3.531,0.273 0,0"
               style="fill:#bd1622;fill-opacity:1;fill-rule:nonzero;stroke:none"
               id="path1290" /></g><g
             id="g1292"
             transform="matrix(0.44961926,0,0,0.43966935,96.686241,175.30241)"><path
               inkscape:connector-curvature="0"
               d="m 0,0 -0.203,0.243 1.191,2.588 c -7.726,-3.118 -15.163,-4.296 -21.958,-4.296 -8.699,0 -16.336,1.907 -22.216,4.067 L -42.1,0.243 -42.303,0 c -0.006,-0.007 -0.076,-0.097 -0.171,-0.221 l -0.001,0 c -0.002,-0.003 -0.006,-0.009 -0.009,-0.013 -0.205,-0.267 -0.563,-0.756 -0.994,-1.448 10.36,-3.919 26.68,-7.195 44.546,0.17 C 0.477,-0.58 0.018,-0.021 0,0"
               style="fill:#fffceb;fill-opacity:1;fill-rule:nonzero;stroke:none"
               id="path1294" /></g><g
             id="g1296"
             transform="matrix(0.44961926,0,0,0.43966935,76.820231,174.89044)"><path
               inkscape:connector-curvature="0"
               d="m 0,0 c 0.237,0.373 0.451,0.687 0.628,0.935 -3.075,0.353 -8.364,0.461 -10.869,0.433 l 0,-0.967 C -8.042,0.503 -4.438,0.52 0,0"
               style="fill:#2d2e82;fill-opacity:1;fill-rule:nonzero;stroke:none"
               id="path1298" /></g><g
             id="g1300"
             transform="matrix(0.44961926,0,0,0.43966935,77.269172,176.44626)"><path
               inkscape:connector-curvature="0"
               d="m 0,0 c -0.451,0.166 -0.901,0.331 -1.331,0.499 l 1.248,-2.711 C -0.159,-2.312 -0.26,-2.45 -0.37,-2.604 -0.548,-2.852 -0.762,-3.166 -0.999,-3.539 -1.077,-3.662 -1.154,-3.782 -1.237,-3.917 -1.4,-4.185 -1.568,-4.476 -1.739,-4.788 c -0.378,-0.69 -0.758,-1.487 -1.096,-2.353 -0.122,-0.312 -0.236,-0.633 -0.343,-0.963 -0.044,-0.135 -0.093,-0.264 -0.133,-0.401 -0.095,-0.319 -0.178,-0.645 -0.253,-0.976 -0.174,-0.765 -0.281,-1.562 -0.315,-2.376 -0.014,-0.331 -0.015,-0.663 10e-4,-0.998 0.013,-0.292 0.029,-0.584 0.067,-0.879 0.05,-0.393 0.12,-0.788 0.219,-1.184 0.15,-0.6 0.367,-1.201 0.644,-1.797 0.124,-0.268 0.268,-0.535 0.421,-0.8 0.256,-0.447 0.54,-0.892 0.883,-1.33 l 0.376,-1.406 0.317,-1.187 0.06,-0.227 0.274,-1.024 0.968,-3.624 c 0.024,-0.009 0.048,-0.019 0.073,-0.028 l -0.518,3.601 -0.146,1.014 -0.003,0.022 -0.161,1.118 -0.304,2.107 -0.09,0.178 c -0.75,0.937 -1.261,1.907 -1.594,2.884 -0.137,0.402 -0.248,0.805 -0.326,1.208 -0.148,0.755 -0.196,1.507 -0.171,2.246 10e-4,0.014 0.003,0.028 0.004,0.043 0.026,0.699 0.116,1.386 0.257,2.049 0.069,0.33 0.15,0.655 0.242,0.973 0.069,0.241 0.151,0.473 0.23,0.706 0.112,0.329 0.231,0.648 0.357,0.957 0.313,0.767 0.657,1.475 0.998,2.087 0.175,0.313 0.345,0.602 0.509,0.864 0.269,0.433 0.504,0.774 0.702,1.05 0.122,0.171 0.223,0.31 0.301,0.412 0.095,0.124 0.165,0.213 0.172,0.22 L 1.086,-2.358 0,0 Z"
               style="fill:#d7d5bf;fill-opacity:1;fill-rule:nonzero;stroke:none"
               id="path1302" /></g><g
             id="g1304"
             transform="matrix(0.44961926,0,0,0.43966935,97.407221,166.92099)"><path
               inkscape:connector-curvature="0"
               d="M 0,0 0.064,0.226 0.4,1.414 0.799,2.82 C 1.162,3.258 1.463,3.703 1.736,4.149 1.752,4.077 1.775,4.002 1.789,3.93 6.168,4.228 9.436,4.07 10.973,3.952 l 0,-2.993 0,-0.795 C 8.955,0.282 4.6,0.376 0,0"
               style="fill:#fffceb;fill-opacity:1;fill-rule:nonzero;stroke:none"
               id="path1306" /></g><g
             id="g1308"
             transform="matrix(0.44961926,0,0,0.43966935,102.34075,166.55132)"><path
               inkscape:connector-curvature="0"
               d="m 0,0 -0.082,-3.699 c -0.043,-0.026 0,0 -0.049,-0.029 -1.869,1.237 -4.465,1.27 -6.797,0.909 -2.98,-0.462 -5.33,-1.473 -5.33,-1.473 l 0.143,0.489 0.853,3.619 C -6.49,0.235 -2.117,0.123 0,0"
               style="fill:#fffceb;fill-opacity:1;fill-rule:nonzero;stroke:none"
               id="path1310" /></g><g
             id="g1312"
             transform="matrix(0.44961926,0,0,0.43966935,97.158704,175.30136)"><path
               inkscape:connector-curvature="0"
               d="M 0,0 C -0.115,0.154 -0.223,0.292 -0.305,0.392 L 1.104,3.321 C 6,5.449 9.572,7.792 11.338,8.819 l 0.187,-5.125 0,-1.181 0,-2.079 C 8.869,0.461 3.262,0.354 0,0"
               style="fill:#fffceb;fill-opacity:1;fill-rule:nonzero;stroke:none"
               id="path1314" /></g><g
             id="g1316"
             transform="matrix(0.44961926,0,0,0.43966935,98.334546,173.30676)"><path
               inkscape:connector-curvature="0"
               d="m 0,0 c -0.359,0.865 -0.762,1.663 -1.162,2.353 -0.182,0.312 -0.359,0.603 -0.533,0.87 -0.088,0.135 -0.17,0.256 -0.252,0.379 4.705,0.52 8.527,0.503 10.857,0.401 l 0,-1.221 0,-1.181 0,-1.451 C 6.994,0.249 3.885,0.298 0,0"
               style="fill:#fffceb;fill-opacity:1;fill-rule:nonzero;stroke:none"
               id="path1318" /></g><g
             id="g1320"
             transform="matrix(0.44961926,0,0,0.43966935,98.831603,171.23315)"><path
               inkscape:connector-curvature="0"
               d="m 0,0 c -0.035,0.813 -0.148,1.611 -0.332,2.375 -0.08,0.332 -0.168,0.658 -0.27,0.977 -0.043,0.137 -0.093,0.266 -0.14,0.4 3.744,0.274 6.724,0.213 8.547,0.115 l 0,-1.818 0,-1.18 0,-0.292 0,-0.568 C 6.199,0.11 3.479,0.193 0,0"
               style="fill:#fffceb;fill-opacity:1;fill-rule:nonzero;stroke:none"
               id="path1322" /></g><g
             id="g1324"
             transform="matrix(0.44961926,0,0,0.43966935,98.388099,169.09705)"><path
               inkscape:connector-curvature="0"
               d="m 0,0 c 0.293,0.597 0.523,1.197 0.684,1.797 0.103,0.396 0.179,0.791 0.232,1.184 0.039,0.295 0.057,0.587 0.07,0.879 3.518,0.198 6.243,0.107 7.805,0.006 l 0,-2.407 0,-1.181 0,-0.209 C 6.867,0.159 3.441,0.208 0,0"
               style="fill:#fffceb;fill-opacity:1;fill-rule:nonzero;stroke:none"
               id="path1326" /></g><g
             id="g1328"
             transform="matrix(0.44961926,0,0,0.43966935,97.277233,166.4706)"><path
               inkscape:connector-curvature="0"
               d="m 0,0 0.289,1.024 c 4.6,0.377 8.955,0.283 10.973,0.164 l 0,-0.385 0,-0.619 C 9.145,0.307 4.771,0.418 0,0"
               style="fill:#2d2e82;fill-opacity:1;fill-rule:nonzero;stroke:none"
               id="path1330" /></g><g
             id="g1332"
             transform="matrix(0.44961926,0,0,0.43966935,98.122012,168.64191)"><path
               inkscape:connector-curvature="0"
               d="m 0,0 c -0.016,0.073 0.092,0.149 0.146,0.235 0.161,0.266 0.315,0.532 0.446,0.8 3.441,0.208 6.867,0.159 8.791,0.069 l 0,-1.066 C 7.846,0.156 4.379,0.298 0,0"
               style="fill:#bd1622;fill-opacity:1;fill-rule:nonzero;stroke:none"
               id="path1334" /></g><g
             id="g1336"
             transform="matrix(0.44961926,0,0,0.43966935,98.831603,170.79409)"><path
               inkscape:connector-curvature="0"
               d="m 0,0 c 0.016,0.335 0.016,0.668 0,0.999 3.479,0.192 6.199,0.109 7.805,0.009 l 0,-1.002 C 6.242,0.107 3.518,0.198 0,0"
               style="fill:#2d2e82;fill-opacity:1;fill-rule:nonzero;stroke:none"
               id="path1338" /></g><g
             id="g1340"
             transform="matrix(0.44961926,0,0,0.43966935,98.497893,172.88296)"><path
               inkscape:connector-curvature="0"
               d="m 0,0 c -0.113,0.33 -0.234,0.651 -0.363,0.964 3.884,0.298 6.994,0.249 8.91,0.15 l 0,-1 C 6.725,0.212 3.744,0.273 0,0"
               style="fill:#bd1622;fill-opacity:1;fill-rule:nonzero;stroke:none"
               id="path1342" /></g><g
             id="g1344"
             transform="matrix(0.44961926,0,0,0.43966935,97.459018,174.89044)"><path
               inkscape:connector-curvature="0"
               d="m 0,0 c -0.252,0.373 -0.479,0.687 -0.668,0.935 3.262,0.353 8.869,0.461 11.525,0.433 l 0,-0.967 C 8.527,0.503 4.705,0.52 0,0"
               style="fill:#2d2e82;fill-opacity:1;fill-rule:nonzero;stroke:none"
               id="path1346" /></g><g
             id="g1348"
             transform="matrix(0.44961926,0,0,0.43966935,87.092766,139.5372)"><path
               inkscape:connector-curvature="0"
               d="M 0,0 -8.335,6 0,0 7.571,6 0,0 l 0,-77.791 11.405,0 c 2.655,11.417 5.547,27.616 2.678,34.791 0,0 19.082,40.959 17.666,53.334 0,4.892 -0.957,9.531 -2.646,13.741 -0.34,-0.123 -30.979,-11.179 -56.673,1.997 -2.235,-4.716 -3.513,-10.06 -3.513,-15.738 -0.047,-1.005 0.012,-2.166 0.158,-3.449 0.219,-2.398 0.666,-4.721 1.313,-6.948 4.143,-17.043 15.529,-42.937 15.529,-42.937 -3.215,-6.636 -0.125,-23.209 2.67,-34.791 L 0,-77.791 0,0 Z"
               style="fill:#6a7893;fill-opacity:1;fill-rule:nonzero;stroke:none"
               id="path1350" /></g><g
             id="g1352"
             transform="matrix(0.44961926,0,0,0.43966935,87.092766,102.09231)"><path
               inkscape:connector-curvature="0"
               d="m 0,0 9.574,0 c 0.536,2.026 1.177,4.558 1.831,7.375 L 0,7.375 0,0 Z"
               style="fill:#91a7cb;fill-opacity:1;fill-rule:nonzero;stroke:none"
               id="path1354" /></g><g
             id="g1356"
             transform="matrix(0.44961926,0,0,0.43966935,87.092766,102.09231)"><path
               inkscape:connector-curvature="0"
               d="m 0,0 0,7.375 -11.413,0 C -10.73,4.548 -10.065,2.015 -9.514,0 L 0,0 Z"
               style="fill:#91a7cb;fill-opacity:1;fill-rule:nonzero;stroke:none"
               id="path1358" /></g><g
             id="g1360"
             transform="matrix(0.44961926,0,0,0.43966935,90.6713,142.00282)"><path
               inkscape:connector-curvature="0"
               d="m 0,0 -0.621,0.784 -7.276,-5.765 -8.028,5.779 -0.584,-0.812 8.127,-5.85 0,-84.907 1,0 0,84.921 L 0,0 Z"
               style="fill:#495770;fill-opacity:1;fill-rule:nonzero;stroke:none"
               id="path1362" /></g><g
             id="g1364"
             transform="matrix(0.44961926,0,0,0.43966935,75.921225,89.462556)"><path
               inkscape:connector-curvature="0"
               d="m 0,0 c -3.098,0 -3.465,1.995 -3.465,1.995 l 0,1.891 0,1 C -3.391,4.748 -1.146,3.94 0.228,4.007 3.475,4.201 15.54,9.884 24.932,14.405 l 0,-4.488 C 9.708,2.588 3.71,0.208 0.466,0.015 0.308,0.005 0.152,0 0,0"
               style="fill:#ffffff;fill-opacity:1;fill-rule:nonzero;stroke:none"
               id="path1366" /></g><g
             id="g1368"
             transform="matrix(0.44961926,0,0,0.43966935,74.363165,91.610693)"><path
               inkscape:connector-curvature="0"
               d="m 0,0 c 0,0 -0.875,2.438 0.938,4.125 1.812,1.688 11.466,8.58 11.466,8.58 0,0 2.536,4.451 5.172,4.705 4.174,0.403 8.112,0.028 3.112,-5.16 0,0 1.25,0.813 2.875,2.688 1.625,1.875 2.625,1.937 2.625,1.937 l 2.209,0.589 0,-8.464 C 28.397,9 6.625,-1.938 4.125,-1.25 4.125,-1.25 1.688,-1.75 0,0"
               style="fill:#1d1d1b;fill-opacity:1;fill-rule:nonzero;stroke:none"
               id="path1370" /></g><g
             id="g1372"
             transform="matrix(0.44961926,0,0,0.43966935,75.889609,90.148269)"><path
               inkscape:connector-curvature="0"
               d="m 0,0 c -2.167,0 -3.079,0.937 -3.126,0.987 -0.143,0.151 -0.135,0.388 0.016,0.531 0.149,0.138 0.384,0.133 0.527,-0.014 0.026,-0.025 1.286,-1.243 4.481,-0.525 6.559,1.472 22.327,9.812 22.485,9.896 0.185,0.1 0.411,0.027 0.507,-0.155 0.097,-0.183 0.028,-0.41 -0.155,-0.507 C 24.084,9.867 8.718,1.741 2.062,0.246 1.276,0.07 0.591,0 0,0"
               style="fill:#1d1d1b;fill-opacity:1;fill-rule:nonzero;stroke:none"
               id="path1374" /></g><g
             id="g1376"
             transform="matrix(0.44961926,0,0,0.43966935,83.102401,95.924955)"><path
               inkscape:connector-curvature="0"
               d="M 0,0 C -0.229,0 -0.436,0.158 -0.488,0.392 -0.763,1.63 -5.307,1.758 -8.291,1.457 -8.565,1.425 -8.811,1.63 -8.839,1.903 -8.867,2.179 -8.667,2.424 -8.392,2.451 -7.008,2.593 -0.08,3.162 0.489,0.608 0.548,0.339 0.378,0.072 0.109,0.012 0.072,0.004 0.036,0 0,0"
               style="fill:#ffffff;fill-opacity:1;fill-rule:nonzero;stroke:none"
               id="path1378" /></g><g
             id="g1380"
             transform="matrix(0.44961926,0,0,0.43966935,82.034554,95.237959)"><path
               inkscape:connector-curvature="0"
               d="M 0,0 C -0.255,0 -0.473,0.194 -0.498,0.453 -0.573,1.256 -4.206,1.661 -8.273,1.318 -8.543,1.292 -8.79,1.499 -8.813,1.774 -8.836,2.05 -8.632,2.291 -8.357,2.314 -6.336,2.487 0.281,2.859 0.499,0.547 0.524,0.271 0.322,0.028 0.047,0.002 0.031,0.001 0.016,0 0,0"
               style="fill:#ffffff;fill-opacity:1;fill-rule:nonzero;stroke:none"
               id="path1382" /></g><g
             id="g1384"
             transform="matrix(0.44961926,0,0,0.43966935,80.882631,94.441063)"><path
               inkscape:connector-curvature="0"
               d="m 0,0 c -0.208,0 -0.401,0.13 -0.473,0.338 -0.343,1.001 -4.37,1.21 -7.903,0.834 -0.275,-0.029 -0.521,0.17 -0.551,0.443 -0.029,0.276 0.169,0.522 0.444,0.551 1.358,0.147 8.179,0.759 8.956,-1.504 C 0.563,0.401 0.424,0.117 0.163,0.027 0.109,0.009 0.054,0 0,0"
               style="fill:#ffffff;fill-opacity:1;fill-rule:nonzero;stroke:none"
               id="path1386" /></g><g
             id="g1388"
             transform="matrix(0.44961926,0,0,0.43966935,79.47735,93.534257)"><path
               inkscape:connector-curvature="0"
               d="m 0,0 c -0.242,0 -0.455,0.176 -0.494,0.423 -0.144,0.923 -3.848,1.25 -7.219,0.978 -0.267,-0.019 -0.516,0.183 -0.538,0.458 -0.022,0.276 0.183,0.517 0.458,0.538 1.855,0.15 7.931,0.461 8.288,-1.82 C 0.537,0.305 0.351,0.049 0.078,0.006 0.052,0.002 0.025,0 0,0"
               style="fill:#ffffff;fill-opacity:1;fill-rule:nonzero;stroke:none"
               id="path1390" /></g><g
             id="g1392"
             transform="matrix(0.44961926,0,0,0.43966935,98.339825,89.462556)"><path
               inkscape:connector-curvature="0"
               d="m 0,0 c 3.098,0 3.465,1.995 3.465,1.995 l 0,1.891 0,1 C 3.391,4.748 1.146,3.94 -0.229,4.007 -3.475,4.201 -15.54,9.884 -24.932,14.405 l 0,-4.488 C -9.709,2.588 -3.711,0.208 -0.467,0.015 -0.307,0.005 -0.152,0 0,0"
               style="fill:#ffffff;fill-opacity:1;fill-rule:nonzero;stroke:none"
               id="path1394" /></g><g
             id="g1396"
             transform="matrix(0.44961926,0,0,0.43966935,99.897705,91.610693)"><path
               inkscape:connector-curvature="0"
               d="m 0,0 c 0,0 0.875,2.438 -0.938,4.125 -1.812,1.688 -11.466,8.58 -11.466,8.58 0,0 -2.535,4.451 -5.171,4.705 -4.174,0.403 -8.112,0.028 -3.112,-5.16 0,0 -1.25,0.813 -2.875,2.688 -1.625,1.875 -2.625,1.937 -2.625,1.937 l -2.21,0.589 0,-8.464 c 0,0 21.772,-10.938 24.272,-10.25 0,0 2.437,-0.5 4.125,1.25"
               style="fill:#1d1d1b;fill-opacity:1;fill-rule:nonzero;stroke:none"
               id="path1398" /></g><g
             id="g1400"
             transform="matrix(0.44961926,0,0,0.43966935,98.371429,90.148269)"><path
               inkscape:connector-curvature="0"
               d="m 0,0 c -0.592,0 -1.276,0.07 -2.063,0.246 -6.656,1.495 -22.021,9.621 -22.672,9.967 -0.183,0.097 -0.252,0.324 -0.155,0.507 0.096,0.182 0.323,0.255 0.507,0.155 C -24.225,10.791 -8.456,2.451 -1.898,0.979 1.318,0.256 2.57,1.492 2.583,1.504 2.729,1.651 2.965,1.656 3.112,1.513 3.26,1.371 3.268,1.137 3.127,0.987 3.079,0.937 2.166,0 0,0"
               style="fill:#1d1d1b;fill-opacity:1;fill-rule:nonzero;stroke:none"
               id="path1402" /></g><g
             id="g1404"
             transform="matrix(0.44961926,0,0,0.43966935,91.158643,95.924955)"><path
               inkscape:connector-curvature="0"
               d="m 0,0 c -0.035,0 -0.072,0.004 -0.108,0.012 -0.27,0.06 -0.44,0.327 -0.38,0.596 C 0.08,3.162 7.01,2.592 8.392,2.451 8.666,2.424 8.866,2.179 8.838,1.903 8.811,1.629 8.563,1.431 8.29,1.457 5.307,1.758 0.764,1.63 0.488,0.392 0.437,0.158 0.229,0 0,0"
               style="fill:#ffffff;fill-opacity:1;fill-rule:nonzero;stroke:none"
               id="path1406" /></g><g
             id="g1408"
             transform="matrix(0.44961926,0,0,0.43966935,92.22694,95.237959)"><path
               inkscape:connector-curvature="0"
               d="M 0,0 C -0.016,0 -0.032,0.001 -0.048,0.002 -0.322,0.028 -0.524,0.271 -0.499,0.547 -0.282,2.86 6.334,2.487 8.356,2.314 8.632,2.292 8.836,2.05 8.813,1.774 8.79,1.498 8.546,1.297 8.272,1.318 4.205,1.661 0.572,1.256 0.497,0.453 0.473,0.194 0.255,0 0,0"
               style="fill:#ffffff;fill-opacity:1;fill-rule:nonzero;stroke:none"
               id="path1410" /></g><g
             id="g1412"
             transform="matrix(0.44961926,0,0,0.43966935,93.378223,94.441063)"><path
               inkscape:connector-curvature="0"
               d="M 0,0 C -0.054,0 -0.108,0.009 -0.162,0.027 -0.424,0.117 -0.563,0.401 -0.473,0.662 0.306,2.925 7.122,2.313 8.483,2.166 8.758,2.137 8.956,1.891 8.927,1.615 8.897,1.341 8.646,1.146 8.376,1.172 4.845,1.549 0.816,1.339 0.473,0.338 0.401,0.13 0.208,0 0,0"
               style="fill:#ffffff;fill-opacity:1;fill-rule:nonzero;stroke:none"
               id="path1414" /></g><g
             id="g1416"
             transform="matrix(0.44961926,0,0,0.43966935,94.7837,93.534257)"><path
               inkscape:connector-curvature="0"
               d="m 0,0 c -0.026,0 -0.052,0.002 -0.078,0.006 -0.273,0.043 -0.46,0.299 -0.417,0.571 0.356,2.282 6.433,1.972 8.288,1.82 C 8.068,2.376 8.273,2.135 8.251,1.859 8.229,1.584 7.986,1.383 7.713,1.401 4.345,1.673 0.638,1.345 0.493,0.423 0.454,0.176 0.242,0 0,0"
               style="fill:#ffffff;fill-opacity:1;fill-rule:nonzero;stroke:none"
               id="path1418" /></g><g
             id="g1420"
             transform="matrix(0.44961926,0,0,0.43966935,85.297354,63.543961)"><path
               inkscape:connector-curvature="0"
               d="m 0,0 c -43.418,0 -67.038,10.187 -68.487,10.832 l 11.23,7.223 -2.377,12.665 -0.047,0.019 c 0.473,-0.203 48.348,-20.302 134.583,0.614 L 69.11,18.852 80.033,10.198 C 48.578,2.568 21.791,0 0,0"
               style="fill:#634e42;fill-opacity:1;fill-rule:nonzero;stroke:none"
               id="path1422" /></g><g
             id="g1512"
             transform="matrix(0.44961926,0,0,0.43966935,73.675781,67.761182)"><path
               inkscape:connector-curvature="0"
               d="m 0,0 -8.106,0.962 0.039,0.337 c 0.428,-0.049 0.877,0.052 1.345,0.306 0.533,0.294 0.827,0.674 0.883,1.143 l 0.48,4.053 C -5.303,7.275 -5.498,7.713 -5.942,8.117 -6.338,8.474 -6.753,8.68 -7.185,8.73 L -7.145,9.068 0.961,8.106 0.921,7.769 C 0.494,7.82 0.045,7.717 -0.423,7.462 -0.956,7.17 -1.25,6.788 -1.306,6.32 L -1.787,2.267 C -1.842,1.795 -1.647,1.355 -1.203,0.951 -0.807,0.594 -0.392,0.389 0.04,0.338 L 0,0 Z"
               style="fill:#c0bbb3;fill-opacity:1;fill-rule:nonzero;stroke:none"
               id="path1514" /></g><g
             id="g1516"
             transform="matrix(0.44961926,0,0,0.43966935,80.968474,68.809707)"><path
               inkscape:connector-curvature="0"
               d="m 0,0 -0.339,0.027 c 0.015,0.203 -0.185,0.643 -0.603,1.322 -0.275,0.447 -0.67,1.027 -1.185,1.74 -0.42,0.581 -0.635,0.873 -0.644,0.874 l -0.358,-4.749 c -0.05,-0.659 0.138,-1.238 0.565,-1.735 0.426,-0.496 0.97,-0.768 1.63,-0.819 l -0.026,-0.34 -8.818,0.667 0.026,0.338 c 0.66,-0.049 1.238,0.14 1.734,0.565 0.496,0.426 0.768,0.969 0.819,1.631 l 0.358,4.75 C -6.85,4.271 -7.103,4.016 -7.601,3.508 -8.216,2.881 -8.695,2.366 -9.034,1.965 -9.553,1.354 -9.82,0.946 -9.835,0.744 l -0.34,0.025 0.333,4.409 L 0.333,4.41 0,0 Z"
               style="fill:#c0bbb3;fill-opacity:1;fill-rule:nonzero;stroke:none"
               id="path1518" /></g><g
             id="g1520"
             transform="matrix(0.44961926,0,0,0.43966935,88.154006,66.915346)"><path
               inkscape:connector-curvature="0"
               d="m 0,0 -10.541,0.259 0.008,0.34 c 0.762,-0.018 1.307,0.123 1.637,0.423 0.283,0.26 0.432,0.669 0.445,1.227 l 0.1,4.081 c 0.014,0.548 -0.126,0.964 -0.418,1.249 -0.324,0.317 -0.85,0.483 -1.58,0.501 l 0.008,0.34 10.54,-0.258 -0.083,-3.4 -0.339,0.007 -3.334,2.804 -0.68,0.017 -0.075,-3.06 2.083,1.65 -0.093,-3.741 -1.999,1.75 -0.082,-3.4 0.34,-0.009 3.814,2.969 L 0.092,3.741 0,0 Z"
               style="fill:#c0bbb3;fill-opacity:1;fill-rule:nonzero;stroke:none"
               id="path1522" /></g><g
             id="g1524"
             transform="matrix(0.44961926,0,0,0.43966935,97.614048,67.181962)"><path
               inkscape:connector-curvature="0"
               d="m 0,0 -7.475,-0.341 -0.016,0.34 c 0.463,0.021 0.853,0.204 1.174,0.55 0.32,0.347 0.468,0.755 0.446,1.225 l -0.184,4.079 -2.098,-6.225 -1.021,-0.046 -2.626,5.327 0.154,-3.397 c 0.023,-0.471 0.206,-0.865 0.551,-1.181 0.347,-0.316 0.755,-0.462 1.226,-0.44 l 0.016,-0.34 -4.418,-0.202 -0.015,0.339 c 0.54,0.026 1.002,0.202 1.386,0.526 0.407,0.347 0.598,0.767 0.575,1.266 l -0.186,4.078 c -0.022,0.499 -0.252,0.902 -0.688,1.208 -0.413,0.29 -0.89,0.422 -1.428,0.398 l -0.015,0.339 5.435,0.248 1.854,-3.318 1.203,3.458 5.777,0.264 0.016,-0.341 C -0.896,7.791 -1.359,7.615 -1.744,7.289 -2.149,6.942 -2.341,6.522 -2.317,6.023 l 0.184,-4.078 c 0.023,-0.498 0.252,-0.9 0.69,-1.208 0.412,-0.29 0.888,-0.421 1.426,-0.397 L 0,0 Z"
               style="fill:#c0bbb3;fill-opacity:1;fill-rule:nonzero;stroke:none"
               id="path1526" /></g><g
             id="g1528"
             transform="matrix(0.44961926,0,0,0.43966935,104.68498,69.306929)"><path
               inkscape:connector-curvature="0"
               d="m 0,0 c 0.121,-0.804 -0.132,-1.516 -0.753,-2.136 -0.576,-0.572 -1.311,-0.925 -2.208,-1.058 l -6.056,-0.907 -0.402,2.692 c 0.162,-0.154 0.321,-0.308 0.48,-0.458 0.408,-0.356 0.791,-0.631 1.15,-0.825 0.518,-0.282 0.972,-0.391 1.363,-0.333 l 2.02,0.301 c 0.173,0.026 0.309,0.112 0.407,0.254 0.098,0.144 0.152,0.317 0.164,0.52 0.005,0.064 0.002,0.124 -0.008,0.178 -0.028,0.203 -0.122,0.374 -0.279,0.519 -0.157,0.143 -0.334,0.214 -0.537,0.212 l -2.74,-0.067 c -0.636,-0.016 -1.18,0.213 -1.633,0.692 -0.423,0.445 -0.688,1.012 -0.789,1.697 -0.111,0.741 0.058,1.414 0.507,2.02 0.448,0.606 1.043,0.964 1.782,1.075 l 6.054,0.905 0.351,-2.354 c -0.159,0.122 -0.32,0.245 -0.48,0.368 -0.4,0.283 -0.781,0.505 -1.145,0.661 -0.51,0.221 -0.949,0.305 -1.315,0.25 L -6.087,3.903 C -6.262,3.878 -6.398,3.793 -6.496,3.65 -6.595,3.508 -6.649,3.334 -6.658,3.131 -6.662,3.066 -6.66,3.007 -6.653,2.952 -6.621,2.741 -6.527,2.564 -6.373,2.419 -6.218,2.276 -6.039,2.211 -5.834,2.222 l 3.412,0.167 C -1.789,2.419 -1.243,2.193 -0.785,1.712 -0.367,1.266 -0.104,0.693 0,0"
               style="fill:#c0bbb3;fill-opacity:1;fill-rule:nonzero;stroke:none"
               id="path1530" /></g><g
             id="g1532"
             transform="matrix(0.44961926,0,0,0.43966935,212.95023,184.93817)"><path
               inkscape:connector-curvature="0"
               d="m 0,0 -159.667,0 c -0.276,0 -0.5,0.224 -0.5,0.5 0,0.276 0.224,0.5 0.5,0.5 L 0,1 C 0.276,1 0.5,0.776 0.5,0.5 0.5,0.224 0.276,0 0,0"
               style="fill:#1d1d1b;fill-opacity:1;fill-rule:nonzero;stroke:none"
               id="path1534" /></g></g></g></g></g></svg>