<?xml version="1.0" encoding="UTF-8" standalone="no"?>
<svg
   xmlns:dc="http://purl.org/dc/elements/1.1/"
   xmlns:cc="http://creativecommons.org/ns#"
   xmlns:rdf="http://www.w3.org/1999/02/22-rdf-syntax-ns#"
   xmlns:svg="http://www.w3.org/2000/svg"
   xmlns="http://www.w3.org/2000/svg"
   xmlns:sodipodi="http://sodipodi.sourceforge.net/DTD/sodipodi-0.dtd"
   xmlns:inkscape="http://www.inkscape.org/namespaces/inkscape"
   width="250"
   height="250"
   viewBox="0 0 250 250"
   id="svg3685"
   version="1.1"
   inkscape:version="0.91 r"
   sodipodi:docname="custom.svg">
  <sodipodi:namedview
     pagecolor="#ffffff"
     bordercolor="#666666"
     borderopacity="1"
     objecttolerance="10"
     gridtolerance="10"
     guidetolerance="10"
     inkscape:pageopacity="0"
     inkscape:pageshadow="2"
     inkscape:window-width="1440"
     inkscape:window-height="863"
     id="namedview9"
     showgrid="false"
     inkscape:zoom="1.888"
     inkscape:cx="55.098042"
     inkscape:cy="110.30263"
     inkscape:window-x="5280"
     inkscape:window-y="0"
     inkscape:window-maximized="1"
     inkscape:current-layer="svg3685" />
  <defs
     id="defs3687" />
  <metadata
     id="metadata3690">
    <rdf:RDF>
      <cc:Work
         rdf:about="">
        <dc:format>image/svg+xml</dc:format>
        <dc:type
           rdf:resource="http://purl.org/dc/dcmitype/StillImage" />
        <dc:title />
      </cc:Work>
    </rdf:RDF>
  </metadata>
  <path
     d="m 129.02013,140.4419 c -1.98375,-4.7575 -4.075,-8.54125 -6.4325,-13.3 -4.6175,-0.9575 -10.0925,-1.62625 -15.50625,-2.33875 -6.8375,-0.8975 -22.09375,-2.2525 -23.10375,-2.70125 -2.67125,-1.18625 -3.76,-3.67875 -4.99,-5.88625 3.4375,-1.12375 29.49625,1.13 38.945,2.46625 -0.0188,-2.7025 -16.28125,-33.966247 -16.61625,-35.572497 7.96375,-1.5675 25.15125,33.681247 26.21125,35.881247 5.0175,0.87 9.8375,0.7125 14.8025,1.305 1.13375,-1.77 0.9175,-3.77625 3.125,-6.29375 3.99125,-4.5575 12.26875,-5.75375 17.02125,-3.6425 11.43,5.0725 10.96,17.02 1.10375,22.02875 -5.49875,2.115 -11.74375,0.38875 -18.21125,-2.4825 -5.1475,-2.39 -10.06,-3.5725 -14.6025,-2.84875 1.80375,5.0025 5.64625,10.2625 11.12375,15.06625 7.9425,6.96125 8.91125,19.075 -1.42,24.52625 -13.5575,2.96875 -24.9,-17.47875 -11.45,-26.2075 m 11.68875,17.965 c 2.35,-3.81 -0.43875,-10.34875 -4.3775,-12.19375 -4.2675,-1.99625 -6.645,1.995 -6.66125,5.30875 -0.0175,2.96625 1.6825,6.555 5.10625,8.20625 2.6575,1.28 4.47875,1.03625 5.9325,-1.32125 m 24.22,-37.1525 c -2.68625,-6.455 -12.9275,-7.9275 -15.96875,-0.40875 1.5275,7.43625 14.43125,8.75125 15.96875,0.40875"
     style="fill:#1e88e5;fill-opacity:1;fill-rule:nonzero;stroke:none"
     id="path230" />
  <path
     d="m 103.81375,110.17578 c 0.81,-0.84375 1.12,-1.60375 1.64125,-2.0325 2.09625,0.81875 4.46375,2.91125 6.66625,4.23375 0.0412,0.73375 -0.94875,1.6475 -1.39,2.46375 -2.53375,-1.015 -4.855,-2.60375 -6.9175,-4.665"
     style="fill:#c62828;fill-opacity:1;fill-rule:nonzero;stroke:none"
     id="path234" />
  <path
     d="m 93.43288,103.42765 c 0.76375,-1.3725 0.78625,-1.4325 1.6925,-2.51125 2.1825,1.47125 4.36375,2.94375 6.545,4.41375 -0.64875,0.7 -1.125,2.1925 -1.88125,2.38625 -2.35125,-1.24375 -4.5025,-3.0525 -6.35625,-4.28875"
     style="fill:#c62828;fill-opacity:1;fill-rule:nonzero;stroke:none"
     id="path238" />
  <path
     d="m 82.30013,96.196283 c 0.0163,-0.85125 1.12875,-1.8925 1.635,-2.82875 l 6.55875,4.42375 c -0.9025,5.044997 -5.33,0.015 -8.19375,-1.595"
     style="fill:#c62828;fill-opacity:1;fill-rule:nonzero;stroke:none"
     id="path242" />
</svg>
