<?xml version="1.0" encoding="UTF-8" standalone="no"?>
<!-- Created with Inkscape (http://www.inkscape.org/) -->

<svg
   xmlns:dc="http://purl.org/dc/elements/1.1/"
   xmlns:cc="http://creativecommons.org/ns#"
   xmlns:rdf="http://www.w3.org/1999/02/22-rdf-syntax-ns#"
   xmlns:svg="http://www.w3.org/2000/svg"
   xmlns="http://www.w3.org/2000/svg"
   xmlns:sodipodi="http://sodipodi.sourceforge.net/DTD/sodipodi-0.dtd"
   xmlns:inkscape="http://www.inkscape.org/namespaces/inkscape"
   id="svg2"
   version="1.1"
   inkscape:version="0.91 r"
   xml:space="preserve"
   width="250"
   height="250"
   viewBox="0 0 250 250"
   sodipodi:docname="erp.svg"><metadata
     id="metadata8"><rdf:RDF><cc:Work
         rdf:about=""><dc:format>image/svg+xml</dc:format><dc:type
           rdf:resource="http://purl.org/dc/dcmitype/StillImage" /><dc:title /></cc:Work></rdf:RDF></metadata><defs
     id="defs6" /><sodipodi:namedview
     pagecolor="#ffffff"
     bordercolor="#666666"
     borderopacity="1"
     objecttolerance="10"
     gridtolerance="10"
     guidetolerance="10"
     inkscape:pageopacity="0"
     inkscape:pageshadow="2"
     inkscape:window-width="1440"
     inkscape:window-height="863"
     id="namedview4"
     showgrid="false"
     fit-margin-top="0"
     fit-margin-left="0"
     fit-margin-right="0"
     fit-margin-bottom="0"
     inkscape:zoom="2.670302"
     inkscape:cx="148.80389"
     inkscape:cy="79.056607"
     inkscape:window-x="5280"
     inkscape:window-y="0"
     inkscape:window-maximized="1"
     inkscape:current-layer="g5609"
     inkscape:snap-others="false" /><g
     id="g10"
     inkscape:groupmode="layer"
     inkscape:label="movil_08"
     transform="matrix(1.25,0,0,-1.25,439.71279,-252.98899)"><g
       id="g5609"
       transform="translate(0,-25.441498)"><path
         d="m -218.35218,-256.59168 -66.83611,0"
         style="fill:#1e88e5;stroke:#1e88e5;stroke-width:2.91771507;stroke-linecap:butt;stroke-linejoin:miter;stroke-miterlimit:10;stroke-dasharray:none;stroke-opacity:1;fill-opacity:1"
         id="path4342"
         inkscape:connector-curvature="0" /><path
         style="fill:#1e88e5;fill-opacity:1;fill-rule:evenodd;stroke:#1e88e5;stroke-width:3.0087738;stroke-linecap:butt;stroke-linejoin:round;stroke-miterlimit:4;stroke-dasharray:none;stroke-opacity:1"
         d="m -281.50956,-260.48188 0,-32.80914"
         id="path9372"
         inkscape:connector-curvature="0" /><path
         inkscape:connector-curvature="0"
         id="path9374"
         d="m -274.7271,-260.48188 0,-25.92959"
         style="fill:#1e88e5;fill-opacity:1;fill-rule:evenodd;stroke:#1e88e5;stroke-width:6.01754761;stroke-linecap:butt;stroke-linejoin:round;stroke-miterlimit:4;stroke-dasharray:none;stroke-opacity:1" /><path
         style="fill:#1e88e5;fill-opacity:1;fill-rule:evenodd;stroke:#1e88e5;stroke-width:3.0087738;stroke-linecap:butt;stroke-linejoin:round;stroke-miterlimit:4;stroke-dasharray:none;stroke-opacity:1"
         d="m -267.54469,-260.48188 0,-25.92959"
         id="path9376"
         inkscape:connector-curvature="0" /><path
         inkscape:connector-curvature="0"
         id="path9378"
         d="m -262.7822,-260.48188 0,-25.92959"
         style="fill:#1e88e5;fill-opacity:1;fill-rule:evenodd;stroke:#1e88e5;stroke-width:3.51023602;stroke-linecap:butt;stroke-linejoin:round;stroke-miterlimit:4;stroke-dasharray:none;stroke-opacity:1" /><path
         style="fill:#1e88e5;fill-opacity:1;fill-rule:evenodd;stroke:#1e88e5;stroke-width:3.0087738;stroke-linecap:butt;stroke-linejoin:round;stroke-miterlimit:4;stroke-dasharray:none;stroke-opacity:1"
         d="m -257.19196,-260.48188 0,-25.92959"
         id="path9380"
         inkscape:connector-curvature="0" /><path
         inkscape:connector-curvature="0"
         id="path9382"
         d="m -250.32454,-260.48188 0,-25.92959"
         style="fill:#1e88e5;fill-opacity:1;fill-rule:evenodd;stroke:#1e88e5;stroke-width:7.02047205;stroke-linecap:butt;stroke-linejoin:round;stroke-miterlimit:4;stroke-dasharray:none;stroke-opacity:1" /><path
         style="fill:#1e88e5;fill-opacity:1;fill-rule:evenodd;stroke:#1e88e5;stroke-width:2.00584912;stroke-linecap:butt;stroke-linejoin:round;stroke-miterlimit:4;stroke-dasharray:none;stroke-opacity:1"
         d="m -243.72591,-260.48188 0,-25.92959"
         id="path9384"
         inkscape:connector-curvature="0" /><path
         inkscape:connector-curvature="0"
         id="path9386"
         d="m -239.4375,-260.48188 0,-25.92959"
         style="fill:#1e88e5;fill-opacity:1;fill-rule:evenodd;stroke:#1e88e5;stroke-width:3.0087738;stroke-linecap:butt;stroke-linejoin:round;stroke-miterlimit:4;stroke-dasharray:none;stroke-opacity:1" /><path
         style="fill:#1e88e5;fill-opacity:1;fill-rule:evenodd;stroke:#c62828;stroke-width:5.01462317;stroke-linecap:butt;stroke-linejoin:round;stroke-miterlimit:4;stroke-dasharray:none;stroke-opacity:1"
         d="m -231.51226,-260.48188 0,-25.92959"
         id="path9388"
         inkscape:connector-curvature="0" /><path
         inkscape:connector-curvature="0"
         id="path9390"
         d="m -222.53237,-260.48188 0,-32.80914"
         style="fill:#1e88e5;fill-opacity:1;fill-rule:evenodd;stroke:#1e88e5;stroke-width:3.0087738;stroke-linecap:butt;stroke-linejoin:round;stroke-miterlimit:4;stroke-dasharray:none;stroke-opacity:1" /><path
         inkscape:connector-curvature="0"
         id="path9404"
         style="fill:#1e88e5;stroke:#1e88e5;stroke-width:2.91774058;stroke-linecap:butt;stroke-linejoin:round;stroke-miterlimit:10;stroke-dasharray:none;stroke-opacity:1;fill-opacity:1"
         d="m -218.35218,-297.3077 -66.83611,0" /><g
         transform="scale(1,-1)"
         style="font-style:normal;font-weight:normal;font-size:40.11698532px;line-height:125%;font-family:sans-serif;letter-spacing:0px;word-spacing:0px;fill:#1e88e5;fill-opacity:1;stroke:none;stroke-width:1px;stroke-linecap:butt;stroke-linejoin:miter;stroke-opacity:1"
         id="text9406"><path
           d="m -274.89082,291.166 q 0,-1.02839 -0.19466,-1.44709 -0.19099,-0.42238 -0.64642,-0.42238 -0.45543,0 -0.65009,0.42238 -0.19465,0.4187 -0.19465,1.44709 0,1.03941 0.19465,1.46546 0.19466,0.42604 0.65009,0.42604 0.45176,0 0.64642,-0.42604 0.19466,-0.42605 0.19466,-1.46546 z m 1.41404,0.011 q 0,1.36261 -0.58766,2.10452 -0.58765,0.73824 -1.66746,0.73824 -1.08348,0 -1.67113,-0.73824 -0.58765,-0.74191 -0.58765,-2.10452 0,-1.36629 0.58765,-2.10453 0.58765,-0.74191 1.67113,-0.74191 1.07981,0 1.66746,0.74191 0.58766,0.73824 0.58766,2.10453 z"
           style="font-style:normal;font-variant:normal;font-weight:bold;font-stretch:normal;font-size:7.52193451px;font-family:sans-serif;-inkscape-font-specification:'sans-serif Bold';fill:#1e88e5;fill-opacity:1"
           id="path10046" /><path
           d="m -270.39896,291.2064 q -0.37096,0 -0.55827,0.24241 -0.18364,0.23873 -0.18364,0.71987 0,0.48114 0.18364,0.72355 0.18731,0.23873 0.55827,0.23873 0.37463,0 0.55827,-0.23873 0.18731,-0.24241 0.18731,-0.72355 0,-0.48114 -0.18731,-0.71987 -0.18364,-0.24241 -0.55827,-0.24241 z m 1.74826,-2.63341 0,1.0137 q -0.34892,-0.16528 -0.65743,-0.24241 -0.30852,-0.0808 -0.60235,-0.0808 -0.63172,0 -0.98431,0.35259 -0.35259,0.34892 -0.41136,1.03941 0.24241,-0.17997 0.52521,-0.26812 0.28281,-0.0918 0.61704,-0.0918 0.84107,0 1.35527,0.49216 0.51787,0.49216 0.51787,1.28916 0,0.88148 -0.57664,1.41403 -0.57663,0.52889 -1.54625,0.52889 -1.06879,0 -1.65645,-0.71987 -0.58397,-0.72355 -0.58397,-2.04944 0,-1.35894 0.68314,-2.1339 0.68682,-0.77864 1.88048,-0.77864 0.37831,0 0.73457,0.0588 0.35626,0.0588 0.70518,0.1763 z"
           style="font-style:normal;font-variant:normal;font-weight:bold;font-stretch:normal;font-size:7.52193451px;font-family:sans-serif;-inkscape-font-specification:'sans-serif Bold';fill:#1e88e5;fill-opacity:1"
           id="path10048" /><path
           d="m -265.12112,289.59403 -1.54993,2.29552 1.54993,0 0,-2.29552 z m -0.23506,-1.16428 1.57197,0 0,3.4598 0.78231,0 0,1.02471 -0.78231,0 0,0.99901 -1.33691,0 0,-0.99901 -2.43141,0 0,-1.21203 2.19635,-3.27248 z"
           style="font-style:normal;font-variant:normal;font-weight:bold;font-stretch:normal;font-size:7.52193451px;font-family:sans-serif;-inkscape-font-specification:'sans-serif Bold';fill:#1e88e5;fill-opacity:1"
           id="path10050" /><path
           d="m -261.77886,292.9363 1.24876,0 0,-3.54427 -1.28181,0.26444 0,-0.96228 1.27447,-0.26444 1.34425,0 0,4.50655 1.24876,0 0,0.97697 -3.83443,0 0,-0.97697 z"
           style="font-style:normal;font-variant:normal;font-weight:bold;font-stretch:normal;font-size:7.52193451px;font-family:sans-serif;-inkscape-font-specification:'sans-serif Bold';fill:#1e88e5;fill-opacity:1"
           id="path10052" /><path
           d="m -253.92637,290.95665 q 0.5546,0.14324 0.84108,0.4995 0.29015,0.35259 0.29015,0.89984 0,0.81537 -0.62438,1.24142 -0.62438,0.42237 -1.82172,0.42237 -0.42237,0 -0.84842,-0.0698 -0.42237,-0.0661 -0.8374,-0.20201 l 0,-1.09083 q 0.39666,0.19834 0.78598,0.30118 0.39299,0.0992 0.77129,0.0992 0.56195,0 0.85944,-0.19466 0.30118,-0.19466 0.30118,-0.55827 0,-0.37462 -0.30852,-0.56561 -0.30484,-0.19466 -0.90351,-0.19466 l -0.56562,0 0,-0.91086 0.595,0 q 0.53256,0 0.79333,-0.16528 0.26077,-0.16895 0.26077,-0.51052 0,-0.31586 -0.25343,-0.48848 -0.25342,-0.17263 -0.7162,-0.17263 -0.34157,0 -0.69049,0.0771 -0.34892,0.0771 -0.69416,0.22772 l 0,-1.03574 q 0.4187,-0.11753 0.83006,-0.17629 0.41135,-0.0588 0.80802,-0.0588 1.06879,0 1.59767,0.35259 0.53256,0.34892 0.53256,1.0541 0,0.48114 -0.25342,0.78966 -0.25343,0.30484 -0.74926,0.42972 z"
           style="font-style:normal;font-variant:normal;font-weight:bold;font-stretch:normal;font-size:7.52193451px;font-family:sans-serif;-inkscape-font-specification:'sans-serif Bold';fill:#1e88e5;fill-opacity:1"
           id="path10054" /><path
           d="m -251.40314,288.42975 3.51489,0 0,1.03941 -2.38733,0 0,0.84842 q 0.1616,-0.0441 0.3232,-0.0661 0.16528,-0.0257 0.34158,-0.0257 1.00268,0 1.56094,0.50317 0.55827,0.49951 0.55827,1.39568 0,0.88882 -0.60969,1.39199 -0.60601,0.50318 -1.68582,0.50318 -0.46645,0 -0.92555,-0.0918 -0.45543,-0.0881 -0.90719,-0.27179 l 0,-1.11286 q 0.44809,0.25709 0.84842,0.38564 0.40402,0.12855 0.76028,0.12855 0.51419,0 0.80802,-0.24975 0.2975,-0.25342 0.2975,-0.68314 0,-0.4334 -0.2975,-0.68315 -0.29383,-0.24975 -0.80802,-0.24975 -0.30485,0 -0.65009,0.0808 -0.34525,0.0771 -0.74191,0.24241 l 0,-3.08517 z"
           style="font-style:normal;font-variant:normal;font-weight:bold;font-stretch:normal;font-size:7.52193451px;font-family:sans-serif;-inkscape-font-specification:'sans-serif Bold';fill:#1e88e5;fill-opacity:1"
           id="path10056" /><path
           d="m -244.20074,289.59403 -1.54993,2.29552 1.54993,0 0,-2.29552 z m -0.23506,-1.16428 1.57197,0 0,3.4598 0.78231,0 0,1.02471 -0.78231,0 0,0.99901 -1.33691,0 0,-0.99901 -2.43141,0 0,-1.21203 2.19635,-3.27248 z"
           style="font-style:normal;font-variant:normal;font-weight:bold;font-stretch:normal;font-size:7.52193451px;font-family:sans-serif;-inkscape-font-specification:'sans-serif Bold';fill:#1e88e5;fill-opacity:1"
           id="path10058" /><path
           d="m -239.57299,292.87386 2.41304,0 0,1.03941 -3.98501,0 0,-1.03941 2.00169,-1.76663 q 0.26812,-0.2424 0.39667,-0.47379 0.12854,-0.23139 0.12854,-0.48114 0,-0.38564 -0.26077,-0.6207 -0.25709,-0.23507 -0.68681,-0.23507 -0.33056,0 -0.72355,0.14324 -0.39299,0.13957 -0.84107,0.41871 l 0,-1.20469 q 0.47746,-0.15793 0.94391,-0.23873 0.46645,-0.0845 0.91453,-0.0845 0.98432,0 1.5279,0.4334 0.54725,0.43339 0.54725,1.20835 0,0.44809 -0.23139,0.83741 -0.23139,0.38564 -0.9733,1.03573 l -1.17163,1.02839 z"
           style="font-style:normal;font-variant:normal;font-weight:bold;font-stretch:normal;font-size:7.52193451px;font-family:sans-serif;-inkscape-font-specification:'sans-serif Bold';fill:#1e88e5;fill-opacity:1"
           id="path10060" /><path
           d="m -233.74055,289.59403 -1.54993,2.29552 1.54993,0 0,-2.29552 z m -0.23506,-1.16428 1.57197,0 0,3.4598 0.78231,0 0,1.02471 -0.78231,0 0,0.99901 -1.33691,0 0,-0.99901 -2.43141,0 0,-1.21203 2.19635,-3.27248 z"
           style="font-style:normal;font-variant:normal;font-weight:bold;font-stretch:normal;font-size:7.52193451px;font-family:sans-serif;-inkscape-font-specification:'sans-serif Bold';fill:#1e88e5;fill-opacity:1"
           id="path10062" /><path
           d="m -230.39829,292.9363 1.24876,0 0,-3.54427 -1.28181,0.26444 0,-0.96228 1.27447,-0.26444 1.34425,0 0,4.50655 1.24876,0 0,0.97697 -3.83443,0 0,-0.97697 z"
           style="font-style:normal;font-variant:normal;font-weight:bold;font-stretch:normal;font-size:7.52193451px;font-family:sans-serif;-inkscape-font-specification:'sans-serif Bold';fill:#1e88e5;fill-opacity:1"
           id="path10064" /></g></g></g></svg>