<?xml version="1.0" encoding="UTF-8" standalone="no"?>
<svg
   xmlns:dc="http://purl.org/dc/elements/1.1/"
   xmlns:cc="http://creativecommons.org/ns#"
   xmlns:rdf="http://www.w3.org/1999/02/22-rdf-syntax-ns#"
   xmlns:svg="http://www.w3.org/2000/svg"
   xmlns="http://www.w3.org/2000/svg"
   xmlns:sodipodi="http://sodipodi.sourceforge.net/DTD/sodipodi-0.dtd"
   xmlns:inkscape="http://www.inkscape.org/namespaces/inkscape"
   version="1.1"
   id="svg6224"
   viewBox="0 0 250.00003 250"
   height="250"
   width="250"
   inkscape:version="0.91 r"
   sodipodi:docname="german_market.svg">
  <sodipodi:namedview
     pagecolor="#ffffff"
     bordercolor="#666666"
     borderopacity="1"
     objecttolerance="10"
     gridtolerance="10"
     guidetolerance="10"
     inkscape:pageopacity="0"
     inkscape:pageshadow="2"
     inkscape:window-width="1680"
     inkscape:window-height="1013"
     id="namedview266"
     showgrid="false"
     units="px"
     inkscape:zoom="1.6267716"
     inkscape:cx="70.7416"
     inkscape:cy="60.137097"
     inkscape:window-x="0"
     inkscape:window-y="0"
     inkscape:window-maximized="1"
     inkscape:current-layer="g4166" />
  <defs
     id="defs6226">
    <clipPath
       id="clipPath946"
       clipPathUnits="userSpaceOnUse">
      <path
         id="path948"
         d="m 256.375,721.668 21.133,0 0,-15.319 -21.133,0 0,15.319 z"
         inkscape:connector-curvature="0" />
    </clipPath>
    <clipPath
       id="clipPath894"
       clipPathUnits="userSpaceOnUse">
      <path
         id="path896"
         d="m 253.661,738.631 34.332,0 0,-28.455 -34.332,0 0,28.455 z"
         inkscape:connector-curvature="0" />
    </clipPath>
    <clipPath
       id="clipPath870"
       clipPathUnits="userSpaceOnUse">
      <path
         id="path872"
         d="m 253.661,738.631 34.422,0 0,-34.425 -34.422,0 0,34.425 z"
         inkscape:connector-curvature="0" />
    </clipPath>
    <clipPath
       id="clipPath834"
       clipPathUnits="userSpaceOnUse">
      <path
         id="path836"
         d="m 113.755,761.866 106.64,0 0,-5.641 -106.64,0 0,5.641 z"
         inkscape:connector-curvature="0" />
    </clipPath>
    <clipPath
       id="clipPath810"
       clipPathUnits="userSpaceOnUse">
      <path
         id="path812"
         d="m 113.755,758.95 106.64,0 0,-37.483 -106.64,0 0,37.483 z"
         inkscape:connector-curvature="0" />
    </clipPath>
    <clipPath
       id="clipPath406"
       clipPathUnits="userSpaceOnUse">
      <path
         id="path408"
         d="m 45.1362,754.863 309.7278,0 0,-309.727 -309.7278,0 0,309.727 z"
         inkscape:connector-curvature="0" />
    </clipPath>
  </defs>
  <metadata
     id="metadata6229">
    <rdf:RDF>
      <cc:Work
         rdf:about="">
        <dc:format>image/svg+xml</dc:format>
        <dc:type
           rdf:resource="http://purl.org/dc/dcmitype/StillImage" />
        <dc:title />
      </cc:Work>
    </rdf:RDF>
  </metadata>
  <g
     id="g4166"
     transform="matrix(0.74568962,0,0,0.74568962,29.011859,41.242212)">
    <path
       inkscape:connector-curvature="0"
       id="path176"
       style="fill:#1e88e5;fill-opacity:1;fill-rule:nonzero;stroke:none"
       d="m 127.52481,45.626266 c 1.32625,8.085001 -1.01387,57.202544 -1.01387,57.202544 0,0 -20.37863,-45.390042 -21.70488,-53.475043 -1.3275,-8.085001 2.6825,-15.473752 8.9575,-16.503753 6.27375,-1.03 12.43375,4.691251 13.76125,12.776252"
       sodipodi:nodetypes="ccccc" />
    <path
       inkscape:connector-curvature="0"
       id="path178"
       style="fill:#1e88e5;fill-opacity:1;fill-rule:nonzero;stroke:none"
       d="m 133.37525,46.583664 c -2.5005,7.801406 -7.29976,56.764566 -7.29976,56.764566 0,0 26.72237,-41.934633 29.22425,-49.737158 2.50187,-7.802524 -0.3778,-15.700584 -6.43428,-17.641065 -6.05386,-1.941473 -12.98821,2.809889 -15.49021,10.613657"
       sodipodi:nodetypes="ccscc" />
    <path
       inkscape:connector-curvature="0"
       id="path180"
       style="fill:none;fill-opacity:1;fill-rule:nonzero;stroke:#c62828;stroke-opacity:1;stroke-width:4.02312206;stroke-miterlimit:4;stroke-dasharray:none"
       d="m 128.50106,101.56127 c -10.84625,0.09 -21.73375,1.06875 -19.49625,23.18626 2.24125,22.11375 7.41625,65.33125 18.9125,67.11625 11.495,1.79 16.54375,-43.77375 17.62125,-62.22625 1.07501,-18.45376 -0.07,-28.22501 -17.0375,-28.07626" />
  </g>
</svg>
