<?xml version="1.0" encoding="UTF-8" standalone="no"?>
<!-- Created with Inkscape (http://www.inkscape.org/) -->

<svg
   xmlns:dc="http://purl.org/dc/elements/1.1/"
   xmlns:cc="http://creativecommons.org/ns#"
   xmlns:rdf="http://www.w3.org/1999/02/22-rdf-syntax-ns#"
   xmlns:svg="http://www.w3.org/2000/svg"
   xmlns="http://www.w3.org/2000/svg"
   xmlns:sodipodi="http://sodipodi.sourceforge.net/DTD/sodipodi-0.dtd"
   xmlns:inkscape="http://www.inkscape.org/namespaces/inkscape"
   id="svg2"
   version="1.1"
   inkscape:version="0.91 r13725"
   xml:space="preserve"
   width="250"
   height="250"
   viewBox="0 0 250 250"
   sodipodi:docname="maintainable.svg"><metadata
     id="metadata8"><rdf:RDF><cc:Work
         rdf:about=""><dc:format>image/svg+xml</dc:format><dc:type
           rdf:resource="http://purl.org/dc/dcmitype/StillImage" /><dc:title /></cc:Work></rdf:RDF></metadata><defs
     id="defs6" /><sodipodi:namedview
     pagecolor="#ffffff"
     bordercolor="#666666"
     borderopacity="1"
     objecttolerance="10"
     gridtolerance="10"
     guidetolerance="10"
     inkscape:pageopacity="0"
     inkscape:pageshadow="2"
     inkscape:window-width="1440"
     inkscape:window-height="836"
     id="namedview4"
     showgrid="false"
     inkscape:zoom="1.3350176"
     inkscape:cx="106.30139"
     inkscape:cy="92.86171"
     inkscape:window-x="0"
     inkscape:window-y="191"
     inkscape:window-maximized="1"
     inkscape:current-layer="g10"
     fit-margin-top="0"
     fit-margin-left="0"
     fit-margin-right="0"
     fit-margin-bottom="0" /><g
     id="g10"
     inkscape:groupmode="layer"
     inkscape:label="02"
     transform="matrix(1.25,0,0,-1.25,-45.654058,619.01737)"><g
       style="fill:#404041;fill-opacity:1"
       transform="matrix(0.50365182,0,0,0.50591064,116.63791,409.22816)"
       id="g3807"><path
         inkscape:connector-curvature="0"
         id="path3809"
         style="fill:#404041;fill-opacity:1;fill-rule:evenodd;stroke:none"
         d="m 0,0 c -13.105,0.734 -30.468,-0.865 -33.681,-1.962 -4.127,-1.413 -4.255,-1.778 -4.551,-5.128 -0.296,-3.349 0.131,-6.232 2.5,-7.099 3.249,-1.181 3.126,-5.666 4.873,-18.539 1.57,-11.72 6.061,-20.99 26.625,-22.685 1.052,-0.088 2.069,-0.127 3.059,-0.135 l 0.072,3.264 c -9.452,-0.052 -19.957,3.559 -23.473,10.874 -4.937,10.264 -5.57,30.985 1.359,35.298 2.991,1.865 12.905,3.132 23.149,2.634 L 0,0 Z M 39.38,-6.743 C 34.821,-6.841 16.176,-1.403 2.902,-0.219 1.96,-0.128 0.993,-0.058 0,0 l -0.068,-3.478 c 10.788,-0.52 21.948,-2.999 25.763,-8.766 6.254,-9.469 -5.097,-32.54 -15.314,-37.658 -3.106,-1.554 -7.188,-2.345 -11.484,-2.382 l -0.072,-3.264 c 17.865,-0.079 24.509,12.778 26.718,17.07 4.179,8.083 3.351,19.237 13.578,19.23 10.216,-0.002 8.842,-10.951 12.472,-19.044 1.958,-4.362 7.72,-17.76 26.259,-17.284 l 0.056,3.259 c -4.569,-0.064 -8.912,0.734 -12.094,2.385 -9.874,5.129 -19.695,28.204 -12.805,37.662 4.144,5.707 15.241,8.183 25.941,8.728 l 0.064,3.47 C 78.19,-0.123 77.382,-0.176 76.603,-0.249 64.641,-1.3 50.125,-6.488 39.38,-6.743 m 38.472,-48.833 c 0.711,0.018 1.454,0.056 2.213,0.118 20.668,1.673 25.778,10.938 28.135,22.659 2.592,12.871 2.771,17.351 6.097,18.527 2.438,0.87 3.039,3.747 2.978,7.104 -0.076,3.346 -0.182,3.709 -4.206,5.115 -3.186,1.123 -20.822,2.77 -34.055,1.981 l -0.064,-3.47 c 10.423,0.541 20.476,-0.747 23.378,-2.639 6.625,-4.315 4.637,-25.042 -0.988,-35.293 C 97.442,-48.59 87.164,-52.19 77.908,-52.317 l -0.056,-3.259 z" /></g></g></svg>