<?xml version="1.0" encoding="UTF-8" standalone="no"?>
<svg
   xmlns:dc="http://purl.org/dc/elements/1.1/"
   xmlns:cc="http://creativecommons.org/ns#"
   xmlns:rdf="http://www.w3.org/1999/02/22-rdf-syntax-ns#"
   xmlns:svg="http://www.w3.org/2000/svg"
   xmlns="http://www.w3.org/2000/svg"
   xmlns:sodipodi="http://sodipodi.sourceforge.net/DTD/sodipodi-0.dtd"
   xmlns:inkscape="http://www.inkscape.org/namespaces/inkscape"
   viewBox="0 0 250 250"
   height="250"
   width="250"
   xml:space="preserve"
   version="1.1"
   id="svg2"
   inkscape:version="0.91 r"
   sodipodi:docname="multilingual.svg"><sodipodi:namedview
     pagecolor="#ffffff"
     bordercolor="#666666"
     borderopacity="1"
     objecttolerance="10"
     gridtolerance="10"
     guidetolerance="10"
     inkscape:pageopacity="0"
     inkscape:pageshadow="2"
     inkscape:window-width="1680"
     inkscape:window-height="1013"
     id="namedview10"
     showgrid="false"
     inkscape:zoom="0.6675088"
     inkscape:cx="-385.46795"
     inkscape:cy="131.28401"
     inkscape:window-x="0"
     inkscape:window-y="0"
     inkscape:window-maximized="1"
     inkscape:current-layer="g24" /><metadata
     id="metadata8"><rdf:RDF><cc:Work
         rdf:about=""><dc:format>image/svg+xml</dc:format><dc:type
           rdf:resource="http://purl.org/dc/dcmitype/StillImage" /><dc:title /></cc:Work></rdf:RDF></metadata><defs
     id="defs6"><inkscape:perspective
       id="perspective189"
       inkscape:persp3d-origin="513.63 : 341.66667 : 1"
       inkscape:vp_z="1027.26 : 512.5 : 1"
       inkscape:vp_y="0 : 1000 : 0"
       inkscape:vp_x="0 : 512.5 : 1"
       sodipodi:type="inkscape:persp3d" /></defs><g
     transform="matrix(1.25,0,0,-1.25,-28.096875,387.95363)"
     id="g10"><g
       transform="translate(144.62961,248.8989)"
       id="g20"><path
         id="path22"
         style="fill:#1e88e5;fill-opacity:1;fill-rule:nonzero;stroke:none"
         d="m 0,0 1.806,0 c 1.667,-1.658 -0.541,-2.515 -0.602,-4.215 4.051,-5.712 8.069,-11.051 9.032,-18.666 3.222,-25.468 -14.524,-39.36 -33.719,-43.955 5.87,-3.047 17.649,-3.107 17.462,-10.236 l -40.343,0 c -0.67,7.537 12.226,6.609 16.86,10.838 -8.311,2.126 -15.835,5.039 -21.677,9.634 -0.528,1.519 -2.84,-3.324 -3.612,0 0.978,3.438 3.186,5.646 6.623,6.624 2.096,-1.881 -1.852,-3.18 0,-4.817 30.303,-27.14 74.322,17.675 47.568,48.17 -2.202,0.512 -3.226,-2.775 -4.215,0 C -4.651,-2.976 -1.135,-2.678 0,0" /></g><g
       transform="translate(113.31902,246.4902)"
       id="g24"><path
         id="path26"
         style="fill:none;stroke:#c62828;stroke-width:2.602;stroke-linecap:butt;stroke-linejoin:miter;stroke-miterlimit:10;stroke-dasharray:none;stroke-opacity:1"
         d="M 0,0 C 35.409,6.04 43.434,-44.988 12.645,-52.987 -6.696,-58.012 -27.688,-40.815 -21.074,-18.666 -18.473,-9.954 -11.446,-1.953 0,0 Z" /></g></g></svg>