<?xml version="1.0" encoding="UTF-8" standalone="no"?>
<svg
   xmlns:dc="http://purl.org/dc/elements/1.1/"
   xmlns:cc="http://creativecommons.org/ns#"
   xmlns:rdf="http://www.w3.org/1999/02/22-rdf-syntax-ns#"
   xmlns:svg="http://www.w3.org/2000/svg"
   xmlns="http://www.w3.org/2000/svg"
   viewBox="0 0 250 250"
   height="250"
   width="250"
   xml:space="preserve"
   version="1.1"
   id="svg2"><metadata
     id="metadata8"><rdf:RDF><cc:Work
         rdf:about=""><dc:format>image/svg+xml</dc:format><dc:type
           rdf:resource="http://purl.org/dc/dcmitype/StillImage" /><dc:title></dc:title></cc:Work></rdf:RDF></metadata><defs
     id="defs6" /><g
     transform="matrix(1.25,0,0,-1.25,-170.48115,635.8022)"
     id="g10"><g
       transform="scale(0.1,0.1)"
       id="g12"><g
         transform="translate(96.7735,161.5298)"
         id="g6164"><g
           transform="translate(-779.66102,101.69489)"
           id="g4351"><g
             id="g104"
             transform="matrix(10,0,0,10,2688.2155,3631.2843)"><path
               d="m 0,0 0,52.236 c 0.552,4.188 4.521,3.809 9.572,3.809 l 62.57,0 c 5.069,0 8.973,0.533 9.778,-3.706 L 81.92,0 c -0.981,-4.263 -4.471,-3.705 -9.778,-3.705 l -61.952,0 C 4.756,-3.705 0.833,-4.286 0,0"
               style="fill:#404041;fill-opacity:1;fill-rule:nonzero;stroke:none"
               id="path106" /></g><g
             id="g108"
             transform="matrix(10,0,0,10,2792.1705,3610.6983)"><path
               d="M 0,0 25.002,0 55.16,0 c 3.202,0 12.647,-0.817 14.1,1.029 0.956,1.214 0.515,5.206 0.515,7.617 l 0,15.439 c 0,2.248 0.381,30.145 -0.412,31.239 -1.09,1.506 -4.424,1.132 -7.204,1.132 l -63.806,0 c -2.932,0 -5.712,0.121 -6.587,-1.132 -0.781,-1.119 -0.412,-28.761 -0.412,-31.136 l 0,-14.616 C -8.646,7.3 -8.976,3.954 -8.543,2.059 -7.888,-0.803 -3.695,0 0,0"
               style="fill:#ffffff;fill-opacity:1;fill-rule:nonzero;stroke:none"
               id="path110" /></g><g
             id="g112"
             transform="matrix(10,0,0,10,3394.0695,4146.3183)"><path
               d="m 0,0 -55.224,0 c -1.863,0 -9.655,0.309 -10.447,-0.305 -0.873,-0.677 -0.455,-27.985 -0.455,-29.741 l 0,-13.014 c 0,-2.1 -0.444,-4.691 0,-6.508 0.388,-1.587 7.668,-1.118 10.105,-1.118 l 55.793,0 c 2.24,0 4.721,-0.268 6.375,0.407 0.379,8.273 0.379,41.599 0,49.872 C 4.259,0.286 2.095,0 0,0"
               style="fill:#404041;fill-opacity:1;fill-rule:nonzero;stroke:none"
               id="path114" /></g><g
             id="g116"
             transform="matrix(10,0,0,10,2606.2615,3932.8223)"><path
               d="m 0,0 28.28,0 c 2.267,-0.299 2.062,-2.448 2.062,-5.182 l 0,-33.875 c 0,-2.744 0.288,-4.858 -2.006,-5.293 L 0,-44.35 c -2.308,0.531 -2.006,2.421 -2.006,5.293 l 0,33.54 C -2.006,-2.575 -2.321,-0.451 0,0"
               style="fill:#404041;fill-opacity:1;fill-rule:nonzero;stroke:none"
               id="path118" /></g><g
             id="g120"
             transform="matrix(10,0,0,10,2595.1145,3876.5383)"><path
               d="m 0,0 0,-13.536 0,-16.325 c 0,-1.735 -0.442,-6.848 0.557,-7.635 0.657,-0.518 2.819,-0.278 4.124,-0.278 l 8.358,0 c 1.217,0 16.32,-0.206 16.913,0.222 0.815,0.59 0.613,2.395 0.613,3.901 l 0,34.544 c 0,1.586 0.065,3.091 -0.613,3.565 -0.606,0.423 -15.57,0.223 -16.857,0.223 l -7.913,0 C 3.952,4.681 2.141,4.86 1.114,4.625 -0.435,4.271 0,2 0,0"
               style="fill:#ffffff;fill-opacity:1;fill-rule:nonzero;stroke:none"
               id="path122" /></g><g
             id="g124"
             transform="matrix(10,0,0,10,2886.7845,3566.2152)"><path
               d="m 0,0 0,27.033 c 0,0.912 0.17,4.727 -0.167,5.113 -0.371,0.428 -15.337,0.224 -16.3,0.224 l -7.132,0 c -1.151,0 -2.571,0.217 -3.566,0 -0.87,-0.19 -0.613,-3.754 -0.613,-4.947 l 0,-27.312 c 0,-1.096 -0.147,-2.311 0.222,-3.12 4.535,-0.185 22.799,-0.185 27.333,0 C 0.157,-2.085 0,-1.026 0,0"
               style="fill:#404041;fill-opacity:1;fill-rule:nonzero;stroke:none"
               id="path126" /></g><g
             id="g128"
             transform="matrix(10,0,0,10,2728.2985,3505.4733)"><path
               d="M 0,0 C 0.311,-0.223 3.134,-0.354 3.733,-0.11 4.319,0.127 4.529,1.115 4.012,1.672 3.642,2.07 1.184,2.096 0.39,1.896 -0.36,1.705 -0.695,0.498 0,0"
               style="fill:#404041;fill-opacity:1;fill-rule:nonzero;stroke:none"
               id="path130" /></g><g
             id="g132"
             transform="matrix(10,0,0,10,2729.4115,3517.1823)"><path
               d="m 0,0 c -0.072,-0.216 0.052,-0.387 0,-0.613 0.285,-0.405 1.12,-0.28 1.839,-0.28 0.718,0 1.554,-0.125 1.839,0.28 C 3.677,-0.317 3.713,0.016 3.566,0.167 3.056,0.271 0.239,0.72 0,0"
               style="fill:#ffffff;fill-opacity:1;fill-rule:nonzero;stroke:none"
               id="path134" /></g><g
             id="g136"
             transform="matrix(10,0,0,10,3070.0215,3599.5553)"><path
               d="m 0,0 0.011,-9.788 c 0,0 -14.811,0.465 -14.811,-1.175 l 35.159,0 c 0,1.64 -15.163,1.175 -15.163,1.175 L 5.182,0 0,0 Z"
               style="fill:#404041;fill-opacity:1;fill-rule:nonzero;stroke:none"
               id="path138" /></g><g
             id="g140"
             transform="matrix(10,0,0,10,2832.9125,3803.2563)"><path
               d="m 0,0 15.324,0 c 2.267,-0.299 2.061,-2.448 2.061,-5.182 l 0,-24.407 c 0,-2.743 0.289,-4.857 -2.006,-5.293 l -15.379,0 c -2.308,0.531 -2.006,2.421 -2.006,5.293 l 0,24.072 C -2.006,-2.575 -2.321,-0.451 0,0"
               style="fill:#404041;fill-opacity:1;fill-rule:nonzero;stroke:none"
               id="path142" /></g><g
             id="g144"
             transform="matrix(10,0,0,10,2821.7644,3746.9773)"><path
               d="m 0,0 0,-4.068 0,-16.326 c 0,-1.734 -0.442,-6.847 0.557,-7.634 0.657,-0.518 2.819,-0.279 4.124,-0.279 l 8.358,0 c 1.217,0 3.364,-0.206 3.956,0.223 0.815,0.59 0.613,2.395 0.613,3.9 l 0,25.076 c 0,1.587 0.066,3.092 -0.613,3.566 -0.605,0.423 -2.613,0.223 -3.9,0.223 l -7.913,0 C 3.952,4.681 2.141,4.86 1.114,4.625 -0.435,4.271 0,2 0,0"
               style="fill:#ffffff;fill-opacity:1;fill-rule:nonzero;stroke:none"
               id="path146" /></g><g
             id="g148"
             transform="matrix(10,0,0,10,2894.7624,3779.8583)"><path
               d="M 0,0 C 0,-0.5 3.009,-0.4 3.009,-0.026 3.009,0.347 0,0.5 0,0 m -0.446,-30.927 c 0.311,-0.222 3.135,-0.354 3.734,-0.11 0.586,0.237 0.795,1.225 0.278,1.782 -0.37,0.399 -2.828,0.424 -3.622,0.224 -0.75,-0.191 -1.085,-1.398 -0.39,-1.896"
               style="fill:#404041;fill-opacity:1;fill-rule:nonzero;stroke:none"
               id="path150" /></g><g
             id="g152"
             transform="matrix(10,0,0,10,2983.9185,3531.3333)"><path
               d="m 0,0 0,19.559 c 0,0.911 0.169,2.733 -0.167,3.12 -0.371,0.426 -2.381,0.223 -3.344,0.223 l -7.132,0 c -1.151,0 -2.571,0.217 -3.566,0 -0.87,-0.19 -0.613,-1.761 -0.613,-2.953 l 0,-19.838 c 0,-1.096 -0.147,-2.311 0.223,-3.12 4.534,-0.185 9.842,-0.185 14.376,0 C 0.157,-2.085 0,-1.026 0,0"
               style="fill:#404041;fill-opacity:1;fill-rule:nonzero;stroke:none"
               id="path154" /></g><g
             id="g156"
             transform="matrix(10,0,0,10,2891.4185,3482.2993)"><path
               d="m 0,0 c -0.072,-0.216 0.052,-0.387 0,-0.613 0.285,-0.405 1.12,-0.28 1.839,-0.28 0.718,0 1.554,-0.125 1.839,0.28 C 3.677,-0.317 3.713,0.016 3.566,0.167 3.056,0.271 0.239,0.72 0,0"
               style="fill:#ffffff;fill-opacity:1;fill-rule:nonzero;stroke:none"
               id="path158" /></g></g></g></g></g></svg>