<?xml version="1.0" encoding="UTF-8" standalone="no"?>
<svg
   xmlns:dc="http://purl.org/dc/elements/1.1/"
   xmlns:cc="http://creativecommons.org/ns#"
   xmlns:rdf="http://www.w3.org/1999/02/22-rdf-syntax-ns#"
   xmlns:svg="http://www.w3.org/2000/svg"
   xmlns="http://www.w3.org/2000/svg"
   xmlns:sodipodi="http://sodipodi.sourceforge.net/DTD/sodipodi-0.dtd"
   xmlns:inkscape="http://www.inkscape.org/namespaces/inkscape"
   viewBox="0 0 250 250"
   height="250"
   width="250"
   xml:space="preserve"
   version="1.1"
   id="svg2"
   inkscape:version="0.91 r"
   sodipodi:docname="selfcode.svg"><sodipodi:namedview
     pagecolor="#ffffff"
     bordercolor="#666666"
     borderopacity="1"
     objecttolerance="10"
     gridtolerance="10"
     guidetolerance="10"
     inkscape:pageopacity="0"
     inkscape:pageshadow="2"
     inkscape:window-width="1680"
     inkscape:window-height="1013"
     id="namedview16"
     showgrid="false"
     inkscape:zoom="0.6675088"
     inkscape:cx="-225.01183"
     inkscape:cy="-11.468418"
     inkscape:window-x="0"
     inkscape:window-y="0"
     inkscape:window-maximized="1"
     inkscape:current-layer="svg2" /><metadata
     id="metadata8"><rdf:RDF><cc:Work
         rdf:about=""><dc:format>image/svg+xml</dc:format><dc:type
           rdf:resource="http://purl.org/dc/dcmitype/StillImage" /><dc:title /></cc:Work></rdf:RDF></metadata><defs
     id="defs6" /><g
     transform="matrix(1.25,0,0,-1.25,151.29136,99.58753)"
     id="g174"><path
       id="path176"
       style="fill:#ffffff;fill-opacity:1;fill-rule:nonzero;stroke:none"
       d="m 0,0 c 10.354,-5.651 15.389,-26.773 7.619,-38.831 0.768,-2.153 3.467,-2.336 4.066,-4.66 -6.193,-1.802 -11.802,-4.197 -17.785,-6.213 1.69,5.873 3.479,11.645 5.082,17.604 0.18,2.481 1.522,-1.106 2.541,-1.036 5.534,8.702 0.536,22.309 -5.587,26.923 C -3.602,-3.235 -2.106,-2.295 0,0" /></g><g
     transform="matrix(1.25,0,0,-1.25,151.29136,99.58753)"
     id="g178"
     style="stroke:#1e88e5;stroke-opacity:1;fill:#ffffff;fill-opacity:1"><path
       id="path180"
       style="fill:#ffffff;stroke:#1e88e5;stroke-width:2.602;stroke-linecap:butt;stroke-linejoin:miter;stroke-miterlimit:10;stroke-dasharray:none;stroke-opacity:1;fill-opacity:1"
       d="m 0,0 c 10.354,-5.651 15.389,-26.773 7.619,-38.831 0.768,-2.153 3.467,-2.336 4.066,-4.66 -6.193,-1.802 -11.802,-4.197 -17.785,-6.213 1.69,5.873 3.479,11.645 5.082,17.604 0.18,2.481 1.522,-1.106 2.541,-1.036 5.534,8.702 0.536,22.309 -5.587,26.923 C -3.602,-3.235 -2.106,-2.295 0,0 Z" /></g><g
     transform="matrix(1.25,0,0,-1.25,119.46824,88.66841)"
     id="g190"><path
       id="path192"
       style="fill:#ffffff;fill-opacity:1;fill-rule:nonzero;stroke:none"
       d="M 0,0 C 1.413,2.139 0.196,3.399 1.61,5.537 7.106,2.12 11.416,-1.696 16.402,-5.286 10.641,-7.246 4.685,-8.623 -0.911,-11.073 c -0.987,0.824 -0.158,2.255 -0.005,3.459 -8.697,-0.235 -17.708,-8.7 -20.068,-20.552 -2.655,0.278 -4.469,0.319 -6.928,1.145 C -22.728,-3.728 -5.271,-0.164 0,0" /></g><g
     transform="matrix(1.25,0,0,-1.25,117.87926,88.138749)"
     id="g194"
     style="stroke:#1e88e5;stroke-opacity:1"><path
       id="path196"
       style="fill:none;stroke:#1e88e5;stroke-width:2.602;stroke-linecap:butt;stroke-linejoin:miter;stroke-miterlimit:10;stroke-dasharray:none;stroke-opacity:1"
       d="M 0,0 C 1.413,2.139 0.196,3.399 1.61,5.537 7.106,2.12 11.416,-1.696 16.402,-5.286 10.641,-7.246 4.685,-8.623 -0.911,-11.073 c -0.987,0.824 -0.158,2.255 -0.005,3.459 -8.697,-0.235 -17.708,-8.7 -20.068,-20.552 -2.655,0.278 -4.469,0.319 -6.928,1.145 C -22.728,-3.728 -5.271,-0.164 0,0 Z"
       inkscape:connector-curvature="0" /></g><g
     transform="matrix(-0.63745163,1.0752467,1.0752467,0.63745163,136.71628,169.33335)"
     id="g4148"
     style="stroke:#c62828;stroke-opacity:1;fill:none;fill-opacity:1"><path
       id="path4150"
       style="fill:none;stroke:#c62828;stroke-width:2.602;stroke-linecap:butt;stroke-linejoin:miter;stroke-miterlimit:10;stroke-dasharray:none;stroke-opacity:1;fill-opacity:1"
       d="m 0,0 c 10.354,-5.651 15.389,-26.773 7.619,-38.831 0.768,-2.153 3.467,-2.336 4.066,-4.66 -6.193,-1.802 -11.802,-4.197 -17.785,-6.213 1.69,5.873 3.479,11.645 5.082,17.604 0.18,2.481 1.522,-1.106 2.541,-1.036 5.534,8.702 0.536,22.309 -5.587,26.923 C -3.602,-3.235 -2.106,-2.295 0,0 Z"
       inkscape:connector-curvature="0" /></g></svg>