<?xml version="1.0" encoding="UTF-8" standalone="no"?>
<svg
   xmlns:dc="http://purl.org/dc/elements/1.1/"
   xmlns:cc="http://creativecommons.org/ns#"
   xmlns:rdf="http://www.w3.org/1999/02/22-rdf-syntax-ns#"
   xmlns:svg="http://www.w3.org/2000/svg"
   xmlns="http://www.w3.org/2000/svg"
   viewBox="0 0 250 250"
   height="250"
   width="250"
   xml:space="preserve"
   version="1.1"
   id="svg2"><metadata
     id="metadata8"><rdf:RDF><cc:Work
         rdf:about=""><dc:format>image/svg+xml</dc:format><dc:type
           rdf:resource="http://purl.org/dc/dcmitype/StillImage" /><dc:title></dc:title></cc:Work></rdf:RDF></metadata><defs
     id="defs6" /><g
     transform="matrix(1.25,0,0,-1.25,151.29136,99.58753)"
     id="g174"><path
       id="path176"
       style="fill:#ffffff;fill-opacity:1;fill-rule:nonzero;stroke:none"
       d="m 0,0 c 10.354,-5.651 15.389,-26.773 7.619,-38.831 0.768,-2.153 3.467,-2.336 4.066,-4.66 -6.193,-1.802 -11.802,-4.197 -17.785,-6.213 1.69,5.873 3.479,11.645 5.082,17.604 0.18,2.481 1.522,-1.106 2.541,-1.036 5.534,8.702 0.536,22.309 -5.587,26.923 C -3.602,-3.235 -2.106,-2.295 0,0" /></g><g
     transform="matrix(1.25,0,0,-1.25,151.29136,99.58753)"
     id="g178"><path
       id="path180"
       style="fill:none;stroke:#404041;stroke-width:2.602;stroke-linecap:butt;stroke-linejoin:miter;stroke-miterlimit:10;stroke-dasharray:none;stroke-opacity:1"
       d="m 0,0 c 10.354,-5.651 15.389,-26.773 7.619,-38.831 0.768,-2.153 3.467,-2.336 4.066,-4.66 -6.193,-1.802 -11.802,-4.197 -17.785,-6.213 1.69,5.873 3.479,11.645 5.082,17.604 0.18,2.481 1.522,-1.106 2.541,-1.036 5.534,8.702 0.536,22.309 -5.587,26.923 C -3.602,-3.235 -2.106,-2.295 0,0 Z" /></g><g
     transform="matrix(1.25,0,0,-1.25,90.28298,151.77878)"
     id="g182"><path
       id="path184"
       style="fill:#404041;fill-opacity:1;fill-rule:nonzero;stroke:none"
       d="m 0,0 c -2.56,0.307 -3.149,-1.336 -5.71,-1.028 0.613,6.416 2.117,11.952 3.114,17.991 C 1.753,12.701 5.665,8.008 10.382,4.112 10.082,2.867 8.422,2.969 7.269,2.57 11.381,-5.073 23.048,-9.337 34.781,-6.169 35.05,-8.815 36.499,-10.293 36.857,-12.851 13.553,-18.589 2.512,-4.622 0,0" /></g><path
     d="m 90.28299,151.77878 c -3.2,-0.38375 -3.93625,1.67 -7.1375,1.285 0.76625,-8.02 2.64625,-14.94 3.8925,-22.48875 5.43625,5.3275 10.32625,11.19375 16.2225,16.06375 -0.375,1.55625 -2.45,1.42875 -3.89125,1.9275 5.14,9.55375 19.72375,14.88375 34.39,10.92375 0.33625,3.3075 2.1475,5.155 2.595,8.3525 -29.13,7.1725 -42.93125,-10.28625 -46.07125,-16.06375 z"
     style="fill:none;stroke:#404041;stroke-width:1.85874999;stroke-linecap:butt;stroke-linejoin:miter;stroke-miterlimit:10;stroke-dasharray:none;stroke-opacity:1"
     id="path188" /><g
     transform="matrix(1.25,0,0,-1.25,119.46824,88.66841)"
     id="g190"><path
       id="path192"
       style="fill:#ffffff;fill-opacity:1;fill-rule:nonzero;stroke:none"
       d="M 0,0 C 1.413,2.139 0.196,3.399 1.61,5.537 7.106,2.12 11.416,-1.696 16.402,-5.286 10.641,-7.246 4.685,-8.623 -0.911,-11.073 c -0.987,0.824 -0.158,2.255 -0.005,3.459 -8.697,-0.235 -17.708,-8.7 -20.068,-20.552 -2.655,0.278 -4.469,0.319 -6.928,1.145 C -22.728,-3.728 -5.271,-0.164 0,0" /></g><g
     transform="matrix(1.25,0,0,-1.25,119.46824,88.66841)"
     id="g194"><path
       id="path196"
       style="fill:none;stroke:#404041;stroke-width:2.602;stroke-linecap:butt;stroke-linejoin:miter;stroke-miterlimit:10;stroke-dasharray:none;stroke-opacity:1"
       d="M 0,0 C 1.413,2.139 0.196,3.399 1.61,5.537 7.106,2.12 11.416,-1.696 16.402,-5.286 10.641,-7.246 4.685,-8.623 -0.911,-11.073 c -0.987,0.824 -0.158,2.255 -0.005,3.459 -8.697,-0.235 -17.708,-8.7 -20.068,-20.552 -2.655,0.278 -4.469,0.319 -6.928,1.145 C -22.728,-3.728 -5.271,-0.164 0,0 Z" /></g></svg>