<?xml version="1.0" encoding="UTF-8" standalone="no"?>
<svg
   xmlns:dc="http://purl.org/dc/elements/1.1/"
   xmlns:cc="http://creativecommons.org/ns#"
   xmlns:rdf="http://www.w3.org/1999/02/22-rdf-syntax-ns#"
   xmlns:svg="http://www.w3.org/2000/svg"
   xmlns="http://www.w3.org/2000/svg"
   xmlns:sodipodi="http://sodipodi.sourceforge.net/DTD/sodipodi-0.dtd"
   xmlns:inkscape="http://www.inkscape.org/namespaces/inkscape"
   viewBox="0 0 250 250"
   height="250"
   width="250"
   xml:space="preserve"
   version="1.1"
   id="svg2"
   inkscape:version="0.91 r"
   sodipodi:docname="seo.svg"><sodipodi:namedview
     pagecolor="#ffffff"
     bordercolor="#666666"
     borderopacity="1"
     objecttolerance="10"
     gridtolerance="10"
     guidetolerance="10"
     inkscape:pageopacity="0"
     inkscape:pageshadow="2"
     inkscape:window-width="1680"
     inkscape:window-height="1013"
     id="namedview177"
     showgrid="false"
     inkscape:zoom="3.776"
     inkscape:cx="160.40362"
     inkscape:cy="123.63627"
     inkscape:window-x="0"
     inkscape:window-y="0"
     inkscape:window-maximized="1"
     inkscape:current-layer="g4052" /><metadata
     id="metadata8"><rdf:RDF><cc:Work
         rdf:about=""><dc:format>image/svg+xml</dc:format><dc:type
           rdf:resource="http://purl.org/dc/dcmitype/StillImage" /><dc:title /></cc:Work></rdf:RDF></metadata><defs
     id="defs6"><clipPath
       id="clipPath16"
       clipPathUnits="userSpaceOnUse"><path
         id="path18"
         d="M 0,0 800,0 800,800 0,800 0,0 Z" /></clipPath><radialGradient
       id="radialGradient24"
       spreadMethod="pad"
       gradientTransform="matrix(593.16394,0,0,-593.16394,400,400)"
       gradientUnits="userSpaceOnUse"
       r="1"
       cy="0"
       cx="0"
       fy="0"
       fx="0"><stop
         id="stop26"
         offset="0"
         style="stop-opacity:1;stop-color:#48b7d9" /><stop
         id="stop28"
         offset="0.66830194"
         style="stop-opacity:1;stop-color:#48b7d9" /><stop
         id="stop30"
         offset="1"
         style="stop-opacity:1;stop-color:#586987" /></radialGradient><clipPath
       id="clipPath38"
       clipPathUnits="userSpaceOnUse"><path
         id="path40"
         d="M 0,800 800,800 800,0 0,0 0,800 Z" /></clipPath><clipPath
       id="clipPath46"
       clipPathUnits="userSpaceOnUse"><path
         id="path48"
         d="m 26.2939,238.992 736.4091,0 0,-99.279 -736.4091,0 0,99.279 z" /></clipPath><clipPath
       id="clipPath50"
       clipPathUnits="userSpaceOnUse"><path
         id="path52"
         d="m 762.703,189.352 c 0,-27.415 -164.851,-49.639 -368.204,-49.639 -203.354,0 -368.205,22.224 -368.205,49.639 0,27.416 164.851,49.64 368.205,49.64 203.353,0 368.204,-22.224 368.204,-49.64" /></clipPath><clipPath
       id="clipPath54"
       clipPathUnits="userSpaceOnUse"><path
         id="path56"
         d="m -32768,32767 65535,0 0,-65535 -65535,0 0,65535 z" /></clipPath><radialGradient
       id="radialGradient58"
       spreadMethod="pad"
       gradientTransform="matrix(359.9234,0,0,-45.05064,394.49854,189.35352)"
       gradientUnits="userSpaceOnUse"
       r="1"
       cy="0"
       cx="0"
       fy="0"
       fx="0"><stop
         id="stop60"
         offset="0"
         style="stop-opacity:1;stop-color:#ffffff" /><stop
         id="stop62"
         offset="0.30247482"
         style="stop-opacity:1;stop-color:#ffffff" /><stop
         id="stop64"
         offset="1"
         style="stop-opacity:0;stop-color:#ffffff" /></radialGradient><mask
       id="mask66"
       height="1"
       width="1"
       y="0"
       x="0"
       maskUnits="userSpaceOnUse"><g
         id="g68"><g
           id="g70"
           clip-path="url(#clipPath54)"><g
             id="g72"><g
               id="g74"><path
                 id="path76"
                 style="fill:url(#radialGradient58);stroke:none"
                 d="m -32768,32767 65535,0 0,-65535 -65535,0 0,65535 z" /></g></g></g></g></mask><radialGradient
       id="radialGradient78"
       spreadMethod="pad"
       gradientTransform="matrix(359.9234,0,0,-45.05064,394.49854,189.35352)"
       gradientUnits="userSpaceOnUse"
       r="1"
       cy="0"
       cx="0"
       fy="0"
       fx="0"><stop
         id="stop80"
         offset="0"
         style="stop-opacity:1;stop-color:#000000" /><stop
         id="stop82"
         offset="0.30247482"
         style="stop-opacity:1;stop-color:#000000" /><stop
         id="stop84"
         offset="1"
         style="stop-opacity:1;stop-color:#000000" /></radialGradient><clipPath
       id="clipPath108"
       clipPathUnits="userSpaceOnUse"><path
         id="path110"
         d="m 565.496,193.91 220.738,0 0,-44.873 -220.738,0 0,44.873 z" /></clipPath><clipPath
       id="clipPath112"
       clipPathUnits="userSpaceOnUse"><path
         id="path114"
         d="m 786.234,171.473 c 0,-12.391 -49.414,-22.436 -110.369,-22.436 -60.955,0 -110.369,10.045 -110.369,22.436 0,12.392 49.414,22.437 110.369,22.437 60.955,0 110.369,-10.045 110.369,-22.437" /></clipPath><clipPath
       id="clipPath116"
       clipPathUnits="userSpaceOnUse"><path
         id="path118"
         d="m -32768,32767 65535,0 0,-65535 -65535,0 0,65535 z" /></clipPath><radialGradient
       id="radialGradient120"
       spreadMethod="pad"
       gradientTransform="matrix(107.8872,0,0,-20.360027,675.86523,171.47363)"
       gradientUnits="userSpaceOnUse"
       r="1"
       cy="0"
       cx="0"
       fy="0"
       fx="0"><stop
         id="stop122"
         offset="0"
         style="stop-opacity:1;stop-color:#ffffff" /><stop
         id="stop124"
         offset="0.30247482"
         style="stop-opacity:1;stop-color:#ffffff" /><stop
         id="stop126"
         offset="1"
         style="stop-opacity:0;stop-color:#ffffff" /></radialGradient><mask
       id="mask128"
       height="1"
       width="1"
       y="0"
       x="0"
       maskUnits="userSpaceOnUse"><g
         id="g130"><g
           id="g132"
           clip-path="url(#clipPath116)"><g
             id="g134"><g
               id="g136"><path
                 id="path138"
                 style="fill:url(#radialGradient120);stroke:none"
                 d="m -32768,32767 65535,0 0,-65535 -65535,0 0,65535 z" /></g></g></g></g></mask><radialGradient
       id="radialGradient140"
       spreadMethod="pad"
       gradientTransform="matrix(107.8872,0,0,-20.360027,675.86523,171.47363)"
       gradientUnits="userSpaceOnUse"
       r="1"
       cy="0"
       cx="0"
       fy="0"
       fx="0"><stop
         id="stop142"
         offset="0"
         style="stop-opacity:1;stop-color:#000000" /><stop
         id="stop144"
         offset="0.30247482"
         style="stop-opacity:1;stop-color:#000000" /><stop
         id="stop146"
         offset="1"
         style="stop-opacity:1;stop-color:#000000" /></radialGradient><clipPath
       id="clipPath250"
       clipPathUnits="userSpaceOnUse"><path
         id="path252"
         d="M 0,800 800,800 800,0 0,0 0,800 Z" /></clipPath><clipPath
       id="clipPath278"
       clipPathUnits="userSpaceOnUse"><path
         id="path280"
         d="M 37.156,314.606 22.005,282.74 c -2.68,-5.635 -0.284,-12.375 5.35,-15.055 l 0,0 55.119,-26.204 c 5.635,-2.679 12.377,-0.284 15.055,5.351 l 0,0 15.15,31.867 c 2.679,5.635 0.283,12.377 -5.353,15.055 l 0,0 -55.117,26.205 c -1.566,0.744 -3.216,1.096 -4.841,1.096 l 0,0 c -4.225,0 -8.279,-2.381 -10.212,-6.449" /></clipPath><clipPath
       id="clipPath286"
       clipPathUnits="userSpaceOnUse"><path
         id="path288"
         d="m -32768,32767 65535,0 0,-65535 -65535,0 0,65535 z" /></clipPath><linearGradient
       id="linearGradient290"
       spreadMethod="pad"
       gradientTransform="matrix(75.523498,-35.909412,-35.909412,-75.523498,29.57959,298.67383)"
       gradientUnits="userSpaceOnUse"
       y2="0"
       x2="1"
       y1="0"
       x1="0"><stop
         id="stop292"
         offset="0"
         style="stop-opacity:1;stop-color:#ffffff" /><stop
         id="stop294"
         offset="0.84620983"
         style="stop-opacity:0;stop-color:#ffffff" /><stop
         id="stop296"
         offset="1"
         style="stop-opacity:0;stop-color:#ffffff" /></linearGradient><mask
       id="mask298"
       height="1"
       width="1"
       y="0"
       x="0"
       maskUnits="userSpaceOnUse"><g
         id="g300"><g
           id="g302"
           clip-path="url(#clipPath286)"><g
             id="g304"><g
               id="g306"><path
                 id="path308"
                 style="fill:url(#linearGradient290);stroke:none"
                 d="m -32768,32767 65535,0 0,-65535 -65535,0 0,65535 z" /></g></g></g></g></mask><linearGradient
       id="linearGradient314"
       spreadMethod="pad"
       gradientTransform="matrix(75.523498,-35.909412,-35.909412,-75.523498,29.57959,298.67383)"
       gradientUnits="userSpaceOnUse"
       y2="0"
       x2="1"
       y1="0"
       x1="0"><stop
         id="stop316"
         offset="0"
         style="stop-opacity:1;stop-color:#ffffff" /><stop
         id="stop318"
         offset="0.84620983"
         style="stop-opacity:1;stop-color:#ffffff" /><stop
         id="stop320"
         offset="1"
         style="stop-opacity:1;stop-color:#ffffff" /></linearGradient><clipPath
       id="clipPath328"
       clipPathUnits="userSpaceOnUse"><path
         id="path330"
         d="M 131.051,269.965 115.9,238.098 c -2.678,-5.637 -0.282,-12.373 5.353,-15.055 l 0,0 55.117,-26.203 c 5.635,-2.679 12.374,-0.284 15.054,5.351 l 0,0 15.15,31.868 c 2.679,5.633 0.284,12.373 -5.351,15.055 l 0,0 -55.119,26.2 c -1.567,0.746 -3.219,1.099 -4.845,1.099 l 0,0 c -4.223,0 -8.274,-2.38 -10.208,-6.448" /></clipPath><clipPath
       id="clipPath336"
       clipPathUnits="userSpaceOnUse"><path
         id="path338"
         d="m -32768,32767 65535,0 0,-65535 -65535,0 0,65535 z" /></clipPath><linearGradient
       id="linearGradient340"
       spreadMethod="pad"
       gradientTransform="matrix(75.523498,-35.909412,-35.909412,-75.523498,123.4751,254.03125)"
       gradientUnits="userSpaceOnUse"
       y2="0"
       x2="1"
       y1="0"
       x1="0"><stop
         id="stop342"
         offset="0"
         style="stop-opacity:1;stop-color:#ffffff" /><stop
         id="stop344"
         offset="0.84620983"
         style="stop-opacity:0;stop-color:#ffffff" /><stop
         id="stop346"
         offset="1"
         style="stop-opacity:0;stop-color:#ffffff" /></linearGradient><mask
       id="mask348"
       height="1"
       width="1"
       y="0"
       x="0"
       maskUnits="userSpaceOnUse"><g
         id="g350"><g
           id="g352"
           clip-path="url(#clipPath336)"><g
             id="g354"><g
               id="g356"><path
                 id="path358"
                 style="fill:url(#linearGradient340);stroke:none"
                 d="m -32768,32767 65535,0 0,-65535 -65535,0 0,65535 z" /></g></g></g></g></mask><linearGradient
       id="linearGradient364"
       spreadMethod="pad"
       gradientTransform="matrix(75.523498,-35.909412,-35.909412,-75.523498,123.4751,254.03125)"
       gradientUnits="userSpaceOnUse"
       y2="0"
       x2="1"
       y1="0"
       x1="0"><stop
         id="stop366"
         offset="0"
         style="stop-opacity:1;stop-color:#ffffff" /><stop
         id="stop368"
         offset="0.84620983"
         style="stop-opacity:1;stop-color:#ffffff" /><stop
         id="stop370"
         offset="1"
         style="stop-opacity:1;stop-color:#ffffff" /></linearGradient><clipPath
       id="clipPath378"
       clipPathUnits="userSpaceOnUse"><path
         id="path380"
         d="M 0,800 800,800 800,0 0,0 0,800 Z" /></clipPath><clipPath
       id="clipPath1068"
       clipPathUnits="userSpaceOnUse"><path
         id="path1070"
         d="m 535.766,493.862 23.324,0 0,-248.774 -23.324,0 0,248.774 z" /></clipPath><clipPath
       id="clipPath1072"
       clipPathUnits="userSpaceOnUse"><path
         id="path1074"
         d="m 535.766,245.088 23.324,0 0,248.774 -23.324,0 0,-248.774 z" /></clipPath><clipPath
       id="clipPath1076"
       clipPathUnits="userSpaceOnUse"><path
         id="path1078"
         d="m -32768,32767 65535,0 0,-65535 -65535,0 0,65535 z" /></clipPath><linearGradient
       id="linearGradient1080"
       spreadMethod="pad"
       gradientTransform="matrix(-1.09e-5,-248.7749,-248.7749,1.09e-5,547.42773,493.8623)"
       gradientUnits="userSpaceOnUse"
       y2="0"
       x2="1"
       y1="0"
       x1="0"><stop
         id="stop1082"
         offset="0"
         style="stop-opacity:1;stop-color:#ffffff" /><stop
         id="stop1084"
         offset="1"
         style="stop-opacity:0;stop-color:#ffffff" /></linearGradient><mask
       id="mask1086"
       height="1"
       width="1"
       y="0"
       x="0"
       maskUnits="userSpaceOnUse"><g
         id="g1088"><g
           id="g1090"
           clip-path="url(#clipPath1076)"><g
             id="g1092"><g
               id="g1094"><path
                 id="path1096"
                 style="fill:url(#linearGradient1080);stroke:none"
                 d="m -32768,32767 65535,0 0,-65535 -65535,0 0,65535 z" /></g></g></g></g></mask><linearGradient
       id="linearGradient1098"
       spreadMethod="pad"
       gradientTransform="matrix(-1.09e-5,-248.7749,-248.7749,1.09e-5,547.42773,493.8623)"
       gradientUnits="userSpaceOnUse"
       y2="0"
       x2="1"
       y1="0"
       x1="0"><stop
         id="stop1100"
         offset="0"
         style="stop-opacity:1;stop-color:#ffffff" /><stop
         id="stop1102"
         offset="1"
         style="stop-opacity:1;stop-color:#ffffff" /></linearGradient><clipPath
       id="clipPath1126"
       clipPathUnits="userSpaceOnUse"><path
         id="path1128"
         d="m 511.965,493.862 12.637,0 0,-248.774 -12.637,0 0,248.774 z" /></clipPath><clipPath
       id="clipPath1130"
       clipPathUnits="userSpaceOnUse"><path
         id="path1132"
         d="m 511.965,245.088 12.637,0 0,248.774 -12.637,0 0,-248.774 z" /></clipPath><clipPath
       id="clipPath1134"
       clipPathUnits="userSpaceOnUse"><path
         id="path1136"
         d="m -32768,32767 65535,0 0,-65535 -65535,0 0,65535 z" /></clipPath><linearGradient
       id="linearGradient1138"
       spreadMethod="pad"
       gradientTransform="matrix(-1.09e-5,-248.7749,-248.7749,1.09e-5,518.2832,493.8623)"
       gradientUnits="userSpaceOnUse"
       y2="0"
       x2="1"
       y1="0"
       x1="0"><stop
         id="stop1140"
         offset="0"
         style="stop-opacity:1;stop-color:#ffffff" /><stop
         id="stop1142"
         offset="1"
         style="stop-opacity:0;stop-color:#ffffff" /></linearGradient><mask
       id="mask1144"
       height="1"
       width="1"
       y="0"
       x="0"
       maskUnits="userSpaceOnUse"><g
         id="g1146"><g
           id="g1148"
           clip-path="url(#clipPath1134)"><g
             id="g1150"><g
               id="g1152"><path
                 id="path1154"
                 style="fill:url(#linearGradient1138);stroke:none"
                 d="m -32768,32767 65535,0 0,-65535 -65535,0 0,65535 z" /></g></g></g></g></mask><linearGradient
       id="linearGradient1156"
       spreadMethod="pad"
       gradientTransform="matrix(-1.09e-5,-248.7749,-248.7749,1.09e-5,518.2832,493.8623)"
       gradientUnits="userSpaceOnUse"
       y2="0"
       x2="1"
       y1="0"
       x1="0"><stop
         id="stop1158"
         offset="0"
         style="stop-opacity:1;stop-color:#ffffff" /><stop
         id="stop1160"
         offset="1"
         style="stop-opacity:1;stop-color:#ffffff" /></linearGradient><clipPath
       id="clipPath1218"
       clipPathUnits="userSpaceOnUse"><path
         id="path1220"
         d="m 327.352,437.763 c -15.361,-15.361 -15.361,-40.267 0,-55.627 l 0,0 c 15.361,-15.361 40.266,-15.361 55.626,0 l 0,0 c 15.361,15.36 15.361,40.265 0,55.627 l 0,0 c -7.68,7.68 -17.746,11.52 -27.813,11.52 l 0,0 c -10.066,0 -20.133,-3.84 -27.813,-11.52" /></clipPath><clipPath
       id="clipPath1226"
       clipPathUnits="userSpaceOnUse"><path
         id="path1228"
         d="m -32768,32767 65535,0 0,-65535 -65535,0 0,65535 z" /></clipPath><radialGradient
       id="radialGradient1230"
       spreadMethod="pad"
       gradientTransform="matrix(-33.244743,-33.244743,-33.244743,33.244743,355.16602,409.94971)"
       gradientUnits="userSpaceOnUse"
       r="1"
       cy="0"
       cx="0"
       fy="0.65740103"
       fx="-0.75354099"><stop
         id="stop1232"
         offset="0"
         style="stop-opacity:0;stop-color:#ffffff" /><stop
         id="stop1234"
         offset="0.79072186"
         style="stop-opacity:0;stop-color:#ffffff" /><stop
         id="stop1236"
         offset="1"
         style="stop-opacity:1;stop-color:#ffffff" /></radialGradient><mask
       id="mask1238"
       height="1"
       width="1"
       y="0"
       x="0"
       maskUnits="userSpaceOnUse"><g
         id="g1240"><g
           id="g1242"
           clip-path="url(#clipPath1226)"><g
             id="g1244"><g
               id="g1246"><path
                 id="path1248"
                 style="fill:url(#radialGradient1230);stroke:none"
                 d="m -32768,32767 65535,0 0,-65535 -65535,0 0,65535 z" /></g></g></g></g></mask><radialGradient
       id="radialGradient1254"
       spreadMethod="pad"
       gradientTransform="matrix(-33.244743,-33.244743,-33.244743,33.244743,355.16602,409.94971)"
       gradientUnits="userSpaceOnUse"
       r="1"
       cy="0"
       cx="0"
       fy="0.65740103"
       fx="-0.75354099"><stop
         id="stop1256"
         offset="0"
         style="stop-opacity:1;stop-color:#ffffff" /><stop
         id="stop1258"
         offset="0.79072186"
         style="stop-opacity:1;stop-color:#ffffff" /><stop
         id="stop1260"
         offset="1"
         style="stop-opacity:1;stop-color:#ffffff" /></radialGradient><clipPath
       id="clipPath1268"
       clipPathUnits="userSpaceOnUse"><path
         id="path1270"
         d="M 0,800 800,800 800,0 0,0 0,800 Z" /></clipPath><clipPath
       id="clipPath1316"
       clipPathUnits="userSpaceOnUse"><path
         id="path1318"
         d="m 331.341,438.377 51.004,0 0,-13.144 -51.004,0 0,13.144 z" /></clipPath><clipPath
       id="clipPath1356"
       clipPathUnits="userSpaceOnUse"><path
         id="path1358"
         d="M 0,800 800,800 800,0 0,0 0,800 Z" /></clipPath><clipPath
       id="clipPath1364"
       clipPathUnits="userSpaceOnUse"><path
         id="path1366"
         d="m 606.422,414.358 160.374,0 0,-137.188 -160.374,0 0,137.188 z" /></clipPath><clipPath
       id="clipPath1368"
       clipPathUnits="userSpaceOnUse"><path
         id="path1370"
         d="m 741.096,277.17 c 0,31.144 26.023,20.086 25.697,53.59 -0.326,33.504 -28.391,37.082 -28.391,83.598 l -131.98,0 c 0,-46.516 28.064,-50.094 28.389,-83.598 0.326,-33.504 -25.698,-22.446 -25.698,-53.59 l 131.983,0 z" /></clipPath><clipPath
       id="clipPath1372"
       clipPathUnits="userSpaceOnUse"><path
         id="path1374"
         d="m -32768,32767 65535,0 0,-65535 -65535,0 0,65535 z" /></clipPath><linearGradient
       id="linearGradient1376"
       spreadMethod="pad"
       gradientTransform="matrix(-7.1e-6,162.86134,162.86134,7.1e-6,686.60938,249.47949)"
       gradientUnits="userSpaceOnUse"
       y2="0"
       x2="1"
       y1="0"
       x1="0"><stop
         id="stop1378"
         offset="0"
         style="stop-opacity:1;stop-color:#ffffff" /><stop
         id="stop1380"
         offset="0.69471461"
         style="stop-opacity:0;stop-color:#ffffff" /><stop
         id="stop1382"
         offset="1"
         style="stop-opacity:0;stop-color:#ffffff" /></linearGradient><mask
       id="mask1384"
       height="1"
       width="1"
       y="0"
       x="0"
       maskUnits="userSpaceOnUse"><g
         id="g1386"><g
           id="g1388"
           clip-path="url(#clipPath1372)"><g
             id="g1390"><g
               id="g1392"><path
                 id="path1394"
                 style="fill:url(#linearGradient1376);stroke:none"
                 d="m -32768,32767 65535,0 0,-65535 -65535,0 0,65535 z" /></g></g></g></g></mask><linearGradient
       id="linearGradient1396"
       spreadMethod="pad"
       gradientTransform="matrix(-7.1e-6,162.86134,162.86134,7.1e-6,686.60938,249.47949)"
       gradientUnits="userSpaceOnUse"
       y2="0"
       x2="1"
       y1="0"
       x1="0"><stop
         id="stop1398"
         offset="0"
         style="stop-opacity:1;stop-color:#ffffff" /><stop
         id="stop1400"
         offset="0.69471461"
         style="stop-opacity:1;stop-color:#ffffff" /><stop
         id="stop1402"
         offset="1"
         style="stop-opacity:1;stop-color:#ffffff" /></linearGradient></defs><g
     transform="matrix(1.25,0,0,-1.25,-17.207625,424.64127)"
     id="g10"><g
       transform="translate(6.7796583,-2.5423753)"
       id="g4052"><path
         id="path214"
         style="fill:#1e88e5;fill-opacity:1;fill-rule:nonzero;stroke:none"
         d="m 129.3554,248.61413 c 0,16.153 -12.872,28.492 -28.979,28.409 -17.240005,-0.088 -29.308006,-14.65 -28.029006,-31.25 1.044,-13.557 12.370001,-24.742 25.758001,-25.758 10.147005,-0.77 15.747005,2.68 21.779005,7.008 0.675,-0.947 1.733,-0.953 2.084,-2.083 0.243,-0.782 -0.313,-1.79 0,-2.841 0.734,-2.461 5.159,-5.539 7.198,-7.576 2.205,-2.206 5.126,-6.707 7.954,-7.008 2.761,-0.293 4.968,1.752 4.546,4.735 -0.38,2.678 -4.558,5.694 -6.819,7.955 -2.178,2.177 -5.439,6.373 -7.954,7.007 -0.991,0.25 -1.996,-0.218 -2.652,0 -1.089,0.364 -1.09,1.725 -2.083,2.273 4.06,5.206 7.197,10.556 7.197,19.129" /><path
         id="path218"
         style="fill:#ffffff;fill-opacity:1;fill-rule:nonzero;stroke:none"
         d="m 77.081994,250.31863 c -1.05,-14.658 10.087001,-24.731 21.780001,-25.568 13.563005,-0.972 27.195005,9.666 25.569005,26.326 -1.216,12.459 -12.226,22.479 -26.515005,20.833 -11.219,-1.292 -20.017001,-10.18 -20.834001,-21.591" /><circle
         r="4.8931317"
         cy="-249.12024"
         cx="90.225273"
         id="path4144-1"
         style="opacity:1;fill:#c62828;fill-opacity:1;stroke:none;stroke-width:3;stroke-linecap:round;stroke-linejoin:round;stroke-miterlimit:9.14285755;stroke-dasharray:none;stroke-opacity:1"
         transform="scale(1,-1)" /></g></g></svg>