<?xml version="1.0" encoding="UTF-8" standalone="no"?>
<!-- Generator: Adobe Illustrator 21.0.0, SVG Export Plug-In . SVG Version: 6.00 Build 0)  -->

<svg
   xmlns:dc="http://purl.org/dc/elements/1.1/"
   xmlns:cc="http://creativecommons.org/ns#"
   xmlns:rdf="http://www.w3.org/1999/02/22-rdf-syntax-ns#"
   xmlns:svg="http://www.w3.org/2000/svg"
   xmlns="http://www.w3.org/2000/svg"
   xmlns:sodipodi="http://sodipodi.sourceforge.net/DTD/sodipodi-0.dtd"
   xmlns:inkscape="http://www.inkscape.org/namespaces/inkscape"
   version="1.1"
   id="svg2"
   inkscape:version="0.92+devel unknown"
   sodipodi:docname="feinfineart.svg"
   x="0px"
   y="0px"
   viewBox="0 0 843.75001 627.55159"
   xml:space="preserve"
   width="900"
   height="669.38837"><metadata
     id="metadata18"><rdf:RDF><cc:Work
         rdf:about=""><dc:format>image/svg+xml</dc:format><dc:type
           rdf:resource="http://purl.org/dc/dcmitype/StillImage" /><dc:title></dc:title></cc:Work></rdf:RDF></metadata><defs
     id="defs16" /><sodipodi:namedview
     bordercolor="#666666"
     borderopacity="1"
     gridtolerance="10"
     guidetolerance="10"
     id="namedview4"
     inkscape:current-layer="svg2"
     inkscape:cx="57.027451"
     inkscape:cy="338.9047"
     inkscape:pageopacity="0"
     inkscape:pageshadow="2"
     inkscape:window-height="1013"
     inkscape:window-maximized="1"
     inkscape:window-width="1680"
     inkscape:window-x="3600"
     inkscape:window-y="10"
     inkscape:zoom="0.48918155"
     objecttolerance="10"
     pagecolor="#ffffff"
     showgrid="false"
     fit-margin-top="0"
     fit-margin-left="0"
     fit-margin-right="0"
     fit-margin-bottom="0" /><g
     id="g13"
     transform="matrix(1.9562475,0,0,1.9562475,49.405491,20.436493)"><polygon
       points="142.9,190.7 163.2,47.2 158.5,47.2 138.2,190.7 "
       id="polygon3" /><g
       id="g11"><path
         d="m 336.9,272.9 c 1.6,1.5 3.8,2.3 6.6,2.3 1.9,0 4,-0.4 5.8,-1.3 1.9,-0.9 3.7,-2 5,-3.6 l -0.9,-2.1 c -0.1,-0.1 -0.1,-0.3 -0.3,-0.4 -0.1,-0.1 -0.3,-0.1 -0.4,-0.1 -0.1,0 -0.5,0.1 -0.9,0.5 -0.4,0.4 -0.9,0.8 -1.6,1.2 -0.7,0.4 -1.3,0.8 -2.3,1.2 -0.8,0.4 -1.9,0.5 -3.1,0.5 -1.6,0 -3.1,-0.5 -4.1,-1.5 -1.1,-0.9 -1.6,-2.7 -1.6,-4.8 0,-0.1 0,-0.4 0,-0.7 0,-0.3 0,-0.7 0.1,-1.2 0.1,-0.5 0.1,-1.2 0.3,-2.1 0.1,-0.9 0.3,-2 0.4,-3.5 l 3.6,-28.9 h 14.9 l 0.4,-3.7 h -14.9 l 2.4,-19.6 H 344 c -0.4,0 -0.7,0.1 -0.8,0.4 -0.3,0.3 -0.4,0.5 -0.4,0.8 l -3.5,18.4 -8.1,0.7 -0.3,2 c 0,0.7 0.4,0.9 1.1,0.9 h 6.8 l -3.6,29.2 c -0.1,1.5 -0.3,2.8 -0.4,3.7 -0.1,0.9 -0.3,1.7 -0.3,2.4 0,0.7 -0.1,1.1 -0.1,1.3 0,0.3 0,0.5 0,0.8 0,3.4 0.8,5.8 2.5,7.2 m -67.6,1.6 3.2,-26.1 c 2,-6.8 4.6,-12.1 7.4,-15.7 3.1,-3.7 6.2,-5.4 10,-5.4 1.3,0 2.9,0.3 4.5,0.8 l 0.8,-4.6 c -1.5,-0.5 -2.9,-0.8 -4.4,-0.8 -3.5,0 -6.5,1.5 -9.7,4.5 -3.1,3.1 -5.7,7.3 -8.1,13 l 1.5,-15.3 c 0,-1.2 -0.5,-1.9 -1.7,-1.9 h -2.1 l -6.1,51.4 z m -81.1,-7.3 c -1.5,-2.7 -2.3,-6.1 -2.3,-10.7 0,-2.7 0.3,-5.2 0.9,-7.6 0.7,-2.4 1.5,-4.9 2.8,-7 1.2,-2.1 2.7,-4.4 4.1,-6.2 1.6,-1.9 3.5,-3.6 5.3,-4.9 1.9,-1.3 4,-2.4 6.1,-3.3 2.1,-0.8 4.4,-1.2 6.6,-1.2 2.2,0 4.6,0.3 6.5,1.1 l -2.7,20.8 c -1.2,3.5 -2.7,6.5 -4.1,9.4 -1.5,2.9 -3.2,5.3 -4.9,7.2 -1.7,2 -3.6,3.6 -5.4,4.6 -1.8,1 -3.8,1.6 -5.8,1.6 -3.1,0.1 -5.7,-1.1 -7.1,-3.8 M 223.3,225 c -1.7,-0.9 -3.6,-1.5 -5.3,-1.9 -1.7,-0.4 -3.7,-0.5 -5.7,-0.5 -2.9,0 -5.6,0.4 -8.2,1.3 -2.6,0.9 -5.2,2.1 -7.4,3.7 -2.2,1.6 -4.5,3.5 -6.4,5.6 -1.9,2.1 -3.6,4.5 -4.9,7 -1.3,2.7 -2.4,5.3 -3.3,8.2 -0.8,2.9 -1.1,5.8 -1.1,8.8 0,2.8 0.3,5.2 0.8,7.3 0.5,2.1 1.3,4.1 2.4,5.6 1.1,1.5 2.4,2.8 4.1,3.6 1.6,0.8 3.6,1.2 5.7,1.2 2,0 4.1,-0.4 6.1,-1.3 1.9,-0.9 3.8,-2.1 5.6,-3.8 1.7,-1.6 3.5,-3.6 5,-5.8 1.5,-2.3 3.1,-4.8 4.4,-7.4 l -1.6,16.1 c 0,0.4 0.1,0.8 0.4,1.1 0.3,0.3 0.7,0.4 1.3,0.4 h 2.3 z"
         id="path5"
         inkscape:connector-curvature="0" /><path
         d="m 204.2,98.4 3.2,-27.1 c 1.2,-3.2 2.8,-6.1 4.2,-8.6 1.6,-2.7 3.3,-4.8 5.2,-6.5 1.7,-1.7 3.7,-3.2 5.7,-4.2 1.9,-0.9 4,-1.5 5.8,-1.5 2.9,0 4.9,0.9 6.2,2.8 1.3,1.7 2,4.5 2,8 0,1.3 -0.1,2.9 -0.3,4.5 l -3.8,32.8 h 4.9 C 238,92.9 238.5,88 239,84 c 0.4,-4 0.8,-7.3 1.2,-10 0.3,-2.8 0.5,-4.8 0.7,-6.2 0.2,-1.4 0.3,-2.8 0.4,-3.7 0.1,-0.8 0.1,-1.5 0.1,-1.9 0,-0.4 0,-0.7 0,-1.1 0,-4.6 -0.9,-8.4 -2.9,-10.7 -2,-2.4 -4.8,-3.8 -8.6,-3.8 -2,0 -4.1,0.4 -6,1.2 -2,0.8 -4,1.9 -5.8,3.5 -1.9,1.5 -3.7,3.3 -5.4,5.4 -1.6,2.1 -3.3,4.6 -4.6,7.2 L 209.6,49 c 0,-1.2 -0.5,-1.9 -1.7,-1.9 h -2.1 l -6.5,51.5 h 5 z M 107.5,50.7 c 1.2,0.4 2.1,1.1 3.1,1.7 0.9,0.7 1.2,1.5 1.6,2.3 0.3,0.8 0.5,1.6 0.5,2.3 0,0.9 -0.1,1.9 -0.4,2.9 -0.3,0.9 -0.8,1.7 -1.5,2.8 -0.8,0.8 -1.7,1.7 -3.2,2.7 -1.3,0.8 -3.2,1.6 -5.3,2.3 -2.1,0.7 -4.9,1.3 -8.1,2 -3.2,0.7 -6.9,1.2 -11.3,1.6 0.5,-2.8 1.3,-5.4 2.7,-8.1 1.1,-2.7 2.7,-4.8 4.2,-6.8 1.6,-1.9 3.7,-3.6 5.8,-4.6 2.1,-1.2 4.6,-1.7 7.4,-1.7 1.8,-0.1 3.3,0 4.5,0.6 m 8.8,2.8 c -0.5,-1.2 -1.2,-2.3 -2.3,-3.5 -1.1,-1.1 -2.4,-1.9 -4.2,-2.7 -1.9,-0.8 -3.8,-1.1 -6.4,-1.1 -2.8,0 -5.2,0.4 -7.6,1.3 -2.4,0.9 -4.5,2 -6.4,3.7 -1.9,1.5 -3.7,3.5 -5.2,5.4 -1.5,2 -2.8,4.4 -3.8,6.8 -0.9,2.4 -1.7,4.9 -2.3,7.4 -0.5,2.5 -0.8,5.2 -0.8,7.8 0,3.2 0.4,5.8 1.2,8.4 0.8,2.4 1.9,4.6 3.5,6.2 1.5,1.7 3.5,3.2 5.6,4 2.1,0.9 4.8,1.3 7.6,1.3 2,0 3.8,-0.1 5.6,-0.5 1.7,-0.4 3.5,-0.9 5,-1.7 1.5,-0.8 3.3,-1.9 4.9,-3.2 1.6,-1.2 3.3,-2.9 4.9,-4.6 l -1.1,-1.3 c -0.3,-0.3 -0.7,-0.5 -1.1,-0.5 -0.4,0 -0.8,0.1 -1.3,0.5 -0.5,0.4 -1.1,0.9 -1.7,1.5 -0.7,0.7 -1.5,1.2 -2.3,1.9 -0.8,0.7 -1.9,1.3 -3.1,1.9 -1.1,0.7 -2.4,1.1 -4,1.5 -1.5,0.4 -3.2,0.5 -4.9,0.5 C 91.5,94.5 87.9,93 85.6,90.1 83.3,87.2 82,83.2 82,78.2 c 0,-0.7 0,-1.3 0,-2 0,-0.7 0.1,-1.3 0.1,-2.1 4.8,-0.5 9,-1.1 12.5,-1.7 3.6,-0.7 6.6,-1.3 9.3,-2.3 2.7,-0.8 4.6,-1.7 6.4,-2.8 1.6,-0.9 3.1,-2 4,-3.3 0.9,-1.1 1.6,-2.3 2,-3.6 0.4,-1.2 0.5,-2.7 0.5,-4 0.1,-0.5 -0.1,-1.7 -0.5,-2.9 M 48.8,52.4 49.3,48.8 H 34.9 l 0.8,-6.4 c 0.3,-2.7 0.8,-4.8 1.6,-6.5 0.8,-1.7 1.6,-3.3 2.8,-4.4 1.1,-1.1 2.3,-1.9 3.7,-2.4 1.3,-0.5 2.9,-0.8 4.4,-0.8 0.9,0 1.6,0 2.3,0.3 0.8,0.1 1.3,0.1 1.7,0.1 0.5,0 0.7,-0.1 0.8,-0.5 l 0.5,-2.4 c -0.8,-0.4 -1.6,-0.5 -2.7,-0.8 -1.1,-0.1 -2,-0.3 -3.1,-0.3 -2.1,0 -4.2,0.4 -6.1,1.1 -1.9,0.7 -3.6,1.9 -5,3.3 -1.5,1.5 -2.8,3.5 -3.7,5.6 -1.1,2.1 -1.6,4.8 -2,7.8 L 30.1,49 h -7.8 c -0.1,1 -0.3,1.5 -0.3,1.7 0,0.1 0,0.3 0,0.3 0,0.7 0.4,1.1 1.1,1.1 l 6.5,0.4 -7.2,58.9 h 1.7 c 0.7,0 1.2,-0.1 1.6,-0.5 0.4,-0.3 0.7,-0.8 0.8,-1.6 l 2.1,-11.8 5.4,-45 h 14.8 z"
         id="path7"
         inkscape:connector-curvature="0" /><path
         d="m 288.2,145.6 c 0.7,0.3 1.3,0.7 1.7,1.1 0.4,0.4 0.8,0.9 1.1,1.5 0.3,0.5 0.3,1.1 0.3,1.6 0,1.1 -0.3,2 -0.7,3.1 -0.4,0.9 -1.3,1.7 -2.9,2.7 -1.3,0.8 -3.5,1.6 -6,2.3 -2.7,0.7 -6,1.3 -10.2,1.9 0.5,-2 1.2,-4.1 2,-5.8 0.8,-1.7 1.9,-3.3 3.2,-4.5 1.2,-1.2 2.4,-2.3 4,-3.1 1.5,-0.7 3.2,-1.1 4.8,-1.1 1.1,-0.1 2.1,0 2.7,0.3 m 13.7,-1 c -0.7,-1.5 -1.7,-3.1 -3.2,-4.2 -1.3,-1.2 -3.2,-2.3 -5.2,-3.1 -2,-0.8 -4.5,-1.2 -7.3,-1.2 -2.8,0 -5.4,0.5 -8.1,1.3 -2.4,0.8 -4.8,1.9 -6.8,3.5 -2,1.5 -4,3.3 -5.6,5.3 -1.6,2 -3.1,4.2 -4.2,6.6 -1.1,2.4 -2,4.9 -2.7,7.6 -0.5,2.8 -0.9,5.4 -0.9,8.2 0,3.3 0.5,6.4 1.5,9 0.9,2.8 2.3,5 4.1,6.9 1.7,1.9 4,3.5 6.4,4.5 2.4,1.1 5.3,1.6 8.5,1.6 2.4,0 4.6,-0.3 6.6,-0.7 2,-0.4 4,-1.1 5.7,-1.9 1.7,-0.8 3.6,-1.9 5.3,-3.3 1.7,-1.5 3.6,-2.9 5.3,-4.8 l -3.3,-4 c -0.3,-0.4 -0.7,-0.7 -1.1,-0.8 -0.4,-0.1 -0.8,-0.3 -1.2,-0.3 -0.7,0 -1.3,0.1 -1.9,0.4 -0.5,0.3 -1.2,0.7 -1.7,1.1 -0.5,0.4 -1.2,0.8 -1.9,1.3 -0.7,0.5 -1.5,0.9 -2.3,1.3 -0.8,0.4 -1.9,0.8 -3.1,1.1 -1.2,0.3 -2.4,0.4 -4,0.4 -7,0 -10.6,-4.1 -10.6,-12.5 v -0.7 c 6.4,-0.7 11.7,-1.5 15.9,-2.7 4.2,-1.1 7.4,-2.4 10,-4 2.4,-1.5 4.1,-3.3 5,-5.3 0.9,-1.9 1.3,-4.1 1.3,-6.5 0.6,-1 0.2,-2.5 -0.5,-4.1 m -107.4,45.1 2.9,-26 c 0.7,-2.7 1.6,-5 2.8,-7 1.1,-2.1 2.4,-4 3.8,-5.4 1.3,-1.5 2.9,-2.8 4.4,-3.6 1.5,-0.8 3.1,-1.2 4.4,-1.2 1.7,0 3.1,0.5 3.8,1.5 0.7,1 1.2,2.7 1.2,4.9 0,0.1 0,0.4 0,0.7 0,0.3 -0.1,0.8 -0.1,1.6 -0.1,0.8 -0.3,1.9 -0.4,3.6 -0.1,1.5 -0.4,3.7 -0.7,6.2 -0.3,2.7 -0.7,6 -1.2,10.1 -0.5,4.1 -1.1,9 -1.7,14.7 h 12.6 l 4,-33.7 c 0.1,-0.7 0.1,-1.3 0.1,-2 0,-0.7 0.1,-1.3 0.1,-2 0,-2.7 -0.3,-4.9 -0.9,-6.8 -0.7,-1.9 -1.5,-3.7 -2.7,-5 -1.1,-1.3 -2.4,-2.4 -4.1,-3.2 -1.6,-0.7 -3.5,-1.1 -5.3,-1.1 -3.5,0 -6.8,0.9 -10.1,2.9 -3.3,1.9 -6.2,4.9 -8.9,8.9 l 0.4,-6.8 c 0,-1.5 -0.4,-2.4 -1.1,-3.2 -0.7,-0.8 -1.7,-0.9 -3.2,-0.9 h -6.5 l -6.2,52.8 z m -83,-43.2 1.2,-9.2 h -11.8 l 0.4,-3.6 c 0.3,-1.9 0.7,-3.7 1.2,-4.9 0.5,-1.2 1.2,-2.4 2.1,-3.3 0.8,-0.8 1.9,-1.5 3.1,-1.7 1.1,-0.4 2.4,-0.5 3.8,-0.5 0.5,0 0.9,0 1.3,0 0.4,0 0.8,-0.1 1.2,-0.3 0.4,-0.1 0.7,-0.3 0.9,-0.5 0.2,-0.2 0.4,-0.5 0.5,-0.9 l 1.1,-6.5 c -1.9,-0.7 -3.8,-0.9 -6.1,-0.9 -2.9,0 -5.4,0.4 -8,1.3 -2.4,0.9 -4.6,2.1 -6.4,3.8 -1.9,1.6 -3.5,3.7 -4.6,6.1 -1.2,2.4 -2,5.2 -2.4,8.2 l -0.4,4 h -7 c -0.1,1.3 -0.3,2.3 -0.4,3.2 -0.1,0.7 -0.1,1.2 -0.1,1.6 0,0.4 0,0.5 -0.1,0.7 0,0.1 0,0.1 0,0.3 0,0.8 0.3,1.3 0.7,1.7 0.5,0.4 1.1,0.7 1.9,0.8 l 4.1,0.7 -6.8,56 h 5 c 1.9,0 3.3,-0.4 4.4,-1.3 0.9,-0.9 1.7,-2.1 2.1,-3.8 l 2.7,-9.7 5,-41.1 z"
         id="path9"
         inkscape:connector-curvature="0" /></g></g></svg>