<?xml version="1.0" encoding="utf-8"?>
<!-- Generator: Adobe Illustrator 21.0.0, SVG Export Plug-In . SVG Version: 6.00 Build 0)  -->
<svg version="1.1" id="Ebene_1" xmlns="http://www.w3.org/2000/svg" xmlns:xlink="http://www.w3.org/1999/xlink" x="0px" y="0px"
	 viewBox="0 0 800 800" style="enable-background:new 0 0 800 800;" xml:space="preserve">
<style type="text/css">
	.st0{fill:#397ABA;}
	.st1{fill:none;stroke:#331E12;stroke-width:47.95;stroke-linecap:round;stroke-linejoin:round;}
	.st2{fill:none;stroke:#4F3A2F;stroke-width:47.95;stroke-linecap:round;stroke-linejoin:round;}
	.st3{fill:#3B80C5;}
	.st4{fill:#1B1B19;}
	.st5{fill:#E7D6C2;}
	.st6{fill:#331E12;}
	.st7{fill:#5B463B;}
	.st8{fill:#4F3A2F;}
	.st9{fill:none;stroke:#331E12;stroke-width:11.99;stroke-linecap:round;stroke-linejoin:round;}
</style>
<path class="st0" d="M317.5,641.8c0,0,110.3-36.7,208.3,1.5l-1.3,27.5l-207-4.8V641.8z"/>
<title>manu</title>
<path class="st1" d="M390.4,148.8c0,0,17.7-114.7,113.8-144.8"/>
<path class="st2" d="M406.9,135.1c0,0,59.4-99.7,159.8-91.6"/>
<path class="st2" d="M127.1,258.4c0,0,54.1-102.7,154.8-99.9"/>
<path class="st1" d="M427.8,137.6c0,0,87.3-76.5,180.3-37.8"/>
<path class="st1" d="M475.4,148.4c0,0,105.8-47.7,183.5,16.6"/>
<path class="st1" d="M178,109.4c0,0,109.6-38.2,181.3,32.5"/>
<path class="st1" d="M222.2,39.6c0,0,116-2.5,162.4,87"/>
<path class="st3" d="M607.8,709c-7.2-8.4-16.3-15-26.6-19.1c-10.4-4-21.4-5.3-30.7-3.2c-4.3,0.8-8.3,2.4-11.9,4.8
	c-3.2,2-6,4.6-8.2,7.7c-4.2,5.9-5.8,12.6-6,19.7c0,14.2,4.4,27.3,3.6,37.1s-3.7,14.4,1.1,19.7l0.6,0.8c0.4,0.6,1,1.1,1.8,2.3
	c2.5,3.4,4.7,7,6.8,10.7c5.7,9.9,12.5,26.6,18.1,44.7s10.2,37.5,13.2,52.2s4.7,24.8,4.7,24.8l101.5-17.8c0,0-1.8-11.1-5.3-27.8
	s-8.6-39.1-15.6-61.9s-16.2-46-26.4-64.1c-4.2-7.6-8.9-15-14-22c-1.9-2.7-3.8-4.8-4.9-6.3L607.8,709"/>
<path class="st3" d="M311.7,775.7c4.8-5.3,1.9-10,1.1-19.7s3.6-22.9,3.6-37.1c-0.1-7.1-1.7-13.8-6-19.7c-2.2-3.1-5-5.7-8.2-7.7
	c-3.6-2.4-7.7-4-11.9-4.8c-9.3-2.1-20.3-0.8-30.7,3.2c-10.3,4.1-19.4,10.7-26.6,19.1c0,0-0.6,0.8-1.8,2.2s-3,3.6-4.9,6.3
	c-5.1,7-9.8,14.4-14,22c-10.2,18.1-19.4,41.4-26.4,64.1s-12.2,45.2-15.6,61.9s-5.3,27.8-5.3,27.8l101.5,17.8c0,0,1.7-10.1,4.7-24.8
	s7.5-34.1,13.1-52.2s12.4-34.8,18.1-44.7c2-3.7,4.2-7.3,6.7-10.7c0.8-1.2,1.4-1.8,1.8-2.3L311.7,775.7z"/>
<path class="st4" d="M563,684c-34-7.6-86.4-16.7-140.9-16.8s-107.2,9.2-141.2,16.8c-21.5,4.8-38.7,27.7-38.7,49.7v512.2h359.5V733.7
	C601.7,711.7,584.5,688.7,563,684"/>
<path class="st5" d="M496.6,637l5.6,40.4c0,0-34.7,42-81.1,42s-81.1-41.9-81.1-41.9l5.6-40.5H496.6z"/>
<path class="st5" d="M653.1,391.1c0,26.1-21.2,47.2-47.2,47.2s-47.2-21.2-47.2-47.2s21.2-47.2,47.2-47.2c0,0,0,0,0,0
	C631.9,343.8,653.1,365,653.1,391.1"/>
<path class="st5" d="M267.9,391.1c0,26.1-21.2,47.2-47.2,47.2s-47.2-21.2-47.2-47.2s21.2-47.2,47.2-47.2
	C246.7,343.8,267.9,365,267.9,391.1"/>
<path class="st5" d="M361.1,112.5c-126.2,0-160.6,242.1-160.6,242.1s36.8,284.5,160.6,299.8h80c54.5,1.7,164.9-74.8,181-301.6
	C622.1,352.9,672.1,97.2,361.1,112.5"/>
<path class="st6" d="M409.1,574.9c62.8,3.4,87.5-16.4,88.5-17.3c3.1-2.6,3.5-7.3,0.9-10.4c-0.2-0.3-0.4-0.5-0.7-0.7
	c-3.3-3.1-8.5-3.3-12.1-0.4c-0.5,0.4-21.7,17.7-75.6,13.2c-31.5-2.6-50.5-9.8-50.6-10c-5.4-2.8-8.4-3.8-12.1-1.2
	c-3.3,2.3-4.1,6.9-1.8,10.2c0.2,0.2,0.4,0.5,0.6,0.7C347.1,560,371.8,572.8,409.1,574.9"/>
<path class="st7" d="M456.8,319.5c-14,10.1-1.7,23.9,47.9,17.8c56.9-7,61.7,3.9,71.5,9.2s-3.4-24.7-37.3-30.1
	S456.8,319.5,456.8,319.5"/>
<path class="st7" d="M383.7,319.5c14,10.1,1.7,23.9-47.9,17.8c-56.9-7-61.7,3.9-71.5,9.2s3.4-24.7,37.3-30.1
	S383.7,319.5,383.7,319.5"/>
<path class="st7" d="M361.3,661.1c17.5,7.6,62.7,4.9,76.9,0.8c4.9-1.4,66.5-15.8,101.5-64c-69.7,72-96.8,24.8-137.7,24.8
	s-41.7,56-118.9-22.1C315.8,649.9,361.3,661.1,361.3,661.1"/>
<path class="st8" d="M601.3,284.1c0,0,8,140.6,8,158s13.3-73.6,13.3-95.5S601.3,284.1,601.3,284.1"/>
<path class="st8" d="M224,284.1c0,0-6.7,135.5-6.7,152.9s-11.2-65.6-15.3-89L224,284.1z"/>
<path class="st3" d="M211.8,205.9L201.6,348c0,0,57.6-130.1,214.1-130.1S620.1,346.5,623,347c2.9-5.3,6.8-135.9,6.8-135.9
	c-10.2-47.6-80.7-120.6-214.1-119C273,93.8,211.8,205.9,211.8,205.9"/>
<path class="st3" d="M317.5,692.5v-49.3c0,0,56.6,51.6,93.1,65.9l-9,42.8L317.5,692.5z"/>
<path class="st3" d="M525.8,692.5v-49.3c0,0-67.8,43.5-88.7,64.6l4.6,44.2L525.8,692.5z"/>
<path class="st3" d="M564,684c-73.2-23.8-64.1,17-121.8,66.3l-23.8,478.8l184.3,16.8V733.7C602.7,711.7,585.6,688.7,564,684"/>
<path class="st3" d="M280.1,684c73.2-23.8,63.6,15.7,121.4,64.9l-5.4,482.9l-154.6,4.1V733.7C241.4,711.7,258.5,688.7,280.1,684"/>
<path class="st4" d="M387.9,779c3.8,0,6.9-0.8,6.9-1.8s-3.1-1.8-6.9-1.8s-6.9,0.8-6.9,1.8S384.1,779,387.9,779"/>
<path class="st4" d="M450.8,785.1c3.6-0.2,6.4-3.3,6.2-6.9s-3.3-6.4-6.9-6.2c-3.5,0.2-6.2,3-6.2,6.5
	C444,782.3,447.1,785.2,450.8,785.1C450.8,785.1,450.8,785.1,450.8,785.1"/>
<path class="st9" d="M457.6,384.3c0,0,34.6-23.8,59.2,2.4"/>
<path class="st9" d="M372,384.3c0,0-31.1-23.8-59.1,2.4"/>
</svg>
