<?xml version="1.0" encoding="utf-8"?>
<!-- Generator: Adobe Illustrator 21.0.0, SVG Export Plug-In . SVG Version: 6.00 Build 0)  -->
<svg version="1.1" id="Ebene_1" xmlns="http://www.w3.org/2000/svg" xmlns:xlink="http://www.w3.org/1999/xlink" x="0px" y="0px"
	 viewBox="0 0 800 800" style="enable-background:new 0 0 800 800;" xml:space="preserve">
<style type="text/css">
	.st0{fill:#3B80C5;}
	.st1{fill:#E7D6C2;}
	.st2{fill:#F3F3F3;}
	.st3{fill:#D3C2B2;}
	.st4{fill:#3F1910;}
	.st5{fill:#4F3A2F;}
	.st6{fill:#634933;}
	.st7{fill:#969695;}
</style>
<g>
	<path class="st0" d="M524.9,652.9c-5.2-6-11.9-11.1-19.6-14.1c-7.7-3-15.8-3.9-22.7-2.4c-3.4,0.6-6.3,1.9-8.8,3.6
		c-2.5,1.6-4.5,3.5-6,5.7c-3.1,4.3-4.3,9.3-4.4,14.6c0,10.5,3.3,20.2,2.7,27.4c-0.6,7.2-2.8,10.6,0.8,14.5l0.5,0.6
		c0.3,0.4,0.8,0.8,1.3,1.7c1.2,1.7,2.9,4.1,5,7.9c4.2,7.3,9.2,19.6,13.4,33c4.1,13.4,7.5,27.7,9.7,38.6c2.2,10.9,3.5,18.3,3.5,18.3
		l75-13.2c0,0-1.4-8.2-3.9-20.5s-6.4-28.9-11.6-45.7c-5.2-16.8-12-34-19.5-47.4c-3.6-6.6-7.5-12.3-10.4-16.3c-1.4-2-2.8-3.6-3.6-4.6
		C525.3,653.4,524.9,652.9,524.9,652.9"/>
	<path class="st1" d="M593.1,1006.4l-0.4-18.4c-1.8-61.8-5.6-123.6-15.4-186.3l-2.1-12.7l-75,13.2l1.9,11.5
		c9,57.3,12.8,116.9,14.5,176.3l0.4,17.7c0.4,20.5,17.2,37.1,38.3,37.4C576.2,1045.5,593.5,1027.9,593.1,1006.4"/>
</g>
<polygon class="st2" points="497.4,787.5 496.5,783 571,767.5 572.1,772.6 "/>
<g>
	<path class="st0" d="M306.1,702.1c3.6-3.9,1.4-7.4,0.8-14.5c-0.6-7.2,2.7-16.9,2.7-27.4c-0.1-5.3-1.3-10.2-4.4-14.6
		c-1.6-2.2-3.6-4.1-6-5.7c-2.5-1.6-5.4-2.9-8.8-3.6c-6.9-1.5-15-0.6-22.7,2.4c-7.8,3-14.4,8.1-19.6,14.1c0,0-0.5,0.6-1.3,1.6
		c-0.8,1.1-2.2,2.7-3.6,4.6c-2.9,4-6.8,9.6-10.4,16.3c-7.5,13.3-14.3,30.5-19.5,47.4c-5.2,16.8-9,33.4-11.6,45.7
		c-2.6,12.4-3.9,20.5-3.9,20.5l75,13.2c0,0,1.2-7.4,3.5-18.3c2.2-10.9,5.6-25.2,9.7-38.6c4.1-13.4,9.2-25.7,13.4-33
		c2-3.8,3.8-6.2,5-7.9c0.6-0.9,1-1.3,1.3-1.7L306.1,702.1z"/>
	<path class="st1" d="M255.9,1007.7l0.4-17.7c1.7-59.4,5.5-119,14.5-176.3l1.9-11.5l-75-13.2l-2.1,12.7
		c-9.8,62.7-13.6,124.4-15.4,186.3l-0.4,18.4c-0.4,21.5,16.8,39,37.9,38.7C238.7,1044.8,255.6,1028.2,255.9,1007.7"/>
</g>
<polygon class="st2" points="200.8,772.6 201.8,767.5 276.4,783 275.5,787.5 "/>
<g>
	<path class="st0" d="M491.8,634.4C466.7,628.8,428,622,387.7,622c-40.4,0-79.2,6.8-104.4,12.4c-15.9,3.5-28.6,20.5-28.6,36.7v265.5
		h265.7V671.1C520.4,654.8,507.7,637.9,491.8,634.4"/>
	<path class="st2" d="M387.5,683.9c46.1,0,66.6-31.6,71-48.3l0.6-2.2l-0.6-5.4c-1.7-0.3-3.3-0.5-5-0.8l0.7,5.8l-0.4,1.4
		c-4.1,15.4-23.2,44.6-66.3,44.6s-62.2-29.2-66.3-44.6l-0.4-1.4l0.7-5.8c-1.7,0.3-3.4,0.5-5,0.8l-0.6,5.3l0.6,2.2
		C320.9,652.3,341.4,683.9,387.5,683.9"/>
</g>
<path class="st1" d="M442.7,599.6l4.2,29.9c0,0-25.6,31-59.9,31s-59.9-31-59.9-31l4.2-29.9H442.7z"/>
<path class="st3" d="M442.7,614.4c0,0-17.8,8.7-56,8.7c-38.3,0-56.5-8.7-56.5-8.7s30.3-6.4,56.5-6.4
	C412.8,608,442.7,614.4,442.7,614.4"/>
<path class="st1" d="M236.3,430.7c0,24.8-15.8,44.9-35.3,44.9s-35.3-20.1-35.3-44.9s15.8-44.9,35.3-44.9
	C220.5,385.8,236.3,405.9,236.3,430.7"/>
<path class="st1" d="M607.6,418.5c0,24.8-15.8,57.1-35.3,57.1S537,455.5,537,430.7s15.8-44.9,35.3-44.9
	C591.8,385.8,607.6,393.7,607.6,418.5"/>
<path class="st1" d="M569.9,301.5c0-85.3-69.1-166.6-154.4-166.6H353c-85.3,0-154.4,81.3-154.4,166.6v163
	c0,85.3,69.1,154.4,154.4,154.4h62.5c85.3,0,154.4-69.1,154.4-154.4V301.5z"/>
<path class="st4" d="M311.7,437.8c-4.1,0-7.5-3.3-7.5-7.5V422c0-6.5-5.3-11.8-11.8-11.8s-11.8,5.3-11.8,11.8v8.3
	c0,4.1-3.3,7.5-7.5,7.5c-4.1,0-7.5-3.3-7.5-7.5V422c0-14.7,12-26.7,26.7-26.7s26.7,12,26.7,26.7v8.3
	C319.2,434.4,315.9,437.8,311.7,437.8"/>
<path class="st4" d="M500.7,437.8c-4.1,0-7.5-3.3-7.5-7.5V422c0-6.5-5.3-11.8-11.8-11.8s-11.8,5.3-11.8,11.8v8.3
	c0,4.1-3.3,7.5-7.5,7.5c-4.1,0-7.5-3.3-7.5-7.5V422c0-14.7,12-26.7,26.7-26.7s26.7,12,26.7,26.7v8.3
	C508.1,434.4,504.8,437.8,500.7,437.8"/>
<path class="st5" d="M386.9,584.4c-54.7,0-74.9-21.4-75.8-22.3c-2.8-3-2.6-7.8,0.5-10.6c3-2.8,7.7-2.6,10.5,0.4
	c0.4,0.4,17.8,17.5,64.8,17.5c47.4,0,64.6-17.4,64.8-17.6c2.8-2.9,7.5-3.1,10.5-0.3s3.2,7.4,0.4,10.5
	C461.9,562.9,441.6,584.4,386.9,584.4"/>
<path class="st6" d="M469.5,173.3c-9.1,0.2-17.8,3.5-26.3,6.7c-8.6,3.3-17.1,6.5-25.7,9.7c-7.9,3-16.3,6-24.6,4.6
	c-3.8-0.7-7.3-2.2-11.1-2.9c-7.5-1.3-15,1-22.6,1.7c-7.5,0.7-16.3-1-20.2-7.5c-0.5-0.9-0.9-1.8-1.7-2.4c-2-1.6-4.8-0.2-7.2,0.6
	c-5.6,1.9-12.3,0-16-4.6c-4.3,3-10.2,3.5-14.9,1.3c-4.7-2.2-19.8-13.1-20.3-18.3c1.3,0.2,14.3,5.7,15,4.6
	c-15-5.3-22.1-20.5-23.7-30.9c1.4,0.1,8.8,6.3,10.2,6.4c-9.6-14.7-12.1-33.7-6.7-50.4c-1.2,4-1,8.4,0.5,12.3
	c1.3-6.1,4.5-11.7,9.2-15.9c0.8,2.7,1.6,5.4,2.4,8.1c1.2-21,17.9-40.1,38.5-44.2c-9.3,3.9-15.5,14-15.1,24c1.6-3.9,4.8-7.1,8.8-8.6
	c0.3,2.5,0.6,5,0.9,7.5c12.3-6.3,19.8-20.7,17.9-34.3c0.7,11.4,3.9,22.7,9.3,32.7c0.5-4.9,0.5-9.8,0-14.7c1.5,2.9,2.9,5.8,4.4,8.7
	c-0.1-3.8-0.2-7.7-0.3-11.5c9,10.3,20.5,18.2,33.3,23c-1.3-2.6-11.6-12.1-10.7-12.8c1.8,1.3,20.5,6.8,22.3,8.1
	c2.7-10.1,12.5-15.1,23.8-16.5c-4.9,5.7-9.9,6.8-7.6,11.9c3.9-3.5,8.6-6.1,13.6-7.5c0.8,2.7,1,5.6,0.8,8.4c3.4-3,6.8-6,10.2-8.9
	c-0.5,4.9-0.8,10.4,2.4,14.2c4,4.7,7.2,2.8,10.9-2.1c3.7-4.9,1.3-7.4,4-16.2c2.2,8.1,2,16.8-0.5,24.8c2.2-1.8,8.5-3.5,10.7-5.3
	c0.1,5.8-3,11.5-1.2,16.9c1.1-1.6,8.9-12,10-13.6c1.1,2.8-4.5,14.3-3.4,17.1c4.5-5.9,10.2-10.9,16.6-14.7
	c-3.4,7.1-3.3,15.7,0.4,22.6c2-2.6,3.9-5.1,5.9-7.7c-0.2,3.6-0.5,7.2-0.8,10.9c1.2-1.9,3.5-3.1,5.8-3c-1.3,2.3-0.8,5.5,1.1,7.3
	s5.1,2.1,7.4,0.7c-1.8,0.9-2.3,3.1-2.7,5c-1.5,8.7-3.1,17.4-4.6,26.1c0.6-2.1,1.2-4.3,1.8-6.4c-2.1,8-3.5,16.6-8.4,23.3
	C480.1,177.1,471.8,173.3,469.5,173.3"/>
<path class="st7" d="M563.6,386.2c0,0-11.8,4.1-12.7,4.1s-4-2.9-3.6-4.8s3.9-4,4.9-4s11.4,3.6,11.4,3.6L563.6,386.2L563.6,386.2z
	 M532.5,425.2c-2.4,12.2-11.3,24.7-16.2,30.1c-13.6,12.5-32,12.7-45.9,12.7c-35.1-1.6-42.3-13.6-50.8-26.1
	c-10.3-16.2-9.7-36.5-8.2-50.1c1.6-13.6,12.4-22.1,19.3-25.4c7-3.3,24.3-5.2,24.3-5.2c19.1-1.6,42.8,0.6,53.7,3.1
	c10.9,2.5,15.2,5.9,19.6,10.6c4.4,4.6,6.3,15.4,6.3,15.4C535.9,395.9,534.9,413,532.5,425.2 M340,441.9
	c-8.5,12.5-15.7,24.5-50.8,26.1c-13.9,0-32.4-0.2-45.9-12.7c-4.9-5.4-13.7-17.9-16.2-30.1c-2.4-12.2-3.4-29.3-2.1-34.9
	c0,0,1.9-10.8,6.3-15.4c4.4-4.6,8.7-8,19.6-10.6c10.9-2.6,34.6-4.8,53.7-3.1c0,0,17.3,1.9,24.3,5.2c7,3.3,17.8,11.8,19.3,25.4
	S350.3,425.7,340,441.9 M208.6,390.3c-0.9,0-12.7-4.1-12.7-4.1v-1.1c0,0,10.4-3.6,11.4-3.6s4.4,2.1,4.9,4
	C212.6,387.4,209.5,390.3,208.6,390.3 M575.1,375.6c-0.2-2.3-8.6-4.7-8.6-4.7s-10.5-2.5-21.3-6.8c-10.9-4.3-33.2-12.4-43.4-13.8
	c-10.2-1.4-34.8-2.8-48.7-0.9c-13.9,1.9-27.8,4.9-32.5,7.4c-4.6,2.6-9.3,5.6-11.4,7.2s-4.2,3.3-6,3c-1.9-0.2-6-3-6-3s-11,0-17.4,0.1
	c-6.4-0.1-17.4-0.1-17.4-0.1s-4.2,2.8-6,3c-1.9,0.2-3.9-1.4-6-3s-6.7-4.6-11.4-7.2c-4.6-2.6-18.6-5.6-32.5-7.4
	c-13.9-1.9-38.5-0.5-48.7,0.9c-10.2,1.4-32.5,9.5-43.4,13.8s-21.3,6.8-21.3,6.8s-8.4,2.3-8.6,4.7c-0.2,2.3,1.9,21.6,1.9,21.6
	s8.8,2.3,13.9,4.2c5.1,1.9,7.4,5.1,11.1,12.3c3.7,9.1,13.9,34.3,20.4,43.9c6.5,9.5,21.1,15.5,40.1,19.9c35,2.8,47.6-5.1,58.9-11.1
	c11.4-6,18.1-20.4,22-27.4c4-7,10.7-34.6,11.1-36.9c0.5-2.3-1-4.8-2.3-6.6c-1.3-1.9-2.4-5.7-2-8.4c0.5-2.7,1.8-5.6,7.6-7.5
	c3.7-1.2,9-1.8,12.5-2c3.4,0.2,8.8,0.8,12.5,2c5.8,2,7.2,4.9,7.7,7.5c0.5,2.7-0.7,6.5-2,8.4c-1.3,1.8-2.8,4.3-2.3,6.6
	c0.5,2.3,7.2,29.9,11.1,36.9s10.7,21.3,22,27.4c11.4,6,23.9,13.9,58.9,11.1c19-4.4,33.6-10.4,40.1-19.9s16.7-34.8,20.4-43.9
	c3.7-7.2,6-10.4,11.1-12.3s13.9-4.2,13.9-4.2S575.4,377.9,575.1,375.6"/>
</svg>
