<?xml version="1.0" encoding="utf-8"?>
<!-- Generator: Adobe Illustrator 21.0.0, SVG Export Plug-In . SVG Version: 6.00 Build 0)  -->
<svg version="1.1" id="Ebene_1" xmlns="http://www.w3.org/2000/svg" xmlns:xlink="http://www.w3.org/1999/xlink" x="0px" y="0px"
	 viewBox="0 0 800 800" style="enable-background:new 0 0 800 800;" xml:space="preserve">
<style type="text/css">
	.st0{fill:#1B0B02;}
	.st1{fill:#E7D6C2;}
	.st2{fill:#4F3A2F;}
	.st3{fill:none;stroke:#331E12;stroke-width:14.9459;stroke-linecap:round;stroke-linejoin:round;stroke-miterlimit:10;}
	.st4{fill:#AD3234;}
	.st5{fill:#FFFFFF;}
	.st6{opacity:0.41;}
	.st7{fill:#29170B;}
	.st8{fill:#B03D3E;}
</style>
<g>
	<rect x="200.3" y="491.2" class="st0" width="409.5" height="283.8"/>
	<g>
		<path class="st1" d="M253.4,391.8c0,21.7-17.6,39.3-39.3,39.3c-21.7,0-39.3-17.6-39.3-39.3c0-21.7,17.6-39.3,39.3-39.3
			C235.8,352.5,253.4,370.1,253.4,391.8"/>
		<path class="st1" d="M615.5,382.8c0,21.7-17.6,39.3-39.3,39.3c-21.7,0-39.3-17.6-39.3-39.3c0-21.7,17.6-39.3,39.3-39.3
			C597.9,343.5,615.5,361.1,615.5,382.8"/>
		<path class="st1" d="M449.8,71.9H343.4c-145.1,0-147.3,278-147.3,278s13,225,166.7,246.6h67.6c92.1,0,153.5-76.8,153.5-171.6
			l4.6-73.8C588.5,351,595,71.9,449.8,71.9"/>
		<path class="st2" d="M386.3,539.7c50.1,2.5,70.2-19.3,71.1-20.2c2.8-3.2,3-8.5,0.4-11.9c-2.6-3.3-6.8-3.4-9.6-0.2
			c-0.4,0.4-17.7,19.3-60.7,15.5c-25.1-2.2-40.1-9.5-40.3-9.7c-4.2-2.9-6.7-4-9.6-1s-3.5,8.2-1.2,11.7
			C337,525,356.5,538.2,386.3,539.7"/>
		<path class="st3" d="M446.3,353.8c0,0,31.5-21.5,59.3,1.4"/>
		<path class="st3" d="M296,353.8c0,0,31.5-21.5,59.3,1.4"/>
		<path class="st4" d="M516.8,628.2c-29.4-6.6-74.8-14.5-122.1-14.5c-47.3,0-92.9,8-122.4,14.5c-18.6,4.1-33.5,24-33.5,43.1
			c0,0,100.1,154.4,52.9,241.6c-51.7,95.5,258,75.1,209.8,0c-50.5-78.6,48.7-241.6,48.7-241.6C550.3,652.2,535.4,632.4,516.8,628.2"
			/>
	</g>
	<polygon class="st1" points="456.3,581.4 461,621 396,706.6 324.8,621 329.6,581.4 	"/>
	<g>
		<path class="st5" d="M293.1,311.9l-0.3,0.6c1.5-0.2,2.9-0.3,4.5-0.5L293.1,311.9z M271.5,401.1l0.7,1.1l0.2-0.4
			C272.1,401.6,271.8,401.3,271.5,401.1"/>
		<g class="st6">
			<g>
				<path class="st1" d="M297.2,312c-1.5,0.1-3,0.3-4.5,0.5l-35.2,66.3l14,22.3c0.3,0.2,0.6,0.5,0.9,0.8l47.7-89L297.2,312z"/>
			</g>
		</g>
		<g class="st6">
			<g>
				<polygon class="st1" points="333.6,313.1 284.7,407 295,407.5 343.9,314.4 				"/>
			</g>
		</g>
		<path class="st5" d="M469.9,312.2l-0.2,0.4c1.3-0.1,2.5-0.2,3.8-0.3L469.9,312.2z M444.8,398.5l4.2,4l0.7-1.3
			C448,400.4,446.4,399.5,444.8,398.5"/>
		<g class="st6">
			<g>
				<path class="st1" d="M473.5,312.3c-1.2,0.1-2.5,0.2-3.8,0.3l-38.4,73.2l13.5,12.7c1.6,1,3.2,1.9,4.9,2.7l47.2-88.1L473.5,312.3z
					"/>
			</g>
		</g>
		<path class="st5" d="M510.4,313.5l-0.1,0.2c3.4,0.6,6.7,1.4,9.7,2.4l0.7-1.3L510.4,313.5z M462.2,406.2l-0.6,1.2l5.7,0.3
			C465.5,407.2,463.8,406.7,462.2,406.2"/>
		<g class="st6">
			<g>
				<path class="st1" d="M510.3,313.7l-48.2,92.5c1.7,0.5,3.4,1,5.1,1.4l4.6,0.2l48.2-91.7C517,315.1,513.8,314.3,510.3,313.7"/>
			</g>
		</g>
		<path d="M541,345.6c0,0-1,13.5-1.9,19.5c-4.2,31.1-18.8,39.6-36.2,41.7c-19,2.3-29.2,0.5-42.7-2.8c-17-4.1-25.8-15.3-33.4-31.1
			c-6-12.5-7-28.3-7-28.3c-4.6-21.8,19.9-30.3,66.3-31.1C514.1,313.1,542,321.2,541,345.6 M376.5,344.7c0,0-0.9,15.8-7,28.3
			c-7.6,15.8-16.4,27-33.4,31.1c-13.5,3.2-23.7,5.1-42.7,2.8c-17.4-2.1-32-10.7-36.2-41.7c-0.8-6-1.9-19.5-1.9-19.5
			c-0.9-24.4,26.9-32.5,54.7-32C356.6,314.4,381.2,322.9,376.5,344.7 M567.7,314.5c0-10.2-37.3-4.2-84.2-6
			c-32.3-1.3-57.6,3.5-68.5,13.9h-33.6c-10.8-10.4-36.2-15.2-68.5-13.9c-46.9,1.9-82.3-1.9-82.3,8.3c0,1.6-0.6,3.9,0.9,6.5
			c3.2,5.3,16,0.5,16.9,24.9c0,0,2.9,17.9,3.7,23.8c4.2,31.1,25.3,38.7,42.7,40.8c19,2.3,29.7,0,43.1-3.2
			c17-4.1,30.9-19.9,38.5-35.7c4.5-9.4,8-24.2,9.4-31.1h24.6c1.5,6.9,4.9,21.7,9.5,31.1c7.6,15.8,21.5,31.6,38.5,35.7
			c13.5,3.2,24.1,5.6,43.1,3.2c17.4-2.1,38.5-9.7,42.7-40.8c0.8-6,3.7-23.8,3.7-23.8c0.9-24.4,15.6-21.9,18.8-27.2
			C568.3,318.4,567.7,316.2,567.7,314.5"/>
		<path class="st7" d="M602.1,154.4C559.8,99.8,439.1,31.2,406.3,63.2C370.8,32.6,220.8,108.3,207,149
			c-67.8,79.1,3.9,464.3-66.7,616.9c0,0,94.4,33.2,99.2,4.5c4.9-28.8,14.8-119.3,14.1-135.7c-0.4-10.3-3.5-20.2-6.4-30.1
			c-4.8-16.2-8.9-32.7-12.6-49.2c0-1.4,0-2.7,0-4.1c4.1,7.5,21.9-97.4,12.6-157c-3.3-21.1-11.4-41.3-12.8-62.6
			C346.5,285.7,395,143.9,407.5,127c14.4,15.8,34.1,27.2,41.9,48.5c40.7,111,120.9,75.4,122.3,224.5c-0.1,0.8-0.4,1.7-0.5,2.5
			c-9.3,59.6-22.5,172.4,0.4,179.6c-3.8-2.6-13-26.3,3.1-53c0.8,10.3,3.5,27,7,42.8c-3.3,13.7-6.6,27.4-10.5,40.9
			c-2.9,9.9-6,19.8-6.4,30.1c-0.7,16.4-22.6,94.1-17.7,122.9c4.9,28.8,109.2,6.9,112.4-18.9C662.5,721.2,645.9,210.9,602.1,154.4"/>
		<path class="st8" d="M296.9,747c6.8-23.1,3.8-67.6-3.6-79.7c-7.4-12.1-34.4-46.9-41.4-23.5l-5.2,17.7c-8.3,28.4-5.8,17.3-13.7,46
			c-7.9,28.7-15.7,57.5-22.6,87.2c-1.8,7.5-3.4,15-5,22.8l-1.2,5.9l-0.8,4.2c-0.3,1.7-0.6,3.5-0.8,5.3l-1.6,10.9
			c-0.4,3.6-0.4,7.2-0.6,10.8c-0.2,7.1,1.4,13.7,3.2,20.2c0.5,1.6,0.6,3.4,1.5,4.9l2.7,4.4c1.7,2.9,3.7,5.6,5.8,8.3
			c0.9,1.4,2.3,2.6,3.5,3.8l3.8,3.6c2.7,2.3,5.7,4.4,8.6,6.6c2.9,2.1,6.1,4,9.2,6l4.6,2.9l3.6,2.1c14.2,8.4,27.7,15.3,41.4,22.2
			c13.6,6.9,27.1,13.4,40.7,19.8l28.6,13.4l31-58.6l-27.7-13c-13.1-6.2-26-12.5-38.7-18.9c-12.6-6.4-25.3-13-36.4-19.5l-1.3-0.7
			l-14.4-7.7c1.4-6.7,8.5-34.5,10.1-41.4C286.6,785.6,296.9,747,296.9,747"/>
		<path class="st8" d="M497.1,756.2c-5.6-23.4-0.2-67.7,7.8-79.4c8-11.7,36.8-45,42.5-21.3l4.3,18c6.8,28.8,4.9,17.6,11.3,46.6
			c6.4,29.1,12.6,58.2,18,88.3c1.4,7.5,2.6,15.2,3.8,23l0.8,6l0.6,4.2c0.2,1.7,0.4,3.5,0.6,5.4l1,10.9c0.2,3.6,0,7.2,0,10.8
			c-0.2,7.1-2.2,13.6-4.2,20c-0.6,1.6-0.8,3.4-1.8,4.8l-2.9,4.2c-1.9,2.8-4,5.4-6.2,8c-1,1.4-2.4,2.5-3.7,3.6l-4,3.4
			c-2.8,2.2-5.9,4.1-8.9,6.2c-3,2-6.3,3.7-9.5,5.5l-4.7,2.7l-3.7,1.9c-14.7,7.6-28.5,13.8-42.5,20.1c-13.9,6.1-27.8,12-41.6,17.7
			l-29.3,11.9l-27.9-60.2l28.4-11.5c13.4-5.5,26.7-11.1,39.7-16.8c12.9-5.7,25.9-11.6,37.4-17.6l1.3-0.7l14.7-7
			c-1-6.7-6.7-34.8-8-41.8C505.3,795.3,497.1,756.2,497.1,756.2"/>
	</g>
</g>
</svg>
