<?xml version="1.0" encoding="utf-8"?>
<!-- Generator: Adobe Illustrator 21.0.0, SVG Export Plug-In . SVG Version: 6.00 Build 0)  -->
<svg version="1.1" id="Ebene_1" xmlns="http://www.w3.org/2000/svg" xmlns:xlink="http://www.w3.org/1999/xlink" x="0px" y="0px"
	 viewBox="0 0 800 800" style="enable-background:new 0 0 800 800;" xml:space="preserve">
<style type="text/css">
	.st0{fill:#397FC6;}
	.st1{fill:#E7D6C2;}
	.st2{fill:#E4DAC8;}
	.st3{fill:#3B80C5;}
	.st4{fill:#CAC192;}
	.st5{fill:#D4CDA8;}
	.st6{fill:#9A3B3C;}
	.st7{fill:none;stroke:#2F1F10;stroke-width:14.3598;stroke-linecap:round;stroke-linejoin:round;stroke-miterlimit:10;}
	.st8{fill:#2F1F10;}
</style>
<g>
	<path class="st0" d="M523.8,664.4c-28.7-6.7-71.8-14.4-117.8-14.4c-45,0-89,7.7-117.8,14.4c-18.2,3.8-32.6,23-32.6,41.2
		c0,0,95.7,148.4,50.7,231.7c-49.8,91.9-30.6,233.6-30.6,233.6h271.9c0,0,6.7-160.8-40.2-233.6c-48.8-75.6,46.9-231.7,46.9-231.7
		C555.4,687.4,541,668.2,523.8,664.4"/>
	<path class="st1" d="M465.4,619.4l4.8,38.3c0,0-10.5,88.1-62.2,82.3c-52.7-5.7-68-82.3-68-82.3l4.8-38.3H465.4z"/>
	<path class="st3" d="M503.7,785c-5.7-22,0-65.1,7.7-76.6c7.7-11.5,35.4-43.1,41.2-20.1l3.8,17.2c6.7,27.8,4.8,17.2,10.5,45
		c5.7,27.8,12.4,55.5,17.2,85.2c1,7.7,2.9,14.4,3.8,22l1,5.7l1,3.8c0,1.9,0,3.8,1,4.8l1,10.5v10.5c0,6.7-1.9,13.4-3.8,19.2
		c-1,1.9-1,2.9-1.9,4.8l-2.9,3.8c-1.9,2.9-3.8,4.8-5.7,7.7c-1,1-1.9,1.9-3.8,3.8l-3.8,2.9c-2.9,1.9-5.7,3.8-8.6,5.7
		c-2.9,1.9-5.7,3.8-8.6,5.7l-4.8,2.9l-3.8,1.9c-14.4,7.7-27.8,13.4-41.2,19.2c-13.4,5.7-26.8,11.5-40.2,17.2l-27.8,11.5l-26.8-57.4
		l26.8-11.5c12.4-5.7,25.8-10.5,38.3-16.3c12.4-5.7,24.9-11.5,36.4-17.2l1-1l14.4-6.7c-1-6.7-6.7-33.5-7.7-40.2
		C512.3,822.4,503.7,785,503.7,785"/>
	<path class="st4" d="M578.4,580.2c-26.8-36.4-49.8-77.6-76.6-113c-4.8,21.1-20.1,60.3-20.1,60.3c-6.7,84.3,65.1,183.8,17.2,250.8
		C581.2,751.5,587,591.7,578.4,580.2"/>
	<path class="st5" d="M540.1,731.4c14.4-34.5,18.2-55.5,20.1-95.7c-12.4-35.4-32.6-67-47.9-101.5c2.9,34.5,27.8,66.1,25.9,100.5
		c-5.7-25.9-32.6-72.8-32.6-72.8C543.9,644.3,540.1,731.4,540.1,731.4"/>
	<path class="st5" d="M508.5,564.8c15.3,43.1,22,89,20.1,134"/>
	<path class="st1" d="M618.6,428.9c0,21.1-17.2,37.3-37.3,37.3c-21.1,0-37.3-17.2-37.3-37.3c0-21.1,17.2-37.3,37.3-37.3
		C601.3,391.5,618.6,407.8,618.6,428.9"/>
	<path class="st1" d="M270.1,437c0,21.1-17.2,37.3-37.3,37.3c-21.1,0-37.3-17.2-37.3-37.3c0-21.1,17.2-37.3,37.3-37.3
		C252.9,399.6,270.1,415.9,270.1,437"/>
	<path class="st1" d="M458.7,130.2H356.2c-139.8,0-141.7,267.1-141.7,267.1S227,613.7,374.4,633.8h65.1
		c88.1,0,147.4-73.7,147.4-164.7l4.8-70.8C591.8,398.3,598.5,130.2,458.7,130.2"/>
	<path class="st6" d="M417.5,579.2c-47.9,1.9-68-18.2-68-19.2c-2.9-2.9-2.9-8.6,0-11.5c2.9-2.9,6.7-2.9,9.6,0
		c0,0,17.2,18.2,58.4,15.3c23.9-1.9,38.3-9.6,38.3-9.6c3.8-2.9,6.7-3.8,9.6-1c2.9,2.9,3.8,7.7,1,11.5
		C465.4,565.8,446.2,578.2,417.5,579.2"/>
	<path class="st7" d="M455.8,401.1c0,0,30.6-21.1,57.4,1"/>
	<path class="st8" d="M345.7,426c11.5,0,20.1-9.6,20.1-20.1v-8.6c0-11.5-9.6-20.1-20.1-20.1c-11.5,0-20.1,9.6-20.1,20.1v8.6
		C325.6,417.4,335.2,426,345.7,426"/>
	<path class="st4" d="M407,197.2c-5.7,50.7-70.8,42.1-108.2,77.6c-36.4,35.4-39.3,69.9-71.8,127.3c-12.4-1.9-23.9,13.4-23.9,13.4
		s-14.4-119.7-3.8-123.5c-12.4-16.3,3.8-62.2,14.4-79.5c31.6-53.6,68-82.3,128.3-99.6c22-5.7,46.9-6.7,67,4.8
		c1,25.8-1,51.7-4.8,77.5"/>
	<path class="st4" d="M394.5,183.8c5.7,50.7,88.1,72.8,124.5,108.2c36.4,35.4,27.8,70.8,64.1,102.4c15.3-3.8,25.9,10.5,25.9,10.5
		s12.4-109.1,2.9-113.9c12.4-16.3,10.5-46-15.3-87.1c-33.5-52.7-67-74.7-127.3-91c-22-5.7-46.9-6.7-67,4.8
		c-1,25.9-14.4,28.7-11.5,54.6"/>
	<path class="st5" d="M361,138.8c-22,6.7-46,13.4-60.3,32.6c-7.7,9.6-11.5,22-18.2,31.6c-5.7,7.7-12.4,13.4-18.2,21.1
		c-6.7,10.5-8.6,23-10.5,35.4c-4.8,29.7-9.6,60.3-13.4,90c7.7-21.1,14.4-44,19.1-66.1c1.9-10.5,3.8-21.1,7.7-30.6
		c2.9-7.7,7.7-14.4,11.5-22c8.6-15.3,18.2-29.7,26.8-45c1.9,13.4-3.8,26.8-11.5,37.3c-7.7,10.5-18.2,20.1-24.9,31.6
		c16.3-9.6,28.7-23.9,35.4-42.1c5.7-15.3,7.7-35.4,23-43.1c-1,2.9-1,6.7-1.9,9.6c8.6-17.2,23-31.6,40.2-40.2"/>
	<path class="st5" d="M414.6,158.9c4.8,25.9,22,48.8,45,62.2c15.3,8.6,33.5,13.4,46.9,25.9c-16.3-24.9-64.1-33.5-72.8-62.2
		c4.8,2.9,36.4,23.9,41.2,26.8c-2.9-5.7-23-44-24.9-49.8c17.2,15.3,53.6,48.8,72.8,73.7c10.5,13.4,6.7,23,16.3,36.4
		c10.5,15.3,36.4,35.4,36.4,54.6c-22-76.6-74.7-143.6-143.6-182.9c4.8,17.2,17.2,28.7,21.1,42.1c-12.4-7.7-24.9-17.2-39.2-29.7"/>
	<path class="st5" d="M243.3,674.9c1-8.6-13.4-58.4-13.4-58.4s-22-113-14.4-158c2.9-14.4,6.7-28.7,8.6-43.1c3.8-23,1-69.9,4.8-92.9
		c9.6-62.2,42.1-95.7,84.3-131.2c16.3-13.4,33.5-23.9,52.7-25.9c3.8,0,10.5,1.9,9.6,6.7"/>
	<path class="st3" d="M308.4,785c5.7-22,0-65.1-7.7-76.6c-7.7-11.5-35.4-43.1-41.2-20.1l-3.8,17.2c-6.7,27.8-4.8,17.2-10.5,45
		c-5.7,27.8-12.4,55.5-17.2,85.2c-1,7.7-2.9,14.4-3.8,22l-1,5.7l-1,3.8c0,1.9,0,3.8-1,4.8l-1,10.5v10.5c0,6.7,1.9,13.4,3.8,19.2
		c1,1.9,1,2.9,1.9,4.8l2.9,3.8c1.9,2.9,3.8,4.8,5.7,7.7c1,1,1.9,1.9,3.8,3.8l3.8,2.9c2.9,1.9,5.7,3.8,8.6,5.7
		c2.9,1.9,5.7,3.8,9.6,5.7l4.8,2.9l3.8,1.9c14.4,7.7,27.8,13.4,41.2,19.2c13.4,5.7,26.8,11.5,40.2,17.2l27.8,11.5l26.8-57.4
		l-26.8-11.5c-12.4-5.7-25.9-10.5-38.3-16.3c-12.4-5.7-24.9-11.5-36.4-17.2l-1-1l-14.4-6.7c1-6.7,6.7-33.5,7.7-40.2
		C300.7,822.4,308.4,785,308.4,785"/>
	<path class="st4" d="M390.7,171.3c-57.4,43.1-99.6,113.9-123.5,192.4s-29.7,162.8-23.9,246.1c1,22,7.7,36.4,1,56.5
		c-2.9,7.7-7.7,21.1-9.6,28.7c-1.9,7.7,13.3,30.6,17.1,37.3L390.7,171.3z"/>
</g>
</svg>
