<?xml version="1.0" encoding="UTF-8" standalone="no"?>
<!-- Created with Inkscape (http://www.inkscape.org/) -->

<svg
   xmlns:dc="http://purl.org/dc/elements/1.1/"
   xmlns:cc="http://creativecommons.org/ns#"
   xmlns:rdf="http://www.w3.org/1999/02/22-rdf-syntax-ns#"
   xmlns:svg="http://www.w3.org/2000/svg"
   xmlns="http://www.w3.org/2000/svg"
   xmlns:sodipodi="http://sodipodi.sourceforge.net/DTD/sodipodi-0.dtd"
   xmlns:inkscape="http://www.inkscape.org/namespaces/inkscape"
   id="svg2"
   version="1.1"
   inkscape:version="0.91 r"
   xml:space="preserve"
   width="900"
   height="300"
   viewBox="0 0 900 300"
   sodipodi:docname="mediamor.svg"><metadata
     id="metadata8"><rdf:RDF><cc:Work
         rdf:about=""><dc:format>image/svg+xml</dc:format><dc:type
           rdf:resource="http://purl.org/dc/dcmitype/StillImage" /><dc:title></dc:title></cc:Work></rdf:RDF></metadata><defs
     id="defs6"><clipPath
       clipPathUnits="userSpaceOnUse"
       id="clipPath16"><path
         d="m 0,221.1 680.32,0 L 680.32,0 0,0 0,221.1 Z"
         id="path18"
         inkscape:connector-curvature="0" /></clipPath></defs><sodipodi:namedview
     pagecolor="#ffffff"
     bordercolor="#666666"
     borderopacity="1"
     objecttolerance="10"
     gridtolerance="10"
     guidetolerance="10"
     inkscape:pageopacity="0"
     inkscape:pageshadow="2"
     inkscape:window-width="1680"
     inkscape:window-height="1013"
     id="namedview4"
     showgrid="false"
     inkscape:zoom="0.48918155"
     inkscape:cx="153.31731"
     inkscape:cy="134.09904"
     inkscape:window-x="3600"
     inkscape:window-y="0"
     inkscape:window-maximized="1"
     inkscape:current-layer="g10" /><g
     id="g10"
     inkscape:groupmode="layer"
     inkscape:label="Logo mediamor 4c-2_ZP"
     transform="matrix(1.25,0,0,-1.25,0,300)"><g
       id="g12"
       transform="translate(20.501794,14.8949)"><g
         id="g14"
         clip-path="url(#clipPath16)"><g
           id="g20"
           transform="translate(96.5464,11.4746)"><path
             d="M 0,0 -6.695,0 -7.86,1.025 c -14.499,12.476 -45.174,49.298 -60.241,78.6 -11.262,21.895 -17.45,44.178 -17.423,62.748 0.017,12.491 3.649,35.252 27.78,47.35 9.048,4.125 19.566,6.381 29.67,6.381 12.809,0 24.227,-3.416 33.019,-9.883 7.579,-5.208 13.975,-12.071 19.513,-20.95 0.865,-1.444 1.696,-2.941 2.516,-4.534 l 1.891,3.232 c 8.522,13.958 25.606,28.845 48.043,28.845 0.496,0 0.991,-0.006 1.491,-0.021 l 0.196,0.001 c 22.01,0 42.196,-12.665 46.953,-29.459 l 0.244,-1.127 -3.224,-0.003 C 114.979,177.953 97.097,188.354 78.41,187.672 59.336,187.59 47.73,175.676 38.346,164.514 34.076,159.424 29.7,149.664 28.307,144.865 l -1.154,-3.977 -1.819,3.721 c -15.597,31.911 -36.546,36.675 -47.646,36.675 -7.292,0 -14.545,-1.95 -19.898,-5.35 -12.337,-7.844 -15.109,-24.449 -15.262,-36.997 -0.22,-18.135 4.311,-38.185 8.625,-50.901 8.091,-23.851 28.899,-61.905 46.383,-84.829 L -0.504,0.638 0,0 Z"
             style="fill:#122e5a;fill-opacity:1;fill-rule:nonzero;stroke:none"
             id="path22"
             inkscape:connector-curvature="0" /></g><g
           id="g24"
           transform="translate(415.4111,140.1934)"><path
             d="m 0,0 c -3.118,1.637 -8.623,2.936 -14.878,2.936 -2.729,0 -5.553,-0.19 -8.468,-0.565 -1.48,-0.191 -4.233,-0.709 -5.592,-0.973 0.162,-0.435 3.609,-13.533 3.652,-13.706 0.552,0.143 1.362,0.366 1.94,0.495 1.881,0.424 3.811,0.635 5.786,0.635 2.259,0 4.045,-0.236 5.364,-0.705 1.316,-0.472 2.329,-1.178 3.034,-2.117 0.706,-0.941 1.151,-2.047 1.341,-3.316 0.187,-1.27 0.282,-2.705 0.282,-4.305 l 0,-4.375 c -1.883,0 -4.093,-0.049 -6.633,-0.141 -2.097,-0.078 -4.263,-0.274 -6.488,-0.576 1.317,-3.726 2.793,-7.478 4.427,-11.243 1.362,0.247 2.709,0.388 4.037,0.388 l 4.657,0 0,-15.526 c -0.242,-0.242 -0.81,-0.707 -1.13,-0.992 3.034,-5.469 6.23,-11.166 9.994,-16.828 l 10.471,4.271 c 0.847,0.375 1.27,0.799 1.27,1.272 0,0.656 -0.189,1.361 -0.564,2.117 -0.377,0.752 -0.801,1.764 -1.271,3.033 -0.471,1.272 -0.895,2.94 -1.27,5.01 -0.377,2.068 -0.565,4.799 -0.565,8.186 l 0,3.215 C 8.427,-29.552 13.795,-7.243 0,0"
             style="fill:#122e5a;fill-opacity:1;fill-rule:nonzero;stroke:none"
             id="path26"
             inkscape:connector-curvature="0" /></g><g
           id="g28"
           transform="translate(113.3853,32.2578)"><path
             d="m 0,0 c -0.336,1.303 -0.756,2.816 -0.967,3.992 l -0.084,0 C -1.219,2.984 -1.639,1.135 -1.933,0 l -2.564,-9.286 7.018,0 L 0,0 Z m 9.413,-19.834 c 0.084,-0.295 0.168,-0.505 0.21,-0.715 0,-0.21 -0.168,-0.252 -0.588,-0.252 l -2.606,0 c -0.504,0 -0.672,0.168 -0.756,0.462 l -2.353,8.11 -8.615,0 -2.143,-8.11 c -0.084,-0.294 -0.252,-0.462 -0.757,-0.462 l -2.605,0 c -0.42,0 -0.588,0.042 -0.588,0.252 0.042,0.21 0.084,0.42 0.21,0.715 l 8.405,27.356 c 0.126,0.42 0.168,0.462 0.63,0.462 l 2.479,0 c 0.336,0 0.462,0 0.63,-0.462 l 8.447,-27.356 z"
             style="fill:#122e5a;fill-opacity:1;fill-rule:nonzero;stroke:none"
             id="path30"
             inkscape:connector-curvature="0" /></g><g
           id="g32"
           transform="translate(137.5942,28.2656)"><path
             d="m 0,0 c -0.714,0.337 -2.185,1.135 -3.866,1.135 -3.194,0 -4.707,-2.816 -4.707,-7.312 0,-4.454 0.799,-7.27 3.656,-7.27 2.186,0 3.951,1.429 4.917,2.101 L 0,0 Z m 3.194,-8.698 c 0,-2.354 0.294,-7.27 0.294,-9.539 0,-3.825 -1.723,-7.397 -7.396,-7.397 -3.152,0 -7.06,1.429 -7.06,2.228 0,0.21 0.042,0.294 0.168,0.547 l 0.673,1.428 c 0.042,0.126 0.126,0.252 0.294,0.252 0.336,0 2.857,-1.638 5.757,-1.638 3.908,0 4.37,2.268 4.37,4.538 0,2.1 -0.126,3.824 -0.126,4.328 -0.966,-0.798 -2.899,-2.312 -5.715,-2.312 -3.824,0 -6.472,3.363 -6.472,9.287 0,6.598 2.564,10.926 7.901,10.926 2.773,0 4.412,-1.387 4.958,-1.806 0.379,1.05 0.841,1.806 1.219,1.806 0.168,0 0.295,-0.042 0.379,-0.084 L 4.329,2.689 C 4.497,2.563 4.497,2.521 4.497,2.438 4.497,2.102 4.118,1.892 3.74,0.883 3.362,-0.168 3.194,-0.714 3.194,-2.227 l 0,-6.471 z"
             style="fill:#122e5a;fill-opacity:1;fill-rule:nonzero;stroke:none"
             id="path34"
             inkscape:connector-curvature="0" /></g><g
           id="g36"
           transform="translate(157.979,23.4756)"><path
             d="M 0,0 C 0,2.186 -0.714,6.136 -4.37,6.136 -8.236,6.136 -9.077,2.101 -9.077,0 L 0,0 Z m 2.858,-10.086 c 0.042,-0.126 0.126,-0.21 0.126,-0.336 0,-0.462 -3.53,-2.184 -6.64,-2.184 -5.589,0.042 -8.866,4.286 -8.866,10.673 0,6.177 3.109,10.673 8.32,10.673 7.017,0 7.648,-6.807 7.648,-10.421 0,-0.589 0,-0.924 -0.462,-0.924 l -12.061,0 c 0,-2.564 1.009,-7.186 5.799,-7.186 2.732,0 4.917,1.723 5.169,1.723 0.126,0 0.168,-0.126 0.252,-0.252 l 0.715,-1.766 z"
             style="fill:#122e5a;fill-opacity:1;fill-rule:nonzero;stroke:none"
             id="path38"
             inkscape:connector-curvature="0" /></g><g
           id="g40"
           transform="translate(181.4731,11.9609)"><path
             d="m 0,0 c 0,-0.336 -0.168,-0.504 -0.504,-0.504 l -2.185,0 c -0.336,0 -0.505,0.168 -0.505,0.504 l 0,14.036 c 0,1.807 -0.462,3.403 -2.731,3.403 -2.732,0 -4.496,-1.638 -5.547,-2.563 l 0,-14.876 c 0,-0.336 -0.168,-0.504 -0.505,-0.504 l -2.185,0 c -0.336,0 -0.504,0.168 -0.504,0.504 l 0,14.498 c 0,1.387 0,1.85 -0.168,2.48 -0.336,1.26 -0.672,1.554 -0.672,1.764 0,0.084 0.042,0.168 0.21,0.295 l 1.891,1.05 c 0.084,0.042 0.21,0.168 0.336,0.168 0.756,0 1.261,-2.521 1.303,-2.858 1.387,1.093 3.572,2.858 6.766,2.858 4.664,0 5,-3.277 5,-6.303 L 0,0 Z"
             style="fill:#122e5a;fill-opacity:1;fill-rule:nonzero;stroke:none"
             id="path42"
             inkscape:connector-curvature="0" /></g><g
           id="g44"
           transform="translate(198.8745,13.0117)"><path
             d="m 0,0 c 0.042,-0.168 0.084,-0.294 0.084,-0.42 0,-0.547 -3.152,-1.723 -5.421,-1.723 -1.807,0 -3.32,0.672 -3.95,1.471 -1.219,1.303 -1.219,3.193 -1.219,4.748 l 0,11.935 -3.152,0 c -0.294,0 -0.294,0.294 -0.294,0.504 l 0,1.597 c 0,0.294 0,0.504 0.294,0.504 l 3.152,0 0,5.757 c 0,0.252 0.168,0.421 0.463,0.505 l 2.227,0.63 c 0.126,0 0.21,0.042 0.294,0.042 0.21,0 0.21,-0.21 0.21,-0.462 l 0,-6.472 6.219,0 c 0.253,0 0.463,-0.042 0.463,-0.294 0,-0.084 -0.042,-0.168 -0.042,-0.294 l -0.547,-1.639 c -0.084,-0.21 -0.294,-0.378 -0.546,-0.378 l -5.547,0 0,-11.935 c 0,-1.68 0,-3.403 2.521,-3.403 1.976,0 3.656,1.134 4.035,1.134 0.168,0 0.294,-0.126 0.294,-0.252 L 0,0 Z"
             style="fill:#122e5a;fill-opacity:1;fill-rule:nonzero;stroke:none"
             id="path46"
             inkscape:connector-curvature="0" /></g><g
           id="g48"
           transform="translate(213.501,31.124)"><path
             d="m 0,0 c 0,0.294 0.126,0.462 0.294,0.504 l 2.101,0.504 c 0.336,0.084 0.21,0.042 0.504,0.084 0.294,0 0.294,-0.336 0.294,-0.546 l 0,-14.96 c 0,-0.967 0.042,-1.892 0.463,-2.774 0.252,-0.504 0.798,-1.344 0.798,-1.596 0,-0.168 -0.21,-0.253 -0.378,-0.337 l -1.639,-1.008 c -0.168,-0.084 -0.252,-0.126 -0.336,-0.126 -0.63,0 -1.093,1.513 -1.555,2.479 -1.176,-0.966 -3.446,-2.479 -5.841,-2.479 -5.673,0 -6.135,3.277 -6.135,6.303 l 0,13.952 c 0,0.294 0.126,0.462 0.294,0.504 l 2.101,0.504 c 0.336,0.084 0.21,0.042 0.504,0.084 0.294,0 0.294,-0.336 0.294,-0.546 l 0,-14.582 c 0,-1.807 0.715,-3.403 3.446,-3.403 1.303,0 3.992,1.386 4.791,2.142 L 0,0 Z"
             style="fill:#122e5a;fill-opacity:1;fill-rule:nonzero;stroke:none"
             id="path50"
             inkscape:connector-curvature="0" /></g><g
           id="g52"
           transform="translate(226.7832,11.9609)"><path
             d="m 0,0 c 0,-0.336 -0.168,-0.504 -0.504,-0.504 l -2.185,0 c -0.336,0 -0.505,0.168 -0.505,0.504 l 0,14.414 c 0,0.757 -0.126,2.144 -0.714,3.193 -0.336,0.589 -0.462,0.925 -0.462,1.051 0.042,0.252 0.21,0.379 0.294,0.421 l 1.555,0.966 c 0.168,0.126 0.336,0.21 0.42,0.21 0.756,0 1.471,-2.605 1.639,-3.529 1.092,1.176 2.605,3.529 5.043,3.529 0.966,0 2.059,-0.336 2.059,-0.714 0,-0.084 -0.084,-0.21 -0.126,-0.336 L 5.589,17.062 C 5.547,16.978 5.505,16.768 5.337,16.768 c -0.21,0 -0.588,0.378 -1.387,0.378 -1.471,0 -2.941,-2.185 -3.95,-3.278 L 0,0 Z"
             style="fill:#122e5a;fill-opacity:1;fill-rule:nonzero;stroke:none"
             id="path54"
             inkscape:connector-curvature="0" /></g><g
           id="g56"
           transform="translate(253.1768,11.9609)"><path
             d="m 0,0 c 0,-0.336 -0.168,-0.504 -0.504,-0.504 l -2.185,0 c -0.336,0 -0.505,0.168 -0.505,0.504 l 0,17.062 -2.941,0 c -0.294,0 -0.294,0.293 -0.294,0.503 l 0,1.598 c 0,0.294 0,0.504 0.294,0.504 l 2.941,0 0,3.277 c 0,3.153 0.631,6.977 5.841,6.977 1.934,0 4.623,-0.841 4.623,-1.471 0,-0.127 -0.126,-0.295 -0.21,-0.589 L 6.472,26.475 C 6.388,26.349 6.304,26.223 6.177,26.223 5.463,26.223 4.286,27.105 2.521,27.105 0.168,27.105 0,25.34 0,22.902 l 0,-3.235 6.051,0 c 0.253,0 0.463,-0.042 0.463,-0.294 0,-0.084 -0.042,-0.168 -0.042,-0.294 L 5.925,17.439 C 5.841,17.229 5.631,17.062 5.379,17.062 L 0,17.062 0,0 Z"
             style="fill:#122e5a;fill-opacity:1;fill-rule:nonzero;stroke:none"
             id="path58"
             inkscape:connector-curvature="0" /></g><g
           id="g60"
           transform="translate(273.3916,40.1162)"><path
             d="m 0,0 c 1.219,0 2.228,-1.008 2.228,-2.227 0,-1.218 -1.009,-2.227 -2.228,-2.227 -1.218,0 -2.227,1.009 -2.227,2.227 C -2.227,-1.008 -1.218,0 0,0 m -8.278,-4.454 c -1.219,0 -2.227,1.009 -2.227,2.227 0,1.219 1.008,2.227 2.227,2.227 1.26,0 2.227,-1.008 2.227,-2.227 0,-1.218 -0.967,-2.227 -2.227,-2.227 m 8.32,-4.538 c 0,0.294 0.126,0.462 0.294,0.504 l 2.102,0.504 c 0.336,0.084 0.209,0.042 0.504,0.084 0.294,0 0.294,-0.336 0.294,-0.546 l 0,-14.96 c 0,-0.967 0.042,-1.892 0.462,-2.774 0.252,-0.505 0.799,-1.344 0.799,-1.596 0,-0.168 -0.21,-0.253 -0.378,-0.337 l -1.64,-1.008 c -0.167,-0.084 -0.251,-0.126 -0.335,-0.126 -0.631,0 -1.093,1.513 -1.556,2.478 -1.176,-0.965 -3.445,-2.478 -5.84,-2.478 -5.674,0 -6.136,3.277 -6.136,6.303 l 0,13.952 c 0,0.294 0.126,0.462 0.294,0.504 l 2.101,0.504 c 0.337,0.084 0.21,0.042 0.505,0.084 0.294,0 0.294,-0.336 0.294,-0.546 l 0,-14.582 c 0,-1.807 0.714,-3.404 3.445,-3.404 1.303,0 3.993,1.387 4.791,2.143 l 0,15.297 z"
             style="fill:#122e5a;fill-opacity:1;fill-rule:nonzero;stroke:none"
             id="path62"
             inkscape:connector-curvature="0" /></g><g
           id="g64"
           transform="translate(286.7163,11.9609)"><path
             d="m 0,0 c 0,-0.336 -0.168,-0.504 -0.504,-0.504 l -2.185,0 c -0.336,0 -0.505,0.168 -0.505,0.504 l 0,14.414 c 0,0.757 -0.126,2.144 -0.714,3.193 -0.336,0.589 -0.462,0.925 -0.462,1.051 0.042,0.252 0.21,0.379 0.294,0.421 l 1.555,0.966 c 0.168,0.126 0.336,0.21 0.42,0.21 0.756,0 1.471,-2.605 1.639,-3.529 1.092,1.176 2.605,3.529 5.043,3.529 0.966,0 2.059,-0.336 2.059,-0.714 0,-0.084 -0.084,-0.21 -0.126,-0.336 L 5.589,17.062 C 5.547,16.978 5.505,16.768 5.337,16.768 c -0.21,0 -0.588,0.378 -1.387,0.378 -1.471,0 -2.941,-2.185 -3.95,-3.278 L 0,0 Z"
             style="fill:#122e5a;fill-opacity:1;fill-rule:nonzero;stroke:none"
             id="path66"
             inkscape:connector-curvature="0" /></g><g
           id="g68"
           transform="translate(316.0518,11.667)"><path
             d="m 0,0 c -0.042,-0.21 -0.126,-0.504 -0.378,-0.504 l -3.026,0 c -0.378,0 -0.42,0.252 -0.42,0.504 l -5.169,27.399 c -0.042,0.168 -0.084,0.378 -0.084,0.504 0,0.252 0.336,0.294 0.462,0.336 l 2.059,0.505 c 0.168,0.042 0.42,0.126 0.547,0.126 0.21,0 0.294,-0.379 0.336,-0.757 L -2.102,7.648 c 0.127,-0.756 0.253,-3.32 0.337,-4.454 l 0.084,0 c 0.126,1.639 0.21,3.152 0.504,4.706 l 4.034,20.171 c 0.042,0.252 0.084,0.504 0.378,0.504 l 2.648,0 c 0.294,0 0.378,-0.252 0.42,-0.504 L 9.791,7.313 c 0.168,-1.051 0.42,-2.648 0.42,-4.119 l 0.084,0 c 0.084,1.387 0.084,3.026 0.294,4.16 l 3.825,20.759 c 0.084,0.378 0.126,0.757 0.336,0.757 0.126,0 0.378,-0.084 0.588,-0.126 l 2.017,-0.505 c 0.294,-0.084 0.462,-0.126 0.462,-0.336 0,-0.126 -0.042,-0.336 -0.084,-0.504 L 11.976,0 c -0.042,-0.21 -0.084,-0.504 -0.42,-0.504 l -3.152,0 C 8.11,-0.504 8.026,-0.336 7.984,0 l -3.53,23.238 -0.084,0 L 0,0 Z"
             style="fill:#122e5a;fill-opacity:1;fill-rule:nonzero;stroke:none"
             id="path70"
             inkscape:connector-curvature="0" /></g><g
           id="g72"
           transform="translate(347.9941,23.4756)"><path
             d="M 0,0 C 0,2.186 -0.715,6.136 -4.371,6.136 -8.237,6.136 -9.077,2.101 -9.077,0 L 0,0 Z m 2.857,-10.086 c 0.042,-0.126 0.126,-0.21 0.126,-0.336 0,-0.462 -3.53,-2.184 -6.639,-2.184 -5.589,0.042 -8.867,4.286 -8.867,10.673 0,6.177 3.109,10.673 8.32,10.673 7.018,0 7.648,-6.807 7.648,-10.421 0,-0.589 0,-0.924 -0.462,-0.924 l -12.06,0 c 0,-2.564 1.008,-7.186 5.799,-7.186 2.731,0 4.917,1.723 5.169,1.723 0.126,0 0.168,-0.126 0.252,-0.252 l 0.714,-1.766 z"
             style="fill:#122e5a;fill-opacity:1;fill-rule:nonzero;stroke:none"
             id="path74"
             inkscape:connector-curvature="0" /></g><g
           id="g76"
           transform="translate(359.9316,11.9609)"><path
             d="m 0,0 c 0,-0.336 -0.168,-0.504 -0.504,-0.504 l -2.185,0 c -0.336,0 -0.504,0.168 -0.504,0.504 l 0,14.414 c 0,0.757 -0.126,2.144 -0.715,3.193 -0.336,0.589 -0.462,0.925 -0.462,1.051 0.042,0.252 0.21,0.379 0.294,0.421 l 1.555,0.966 c 0.167,0.126 0.335,0.21 0.419,0.21 0.757,0 1.472,-2.605 1.64,-3.529 1.093,1.176 2.606,3.529 5.042,3.529 0.967,0 2.06,-0.336 2.06,-0.714 0,-0.084 -0.084,-0.21 -0.126,-0.336 L 5.589,17.062 C 5.547,16.978 5.505,16.768 5.337,16.768 c -0.21,0 -0.588,0.378 -1.387,0.378 -1.471,0 -2.941,-2.185 -3.95,-3.278 L 0,0 Z"
             style="fill:#122e5a;fill-opacity:1;fill-rule:nonzero;stroke:none"
             id="path78"
             inkscape:connector-curvature="0" /></g><g
           id="g80"
           transform="translate(373.1279,15.2813)"><path
             d="m 0,0 c 0.967,-0.673 2.521,-1.597 4.37,-1.597 3.95,0 4.328,4.832 4.328,9.202 0,3.237 -0.336,6.514 -3.739,6.514 -2.438,0 -3.236,-0.924 -4.959,-2.1 L 0,0 Z m 0,14.792 c 1.135,1.177 3.404,2.143 5.337,2.143 5.085,0 6.808,-4.245 6.808,-9.414 0,-6.05 -1.597,-11.933 -7.186,-11.933 -2.942,0 -4.497,0.756 -5.842,2.058 -0.21,-0.587 -0.882,-2.058 -1.345,-2.058 -0.168,0 -0.419,0.168 -0.587,0.294 l -1.051,0.672 c -0.336,0.21 -0.63,0.337 -0.63,0.547 0,0.21 0.336,0.503 0.63,1.218 0.378,0.672 0.673,1.639 0.673,2.984 l 0,24.205 c 0,0.294 0.126,0.462 0.294,0.504 l 2.1,0.505 c 0.337,0.084 0.211,0.042 0.505,0.084 C 0,26.601 0,26.264 0,26.054 L 0,14.792 Z"
             style="fill:#122e5a;fill-opacity:1;fill-rule:nonzero;stroke:none"
             id="path82"
             inkscape:connector-curvature="0" /></g><g
           id="g84"
           transform="translate(401.918,31.124)"><path
             d="m 0,0 c 0,0.294 0.126,0.462 0.294,0.504 l 2.102,0.504 c 0.335,0.084 0.209,0.042 0.503,0.084 0.294,0 0.294,-0.336 0.294,-0.546 l 0,-14.96 c 0,-0.967 0.042,-1.892 0.463,-2.774 0.252,-0.504 0.798,-1.344 0.798,-1.596 0,-0.168 -0.21,-0.253 -0.378,-0.337 l -1.638,-1.008 c -0.169,-0.084 -0.253,-0.126 -0.337,-0.126 -0.63,0 -1.092,1.513 -1.555,2.479 -1.177,-0.966 -3.445,-2.479 -5.841,-2.479 -5.673,0 -6.136,3.277 -6.136,6.303 l 0,13.952 c 0,0.294 0.126,0.462 0.294,0.504 l 2.102,0.504 c 0.336,0.084 0.21,0.042 0.504,0.084 0.295,0 0.295,-0.336 0.295,-0.546 l 0,-14.582 c 0,-1.807 0.714,-3.403 3.445,-3.403 1.303,0 3.992,1.386 4.791,2.142 L 0,0 Z"
             style="fill:#122e5a;fill-opacity:1;fill-rule:nonzero;stroke:none"
             id="path86"
             inkscape:connector-curvature="0" /></g><g
           id="g88"
           transform="translate(426.7568,11.9609)"><path
             d="m 0,0 c 0,-0.336 -0.169,-0.504 -0.505,-0.504 l -2.184,0 c -0.337,0 -0.505,0.168 -0.505,0.504 l 0,14.036 c 0,1.807 -0.462,3.403 -2.732,3.403 -2.731,0 -4.496,-1.638 -5.547,-2.563 l 0,-14.876 c 0,-0.336 -0.168,-0.504 -0.504,-0.504 l -2.185,0 c -0.336,0 -0.504,0.168 -0.504,0.504 l 0,14.498 c 0,1.387 0,1.85 -0.168,2.48 -0.337,1.26 -0.673,1.554 -0.673,1.764 0,0.084 0.042,0.168 0.21,0.295 l 1.892,1.05 c 0.084,0.042 0.21,0.168 0.336,0.168 0.756,0 1.26,-2.521 1.302,-2.858 1.387,1.093 3.573,2.858 6.766,2.858 C -0.337,20.255 0,16.978 0,13.952 L 0,0 Z"
             style="fill:#122e5a;fill-opacity:1;fill-rule:nonzero;stroke:none"
             id="path90"
             inkscape:connector-curvature="0" /></g><g
           id="g92"
           transform="translate(443.6543,28.2656)"><path
             d="m 0,0 c -0.715,0.337 -2.186,1.135 -3.866,1.135 -3.195,0 -4.707,-2.816 -4.707,-7.312 0,-4.454 0.799,-7.27 3.656,-7.27 2.185,0 3.95,1.429 4.917,2.101 L 0,0 Z m 3.193,-8.698 c 0,-2.354 0.294,-7.27 0.294,-9.539 0,-3.825 -1.722,-7.397 -7.395,-7.397 -3.153,0 -7.061,1.429 -7.061,2.228 0,0.21 0.042,0.294 0.168,0.547 l 0.673,1.428 c 0.042,0.126 0.126,0.252 0.294,0.252 0.336,0 2.857,-1.638 5.758,-1.638 3.907,0 4.37,2.268 4.37,4.538 0,2.1 -0.126,3.824 -0.126,4.328 -0.967,-0.798 -2.9,-2.312 -5.716,-2.312 -3.823,0 -6.471,3.363 -6.471,9.287 0,6.598 2.564,10.926 7.9,10.926 2.774,0 4.413,-1.387 4.959,-1.806 0.378,1.05 0.841,1.806 1.219,1.806 0.168,0 0.294,-0.042 0.378,-0.084 L 4.328,2.689 C 4.496,2.563 4.496,2.521 4.496,2.438 4.496,2.102 4.118,1.892 3.739,0.883 3.361,-0.168 3.193,-0.714 3.193,-2.227 l 0,-6.471 z"
             style="fill:#122e5a;fill-opacity:1;fill-rule:nonzero;stroke:none"
             id="path94"
             inkscape:connector-curvature="0" /></g><g
           id="g96"
           transform="translate(477.4453,31.124)"><path
             d="m 0,0 c 0,0.294 0.126,0.462 0.294,0.504 l 2.102,0.504 c 0.335,0.084 0.209,0.042 0.503,0.084 0.294,0 0.294,-0.336 0.294,-0.546 l 0,-14.96 c 0,-0.967 0.042,-1.892 0.463,-2.774 0.252,-0.504 0.798,-1.344 0.798,-1.596 0,-0.168 -0.21,-0.253 -0.378,-0.337 l -1.638,-1.008 c -0.169,-0.084 -0.253,-0.126 -0.337,-0.126 -0.63,0 -1.092,1.513 -1.555,2.479 -1.177,-0.966 -3.445,-2.479 -5.841,-2.479 -5.673,0 -6.136,3.277 -6.136,6.303 l 0,13.952 c 0,0.294 0.126,0.462 0.294,0.504 l 2.102,0.504 c 0.336,0.084 0.21,0.042 0.504,0.084 0.295,0 0.295,-0.336 0.295,-0.546 l 0,-14.582 c 0,-1.807 0.714,-3.403 3.445,-3.403 1.303,0 3.992,1.386 4.791,2.142 L 0,0 Z"
             style="fill:#122e5a;fill-opacity:1;fill-rule:nonzero;stroke:none"
             id="path98"
             inkscape:connector-curvature="0" /></g><g
           id="g100"
           transform="translate(502.2842,11.9609)"><path
             d="m 0,0 c 0,-0.336 -0.169,-0.504 -0.505,-0.504 l -2.184,0 c -0.337,0 -0.505,0.168 -0.505,0.504 l 0,14.036 c 0,1.807 -0.462,3.403 -2.732,3.403 -2.731,0 -4.496,-1.638 -5.547,-2.563 l 0,-14.876 c 0,-0.336 -0.168,-0.504 -0.504,-0.504 l -2.185,0 c -0.336,0 -0.504,0.168 -0.504,0.504 l 0,14.498 c 0,1.387 0,1.85 -0.168,2.48 -0.337,1.26 -0.673,1.554 -0.673,1.764 0,0.084 0.042,0.168 0.21,0.295 l 1.892,1.05 c 0.084,0.042 0.21,0.168 0.336,0.168 0.756,0 1.26,-2.521 1.302,-2.858 1.387,1.093 3.573,2.858 6.766,2.858 C -0.337,20.255 0,16.978 0,13.952 L 0,0 Z"
             style="fill:#122e5a;fill-opacity:1;fill-rule:nonzero;stroke:none"
             id="path102"
             inkscape:connector-curvature="0" /></g><g
           id="g104"
           transform="translate(519.3496,28.0137)"><path
             d="m 0,0 c -1.345,0.715 -2.689,1.387 -4.791,1.387 -3.614,0 -3.95,-4.118 -3.95,-8.195 0,-3.529 0.294,-7.521 3.698,-7.521 2.186,0 4.034,1.849 5.043,2.479 L 0,0 Z m 3.193,-9.917 c 0,-1.891 0,-3.151 0.462,-4.202 0.211,-0.505 0.757,-1.303 0.757,-1.555 0,-0.168 -0.21,-0.253 -0.378,-0.337 l -1.639,-1.008 c -0.168,-0.084 -0.252,-0.126 -0.336,-0.126 -0.588,0 -1.345,1.807 -1.513,2.479 -1.009,-0.714 -3.067,-2.479 -6.178,-2.479 -4.496,0 -6.555,5.042 -6.555,10.253 0,6.052 2.143,11.094 7.018,11.094 2.606,0 4.034,-0.714 5.169,-1.429 l 0,10.002 c 0,0.294 0.126,0.462 0.294,0.504 l 2.059,0.505 c 0.336,0.084 0.21,0.042 0.504,0.084 0.336,0 0.336,-0.337 0.336,-0.547 l 0,-23.238 z"
             style="fill:#122e5a;fill-opacity:1;fill-rule:nonzero;stroke:none"
             id="path106"
             inkscape:connector-curvature="0" /></g><g
           id="g108"
           transform="translate(563.3516,11.9609)"><path
             d="m 0,0 c 0,-0.336 -0.168,-0.504 -0.504,-0.504 l -2.437,0 c -0.336,0 -0.504,0.168 -0.504,0.504 l -0.673,21.6 c -0.042,0.84 0,1.891 0.042,2.605 L -4.16,24.289 C -4.202,23.365 -4.328,22.314 -4.664,21.306 L -9.749,6.682 C -9.917,6.304 -10.001,6.22 -10.379,6.22 l -1.261,0 c -0.378,0 -0.505,0.084 -0.631,0.462 l -4.874,14.624 c -0.335,1.008 -0.462,2.059 -0.504,2.983 l -0.084,-0.084 c 0.042,-0.714 0.084,-1.765 0.042,-2.605 L -18.321,0 c 0,-0.336 -0.168,-0.504 -0.505,-0.504 l -2.437,0 c -0.337,0 -0.505,0.168 -0.505,0.504 l 1.598,27.777 c 0,0.336 0.168,0.504 0.504,0.504 l 2.731,0 c 0.336,0 0.336,-0.084 0.462,-0.42 l 4.959,-14.498 c 0.21,-0.63 0.378,-1.68 0.546,-2.605 l 0.084,0 c 0.211,0.883 0.379,1.975 0.589,2.605 l 4.959,14.498 c 0.126,0.336 0.126,0.42 0.462,0.42 l 2.731,0 c 0.336,0 0.504,-0.168 0.504,-0.504 L 0,0 Z"
             style="fill:#122e5a;fill-opacity:1;fill-rule:nonzero;stroke:none"
             id="path110"
             inkscape:connector-curvature="0" /></g><g
           id="g112"
           transform="translate(580.04,23.4756)"><path
             d="M 0,0 C 0,2.186 -0.715,6.136 -4.371,6.136 -8.237,6.136 -9.077,2.101 -9.077,0 L 0,0 Z m 2.857,-10.086 c 0.042,-0.126 0.126,-0.21 0.126,-0.336 0,-0.462 -3.53,-2.184 -6.639,-2.184 -5.589,0.042 -8.867,4.286 -8.867,10.673 0,6.177 3.11,10.673 8.321,10.673 7.017,0 7.647,-6.807 7.647,-10.421 0,-0.589 0,-0.924 -0.462,-0.924 l -12.06,0 c 0,-2.564 1.009,-7.186 5.799,-7.186 2.731,0 4.917,1.723 5.169,1.723 0.126,0 0.168,-0.126 0.252,-0.252 l 0.714,-1.766 z"
             style="fill:#122e5a;fill-opacity:1;fill-rule:nonzero;stroke:none"
             id="path114"
             inkscape:connector-curvature="0" /></g><g
           id="g116"
           transform="translate(599.542,28.0137)"><path
             d="m 0,0 c -1.345,0.715 -2.689,1.387 -4.791,1.387 -3.614,0 -3.95,-4.118 -3.95,-8.195 0,-3.529 0.294,-7.521 3.698,-7.521 2.186,0 4.034,1.849 5.043,2.479 L 0,0 Z m 3.193,-9.917 c 0,-1.891 0,-3.151 0.462,-4.202 0.211,-0.505 0.757,-1.303 0.757,-1.555 0,-0.168 -0.21,-0.253 -0.378,-0.337 l -1.639,-1.008 c -0.168,-0.084 -0.252,-0.126 -0.336,-0.126 -0.588,0 -1.345,1.807 -1.513,2.479 -1.009,-0.714 -3.067,-2.479 -6.178,-2.479 -4.496,0 -6.555,5.042 -6.555,10.253 0,6.052 2.143,11.094 7.018,11.094 2.606,0 4.034,-0.714 5.169,-1.429 l 0,10.002 c 0,0.294 0.126,0.462 0.294,0.504 l 2.059,0.505 c 0.336,0.084 0.21,0.042 0.504,0.084 0.336,0 0.336,-0.337 0.336,-0.547 l 0,-23.238 z"
             style="fill:#122e5a;fill-opacity:1;fill-rule:nonzero;stroke:none"
             id="path118"
             inkscape:connector-curvature="0" /></g><g
           id="g120"
           transform="translate(612.4043,36.4609)"><path
             d="m 0,0 c -1.429,0 -2.563,1.134 -2.563,2.563 0,1.429 1.134,2.563 2.563,2.563 1.429,0 2.563,-1.176 2.563,-2.563 C 2.563,1.176 1.429,0 0,0 m 1.807,-24.5 c 0,-0.336 -0.168,-0.504 -0.504,-0.504 l -2.186,0 c -0.336,0 -0.504,0.168 -0.504,0.504 l 0,17.062 -3.278,0 c -0.336,0 -0.504,0.167 -0.504,0.503 l 0,1.598 c 0,0.336 0.168,0.504 0.504,0.504 l 5.926,0 c 0.462,0 0.546,-0.252 0.546,-0.63 l 0,-19.037 z"
             style="fill:#122e5a;fill-opacity:1;fill-rule:nonzero;stroke:none"
             id="path122"
             inkscape:connector-curvature="0" /></g><g
           id="g124"
           transform="translate(631.4434,23.4756)"><path
             d="M 0,0 C 0,2.186 -0.715,6.136 -4.371,6.136 -8.236,6.136 -9.077,2.101 -9.077,0 L 0,0 Z m 2.857,-10.086 c 0.042,-0.126 0.126,-0.21 0.126,-0.336 0,-0.462 -3.53,-2.184 -6.639,-2.184 -5.589,0.042 -8.867,4.286 -8.867,10.673 0,6.177 3.11,10.673 8.32,10.673 7.018,0 7.648,-6.807 7.648,-10.421 0,-0.589 0,-0.924 -0.462,-0.924 l -12.06,0 c 0,-2.564 1.009,-7.186 5.799,-7.186 2.731,0 4.917,1.723 5.169,1.723 0.126,0 0.168,-0.126 0.252,-0.252 l 0.714,-1.766 z"
             style="fill:#122e5a;fill-opacity:1;fill-rule:nonzero;stroke:none"
             id="path126"
             inkscape:connector-curvature="0" /></g><g
           id="g128"
           transform="translate(654.9375,11.9609)"><path
             d="m 0,0 c 0,-0.336 -0.168,-0.504 -0.505,-0.504 l -2.184,0 c -0.337,0 -0.505,0.168 -0.505,0.504 l 0,14.036 c 0,1.807 -0.462,3.403 -2.732,3.403 -2.731,0 -4.496,-1.638 -5.547,-2.563 l 0,-14.876 c 0,-0.336 -0.168,-0.504 -0.504,-0.504 l -2.185,0 c -0.336,0 -0.504,0.168 -0.504,0.504 l 0,14.498 c 0,1.387 0,1.85 -0.168,2.48 -0.337,1.26 -0.673,1.554 -0.673,1.764 0,0.084 0.042,0.168 0.21,0.295 l 1.892,1.05 c 0.084,0.042 0.21,0.168 0.336,0.168 0.756,0 1.26,-2.521 1.302,-2.858 1.387,1.093 3.573,2.858 6.766,2.858 C -0.337,20.255 0,16.978 0,13.952 L 0,0 Z"
             style="fill:#122e5a;fill-opacity:1;fill-rule:nonzero;stroke:none"
             id="path130"
             inkscape:connector-curvature="0" /></g><g
           id="g132"
           transform="translate(168.6567,73.2305)"><path
             d="m 0,0 c 0,-0.754 -0.119,-1.27 -0.353,-1.552 -0.236,-0.282 -0.776,-0.424 -1.623,-0.424 l -13.972,0 c -0.846,0 -1.389,0.142 -1.623,0.424 -0.236,0.282 -0.352,0.798 -0.352,1.552 l 0,43.469 c 0,1.316 -0.049,2.681 -0.141,4.092 -0.096,1.412 -0.353,2.681 -0.777,3.81 -0.423,1.13 -1.036,2.068 -1.835,2.823 -0.8,0.752 -1.859,1.129 -3.175,1.129 -1.506,0 -2.918,-0.212 -4.234,-0.635 -1.319,-0.423 -2.494,-0.965 -3.528,-1.623 -1.036,-0.659 -1.954,-1.319 -2.752,-1.975 -0.801,-0.66 -1.436,-1.178 -1.906,-1.553 l 0,-49.537 c 0,-0.754 -0.119,-1.27 -0.353,-1.552 -0.235,-0.282 -0.775,-0.424 -1.623,-0.424 l -13.971,0 c -0.847,0 -1.389,0.142 -1.623,0.424 -0.236,0.282 -0.353,0.798 -0.353,1.552 l 0,43.469 c 0,1.316 -0.049,2.681 -0.141,4.092 -0.095,1.412 -0.353,2.681 -0.776,3.81 -0.424,1.13 -1.037,2.068 -1.835,2.823 -0.801,0.752 -1.859,1.129 -3.176,1.129 -1.505,0 -2.917,-0.212 -4.233,-0.635 -1.319,-0.423 -2.495,-0.965 -3.529,-1.623 -1.036,-0.659 -1.953,-1.319 -2.752,-1.975 -0.8,-0.66 -1.435,-1.178 -1.905,-1.553 l 0,-49.537 c 0,-0.754 -0.119,-1.27 -0.353,-1.552 -0.236,-0.282 -0.776,-0.424 -1.623,-0.424 l -13.972,0 c -0.846,0 -1.389,0.142 -1.623,0.424 -0.236,0.282 -0.352,0.798 -0.352,1.552 l 0,42.621 c 0,4.986 -0.142,8.773 -0.424,11.361 -0.282,2.587 -0.589,4.539 -0.917,5.858 -0.331,1.316 -0.635,2.233 -0.918,2.752 -0.282,0.515 -0.423,1.199 -0.423,2.047 0,0.752 0.516,1.269 1.552,1.551 l 10.726,3.529 c 0.847,0.282 1.553,0.424 2.117,0.424 0.939,0 1.74,-0.801 2.399,-2.401 0.658,-1.599 1.363,-4.046 2.118,-7.338 1.034,0.94 2.233,1.976 3.598,3.105 1.363,1.13 2.915,2.187 4.657,3.176 1.74,0.987 3.692,1.809 5.857,2.469 2.164,0.657 4.658,0.989 7.48,0.989 1.504,0 3.035,-0.237 4.587,-0.706 1.553,-0.472 2.986,-1.13 4.305,-1.976 1.316,-0.848 2.445,-1.859 3.387,-3.035 0.939,-1.178 1.645,-2.518 2.116,-4.022 1.035,0.94 2.21,1.976 3.529,3.105 1.317,1.13 2.869,2.187 4.657,3.176 1.787,0.987 3.787,1.809 5.998,2.469 2.21,0.657 4.774,0.989 7.692,0.989 3.292,0 5.998,-0.59 8.115,-1.765 2.117,-1.178 3.786,-2.776 5.01,-4.798 1.222,-2.025 2.068,-4.375 2.54,-7.057 C -0.236,53.842 0,50.948 0,47.844 L 0,0 Z"
             style="fill:#91141b;fill-opacity:1;fill-rule:nonzero;stroke:none"
             id="path134"
             inkscape:connector-curvature="0" /></g><g
           id="g136"
           transform="translate(222.6973,114.4414)"><path
             d="m 0,0 c 0,1.41 -0.07,3.033 -0.211,4.868 -0.142,1.835 -0.543,3.575 -1.2,5.222 -0.659,1.645 -1.672,3.01 -3.034,4.094 -1.366,1.08 -3.271,1.623 -5.716,1.623 -2.73,0 -4.869,-0.636 -6.422,-1.907 -1.552,-1.269 -2.73,-2.775 -3.528,-4.515 -0.8,-1.742 -1.319,-3.506 -1.552,-5.293 C -21.899,2.304 -22.064,0.939 -22.157,0 L 0,0 Z m 16.371,-35.707 c 0.283,-0.472 0.424,-0.987 0.424,-1.552 0,-0.941 -0.801,-1.905 -2.399,-2.893 -1.602,-0.988 -3.624,-1.883 -6.069,-2.682 -2.448,-0.798 -5.151,-1.457 -8.115,-1.976 -2.964,-0.515 -5.857,-0.776 -8.68,-0.776 -4.705,0 -8.986,0.684 -12.843,2.047 -3.858,1.362 -7.175,3.528 -9.949,6.492 -2.777,2.963 -4.94,6.75 -6.492,11.36 -1.553,4.61 -2.329,10.162 -2.329,16.654 0,5.645 0.728,10.797 2.187,15.454 1.458,4.657 3.529,8.655 6.21,11.996 2.682,3.339 5.928,5.927 9.738,7.763 3.811,1.834 8.067,2.752 12.773,2.752 6.02,0 10.867,-1.201 14.536,-3.6 3.67,-2.398 6.514,-5.482 8.538,-9.244 2.023,-3.764 3.388,-7.928 4.093,-12.49 0.706,-4.565 1.059,-8.961 1.059,-13.196 0,-1.318 -0.212,-2.236 -0.636,-2.752 -0.423,-0.517 -1.294,-0.776 -2.61,-0.776 l -37.964,0 c 0,-1.976 0.187,-4 0.564,-6.068 0.375,-2.071 1.129,-3.976 2.259,-5.716 1.128,-1.742 2.703,-3.153 4.727,-4.235 2.023,-1.082 4.68,-1.622 7.974,-1.622 2.54,0 4.799,0.234 6.774,0.705 1.976,0.47 3.716,1.01 5.222,1.624 1.504,0.611 2.752,1.151 3.74,1.623 0.988,0.469 1.716,0.706 2.188,0.706 0.657,0 1.175,-0.378 1.552,-1.13 l 3.528,-8.468 z"
             style="fill:#91141b;fill-opacity:1;fill-rule:nonzero;stroke:none"
             id="path138"
             inkscape:connector-curvature="0" /></g><g
           id="g140"
           transform="translate(294.5449,126.4375)"><path
             d="m 0,0 c -0.659,0.374 -1.671,0.939 -3.034,1.693 -1.365,0.752 -3.552,1.129 -6.563,1.129 -2.635,0 -4.776,-0.494 -6.421,-1.482 -1.648,-0.988 -2.942,-2.47 -3.881,-4.445 -0.942,-1.977 -1.577,-4.424 -1.905,-7.339 -0.331,-2.917 -0.494,-6.351 -0.494,-10.302 0,-7.999 0.822,-13.785 2.469,-17.359 1.645,-3.578 4.775,-5.364 9.386,-5.364 3.197,0 5.526,0.587 6.985,1.764 1.458,1.176 2.611,2.234 3.458,3.176 L 0,0 Z M 8.468,-57.018 C 8.186,-57.11 7.879,-57.229 7.551,-57.37 7.22,-57.512 6.916,-57.582 6.633,-57.582 c -0.282,0 -0.635,0.282 -1.058,0.847 -0.424,0.564 -0.825,1.27 -1.2,2.117 -0.377,0.847 -0.729,1.764 -1.058,2.752 -0.331,0.988 -0.589,1.905 -0.776,2.752 -0.565,-0.565 -1.39,-1.319 -2.47,-2.258 -1.083,-0.941 -2.4,-1.859 -3.952,-2.752 -1.552,-0.896 -3.341,-1.693 -5.363,-2.399 -2.024,-0.706 -4.304,-1.059 -6.845,-1.059 -8.093,0 -14.137,3.034 -18.135,9.103 -4,6.069 -5.998,14.512 -5.998,25.333 0,13.454 2.305,23.498 6.915,30.131 4.609,6.634 11.337,9.951 20.182,9.951 3.857,0 6.726,-0.519 8.609,-1.553 1.881,-1.037 3.387,-1.93 4.516,-2.682 l 0,28.932 c 0,1.034 0.234,1.67 0.706,1.905 0.47,0.233 1.129,0.445 1.976,0.636 l 11.855,2.398 c 0.187,0 0.516,0.071 0.987,0.212 0.47,0.142 0.799,0.212 0.989,0.212 0.564,0 0.939,-0.189 1.129,-0.564 0.187,-0.377 0.282,-1.178 0.282,-2.4 l 0,-77.057 c 0,-3.387 0.141,-6.118 0.423,-8.186 0.282,-2.07 0.565,-3.739 0.847,-5.01 0.282,-1.27 0.564,-2.282 0.847,-3.034 0.282,-0.755 0.423,-1.46 0.423,-2.117 0,-0.472 -0.423,-0.896 -1.27,-1.271 L 8.468,-57.018 Z"
             style="fill:#91141b;fill-opacity:1;fill-rule:nonzero;stroke:none"
             id="path142"
             inkscape:connector-curvature="0" /></g><g
           id="g144"
           transform="translate(353.8193,153.5332)"><path
             d="m 0,0 c -2.258,-2.258 -4.988,-3.387 -8.186,-3.387 -3.294,0 -6.068,1.129 -8.326,3.387 -2.259,2.259 -3.387,5.033 -3.387,8.328 0,3.291 1.128,6.043 3.387,8.256 2.258,2.209 5.032,3.316 8.326,3.316 3.198,0 5.928,-1.107 8.186,-3.316 C 2.258,14.371 3.387,11.619 3.387,8.328 3.387,5.033 2.258,2.259 0,0 m 0.847,-80.303 c 0,-0.754 -0.119,-1.269 -0.353,-1.551 -0.236,-0.283 -0.776,-0.424 -1.623,-0.424 l -13.972,0 c -0.847,0 -1.389,0.141 -1.623,0.424 -0.236,0.282 -0.353,0.797 -0.353,1.551 l 0,54.617 -10.867,0 c -0.847,0 -1.389,0.142 -1.623,0.424 -0.236,0.283 -0.352,0.799 -0.352,1.553 l 0,9.174 c 0,0.752 0.116,1.269 0.352,1.552 0.234,0.282 0.776,0.422 1.623,0.422 l 26.815,0 c 0.847,0 1.387,-0.14 1.623,-0.422 0.234,-0.283 0.353,-0.8 0.353,-1.552 l 0,-65.768 z"
             style="fill:#91141b;fill-opacity:1;fill-rule:nonzero;stroke:none"
             id="path146"
             inkscape:connector-curvature="0" /></g><g
           id="g148"
           transform="translate(534.6055,73.2305)"><path
             d="m 0,0 c 0,-0.754 -0.119,-1.27 -0.353,-1.551 -0.236,-0.283 -0.776,-0.424 -1.623,-0.424 l -13.971,0 c -0.848,0 -1.39,0.141 -1.623,0.424 -0.237,0.281 -0.354,0.797 -0.354,1.551 l 0,43.469 c 0,1.316 -0.048,2.681 -0.14,4.093 -0.095,1.411 -0.354,2.681 -0.777,3.81 -0.424,1.13 -1.036,2.068 -1.835,2.823 -0.801,0.752 -1.858,1.129 -3.175,1.129 -1.506,0 -2.918,-0.212 -4.234,-0.635 -1.318,-0.423 -2.494,-0.966 -3.528,-1.623 -1.036,-0.66 -1.954,-1.319 -2.752,-1.976 -0.801,-0.659 -1.436,-1.178 -1.906,-1.553 l 0,-49.537 c 0,-0.754 -0.119,-1.27 -0.352,-1.551 -0.236,-0.283 -0.776,-0.424 -1.623,-0.424 l -13.972,0 c -0.847,0 -1.389,0.141 -1.623,0.424 -0.236,0.281 -0.353,0.797 -0.353,1.551 l 0,43.469 c 0,1.316 -0.048,2.681 -0.141,4.093 -0.095,1.411 -0.353,2.681 -0.776,3.81 -0.424,1.13 -1.036,2.068 -1.835,2.823 -0.801,0.752 -1.859,1.129 -3.175,1.129 -1.507,0 -2.918,-0.212 -4.234,-0.635 -1.319,-0.423 -2.495,-0.966 -3.529,-1.623 -1.036,-0.66 -1.954,-1.319 -2.752,-1.976 -0.801,-0.659 -1.435,-1.178 -1.905,-1.553 l 0,-49.537 c 0,-0.754 -0.119,-1.27 -0.353,-1.551 -0.236,-0.283 -0.776,-0.424 -1.623,-0.424 l -13.971,0 c -0.848,0 -1.39,0.141 -1.623,0.424 -0.237,0.281 -0.354,0.797 -0.354,1.551 l 0,42.622 c 0,4.985 -0.14,8.773 -0.423,11.36 -0.282,2.588 -0.589,4.539 -0.918,5.858 -0.33,1.316 -0.634,2.234 -0.917,2.752 -0.282,0.515 -0.423,1.199 -0.423,2.047 0,0.752 0.516,1.269 1.552,1.552 l 10.726,3.528 c 0.847,0.283 1.553,0.424 2.117,0.424 0.939,0 1.74,-0.801 2.399,-2.4 0.658,-1.6 1.364,-4.046 2.118,-7.339 1.034,0.94 2.233,1.977 3.598,3.106 1.363,1.129 2.915,2.187 4.657,3.176 1.741,0.987 3.692,1.809 5.858,2.468 2.163,0.658 4.657,0.989 7.479,0.989 1.504,0 3.035,-0.237 4.587,-0.705 1.552,-0.473 2.986,-1.13 4.305,-1.977 1.316,-0.847 2.445,-1.859 3.387,-3.034 0.939,-1.178 1.645,-2.519 2.117,-4.023 1.034,0.94 2.209,1.977 3.528,3.106 1.317,1.129 2.868,2.187 4.657,3.176 1.787,0.987 3.787,1.809 5.998,2.468 2.209,0.658 4.775,0.989 7.692,0.989 3.292,0 5.998,-0.589 8.115,-1.764 2.116,-1.178 3.786,-2.777 5.01,-4.799 1.222,-2.024 2.068,-4.375 2.54,-7.057 C -0.236,53.842 0,50.949 0,47.844 L 0,0 Z"
             style="fill:#122e5a;fill-opacity:1;fill-rule:nonzero;stroke:none"
             id="path150"
             inkscape:connector-curvature="0" /></g><g
           id="g152"
           transform="translate(586.2598,84.7324)"><path
             d="m 0,0 c 1.504,1.176 2.682,2.799 3.528,4.869 0.847,2.069 1.411,4.518 1.694,7.34 0.282,2.822 0.423,5.879 0.423,9.174 0,3.291 -0.141,6.349 -0.423,9.173 -0.283,2.823 -0.847,5.268 -1.694,7.339 -0.846,2.068 -2.024,3.691 -3.528,4.869 -1.506,1.175 -3.482,1.763 -5.928,1.763 -2.447,0 -4.424,-0.588 -5.927,-1.763 -1.506,-1.178 -2.682,-2.801 -3.529,-4.869 -0.846,-2.071 -1.411,-4.516 -1.693,-7.339 -0.282,-2.824 -0.423,-5.882 -0.423,-9.173 0,-3.295 0.141,-6.352 0.423,-9.174 0.282,-2.822 0.847,-5.271 1.693,-7.34 0.847,-2.07 2.023,-3.693 3.529,-4.869 1.503,-1.176 3.48,-1.764 5.927,-1.764 2.446,0 4.422,0.588 5.928,1.764 m 22.581,5.998 c -1.412,-4.609 -3.436,-8.537 -6.069,-11.783 -2.635,-3.246 -5.835,-5.74 -9.597,-7.481 -3.764,-1.74 -8.044,-2.611 -12.843,-2.611 -4.799,0 -9.081,0.871 -12.843,2.611 -3.764,1.741 -6.963,4.235 -9.596,7.481 -2.636,3.246 -4.657,7.174 -6.07,11.783 -1.411,4.609 -2.116,9.738 -2.116,15.385 0,5.644 0.705,10.771 2.116,15.383 1.413,4.608 3.434,8.538 6.07,11.784 2.633,3.246 5.832,5.737 9.596,7.479 3.762,1.741 8.044,2.612 12.843,2.612 4.704,0 8.962,-0.871 12.773,-2.612 3.81,-1.742 7.032,-4.233 9.667,-7.479 2.633,-3.246 4.657,-7.176 6.069,-11.784 1.411,-4.612 2.116,-9.739 2.116,-15.383 0,-5.647 -0.705,-10.776 -2.116,-15.385"
             style="fill:#122e5a;fill-opacity:1;fill-rule:nonzero;stroke:none"
             id="path154"
             inkscape:connector-curvature="0" /></g><g
           id="g156"
           transform="translate(644.8281,73.2305)"><path
             d="m 0,0 c 0,-0.754 -0.119,-1.27 -0.353,-1.551 -0.236,-0.283 -0.776,-0.424 -1.623,-0.424 l -13.972,0 c -0.847,0 -1.389,0.141 -1.622,0.424 -0.237,0.281 -0.354,0.797 -0.354,1.551 l 0,42.622 c 0,3.857 -0.189,6.985 -0.564,9.386 -0.377,2.398 -0.801,4.349 -1.271,5.856 -0.471,1.504 -0.894,2.682 -1.269,3.529 -0.377,0.846 -0.565,1.693 -0.565,2.54 0,0.469 0.423,0.893 1.27,1.27 l 10.726,4.375 c 0.283,0.092 0.586,0.211 0.917,0.353 0.329,0.141 0.635,0.212 0.917,0.212 0.375,0 0.848,-0.354 1.412,-1.059 0.565,-0.705 1.08,-1.602 1.552,-2.682 0.47,-1.082 0.918,-2.282 1.341,-3.598 0.424,-1.32 0.728,-2.589 0.918,-3.811 0.657,0.847 1.504,1.881 2.54,3.105 1.034,1.222 2.258,2.445 3.669,3.67 1.412,1.221 3.035,2.257 4.869,3.105 1.835,0.846 3.974,1.27 6.422,1.27 2.068,0 3.951,-0.307 5.645,-0.918 1.694,-0.613 2.541,-1.389 2.541,-2.329 0,-0.564 -0.095,-1.036 -0.283,-1.411 L 18.488,53.631 c -0.094,-0.191 -0.236,-0.448 -0.424,-0.777 -0.189,-0.331 -0.422,-0.495 -0.705,-0.495 -0.472,0 -1.295,0.259 -2.469,0.778 -1.178,0.515 -2.566,0.775 -4.164,0.775 -1.129,0 -2.236,-0.26 -3.317,-0.775 C 6.326,52.618 5.314,52.008 4.375,51.302 3.434,50.596 2.587,49.842 1.835,49.043 1.08,48.243 0.47,47.607 0,47.139 L 0,0 Z"
             style="fill:#122e5a;fill-opacity:1;fill-rule:nonzero;stroke:none"
             id="path158"
             inkscape:connector-curvature="0" /></g><g
           id="g160"
           transform="translate(407.8564,87.0742)"><path
             d="m 0,0 c -1.015,-0.908 -2.519,-2.147 -3.936,-3.291 -1.751,-1.413 -4,-2.047 -6.633,-2.047 -2.73,0 -4.964,0.918 -6.703,2.752 -1.743,1.836 -2.612,4.115 -2.612,6.846 0,3.105 0.869,5.433 2.612,6.986 1.739,1.553 3.74,2.656 5.998,3.317 0.876,0.254 1.743,0.445 2.604,0.601 -0.002,0 0.697,0.135 1.495,0.232 -1.514,3.608 -2.978,7.343 -4.379,11.194 -0.926,-0.118 -2.592,-0.327 -2.967,-0.385 -2.73,-0.422 -5.411,-1.105 -8.044,-2.045 -2.635,-0.941 -5.01,-2.306 -7.127,-4.094 -2.118,-1.789 -3.835,-4.046 -5.152,-6.773 -1.318,-2.73 -1.975,-6.07 -1.975,-10.022 0,-6.681 1.905,-11.974 5.715,-15.876 3.811,-3.903 8.962,-5.858 15.455,-5.858 2.632,0 4.939,0.307 6.915,0.918 1.975,0.613 3.691,1.365 5.151,2.258 1.458,0.892 2.682,1.81 3.669,2.752 0.988,0.939 1.857,1.787 2.611,2.541 0.188,-0.848 0.446,-1.764 0.777,-2.752 0.328,-0.988 0.681,-1.906 1.058,-2.752 0.375,-0.848 0.777,-1.553 1.199,-2.117 0.424,-0.565 0.777,-0.848 1.059,-0.848 0.282,0 0.587,0.07 0.917,0.213 0.329,0.141 0.636,0.26 0.918,0.352 l 1.642,0.669 C 6.757,-12.173 3.306,-6.39 0,0"
             style="fill:#91141b;fill-opacity:1;fill-rule:nonzero;stroke:none"
             id="path162"
             inkscape:connector-curvature="0" /></g><g
           id="g164"
           transform="translate(390.1709,132.7173)"><path
             d="m 0,0 c -0.864,3.066 -1.664,6.112 -2.404,9.133 -1.152,-0.22 -2.45,-0.49 -3.745,-0.839 -2.449,-0.658 -4.447,-1.365 -5.998,-2.117 -1.553,-0.754 -2.33,-1.552 -2.33,-2.398 0,-0.565 0.142,-1.129 0.424,-1.694 l 2.823,-8.609 c 0.092,-0.281 0.257,-0.588 0.494,-0.918 0.233,-0.33 0.54,-0.494 0.917,-0.494 0.469,0 1.27,0.213 2.399,0.637 1.129,0.422 2.492,0.916 4.093,1.48 1.211,0.427 3.217,0.988 4.633,1.338 C 0.86,-2.999 0.425,-1.506 0,0"
             style="fill:#91141b;fill-opacity:1;fill-rule:nonzero;stroke:none"
             id="path166"
             inkscape:connector-curvature="0" /></g></g></g></g></svg>