<?xml version="1.0" encoding="utf-8"?>
<!-- Generator: Adobe Illustrator 21.0.0, SVG Export Plug-In . SVG Version: 6.00 Build 0)  -->
<svg version="1.1" id="Ebene_1" xmlns="http://www.w3.org/2000/svg" xmlns:xlink="http://www.w3.org/1999/xlink" x="0px" y="0px"
	 viewBox="0 0 800 800" style="enable-background:new 0 0 800 800;" xml:space="preserve">
<style type="text/css">
	.st0{fill:#40403F;}
	.st1{fill:#2F2F2D;}
	.st2{fill:#5E2F10;}
	.st3{fill:#AD3234;}
	.st4{fill:#E0CB8E;}
	.st5{fill:#E7D6C2;}
	.st6{fill:#EEE3D5;}
	.st7{fill:#F6EBC7;}
	.st8{fill:#59453A;}
	.st9{fill:#331E12;}
	.st10{fill:#3E291D;}
	.st11{fill:#1B1B19;}
	.st12{fill:#4F3A2F;}
</style>
<g>
	<path class="st0" d="M332,744.2c16-16.5,15.6-42.9-0.9-59.1c-16.5-16.2-43.1-15.8-59.3,0.9l-12.3,12.7
		c-19.6,20.4-39.1,40.9-58.5,61.7s-38.6,41.7-57.6,63.9c-4.8,5.5-9.5,11.2-14.3,17.1l-3.6,4.5l-2.5,3.2c-1,1.3-2.1,2.7-3.1,4.1
		l-6.1,8.5c-2,2.9-3.5,5.9-5.3,8.8c-3.3,6-4.8,12.2-6.2,18.5c-0.3,1.6-1,3.2-0.9,4.8l0.4,4.9c0.2,3.2,0.7,6.4,1.3,9.6
		c0.2,1.6,0.8,3.2,1.3,4.8l1.7,4.7c1.3,3.2,2.9,6.2,4.3,9.4c1.5,3.1,3.4,6.1,5.1,9.2l2.6,4.5l2.1,3.4c8.4,13.4,16.7,25.2,25.2,37.1
		c8.5,11.8,17.1,23.3,25.7,34.7l18.3,23.9l66.2-51.3l-17.8-23.2c-8.3-11-16.6-22-24.5-33.1c-7.9-11-15.7-22.1-22.2-32.6l-0.7-1.2
		l3.8-4.7c4.1-5,8.4-10.1,12.8-15.2c17.6-20.5,36.4-41,55.4-61.3c19-20.4,38.2-40.6,57.6-60.7L332,744.2z"/>
	<g>
		<path class="st0" d="M563.2,693.3c-5.7-6.6-13.1-12.2-21.6-15.5s-17.4-4.3-24.9-2.6c-3.7,0.7-7,2.1-9.7,3.9
			c-2.7,1.7-4.9,3.8-6.6,6.3c-3.4,4.8-4.8,10.2-4.8,16c0,11.5,3.6,22.2,2.9,30.1c-0.6,7.9-3,11.7,0.9,16c1.9,2.1,3.9,5.3,6,8.6
			c4.4,7.6,8.6,16.9,12.2,27.2c3.6,10.2,6.8,21.1,9.6,32.3c5.6,22.4,9.8,46.1,13.2,70c6.8,48,10.4,97.2,12.5,146.5l1,29.1l83.7-2.3
			l-1-30.3c-2.2-51.4-6-102.9-13.3-154.9c-3.7-26-8.3-52.1-14.9-78.6c-3.3-13.3-7.2-26.6-12-40.2c-4.8-13.5-10.8-27.4-19-41.6
			C573.3,706.7,569,700,563.2,693.3"/>
	</g>
	<g>
		<path class="st1" d="M525.5,672.9c-27.6-6.1-70.2-13.6-114.4-13.6c-44.3,0-87.1,7.5-114.7,13.6c-17.5,3.9-31.4,22.5-31.4,40.4
			v291.8h292V713.4C556.9,695.5,542.9,676.8,525.5,672.9"/>
	</g>
	<polygon class="st2" points="471.4,626.2 475.9,664 410.9,705.2 345.9,664.1 350.4,626.2 	"/>
	<g>
		<path class="st3" d="M410.9,979.3c-1.4,0-2.5-1.1-2.5-2.5V718.7c0-1.4,1.1-2.5,2.5-2.5s2.5,1.1,2.5,2.5v258.1
			C413.4,978.2,412.3,979.3,410.9,979.3"/>
	</g>
	<g>
		<path class="st4" d="M471.9,647.7c0,0-19.3,9.4-60.8,9.4s-61.2-9.5-61.2-9.5s32.8-6.9,61.2-6.9
			C439.5,640.7,471.9,647.7,471.9,647.7"/>
		<path class="st5" d="M464.5,138.2H357.6c-145.7,0-147.9,271.2-147.9,271.2v73.1c0,92.5,75,167.4,167.4,167.4H445
			c92.5,0,167.4-75,167.4-167.4v-72.8C612.4,409.7,610.3,138.2,464.5,138.2"/>
		<path class="st2" d="M523.9,472.1c0,11.5-9.3,20.9-20.9,20.9c-11.5,0-20.8-9.3-20.8-20.9v-9c0-11.5,9.3-20.9,20.8-20.9
			c11.5,0,20.9,9.3,20.9,20.9V472.1z"/>
		<path class="st5" d="M257.2,498c0,21.2-17.2,38.3-38.3,38.3c-21.2,0-38.3-17.2-38.3-38.3c0-21.1,17.2-38.3,38.3-38.3
			C240.1,459.7,257.2,476.9,257.2,498"/>
		<path class="st5" d="M632.4,498c0,21.2-17.2,38.3-38.3,38.3s-38.3-17.2-38.3-38.3c0-21.2,17.2-38.3,38.3-38.3
			S632.4,476.9,632.4,498"/>
		<path class="st2" d="M338,472.1c0,11.5-9.3,20.9-20.9,20.9c-11.5,0-20.8-9.3-20.8-20.9v-9c0-11.5,9.3-20.9,20.8-20.9
			s20.9,9.3,20.9,20.9V472.1z"/>
		<path class="st6" d="M314.2,399.5c-38.9,0-70.4,31.1-70.4,69.5c0,5.2,0.6,10.4,1.7,15.3c0.8,2.2,1.5,4.5,1.9,6.9
			c9.4,27.5,35.7,47.4,66.8,47.4c38.9,0,70.4-31.1,70.4-69.5C384.6,430.6,353.1,399.5,314.2,399.5 M317.1,493
			c-11.5,0-20.8-9.3-20.8-20.9v-9c0-11.5,9.3-20.9,20.8-20.9s20.9,9.3,20.9,20.9v9C338,483.6,328.6,493,317.1,493"/>
		<path class="st7" d="M245.5,484.2c0.5,2.3,1.2,4.6,1.9,6.9C247,488.7,246.3,486.4,245.5,484.2"/>
		<path class="st8" d="M317.1,442.2c-11.5,0-20.8,9.3-20.8,20.9v9c0,11.5,9.3,20.9,20.8,20.9s20.9-9.3,20.9-20.9v-9
			C338,451.5,328.6,442.2,317.1,442.2"/>
		<path class="st6" d="M500.3,399.5c-38.9,0-70.4,31.1-70.4,69.5s31.5,69.5,70.4,69.5s70.4-31.1,70.4-69.5
			C570.8,430.6,539.2,399.5,500.3,399.5 M503,493c-11.5,0-20.8-9.3-20.8-20.9v-9c0-11.5,9.3-20.9,20.8-20.9s20.9,9.3,20.9,20.9v9
			C523.9,483.6,514.6,493,503,493"/>
		<path class="st8" d="M503,442.2c-11.5,0-20.8,9.3-20.8,20.9v9c0,11.5,9.3,20.9,20.8,20.9s20.9-9.3,20.9-20.9v-9
			C523.9,451.5,514.6,442.2,503,442.2"/>
		<path class="st9" d="M605.1,104c26,7.3,36.5,27.3,39.9,36C625.8,114.2,605.1,104,605.1,104 M741.1,223.8
			c-36.3,12.3-66.7-13.5-66.7-13.5c-5.1-29.8-16.2-52.2-28-68.6c-5.5-107.1-112-88.7-112-88.7C468.7-7.1,412,28.4,412,28.4
			C153.8,6.3,130.1,207,130.1,207c-39.4,60.1-15.6,123-15.6,123c-4.2,29.6,17.4,51.5,17.4,51.5c5.6,22.2,28.3,39.7,28.3,39.7
			c16.9,12.7,22.8,33,22.8,33c-5.2,23,14.7,34,14.7,34c4.6,2,15.5,15.3,15.5,15.3C209.8,486.5,240,374,240,374
			c18.6-105.1,129.3-120.8,129.3-120.8c-13.3,24-23.1,46.1-30.1,66.6c38.1-54.2,62.1-62.5,62.1-62.5c34.6-30.1,66.5-21.1,66.5-21.1
			c33.5,23.4,76.4,10.6,76.4,10.6c-23.8,20.2-63.5,16.6-63.5,16.6c38.3,28.5,80.3,18.9,80.3,18.9c5.7,34.2-35.8,65.3-35.8,65.3
			C578,333,586,293.5,586,293.5c-0.9,31.5-33.6,50-33.6,50c19.2,7.2,25.2-0.8,25.2-0.8c28.5,45.5,23,119.4,23,119.4
			c-7.1,38.3,5.9,22.2,5.9,22.2c4.7-11.1,43.5-49.7,43.5-49.7c64.3-65.2,43.5-183.7,43.5-183.7C731.8,247.1,741.1,223.8,741.1,223.8
			"/>
		<path class="st10" d="M605.1,104c25.7,7.2,36.3,26.9,39.8,35.7C625.7,114.1,605.1,104,605.1,104 M741.1,223.8
			c-36.3,12.3-66.7-13.5-66.7-13.5c-5.1-29.8-16.2-52.2-28-68.6c-5.3-107.2-112-88.7-112-88.7C468.6-7.1,412,28.4,412,28.4
			C153.8,6.3,130.1,207,130.1,207c-1.4,2.1-2.8,4.4-4.1,6.5c20.1-12.2,43.6-29.1,46.4-42.1c4.9-23,50.4-75,91.3-71.5
			c0,0-51.3,34-61.6,87.7c0,0,77.9-73.9,154.2-65.4c0,0-68.8,19.1-102.5,67c0,0,47.9-34.9,76.2-21.9c0,0,66.3,36.2,111.7-16.8
			c0,0,19.4-49,78.1-26.3c0,0,21-28.6-42.1-66.1c0,0,47.2,14.9,66.1,63.3c0,0-11.1-31.6-34.6-53.7c0,0,35.5,22.2,42.2,53.1
			c0,0,9.5-20.2-14.9-53c0,0,47.6,49.5,18.7,90.5c0,0,17.9-11,20.2-39.3c0,0,38.5,63.1-42.3,112.3c0,0,24.8-4.5,42.9-21.2
			c-5-1.4-8.5-3.1-8.5-3.1c4.5,0.6,8.3,0.5,11.6,0c8.4-8.9,14.8-20.8,15.4-36.5c0,0,12,32.7-15.4,36.5c-1,1-2,2.1-3.1,3
			c10.9,3,29.2,4.5,34.5-15.9c0,0,23.8,25.3-10.6,64.5c0,0,37.5,2.7,49.8-23c0,0,22.9,4.6,44.1,101.5c6.8-46.3-0.2-86.4-0.2-86.4
			C731.8,247.1,741.1,223.8,741.1,223.8"/>
		<path class="st11" d="M500.6,535.3c-37.5,0.2-68-30.1-68.2-67.5c-0.2-37.5,30.1-68,67.5-68.2c37.5-0.2,68,30.1,68.2,67.5
			C568.3,504.6,538.1,535.1,500.6,535.3 M314.7,536.2c-37.5,0.2-68-30.1-68.2-67.5c-0.2-37.5,30.1-68,67.5-68.2
			c37.5-0.2,68,30.1,68.2,67.6C382.5,505.5,352.2,536,314.7,536.2 M585.1,451.8c-5.4,0.2-11.7,1.5-12.8-2.5
			c-1.1-4.1-6.8-25.6-19.3-35.7c-12.5-10.2-24.8-18.3-45.6-20.8c-13.5,0.2-35.4,1.1-52.1,15.8c-16.6,14.7-23.4,27.4-27.8,41.3
			L410,450h-5.9l-17.4,0.1c-4.5-13.9-11.5-26.5-28.2-41.1c-16.8-14.6-38.7-15.2-52.2-15.3c-20.8,2.7-33,10.9-45.4,21.2
			c-12.4,10.3-17.9,31.8-19,35.9s-32.9,2.8-38.3,2.7c-5.4-0.2-6.3,1.7-6.3,1.7l0.1,18.1c0,0,32.2,0.5,36.9,1.9
			c4.7,1.5,5.5,2.7,5.7,5.7c6.5,15.8,12,26.7,23.5,41.7c24.9,24.9,62.2,23.5,82.7,14.5s25-20,32.6-30.6s9.9-32.4,10.6-37
			s5.5-6,5.5-6h9.3h5.9h9.3c0,0,4.8,1.3,5.6,5.9c0.8,4.6,3.3,26.3,10.9,36.9c7.7,10.5,12.3,21.5,32.9,30.3s58,9.9,82.6-15.2
			c11.3-15.2,16.7-26.1,23.1-41.9c0.2-3,1-4.2,5.7-5.7s32.9-2,32.9-2l-0.1-18.1C613,453.4,590.5,451.5,585.1,451.8"/>
		<path class="st9" d="M424.3,630.4c-3.4,0-22.3-0.2-25.6-0.7c-5.3-0.8,15.9,31.2-13.2,20.2c-26.3-9.9-46.3-32.5-46.3-48.6
			c0-17.2,23.8-16.5,51.8-21.2c6.3-1.1,18.8-7.2,18.8-7.2s13.6,6,19.5,6.9c28.7,4.5,53.2,6.7,53.2,24.2c0,18.7-22.1,38.9-49.8,48.5
			C414.6,658.8,428.4,630.4,424.3,630.4 M494.2,597.2c-2.8-15.2-9.8-24.3-20.1-29.1c-14.7-6.8-22.4-7.9-31.8-7.6
			c-16,0.4-33.9,2.8-33.9,2.8s-22.8-8.3-46.5-1.6c-24.4,6.9-37.9,24.6-41.4,31.4c-6.7,12.9,2.1,60.2,4.1,76.8
			c1.2,10,8.8,22.5,17.2,27.9c3.9,2.5,42.7,23.9,49.2,24.1c8.2,0.3,16.4,0.6,24.6,1c7.3,0.3,19.8-0.3,26.6-3.1
			c13.1-5.4,33.2-19.4,45.8-32C501,674.6,495.4,603.8,494.2,597.2"/>
		<path class="st3" d="M435.4,773.6c0,4-3.2,7.2-7.2,7.2s-7.2-3.2-7.2-7.2s3.2-7.2,7.2-7.2C432.2,766.4,435.4,769.6,435.4,773.6"/>
		<path class="st3" d="M435.4,819.1c0,4-3.2,7.2-7.2,7.2s-7.2-3.2-7.2-7.2s3.2-7.2,7.2-7.2C432.2,811.9,435.4,815.1,435.4,819.1"/>
		<path class="st3" d="M435.4,863.1c0,4-3.2,7.2-7.2,7.2s-7.2-3.2-7.2-7.2s3.2-7.2,7.2-7.2C432.2,855.9,435.4,859.1,435.4,863.1"/>
		<path class="st12" d="M411.6,618.2c-43.8,0-61-5-61.7-5.2c-3.9-1.2-6.1-5.3-4.9-9.2s5.3-6.1,9.2-4.9c0.3,0.1,16.6,4.6,57.5,4.6
			c41.1,0,57.4-4.6,57.5-4.6c3.9-1.1,8,1.1,9.2,5s-1,8-4.9,9.1C472.6,613.2,455.4,618.2,411.6,618.2"/>
	</g>
</g>
</svg>
