<?xml version="1.0" encoding="utf-8"?>
<!-- Generator: Adobe Illustrator 21.0.0, SVG Export Plug-In . SVG Version: 6.00 Build 0)  -->
<svg version="1.1" id="Ebene_1" xmlns="http://www.w3.org/2000/svg" xmlns:xlink="http://www.w3.org/1999/xlink" x="0px" y="0px"
	 viewBox="0 0 800 800" style="enable-background:new 0 0 800 800;" xml:space="preserve">
<style type="text/css">
	.st0{fill:#E7D6C2;}
	.st1{fill:#2F2F2D;}
	.st2{fill:#3F1910;}
	.st3{fill:#624D36;}
	.st4{fill:#4F3A2F;}
</style>
<g>
	<g>
		<path class="st0" d="M261.5,438.2c0,21.9-17.7,39.6-39.6,39.6s-39.6-17.7-39.6-39.6s17.7-39.6,39.6-39.6
			C243.7,398.6,261.5,416.3,261.5,438.2"/>
		<path class="st0" d="M640.7,429.1c0,21.9-17.7,39.6-39.6,39.6c-21.9,0-39.6-17.7-39.6-39.6s17.7-39.6,39.6-39.6
			S640.7,407.3,640.7,429.1"/>
		<path class="st1" d="M534.1,676.5c-29.7-6.6-75.4-14.6-123.1-14.6s-93.6,8-123.4,14.7c-18.8,4.2-33.8,24.2-33.8,43.4v313.7h313.9
			V720C567.9,700.7,552.9,680.7,534.1,676.5"/>
		<path class="st0" d="M473.1,629.3l4.8,39.9c0,0-31.8,52.3-68.6,47.5c-36.8-4.9-68.6-47.4-68.6-47.4l4.8-39.9L473.1,629.3
			L473.1,629.3z"/>
	</g>
	<g>
		<path class="st0" d="M466.6,115.8H359.3C213,115.8,210.8,396,210.8,396s13.1,226.8,168.1,248.5H447c79.3-0.2,151-75.5,154.7-173
			l4.6-74.4C606.4,397.1,612.9,115.8,466.6,115.8"/>
		<path class="st2" d="M331.1,442c9.8,0,17.6-9.7,17.6-21.6V411c0-11.9-7.9-21.6-17.6-21.6c-9.8,0-17.7,9.6-17.7,21.6v9.4
			C313.4,432.3,321.3,442,331.1,442"/>
		<path class="st3" d="M457.2,337.8c-11.3,14.6,4.8,26.7,35.8,27.2s57.8-2.2,66.3,3s-7.2-24.1-35.8-26.1
			C494.7,339.9,457.2,337.8,457.2,337.8"/>
		<path class="st3" d="M355.9,337.4c11.3,14.6-4.8,26.7-35.8,27.2s-57.8-2.2-66.3,3c-8.5,5.2,7.2-24.1,35.8-26.1
			C318.4,339.5,355.9,337.4,355.9,337.4"/>
	</g>
	<g>
		<path class="st2" d="M494.4,438.2c9.8,0,17.6-9.7,17.6-21.6v-9.4c0-11.9-7.9-21.6-17.6-21.6c-9.8,0-17.7,9.6-17.7,21.6v9.4
			C476.7,428.5,484.6,438.2,494.4,438.2"/>
		<path class="st0" d="M553.8,812.5c-16.8-17.4-21.6-67.3-20.7-81.5c0.9-14.2,9-57.9,26.1-40.2l12.9,13.4
			c20.7,21.6,41.3,43.2,61.7,65.2s40.7,44.1,60.8,67.5c5,5.8,10.1,11.8,15.1,18l3.8,4.8l2.7,3.4c1.1,1.4,2.2,2.9,3.3,4.4l6.5,9
			c2.1,3,3.7,6.2,5.6,9.3c3.5,6.3,5.1,12.9,6.5,19.5c0.3,1.7,1,3.4,0.9,5.1l-0.4,5.2c-0.2,3.4-0.7,6.8-1.3,10.1
			c-0.2,1.7-0.8,3.4-1.4,5.1l-1.8,5c-1.3,3.3-3.1,6.6-4.6,9.9c-1.6,3.3-3.6,6.4-5.4,9.7l-2.8,4.7l-2.2,3.6
			c-8.8,14.1-17.7,26.6-26.6,39.2c-9,12.5-18,24.6-27.1,36.7l-19.4,25.3l-69.9-54.1L595,986c8.8-11.6,17.5-23.3,25.8-34.9
			c8.3-11.6,16.6-23.4,23.5-34.4l0.8-1.2l-4-5c-4.3-5.3-8.8-10.7-13.5-16.1c-18.6-21.6-38.5-43.3-58.5-64.8s17.8,17.5-2.6-3.8
			L553.8,812.5z"/>
		<path class="st0" d="M251.5,698.4c6.1-7,13.8-12.9,22.8-16.4c8.9-3.5,28.2,32.7,13.3,104.9c-15,72.3-36.5,274.8-26.3,299.9
			l-88.3-2.4l1.1-32c2.3-54.3,6.3-108.6,14-163.5c3.9-27.4,8.8-55,15.7-83c3.5-14,7.6-28.1,12.7-42.4c5.1-14.3,11.3-28.9,20.1-43.9
			C240.9,712.6,245.4,705.5,251.5,698.4"/>
		<path class="st4" d="M420.8,589.4c-50.5,2.5-70.8-19.4-71.7-20.4c-2.8-3.3-3-8.6-0.4-12c2.6-3.3,6.9-3.4,9.7-0.2
			c0.4,0.5,17.8,19.5,61.1,15.7c25.3-2.2,40.5-9.6,40.6-9.8c4.3-2.9,6.7-4,9.7-1s3.5,8.2,1.2,11.8
			C470.5,574.6,450.9,587.9,420.8,589.4"/>
	</g>
	<g>
		<path class="st3" d="M625.6,207.3c3.6-1.4,12.6,20.9,16.2,22.5c2.7-40.5-20.2-54.5-17.4-59.2c2.4-4,3.8-8.4,1.8-12.6
			c-16.2-34.2-43.2-77.6-63-84.1c-7.5-2.5-35.2-9.5-35.2-9.5c-23.6-21.5-63.8-32.3-95.5-36.2c3.2,4.4,7.1,8.3,11.5,11.6
			c-5.2,0.7-10.6-0.3-15.2-2.9c-0.4,2.9-0.9,5.8-1.3,8.8c-24.4-1.8-48.2-11.5-66.9-27.3c1.7,7.6,4.7,14.9,8.8,21.5
			c-4.4-0.7-8.8-1.4-13.2-2.1c2.4,3.5,4.8,7,7.2,10.4c-56.2-7.9-61,14.1-88.3,19.6c9,1.9,24.9-0.6,30.6,1.7
			c-94.8,16.6-129.9,89.6-149.8,96.1c9.4,0.9,16.8-0.5,22.9-2.7c6.5-3.9,7.9-2.9,0,0c-10.8,6.5-21.8,13.1-26,13.4
			c3.9,2.4,35.8-8.5,39.7-6.1c-12.9,5.3-53.3,18.9-67.2,19.9c10.5,9.7,45.6-1.4,56.1,8.3c-13.3-1.1-61.1,15.4-66.9,15.9
			c4.4,6.7,27.1,38.6,42.7,48.1l-25.4-4c11.3,10.2,32.5,35,59.9,51.7c2.3,28.5,14.2,97.6,21,126.6c0.1,26.6,17.3,81.9,17.3,81.9
			c34.3,127,128.4,131.3,140.8,135.4c19.1,6.4,68.6,4.1,84.1,0.7c5.3-1.2,152.4-34,151.6-212.5c0.5-5.9,25.6-101.1,21.8-144.7
			l14.9,1.4C652.7,234.6,628.1,213.2,625.6,207.3z M541.6,554.5c-12.5,20.1-52.1,79.8-95.6,88.8c-13.6,2.8-9.6-25.4-14.3-27.4
			c-2.5-1.1-20.2-1.4-22.9-1.4c-4,0-4,27.8-16.7,28.4c-32.6,1.7-73.4-53.9-98.8-81.5c-25.4-27.7-50.1,0-74.5-138.7
			c-0.8,0-2.4-28.6-1.7-29.4c1.1-1.2,3.6-10,4.5-13.4c4.8-17.8,8.7-35.9,11.9-54.1c1.9,0.3,3.8,0.6,5.8,0.7
			c-3.8,1,92-9.7,137.2-34.8c-3.1,6.3-15.4,13.6-15.4,13.6s78.6-23.6,100.1-56.4c-1.1,3.9-2.3,7.8-3.4,11.7
			c30-18.8,49.1-49.1,63-82.3c4.7,25.7,27.1,55.9,47.7,68.5c0.1-4.1-10.4-18-10.3-22.1c9.8,15.2,27,49.4,33.3,66.4
			c2.4-1.8,10.8,87.6,13.8,130C602,507.6,553.6,535.2,541.6,554.5z"/>
	</g>
</g>
</svg>
