<?xml version="1.0" encoding="utf-8"?>
<!-- Generator: Adobe Illustrator 21.0.2, SVG Export Plug-In . SVG Version: 6.00 Build 0)  -->
<svg version="1.1" id="Ebene_1" xmlns="http://www.w3.org/2000/svg" xmlns:xlink="http://www.w3.org/1999/xlink" x="0px" y="0px"
	 viewBox="0 0 800 800" style="enable-background:new 0 0 800 800;" xml:space="preserve">
<style type="text/css">
	.st0{fill:#3A2C21;}
	.st1{fill:#E7D5C1;}
	.st2{fill:#2D1C0E;}
	.st3{fill:#7C6755;}
	.st4{fill:#1D1D1B;}
	.st5{fill:#272726;}
	.st6{fill:#51402E;}
	.st7{fill:#4F3A2F;}
</style>
<polygon class="st0" points="252,679.6 575.1,681.8 621.8,504.6 206.5,501.7 "/>
<path class="st1" d="M468,61.8H352.9c-157,0-159.3,311.8-159.3,311.8s14,252.4,180.3,276.6H447c99.6,0,166-86.2,166-192.5l5-82.8
	C618,374.9,625,61.8,468,61.8"/>
<g>
	<g>
		<path class="st2" d="M493.2,417.7c11.2,0,20.1-9.6,20.1-21.4V387c0-11.8-9-21.4-20.1-21.4c-11.2,0-20.3,9.5-20.3,21.4v9.3
			C472.9,408.1,482,417.7,493.2,417.7"/>
		<path class="st2" d="M325.6,417.7c11.2,0,20.1-9.6,20.1-21.4V387c0-11.8-9-21.4-20.1-21.4c-11.2,0-20.3,9.5-20.3,21.4v9.3
			C305.3,408.1,314.4,417.7,325.6,417.7"/>
	</g>
</g>
<path class="st3" d="M369.4,301.9c12.8,13.7-3.6,32.1-36.3,29.1c-35.4-3.3-61.3,1.5-70,7.1c-8.7,5.7,5.8-31.2,36-34.9
	C329.5,299.4,369.4,301.9,369.4,301.9"/>
<g>
	<path class="st1" d="M668.1,411.4c0,24.7-20,44.8-44.8,44.8c-24.7,0-44.8-20-44.8-44.8c0-24.7,20-44.8,44.8-44.8
		C648,366.6,668.1,386.7,668.1,411.4"/>
	<path class="st4" d="M555.6,691.1c-33.5-7.5-85.3-16.5-139.1-16.5c-53.9,0-105.8,9.1-139.5,16.6c-21.2,4.7-49,14.4-49,49.1
		l-19.7,275.3h330l55.6-275.3C593.7,718.5,576.8,695.8,555.6,691.1"/>
	<path class="st1" d="M486.6,637.7l5.4,45.1c0,0-3.6,19.9-72.9,19.9s-82.3-19.9-82.3-19.9l5.4-45.2H486.6z"/>
	<path class="st5" d="M254.6,843.5c14-23.6,22.9-73.7,18.2-89.1c-4.8-15.4-25.1-61.3-39.2-37.4l-10.7,18.2
		c-17.1,29.1-11.2,17.5-27.9,47c-16.7,29.6-33.2,59.2-49.2,90.1c-4,7.8-8,15.7-11.9,23.8l-2.9,6.3l-2,4.4c-0.8,1.8-1.6,3.7-2.4,5.7
		l-4.8,11.6c-1.5,3.9-2.4,7.8-3.7,11.7c-2.2,7.8-2.2,15.5-2.1,23.2c0.2,1.9-0.2,4,0.3,5.9l1.8,5.6c1.1,3.7,2.5,7.3,4.1,10.8
		c0.6,1.8,1.8,3.5,2.9,5.2l3.3,5c2.4,3.3,5.1,6.5,7.6,9.7c2.6,3.2,5.6,6.1,8.5,9.2l4.3,4.5l3.4,3.3c13.4,13.2,26.4,24.6,39.6,36.1
		c13.1,11.4,26.3,22.4,39.5,33.2l27.9,22.8l50.6-56.2l-27.1-22c-12.7-10.5-25.3-21-37.6-31.6c-12.2-10.6-24.3-21.4-34.8-31.7
		l-1.2-1.2l-13.7-12.5c3.4-7,19-35.7,22.7-42.9C232.5,883.4,254.6,843.5,254.6,843.5"/>
	<path class="st5" d="M533.8,839c-6.4-26.7-0.2-77.2,8.8-90.5c9.1-13.3,42-51.3,48.5-24.3l4.9,20.5c7.8,32.9,5.6,20,12.9,53.1
		c7.3,33.2,14.4,66.3,20.6,100.6c1.6,8.6,3,17.3,4.4,26.2l1,6.8l0.7,4.8c0.3,2,0.5,4,0.6,6.1l1.1,12.5c0.3,4.1,0,8.2,0.1,12.3
		c-0.2,8.1-2.5,15.5-4.8,22.8c-0.7,1.8-0.9,3.8-2,5.5l-3.3,4.8c-2.1,3.2-4.6,6.2-7.1,9.1c-1.1,1.6-2.7,2.8-4.3,4.1l-4.6,3.9
		c-3.2,2.5-6.8,4.7-10.1,7c-3.4,2.3-7.2,4.2-10.8,6.3l-5.4,3l-4.2,2.2c-16.7,8.7-32.5,15.8-48.4,22.9c-15.9,7-31.7,13.6-47.5,20.1
		l-33.4,13.5l-31.8-68.6l32.4-13.1c15.2-6.3,30.4-12.6,45.2-19.2c14.7-6.5,29.6-13.3,42.6-20.1l1.5-0.7L558,963
		c-1.2-7.7-7.6-39.7-9.1-47.7C543.2,883.5,533.8,839,533.8,839"/>
	<path class="st6" d="M625.6,151.1c-33-47.5-63.1-86.8-140.1-103.9S214,42.7,166.8,194.4c-35.1,113.1,37.8,260.6-40.3,434.5
		c0,0,126.3,66.7,125.6,47.9c-0.5-11.7-35.7-185.2-46.1-253.1c-3.7-24,2.3-29.4,18.1-47.5c72.6-83.1,269.1-189.6,283-208.8
		c16,18,96.9,66.7,99.8,233.2c-1.5,135-49,276.7-49,276.7c5.4,32.8,137.1-104.8,141.1-134.1C712.2,444.4,658.6,198.6,625.6,151.1z"
		/>
	<path class="st1" d="M264.3,421.6c0,24.7-20,44.8-44.7,44.8c-24.7,0-44.8-20-44.8-44.8c0-24.7,20.1-44.8,44.8-44.8
		C244.2,376.9,264.3,396.9,264.3,421.6"/>
</g>
<g>
	<path class="st3" d="M387.5,608.2c-31.2,1.7-53.8-18.4-72.9-56c-19.2-37.6-101.5-86.4-101.5-86.4c9.9,170.8,114.4,207.5,158.8,213
		c44.3,5.5,65.7,4.1,80.6,0.7c5.1-1.2,143.4-6.2,150.5-209.5c0,0-85.2,63.1-96.7,82.2c-12,19.9-25.4,45.5-67.1,54.4
		c-13,2.8-17.2-1.5-28.7-1.5S387.5,608.2,387.5,608.2z"/>
</g>
<path class="st3" d="M455.8,301.7c-12.4,13.6,3.1,32.1,34.3,29.3c33.8-3,58.5,1.8,66.7,7.6c8.2,5.7-5.2-31.2-33.9-35.2
	C494,299.5,455.8,301.7,455.8,301.7"/>
<path class="st7" d="M408.6,590.6c-12.2-1.3-25.7-5.2-40-13.1c-4.8-2.6-6.6-8.9-4-14c2.6-5.1,8.5-7,13.3-4.4
	c44.5,24.7,78.5,1.5,79.9,0.5c4.5-3.2,10.6-2,13.6,2.7c3,4.7,1.8,11.2-2.7,14.4C467.4,577.7,443.4,594.5,408.6,590.6z"/>
</svg>
