<?xml version="1.0" encoding="UTF-8" standalone="no"?>
<!-- Created with Inkscape (http://www.inkscape.org/) -->

<svg
   xmlns:dc="http://purl.org/dc/elements/1.1/"
   xmlns:cc="http://creativecommons.org/ns#"
   xmlns:rdf="http://www.w3.org/1999/02/22-rdf-syntax-ns#"
   xmlns:svg="http://www.w3.org/2000/svg"
   xmlns="http://www.w3.org/2000/svg"
   xmlns:sodipodi="http://sodipodi.sourceforge.net/DTD/sodipodi-0.dtd"
   xmlns:inkscape="http://www.inkscape.org/namespaces/inkscape"
   width="320"
   height="320"
   viewBox="0 0 300.00001 300.00001"
   id="svg4313"
   version="1.1"
   inkscape:version="0.92.0 unknown"
   sodipodi:docname="placeholder.svg">
  <defs
     id="defs4315">
    <clipPath
       clipPathUnits="userSpaceOnUse"
       id="clipPath540">
      <path
         d="m 320.82,594.574 c 0,-47.423 42.68,-85.872 95.33,-85.872 v 0 c 52.647,0 95.328,38.449 95.328,85.872 v 0 c 0,47.427 -42.681,85.876 -95.328,85.876 v 0 c -52.65,0 -95.33,-38.449 -95.33,-85.876"
         id="path542"
         inkscape:connector-curvature="0" />
    </clipPath>
  </defs>
  <sodipodi:namedview
     id="base"
     pagecolor="#1e88e5"
     bordercolor="#666666"
     borderopacity="1.0"
     inkscape:pageopacity="1"
     inkscape:pageshadow="2"
     inkscape:zoom="0.98994949"
     inkscape:cx="-10.994085"
     inkscape:cy="-67.120244"
     inkscape:document-units="px"
     inkscape:current-layer="layer1"
     showgrid="false"
     units="px"
     inkscape:window-width="1920"
     inkscape:window-height="1016"
     inkscape:window-x="0"
     inkscape:window-y="27"
     inkscape:window-maximized="1" />
  <metadata
     id="metadata4318">
    <rdf:RDF>
      <cc:Work
         rdf:about="">
        <dc:format>image/svg+xml</dc:format>
        <dc:type
           rdf:resource="http://purl.org/dc/dcmitype/StillImage" />
        <dc:title />
      </cc:Work>
    </rdf:RDF>
  </metadata>
  <g
     inkscape:label="Ebene 1"
     inkscape:groupmode="layer"
     id="layer1"
     transform="translate(0,-752.36208)">
    <g
       transform="matrix(2.3630209,0,0,-2.3630209,-836.08812,2363.8772)"
       id="g536">
      <g
         id="g538"
         clip-path="url(#clipPath540)">
        <g
           id="g544"
           transform="translate(448.2148,632.5044)">
          <path
             d="m 0,0 11.666,-78.66 -87.922,2.666 15.333,82.327 z"
             style="fill:#231f20;fill-opacity:1;fill-rule:nonzero;stroke:none"
             id="path546"
             inkscape:connector-curvature="0" />
        </g>
        <g
           id="g548"
           transform="translate(372.3896,516.8604)">
          <path
             d="m 0,0 c 0,2.596 -0.085,5.566 -0.177,8.71 -0.386,13.263 -0.869,29.763 4.538,37.231 3.184,4.403 12.286,13.167 26.183,18.075 l 0.338,0.121 0.119,-0.132 c 2.842,4.289 4.283,9.422 4.283,15.256 v 2.21 H 54.77 v -2.21 c 0,-5.891 1.426,-11.033 4.249,-15.293 l 0.149,0.169 0.34,-0.121 C 73.401,59.108 82.505,50.348 85.693,45.941 91.098,38.473 90.616,21.974 90.23,8.715 90.139,5.57 90.053,2.596 90.053,0 V -0.956 H 0 Z"
             style="fill:#e9d2bb;fill-opacity:1;fill-rule:nonzero;stroke:none"
             id="path550"
             inkscape:connector-curvature="0" />
        </g>
        <g
           id="g552"
           transform="translate(364.7764,516.1982)">
          <path
             d="m 0,0 c 0,2.596 -0.096,5.566 -0.201,8.71 -0.44,13.263 -0.99,29.763 5.171,37.231 3.628,4.403 14.001,13.167 29.834,18.075 l 0.385,0.121 16.292,-27.256 16.291,24.855 0.036,2.28 C 83.639,59.108 94.012,50.348 97.645,45.941 103.803,38.473 103.254,21.974 102.814,8.715 102.71,5.57 102.611,2.596 102.611,0 V -13.385 H 0 Z"
             style="fill:#efe8e6;fill-opacity:1;fill-rule:nonzero;stroke:none"
             id="path554"
             inkscape:connector-curvature="0" />
        </g>
        <g
           id="g556"
           transform="translate(430.9707,581.6641)">
          <path
             d="m 0,0 c 0,0 19.618,-55.899 1.285,-72.899 38.333,6.666 39.333,13 39.333,13 0,0 14.43,50.132 -40.618,59.899"
             style="fill:#69003e;fill-opacity:1;fill-rule:nonzero;stroke:none"
             id="path558"
             inkscape:connector-curvature="0" />
        </g>
        <g
           id="g560"
           transform="translate(403.6289,581.354)">
          <path
             d="m 0,0 c 0,0 -19.618,-55.899 -1.285,-72.899 -38.333,6.666 -39.333,13 -39.333,13 0,0 -14.43,50.132 40.618,59.899"
             style="fill:#69003e;fill-opacity:1;fill-rule:nonzero;stroke:none"
             id="path562"
             inkscape:connector-curvature="0" />
        </g>
        <g
           id="g564"
           transform="translate(386.1758,611.3828)">
          <path
             d="m 0,0 c -3.192,-0.394 -5.731,3.093 -5.731,7.499 0,3.006 1.241,5.653 3.144,6.84 -0.005,0.222 -0.008,0.441 -0.008,0.661 0,18.52 13.199,30.968 32.843,30.968 19.644,0 32.844,-12.448 32.844,-30.968 0,-0.212 -0.007,-0.427 -0.011,-0.674 1.896,-1.194 3.127,-3.837 3.127,-6.827 0,-4.394 -2.528,-7.852 -5.716,-7.503 C 55.966,-13.273 44.73,-27.219 30.248,-27.219 15.765,-27.219 4.531,-13.273 0,0"
             style="fill:#ffe5cb;fill-opacity:1;fill-rule:nonzero;stroke:none"
             id="path566"
             inkscape:connector-curvature="0" />
        </g>
        <g
           id="g568"
           transform="translate(380.7813,634.166)">
          <path
             d="M 0,0 C 3.47,25.558 11.787,35.983 36.248,35.983 56.414,35.983 67.809,25.558 71.278,0 75.632,-32.036 69.119,12.655 35.641,9.224 -3.881,12.905 -4.35,-32.036 0,0"
             style="fill:#231f20;fill-opacity:1;fill-rule:nonzero;stroke:none"
             id="path570"
             inkscape:connector-curvature="0" />
        </g>
        <g
           id="g572"
           transform="translate(408.5488,646.6108)">
          <path
             d="m 0,0 c 0,0 -17.67,9.738 -23.148,0.21 -5.75,-10 -1,-15.5 -5.409,-20.768 0,0 8.869,-0.324 18.617,7.12 C 0.594,-5.396 0,0 0,0"
             style="fill:#231f20;fill-opacity:1;fill-rule:nonzero;stroke:none"
             id="path574"
             inkscape:connector-curvature="0" />
        </g>
        <g
           id="g576"
           transform="translate(421.0137,645.0967)">
          <path
             d="m 0,0 c 0,0 16.426,11.123 21.848,1.563 5.431,-9.56 0.03,-16.262 8.482,-19.401 0,0 -8.801,-1.141 -19.193,5.373 C -0.093,-5.427 0,0 0,0"
             style="fill:#231f20;fill-opacity:1;fill-rule:nonzero;stroke:none"
             id="path578"
             inkscape:connector-curvature="0" />
        </g>
        <g
           id="g580"
           transform="translate(404.5137,645.3467)">
          <path
             d="m 0,0 c 0,0 16.426,11.123 21.848,1.563 5.431,-9.56 0.03,-16.262 8.482,-19.401 0,0 -8.801,-1.141 -19.193,5.373 C -0.093,-5.427 0,0 0,0"
             style="fill:#231f20;fill-opacity:1;fill-rule:nonzero;stroke:none"
             id="path582"
             inkscape:connector-curvature="0" />
        </g>
        <g
           id="g584"
           transform="translate(387.2637,645.8467)">
          <path
             d="m 0,0 c 0,0 16.426,11.123 21.848,1.563 5.431,-9.56 0.03,-16.262 8.482,-19.401 0,0 -8.801,-1.141 -19.193,5.373 C -0.093,-5.427 0,0 0,0"
             style="fill:#231f20;fill-opacity:1;fill-rule:nonzero;stroke:none"
             id="path586"
             inkscape:connector-curvature="0" />
        </g>
        <g
           id="g588"
           transform="translate(444.082,621.4458)">
          <path
             d="m 0,0 c -1.299,-4.994 -0.305,-9.573 2.216,-10.229 2.523,-0.656 5.619,2.861 6.917,7.855 C 10.431,2.621 9.438,7.201 6.916,7.856 4.395,8.511 1.297,4.995 0,0"
             style="fill:#ffe5cb;fill-opacity:1;fill-rule:nonzero;stroke:none"
             id="path590"
             inkscape:connector-curvature="0" />
        </g>
        <g
           id="g592"
           transform="translate(388.3369,621.4302)">
          <path
             d="m 0,0 c -1.074,5.047 -4.012,8.699 -6.56,8.156 -2.55,-0.542 -3.745,-5.073 -2.67,-10.119 1.073,-5.048 4.01,-8.7 6.558,-8.157 C -0.123,-9.577 1.073,-5.047 0,0"
             style="fill:#ffe5cb;fill-opacity:1;fill-rule:nonzero;stroke:none"
             id="path594"
             inkscape:connector-curvature="0" />
        </g>
      </g>
    </g>
  </g>
</svg>
