<?xml version="1.0" encoding="UTF-8" standalone="no"?>
<svg
   xmlns:dc="http://purl.org/dc/elements/1.1/"
   xmlns:cc="http://creativecommons.org/ns#"
   xmlns:rdf="http://www.w3.org/1999/02/22-rdf-syntax-ns#"
   xmlns:svg="http://www.w3.org/2000/svg"
   xmlns="http://www.w3.org/2000/svg"
   xmlns:sodipodi="http://sodipodi.sourceforge.net/DTD/sodipodi-0.dtd"
   xmlns:inkscape="http://www.inkscape.org/namespaces/inkscape"
   version="1.1"
   id="Ebene_1"
   inkscape:export-xdpi="96"
   inkscape:export-ydpi="96"
   inkscape:version="1.0.1 (0767f8302a, 2020-10-17)"
   sodipodi:docname="artandcodestudio-white.svg"
   x="0px"
   y="0px"
   viewBox="0 0 650.4 83"
   style="enable-background:new 0 0 650.4 83;"
   xml:space="preserve"><metadata
   id="metadata52"><rdf:RDF><cc:Work
       rdf:about=""><dc:format>image/svg+xml</dc:format><dc:type
         rdf:resource="http://purl.org/dc/dcmitype/StillImage" /><dc:title></dc:title></cc:Work></rdf:RDF></metadata><defs
   id="defs50" />
<style
   type="text/css"
   id="style2">
	.st0{fill:#1D1D1B;}
</style>
<sodipodi:namedview
   bordercolor="#666666"
   borderopacity="1"
   gridtolerance="10"
   guidetolerance="10"
   id="namedview29"
   inkscape:current-layer="Ebene_1"
   inkscape:cx="208.70354"
   inkscape:cy="-170.58222"
   inkscape:document-rotation="0"
   inkscape:pageopacity="0"
   inkscape:pageshadow="2"
   inkscape:window-height="1403"
   inkscape:window-maximized="1"
   inkscape:window-width="2560"
   inkscape:window-x="0"
   inkscape:window-y="0"
   inkscape:zoom="0.65296158"
   objecttolerance="10"
   pagecolor="#000000"
   showgrid="false">
	</sodipodi:namedview>
<g
   id="g26"
   style="fill:#ffffff">
	<g
   id="g10"
   style="fill:#ffffff">
		<g
   id="g8"
   style="fill:#ffffff">
			<path
   id="path2"
   class="st0"
   d="M604.7,57.6c-2.3-1.9-3.8-4.2-4.7-6.9s-1.3-5.8-1.3-9.2c0-2.3,0.3-4.6,0.8-6.7     c0.5-2.1,1.3-4.2,2.4-6c1.1-1.9,2.6-3.4,4.6-4.5s4.2-1.7,6.8-1.7c3.5,0,6.3,0.9,8.6,2.8s3.8,4.2,4.7,6.9s1.3,5.8,1.3,9.2     c0,2.3-0.3,4.6-0.8,6.7c-0.5,2.2-1.3,4.2-2.4,6c-1.1,1.9-2.6,3.4-4.6,4.5s-4.2,1.7-6.8,1.7C609.8,60.4,606.9,59.5,604.7,57.6      M628.5,57c1.5-2.3,2.5-4.7,3.2-7.3s1-5.3,1-8.3c0-2.9-0.3-5.7-1-8.3s-1.8-5-3.2-7.3c-1.5-2.3-3.5-4-6.1-5.4     c-2.6-1.3-5.7-2-9.2-2s-6.6,0.7-9.2,2c-2.6,1.3-4.6,3.1-6.1,5.4s-2.5,4.7-3.2,7.3s-1,5.3-1,8.3c0,2.9,0.3,5.7,1,8.3     s1.8,5,3.2,7.3c1.5,2.3,3.5,4,6.1,5.4c2.6,1.3,5.7,2,9.2,2s6.6-0.7,9.2-2C625.1,61.1,627.1,59.3,628.5,57 M582.8,19.4h-4.7v44.2     h4.7V19.4z M538.2,59.6V23.3h8.6c5.2,0,9.1,1.8,11.7,5.3c2.6,3.5,3.9,7.8,3.9,12.9c0,2.3-0.3,4.5-0.8,6.5s-1.4,3.9-2.6,5.8     c-1.2,1.8-2.9,3.2-5.1,4.3c-2.2,1.1-4.8,1.6-7.9,1.6L538.2,59.6L538.2,59.6L538.2,59.6z M533.5,63.6h12.3c3.3,0,6.2-0.4,8.8-1.3     c2.6-0.9,4.6-2.1,6.2-3.5c1.6-1.5,2.9-3.2,3.9-5.1c1-2,1.8-3.9,2.2-5.9s0.6-4.1,0.6-6.2c0-2.9-0.4-5.6-1.1-8.1     c-0.8-2.5-1.9-4.9-3.5-7s-3.8-3.9-6.7-5.1c-2.9-1.3-6.2-1.9-10.1-1.9h-12.5v44.1H533.5z M520.8,47.2V19.4h-4.7v27.8     c0,8.8-3.8,13.2-11.5,13.2c-7.6,0-11.5-4.4-11.5-13.2V19.4h-4.7v27.8c0,11.5,5.4,17.2,16.2,17.2     C515.4,64.4,520.8,58.7,520.8,47.2 M479.3,23.6v-4.2h-30.7v4.2h13v40h4.7v-40C466.3,23.6,479.3,23.6,479.3,23.6z M437.6,61.1     c2.7-2.2,4.1-5.2,4.1-9c0-2-0.4-3.8-1.2-5.4c-0.8-1.6-1.9-3-3.3-4.1s-2.8-2.1-4.3-2.8c-1.4-0.7-3-1.4-4.9-2.1     c-1.7-0.6-3.1-1.2-4.1-1.6c-1.1-0.5-2.2-1.1-3.3-1.8c-1.1-0.7-2-1.5-2.6-2.4s-0.8-1.9-0.8-3c0-1.9,0.8-3.4,2.4-4.6     c1.6-1.1,3.7-1.7,6.5-1.7c2.2,0,4.1,0.4,5.7,1.3c1.6,0.8,2.6,1.9,3.3,3.2l4.4-1.4c-0.7-2.1-2.2-3.8-4.5-5.1c-2.3-1.3-5.2-2-8.6-2     c-4.2,0-7.6,1-10.1,3s-3.8,4.4-3.8,7.3c0,1.7,0.4,3.3,1.1,4.7c0.8,1.4,1.9,2.7,3.3,3.7c1.5,1,2.9,1.9,4.3,2.6s3.1,1.3,5,2     c3.2,1.1,5.8,2.5,7.8,4.1c1.9,1.6,2.9,3.7,2.9,6.2c0,2.6-0.9,4.6-2.7,6c-1.8,1.4-4.2,2.1-7.3,2.1c-2.6,0-4.9-0.6-6.9-1.8     s-3.5-2.8-4.5-4.7l-4.5,1.5c1,2.5,2.9,4.7,5.7,6.4c2.8,1.7,6.2,2.6,10,2.6C431.3,64.4,434.9,63.3,437.6,61.1"
   style="fill:#ffffff" />
			<path
   id="path4"
   class="st0"
   d="M386.3,63.6v-7.1h-24.2V44.3h14v-7.1h-14V26.5h22.7v-7.1H354v44.2H386.3z M315.8,56.5v-30h8.1     c4.2,0,7.4,1.5,9.5,4.4c2.2,2.9,3.2,6.5,3.2,10.6c0,1.9-0.2,3.6-0.7,5.3s-1.2,3.3-2.2,4.8s-2.4,2.7-4.3,3.6     c-1.8,0.9-3.9,1.3-6.3,1.3C323.1,56.5,315.8,56.5,315.8,56.5z M307.7,63.6H322c3.3,0,6.3-0.4,9-1.3c2.7-0.9,4.9-2.1,6.6-3.5     c1.7-1.5,3.1-3.2,4.3-5.1c1.1-2,2-4,2.4-6c0.5-2,0.7-4.1,0.7-6.2c0-2.3-0.3-4.5-0.8-6.5c-0.5-2.1-1.3-4.1-2.5-6     c-1.1-1.9-2.6-3.6-4.3-5c-1.7-1.4-3.9-2.5-6.5-3.4c-2.6-0.8-5.5-1.3-8.7-1.3h-14.5V63.6z M272.1,55.7c-1.6-0.9-2.9-2.2-3.8-3.7     c-0.9-1.6-1.6-3.2-2.1-5c-0.4-1.8-0.7-3.6-0.7-5.5c0-2.5,0.4-4.9,1.1-7.1c0.7-2.2,2.1-4.2,4-5.9c1.9-1.7,4.3-2.6,7.2-2.6     c2.2,0,4.1,0.5,5.8,1.4c1.6,0.9,2.9,2.2,3.8,3.7c0.9,1.6,1.6,3.2,2.1,5c0.4,1.8,0.7,3.6,0.7,5.5c0,1.8-0.2,3.6-0.7,5.3     c-0.4,1.8-1.1,3.4-2.1,5c-0.9,1.6-2.2,2.9-3.9,3.8c-1.7,1-3.6,1.5-5.7,1.5C275.7,57.1,273.7,56.7,272.1,55.7 M287.5,62.4     c2.8-1.3,4.9-3.1,6.5-5.4c1.6-2.3,2.7-4.7,3.5-7.3s1.1-5.4,1.1-8.2c0-2.9-0.4-5.6-1.1-8.2c-0.8-2.6-1.9-5-3.5-7.3s-3.7-4-6.5-5.4     c-2.8-1.3-6-2-9.6-2c-2.9,0-5.6,0.4-8,1.3s-4.4,2.1-5.9,3.6c-1.6,1.5-2.9,3.2-3.9,5.2c-1.1,2-1.8,4-2.3,6.2     c-0.4,2.1-0.7,4.3-0.7,6.6s0.2,4.5,0.7,6.6c0.4,2.1,1.2,4.2,2.3,6.2s2.4,3.7,3.9,5.2c1.6,1.5,3.5,2.7,5.9,3.6s5,1.3,8,1.3     C281.5,64.4,284.7,63.7,287.5,62.4 M251.4,54l-7.5-2.7c-2.4,3.8-5.4,5.7-9,5.7c-3.7,0-6.5-1.6-8.5-4.7c-2-3.1-2.9-6.7-2.9-10.9     c0-1.9,0.2-3.7,0.6-5.4c0.4-1.8,1-3.4,1.8-5s2-2.8,3.6-3.8c1.6-0.9,3.4-1.4,5.4-1.4c2.1,0,3.9,0.4,5.2,1.3c1.4,0.8,2.7,2.2,3.9,4     l7.3-3.1c-1.1-2.6-3.1-4.8-5.9-6.7c-2.8-1.8-6.3-2.8-10.5-2.8c-3.5,0-6.5,0.7-9.2,2.1s-4.7,3.3-6.2,5.6s-2.6,4.7-3.3,7.3     s-1.1,5.2-1.1,7.9c0,2.3,0.2,4.5,0.6,6.6c0.4,2.1,1.1,4.2,2.1,6.2s2.2,3.8,3.7,5.3s3.3,2.7,5.6,3.5c2.3,0.9,4.9,1.3,7.7,1.3     C242.6,64.4,248.2,60.9,251.4,54"
   style="fill:#ffffff" />
			<path
   id="path6"
   class="st0"
   d="M145.8,27.4v-7.3h-34.9v7.3h13.4v37h8.1v-37C132.4,27.4,145.8,27.4,145.8,27.4z M76.4,27.3h13     c2.5,0,4.3,0.6,5.4,1.8c1.1,1.2,1.6,2.7,1.6,4.5s-0.6,3.3-1.7,4.5s-2.9,1.8-5.3,1.8h-13V27.3z M76.4,64.4V47.1h9.9l9.1,17.3h9.1     l-9.4-18.2c3.1-0.9,5.6-2.5,7.2-4.9c1.7-2.4,2.5-5,2.5-7.7c0-3.9-1.2-7.1-3.7-9.7c-2.5-2.5-6.4-3.8-11.8-3.8h-21v44.3     C68.3,64.4,76.4,64.4,76.4,64.4z M32.5,47.9l5.3-13.3c0.7-1.8,1.2-3.3,1.6-4.5c0.4,1.4,0.9,2.9,1.6,4.5l5.2,13.3H32.5z      M60.9,64.4L43.3,20.1h-8L17.7,64.4h8.6l3.7-9.7h18.7l3.7,9.7H60.9z"
   style="fill:#ffffff" />
		</g>
	</g>
</g>
<g
   id="g47"
   style="fill:#ffffff">
	<polygon
   class="st0"
   points="164.5,18.5 164.5,23.1 169.1,23.1 173.7,23.1 173.7,18.5  "
   id="polygon11"
   style="fill:#ffffff" />
	<rect
   x="159.9"
   y="23.1"
   class="st0"
   width="4.6"
   height="4.6"
   id="rect13"
   style="fill:#ffffff" />
	<polygon
   class="st0"
   points="155.3,32.4 155.3,37 155.3,41.6 159.9,41.6 159.9,37 159.9,32.4 159.9,27.7 155.3,27.7  "
   id="polygon15"
   style="fill:#ffffff" />
	<rect
   x="159.9"
   y="41.6"
   class="st0"
   width="4.6"
   height="4.6"
   id="rect17"
   style="fill:#ffffff" />
	<rect
   x="196.7"
   y="23.1"
   class="st0"
   width="4.6"
   height="4.6"
   id="rect19"
   style="fill:#ffffff" />
	<polygon
   class="st0"
   points="196.7,23.1 196.7,18.5 187.5,18.5 187.5,23.1 192.1,23.1  "
   id="polygon21"
   style="fill:#ffffff" />
	<rect
   x="182.9"
   y="23.1"
   class="st0"
   width="4.6"
   height="4.6"
   id="rect23"
   style="fill:#ffffff" />
	<rect
   x="178.3"
   y="27.7"
   class="st0"
   width="4.6"
   height="4.6"
   id="rect25"
   style="fill:#ffffff" />
	<rect
   x="173.7"
   y="23.1"
   class="st0"
   width="4.6"
   height="4.6"
   id="rect27"
   style="fill:#ffffff" />
	<rect
   x="192.1"
   y="46.2"
   class="st0"
   width="4.6"
   height="4.6"
   id="rect29"
   style="fill:#ffffff" />
	<rect
   x="196.7"
   y="41.6"
   class="st0"
   width="4.6"
   height="4.6"
   id="rect31"
   style="fill:#ffffff" />
	<rect
   x="178.3"
   y="60"
   class="st0"
   width="4.6"
   height="4.6"
   id="rect33"
   style="fill:#ffffff" />
	<polygon
   class="st0"
   points="201.3,27.7 201.3,32.4 201.3,37 201.3,41.6 206,41.6 206,27.7  "
   id="polygon35"
   style="fill:#ffffff" />
	<rect
   x="187.5"
   y="50.8"
   class="st0"
   width="4.6"
   height="4.6"
   id="rect37"
   style="fill:#ffffff" />
	<rect
   x="182.9"
   y="55.4"
   class="st0"
   width="4.6"
   height="4.6"
   id="rect39"
   style="fill:#ffffff" />
	<rect
   x="164.5"
   y="46.2"
   class="st0"
   width="4.6"
   height="4.6"
   id="rect41"
   style="fill:#ffffff" />
	<rect
   x="169.1"
   y="50.8"
   class="st0"
   width="4.6"
   height="4.6"
   id="rect43"
   style="fill:#ffffff" />
	<rect
   x="173.7"
   y="55.4"
   class="st0"
   width="4.6"
   height="4.6"
   id="rect45"
   style="fill:#ffffff" />
</g>
</svg>
