<?xml version="1.0" encoding="UTF-8" standalone="no"?>
<!-- Created with Inkscape (http://www.inkscape.org/) -->

<svg
   xmlns:dc="http://purl.org/dc/elements/1.1/"
   xmlns:cc="http://creativecommons.org/ns#"
   xmlns:rdf="http://www.w3.org/1999/02/22-rdf-syntax-ns#"
   xmlns:svg="http://www.w3.org/2000/svg"
   xmlns="http://www.w3.org/2000/svg"
   xmlns:sodipodi="http://sodipodi.sourceforge.net/DTD/sodipodi-0.dtd"
   xmlns:inkscape="http://www.inkscape.org/namespaces/inkscape"
   width="150"
   height="150"
   viewBox="0 0 150 150"
   id="svg3361"
   version="1.1"
   inkscape:version="0.91 r13725"
   sodipodi:docname="october.svg">
  <defs
     id="defs3363" />
  <sodipodi:namedview
     id="base"
     pagecolor="#ffffff"
     bordercolor="#666666"
     borderopacity="1.0"
     inkscape:pageopacity="0.0"
     inkscape:pageshadow="2"
     inkscape:zoom="0.7"
     inkscape:cx="-89.761802"
     inkscape:cy="254.08266"
     inkscape:document-units="px"
     inkscape:current-layer="layer1"
     showgrid="false"
     units="px"
     inkscape:window-width="1440"
     inkscape:window-height="836"
     inkscape:window-x="0"
     inkscape:window-y="151"
     inkscape:window-maximized="1" />
  <metadata
     id="metadata3366">
    <rdf:RDF>
      <cc:Work
         rdf:about="">
        <dc:format>image/svg+xml</dc:format>
        <dc:type
           rdf:resource="http://purl.org/dc/dcmitype/StillImage" />
        <dc:title></dc:title>
      </cc:Work>
    </rdf:RDF>
  </metadata>
  <g
     inkscape:label="Layer 1"
     inkscape:groupmode="layer"
     id="layer1"
     transform="translate(0,-902.36216)">
    <path
       inkscape:connector-curvature="0"
       style="fill:#db6b26"
       d="m 121.99687,974.75427 c -1.97311,-31.76693 -37.048531,-59.25524 -51.49806,-59.56058 -14.453394,-0.30534 -41.470166,33.33614 -42.562046,67.51874 -1.024241,32.05097 26.703703,54.02967 38.642875,56.82027 0.332395,-15.0815 1.555687,-70.60115 1.760535,-77.07706 0.430954,-13.2301 1.088014,-33.81348 3.329749,-34.49952 1.285133,-0.39231 3.036005,11.17968 2.821494,18.01891 -0.04445,1.30445 -0.05991,5.5309 -0.05991,11.52947 2.417595,-2.42532 4.943412,-4.94341 6.477841,-6.43146 4.207119,-4.0757 6.06814,-3.59064 4.050584,0.0444 -1.242617,2.23594 -6.586063,9.67811 -10.514897,15.06987 0.02319,10.87435 0.0715,24.56053 0.123682,37.31524 5.548294,-6.40442 12.341132,-14.08623 15.908583,-17.50294 7.482757,-7.15616 8.278959,-6.25173 4.744361,1.25808 -2.170231,4.60522 -12.781749,16.88256 -20.616226,26.56646 0.04831,11.315 0.08696,20.8289 0.09663,25.3722 21.008531,-4.5549 49.225407,-33.253 47.294807,-64.44213"
       id="path20" />
  </g>
</svg>
